<?xml version="1.0" encoding="utf-8" standalone="no"?>
<!DOCTYPE svg PUBLIC "-//W3C//DTD SVG 1.1//EN"
  "http://www.w3.org/Graphics/SVG/1.1/DTD/svg11.dtd">
<svg xmlns:xlink="http://www.w3.org/1999/xlink" width="640.37125pt" height="207.851562pt" viewBox="0 0 640.37125 207.851562" xmlns="http://www.w3.org/2000/svg" version="1.1">
 <metadata>
  <rdf:RDF xmlns:dc="http://purl.org/dc/elements/1.1/" xmlns:cc="http://creativecommons.org/ns#" xmlns:rdf="http://www.w3.org/1999/02/22-rdf-syntax-ns#">
   <cc:Work>
    <dc:type rdf:resource="http://purl.org/dc/dcmitype/StillImage"/>
    <dc:date>2024-09-04T17:42:35.103914</dc:date>
    <dc:format>image/svg+xml</dc:format>
    <dc:creator>
     <cc:Agent>
      <dc:title>Matplotlib v3.8.4, https://matplotlib.org/</dc:title>
     </cc:Agent>
    </dc:creator>
   </cc:Work>
  </rdf:RDF>
 </metadata>
 <defs>
  <style type="text/css">*{stroke-linejoin: round; stroke-linecap: butt}</style>
 </defs>
 <g id="figure_1">
  <g id="patch_1">
   <path d="M 0 207.851562 
L 640.37125 207.851562 
L 640.37125 0 
L 0 0 
z
" style="fill: #ffffff"/>
  </g>
  <g id="axes_1">
   <g id="patch_2">
    <path d="M 43.78125 170.017187 
L 202.79125 170.017187 
L 202.79125 20.798437 
L 43.78125 20.798437 
z
" style="fill: #ffffff"/>
   </g>
   <g id="matplotlib.axis_1">
    <g id="xtick_1">
     <g id="line2d_1">
      <defs>
       <path id="m75302780b6" d="M 0 0 
L 0 3.5 
" style="stroke: #000000; stroke-width: 0.8"/>
      </defs>
      <g>
       <use xlink:href="#m75302780b6" x="51.008977" y="170.017187" style="stroke: #000000; stroke-width: 0.8"/>
      </g>
     </g>
     <g id="text_1">
      <!-- 0.000 -->
      <g transform="translate(36.694915 184.615625) scale(0.1 -0.1)">
       <defs>
        <path id="DejaVuSans-30" d="M 2034 4250 
Q 1547 4250 1301 3770 
Q 1056 3291 1056 2328 
Q 1056 1369 1301 889 
Q 1547 409 2034 409 
Q 2525 409 2770 889 
Q 3016 1369 3016 2328 
Q 3016 3291 2770 3770 
Q 2525 4250 2034 4250 
z
M 2034 4750 
Q 2819 4750 3233 4129 
Q 3647 3509 3647 2328 
Q 3647 1150 3233 529 
Q 2819 -91 2034 -91 
Q 1250 -91 836 529 
Q 422 1150 422 2328 
Q 422 3509 836 4129 
Q 1250 4750 2034 4750 
z
" transform="scale(0.015625)"/>
        <path id="DejaVuSans-2e" d="M 684 794 
L 1344 794 
L 1344 0 
L 684 0 
L 684 794 
z
" transform="scale(0.015625)"/>
       </defs>
       <use xlink:href="#DejaVuSans-30"/>
       <use xlink:href="#DejaVuSans-2e" x="63.623047"/>
       <use xlink:href="#DejaVuSans-30" x="95.410156"/>
       <use xlink:href="#DejaVuSans-30" x="159.033203"/>
       <use xlink:href="#DejaVuSans-30" x="222.65625"/>
      </g>
     </g>
    </g>
    <g id="xtick_2">
     <g id="line2d_2">
      <g>
       <use xlink:href="#m75302780b6" x="85.470366" y="170.017187" style="stroke: #000000; stroke-width: 0.8"/>
      </g>
     </g>
     <g id="text_2">
      <!-- 0.025 -->
      <g transform="translate(71.156303 184.615625) scale(0.1 -0.1)">
       <defs>
        <path id="DejaVuSans-32" d="M 1228 531 
L 3431 531 
L 3431 0 
L 469 0 
L 469 531 
Q 828 903 1448 1529 
Q 2069 2156 2228 2338 
Q 2531 2678 2651 2914 
Q 2772 3150 2772 3378 
Q 2772 3750 2511 3984 
Q 2250 4219 1831 4219 
Q 1534 4219 1204 4116 
Q 875 4013 500 3803 
L 500 4441 
Q 881 4594 1212 4672 
Q 1544 4750 1819 4750 
Q 2544 4750 2975 4387 
Q 3406 4025 3406 3419 
Q 3406 3131 3298 2873 
Q 3191 2616 2906 2266 
Q 2828 2175 2409 1742 
Q 1991 1309 1228 531 
z
" transform="scale(0.015625)"/>
        <path id="DejaVuSans-35" d="M 691 4666 
L 3169 4666 
L 3169 4134 
L 1269 4134 
L 1269 2991 
Q 1406 3038 1543 3061 
Q 1681 3084 1819 3084 
Q 2600 3084 3056 2656 
Q 3513 2228 3513 1497 
Q 3513 744 3044 326 
Q 2575 -91 1722 -91 
Q 1428 -91 1123 -41 
Q 819 9 494 109 
L 494 744 
Q 775 591 1075 516 
Q 1375 441 1709 441 
Q 2250 441 2565 725 
Q 2881 1009 2881 1497 
Q 2881 1984 2565 2268 
Q 2250 2553 1709 2553 
Q 1456 2553 1204 2497 
Q 953 2441 691 2322 
L 691 4666 
z
" transform="scale(0.015625)"/>
       </defs>
       <use xlink:href="#DejaVuSans-30"/>
       <use xlink:href="#DejaVuSans-2e" x="63.623047"/>
       <use xlink:href="#DejaVuSans-30" x="95.410156"/>
       <use xlink:href="#DejaVuSans-32" x="159.033203"/>
       <use xlink:href="#DejaVuSans-35" x="222.65625"/>
      </g>
     </g>
    </g>
    <g id="xtick_3">
     <g id="line2d_3">
      <g>
       <use xlink:href="#m75302780b6" x="119.931755" y="170.017187" style="stroke: #000000; stroke-width: 0.8"/>
      </g>
     </g>
     <g id="text_3">
      <!-- 0.050 -->
      <g transform="translate(105.617692 184.615625) scale(0.1 -0.1)">
       <use xlink:href="#DejaVuSans-30"/>
       <use xlink:href="#DejaVuSans-2e" x="63.623047"/>
       <use xlink:href="#DejaVuSans-30" x="95.410156"/>
       <use xlink:href="#DejaVuSans-35" x="159.033203"/>
       <use xlink:href="#DejaVuSans-30" x="222.65625"/>
      </g>
     </g>
    </g>
    <g id="xtick_4">
     <g id="line2d_4">
      <g>
       <use xlink:href="#m75302780b6" x="154.393143" y="170.017187" style="stroke: #000000; stroke-width: 0.8"/>
      </g>
     </g>
     <g id="text_4">
      <!-- 0.075 -->
      <g transform="translate(140.079081 184.615625) scale(0.1 -0.1)">
       <defs>
        <path id="DejaVuSans-37" d="M 525 4666 
L 3525 4666 
L 3525 4397 
L 1831 0 
L 1172 0 
L 2766 4134 
L 525 4134 
L 525 4666 
z
" transform="scale(0.015625)"/>
       </defs>
       <use xlink:href="#DejaVuSans-30"/>
       <use xlink:href="#DejaVuSans-2e" x="63.623047"/>
       <use xlink:href="#DejaVuSans-30" x="95.410156"/>
       <use xlink:href="#DejaVuSans-37" x="159.033203"/>
       <use xlink:href="#DejaVuSans-35" x="222.65625"/>
      </g>
     </g>
    </g>
    <g id="xtick_5">
     <g id="line2d_5">
      <g>
       <use xlink:href="#m75302780b6" x="188.854532" y="170.017187" style="stroke: #000000; stroke-width: 0.8"/>
      </g>
     </g>
     <g id="text_5">
      <!-- 0.100 -->
      <g transform="translate(174.540469 184.615625) scale(0.1 -0.1)">
       <defs>
        <path id="DejaVuSans-31" d="M 794 531 
L 1825 531 
L 1825 4091 
L 703 3866 
L 703 4441 
L 1819 4666 
L 2450 4666 
L 2450 531 
L 3481 531 
L 3481 0 
L 794 0 
L 794 531 
z
" transform="scale(0.015625)"/>
       </defs>
       <use xlink:href="#DejaVuSans-30"/>
       <use xlink:href="#DejaVuSans-2e" x="63.623047"/>
       <use xlink:href="#DejaVuSans-31" x="95.410156"/>
       <use xlink:href="#DejaVuSans-30" x="159.033203"/>
       <use xlink:href="#DejaVuSans-30" x="222.65625"/>
      </g>
     </g>
    </g>
    <g id="text_6">
     <!-- false_pos -->
     <g transform="translate(100.053438 198.29375) scale(0.1 -0.1)">
      <defs>
       <path id="DejaVuSans-66" d="M 2375 4863 
L 2375 4384 
L 1825 4384 
Q 1516 4384 1395 4259 
Q 1275 4134 1275 3809 
L 1275 3500 
L 2222 3500 
L 2222 3053 
L 1275 3053 
L 1275 0 
L 697 0 
L 697 3053 
L 147 3053 
L 147 3500 
L 697 3500 
L 697 3744 
Q 697 4328 969 4595 
Q 1241 4863 1831 4863 
L 2375 4863 
z
" transform="scale(0.015625)"/>
       <path id="DejaVuSans-61" d="M 2194 1759 
Q 1497 1759 1228 1600 
Q 959 1441 959 1056 
Q 959 750 1161 570 
Q 1363 391 1709 391 
Q 2188 391 2477 730 
Q 2766 1069 2766 1631 
L 2766 1759 
L 2194 1759 
z
M 3341 1997 
L 3341 0 
L 2766 0 
L 2766 531 
Q 2569 213 2275 61 
Q 1981 -91 1556 -91 
Q 1019 -91 701 211 
Q 384 513 384 1019 
Q 384 1609 779 1909 
Q 1175 2209 1959 2209 
L 2766 2209 
L 2766 2266 
Q 2766 2663 2505 2880 
Q 2244 3097 1772 3097 
Q 1472 3097 1187 3025 
Q 903 2953 641 2809 
L 641 3341 
Q 956 3463 1253 3523 
Q 1550 3584 1831 3584 
Q 2591 3584 2966 3190 
Q 3341 2797 3341 1997 
z
" transform="scale(0.015625)"/>
       <path id="DejaVuSans-6c" d="M 603 4863 
L 1178 4863 
L 1178 0 
L 603 0 
L 603 4863 
z
" transform="scale(0.015625)"/>
       <path id="DejaVuSans-73" d="M 2834 3397 
L 2834 2853 
Q 2591 2978 2328 3040 
Q 2066 3103 1784 3103 
Q 1356 3103 1142 2972 
Q 928 2841 928 2578 
Q 928 2378 1081 2264 
Q 1234 2150 1697 2047 
L 1894 2003 
Q 2506 1872 2764 1633 
Q 3022 1394 3022 966 
Q 3022 478 2636 193 
Q 2250 -91 1575 -91 
Q 1294 -91 989 -36 
Q 684 19 347 128 
L 347 722 
Q 666 556 975 473 
Q 1284 391 1588 391 
Q 1994 391 2212 530 
Q 2431 669 2431 922 
Q 2431 1156 2273 1281 
Q 2116 1406 1581 1522 
L 1381 1569 
Q 847 1681 609 1914 
Q 372 2147 372 2553 
Q 372 3047 722 3315 
Q 1072 3584 1716 3584 
Q 2034 3584 2315 3537 
Q 2597 3491 2834 3397 
z
" transform="scale(0.015625)"/>
       <path id="DejaVuSans-65" d="M 3597 1894 
L 3597 1613 
L 953 1613 
Q 991 1019 1311 708 
Q 1631 397 2203 397 
Q 2534 397 2845 478 
Q 3156 559 3463 722 
L 3463 178 
Q 3153 47 2828 -22 
Q 2503 -91 2169 -91 
Q 1331 -91 842 396 
Q 353 884 353 1716 
Q 353 2575 817 3079 
Q 1281 3584 2069 3584 
Q 2775 3584 3186 3129 
Q 3597 2675 3597 1894 
z
M 3022 2063 
Q 3016 2534 2758 2815 
Q 2500 3097 2075 3097 
Q 1594 3097 1305 2825 
Q 1016 2553 972 2059 
L 3022 2063 
z
" transform="scale(0.015625)"/>
       <path id="DejaVuSans-5f" d="M 3263 -1063 
L 3263 -1509 
L -63 -1509 
L -63 -1063 
L 3263 -1063 
z
" transform="scale(0.015625)"/>
       <path id="DejaVuSans-70" d="M 1159 525 
L 1159 -1331 
L 581 -1331 
L 581 3500 
L 1159 3500 
L 1159 2969 
Q 1341 3281 1617 3432 
Q 1894 3584 2278 3584 
Q 2916 3584 3314 3078 
Q 3713 2572 3713 1747 
Q 3713 922 3314 415 
Q 2916 -91 2278 -91 
Q 1894 -91 1617 61 
Q 1341 213 1159 525 
z
M 3116 1747 
Q 3116 2381 2855 2742 
Q 2594 3103 2138 3103 
Q 1681 3103 1420 2742 
Q 1159 2381 1159 1747 
Q 1159 1113 1420 752 
Q 1681 391 2138 391 
Q 2594 391 2855 752 
Q 3116 1113 3116 1747 
z
" transform="scale(0.015625)"/>
       <path id="DejaVuSans-6f" d="M 1959 3097 
Q 1497 3097 1228 2736 
Q 959 2375 959 1747 
Q 959 1119 1226 758 
Q 1494 397 1959 397 
Q 2419 397 2687 759 
Q 2956 1122 2956 1747 
Q 2956 2369 2687 2733 
Q 2419 3097 1959 3097 
z
M 1959 3584 
Q 2709 3584 3137 3096 
Q 3566 2609 3566 1747 
Q 3566 888 3137 398 
Q 2709 -91 1959 -91 
Q 1206 -91 779 398 
Q 353 888 353 1747 
Q 353 2609 779 3096 
Q 1206 3584 1959 3584 
z
" transform="scale(0.015625)"/>
      </defs>
      <use xlink:href="#DejaVuSans-66"/>
      <use xlink:href="#DejaVuSans-61" x="35.205078"/>
      <use xlink:href="#DejaVuSans-6c" x="96.484375"/>
      <use xlink:href="#DejaVuSans-73" x="124.267578"/>
      <use xlink:href="#DejaVuSans-65" x="176.367188"/>
      <use xlink:href="#DejaVuSans-5f" x="237.890625"/>
      <use xlink:href="#DejaVuSans-70" x="287.890625"/>
      <use xlink:href="#DejaVuSans-6f" x="351.367188"/>
      <use xlink:href="#DejaVuSans-73" x="412.548828"/>
     </g>
    </g>
   </g>
   <g id="matplotlib.axis_2">
    <g id="ytick_1">
     <g id="line2d_6">
      <defs>
       <path id="m136ac2726d" d="M 0 0 
L -3.5 0 
" style="stroke: #000000; stroke-width: 0.8"/>
      </defs>
      <g>
       <use xlink:href="#m136ac2726d" x="43.78125" y="163.234517" style="stroke: #000000; stroke-width: 0.8"/>
      </g>
     </g>
     <g id="text_7">
      <!-- 0.0 -->
      <g transform="translate(20.878125 167.033736) scale(0.1 -0.1)">
       <use xlink:href="#DejaVuSans-30"/>
       <use xlink:href="#DejaVuSans-2e" x="63.623047"/>
       <use xlink:href="#DejaVuSans-30" x="95.410156"/>
      </g>
     </g>
    </g>
    <g id="ytick_2">
     <g id="line2d_7">
      <g>
       <use xlink:href="#m136ac2726d" x="43.78125" y="129.321165" style="stroke: #000000; stroke-width: 0.8"/>
      </g>
     </g>
     <g id="text_8">
      <!-- 0.1 -->
      <g transform="translate(20.878125 133.120384) scale(0.1 -0.1)">
       <use xlink:href="#DejaVuSans-30"/>
       <use xlink:href="#DejaVuSans-2e" x="63.623047"/>
       <use xlink:href="#DejaVuSans-31" x="95.410156"/>
      </g>
     </g>
    </g>
    <g id="ytick_3">
     <g id="line2d_8">
      <g>
       <use xlink:href="#m136ac2726d" x="43.78125" y="95.407812" style="stroke: #000000; stroke-width: 0.8"/>
      </g>
     </g>
     <g id="text_9">
      <!-- 0.2 -->
      <g transform="translate(20.878125 99.207031) scale(0.1 -0.1)">
       <use xlink:href="#DejaVuSans-30"/>
       <use xlink:href="#DejaVuSans-2e" x="63.623047"/>
       <use xlink:href="#DejaVuSans-32" x="95.410156"/>
      </g>
     </g>
    </g>
    <g id="ytick_4">
     <g id="line2d_9">
      <g>
       <use xlink:href="#m136ac2726d" x="43.78125" y="61.49446" style="stroke: #000000; stroke-width: 0.8"/>
      </g>
     </g>
     <g id="text_10">
      <!-- 0.3 -->
      <g transform="translate(20.878125 65.293679) scale(0.1 -0.1)">
       <defs>
        <path id="DejaVuSans-33" d="M 2597 2516 
Q 3050 2419 3304 2112 
Q 3559 1806 3559 1356 
Q 3559 666 3084 287 
Q 2609 -91 1734 -91 
Q 1441 -91 1130 -33 
Q 819 25 488 141 
L 488 750 
Q 750 597 1062 519 
Q 1375 441 1716 441 
Q 2309 441 2620 675 
Q 2931 909 2931 1356 
Q 2931 1769 2642 2001 
Q 2353 2234 1838 2234 
L 1294 2234 
L 1294 2753 
L 1863 2753 
Q 2328 2753 2575 2939 
Q 2822 3125 2822 3475 
Q 2822 3834 2567 4026 
Q 2313 4219 1838 4219 
Q 1578 4219 1281 4162 
Q 984 4106 628 3988 
L 628 4550 
Q 988 4650 1302 4700 
Q 1616 4750 1894 4750 
Q 2613 4750 3031 4423 
Q 3450 4097 3450 3541 
Q 3450 3153 3228 2886 
Q 3006 2619 2597 2516 
z
" transform="scale(0.015625)"/>
       </defs>
       <use xlink:href="#DejaVuSans-30"/>
       <use xlink:href="#DejaVuSans-2e" x="63.623047"/>
       <use xlink:href="#DejaVuSans-33" x="95.410156"/>
      </g>
     </g>
    </g>
    <g id="ytick_5">
     <g id="line2d_10">
      <g>
       <use xlink:href="#m136ac2726d" x="43.78125" y="27.581108" style="stroke: #000000; stroke-width: 0.8"/>
      </g>
     </g>
     <g id="text_11">
      <!-- 0.4 -->
      <g transform="translate(20.878125 31.380327) scale(0.1 -0.1)">
       <defs>
        <path id="DejaVuSans-34" d="M 2419 4116 
L 825 1625 
L 2419 1625 
L 2419 4116 
z
M 2253 4666 
L 3047 4666 
L 3047 1625 
L 3713 1625 
L 3713 1100 
L 3047 1100 
L 3047 0 
L 2419 0 
L 2419 1100 
L 313 1100 
L 313 1709 
L 2253 4666 
z
" transform="scale(0.015625)"/>
       </defs>
       <use xlink:href="#DejaVuSans-30"/>
       <use xlink:href="#DejaVuSans-2e" x="63.623047"/>
       <use xlink:href="#DejaVuSans-34" x="95.410156"/>
      </g>
     </g>
    </g>
    <g id="text_12">
     <!-- true_pos -->
     <g transform="translate(14.520313 117.007031) rotate(-90) scale(0.1 -0.1)">
      <defs>
       <path id="DejaVuSans-74" d="M 1172 4494 
L 1172 3500 
L 2356 3500 
L 2356 3053 
L 1172 3053 
L 1172 1153 
Q 1172 725 1289 603 
Q 1406 481 1766 481 
L 2356 481 
L 2356 0 
L 1766 0 
Q 1100 0 847 248 
Q 594 497 594 1153 
L 594 3053 
L 172 3053 
L 172 3500 
L 594 3500 
L 594 4494 
L 1172 4494 
z
" transform="scale(0.015625)"/>
       <path id="DejaVuSans-72" d="M 2631 2963 
Q 2534 3019 2420 3045 
Q 2306 3072 2169 3072 
Q 1681 3072 1420 2755 
Q 1159 2438 1159 1844 
L 1159 0 
L 581 0 
L 581 3500 
L 1159 3500 
L 1159 2956 
Q 1341 3275 1631 3429 
Q 1922 3584 2338 3584 
Q 2397 3584 2469 3576 
Q 2541 3569 2628 3553 
L 2631 2963 
z
" transform="scale(0.015625)"/>
       <path id="DejaVuSans-75" d="M 544 1381 
L 544 3500 
L 1119 3500 
L 1119 1403 
Q 1119 906 1312 657 
Q 1506 409 1894 409 
Q 2359 409 2629 706 
Q 2900 1003 2900 1516 
L 2900 3500 
L 3475 3500 
L 3475 0 
L 2900 0 
L 2900 538 
Q 2691 219 2414 64 
Q 2138 -91 1772 -91 
Q 1169 -91 856 284 
Q 544 659 544 1381 
z
M 1991 3584 
L 1991 3584 
z
" transform="scale(0.015625)"/>
      </defs>
      <use xlink:href="#DejaVuSans-74"/>
      <use xlink:href="#DejaVuSans-72" x="39.208984"/>
      <use xlink:href="#DejaVuSans-75" x="80.322266"/>
      <use xlink:href="#DejaVuSans-65" x="143.701172"/>
      <use xlink:href="#DejaVuSans-5f" x="205.224609"/>
      <use xlink:href="#DejaVuSans-70" x="255.224609"/>
      <use xlink:href="#DejaVuSans-6f" x="318.701172"/>
      <use xlink:href="#DejaVuSans-73" x="379.882812"/>
     </g>
    </g>
   </g>
   <g id="line2d_11">
    <path d="M 51.700626 163.234517 
L 82.133162 163.234517 
L 82.133162 163.234517 
L 82.133162 114.786871 
L 82.133162 114.786871 
L 195.563523 114.786871 
L 195.563523 114.786871 
" clip-path="url(#p2e22f06736)" style="fill: none; stroke: #1f77b4; stroke-opacity: 0.8; stroke-linecap: square"/>
   </g>
   <g id="line2d_12">
    <path d="M 51.008977 106.712263 
L 170.604168 106.712263 
L 170.604168 106.712263 
L 170.604168 50.190009 
L 170.604168 50.190009 
L 191.343218 50.190009 
L 191.343218 50.190009 
" clip-path="url(#p2e22f06736)" style="fill: none; stroke: #ff7f0e; stroke-opacity: 0.8; stroke-linecap: square"/>
   </g>
   <g id="line2d_13">
    <path d="M 51.69855 163.234517 
L 191.681779 163.234517 
L 191.681779 163.234517 
" clip-path="url(#p2e22f06736)" style="fill: none; stroke: #2ca02c; stroke-opacity: 0.8; stroke-linecap: square"/>
   </g>
   <g id="line2d_14">
    <path d="M 51.69855 163.234517 
L 188.923489 163.234517 
L 188.923489 163.234517 
" clip-path="url(#p2e22f06736)" style="fill: none; stroke: #d62728; stroke-opacity: 0.8; stroke-linecap: square"/>
   </g>
   <g id="line2d_15">
    <path d="M 51.699932 163.234517 
L 82.792915 163.234517 
L 82.792915 95.407812 
L 82.792915 95.407812 
L 104.212525 95.407812 
L 104.212525 95.407812 
L 104.212525 27.581108 
L 169.16231 27.581108 
L 169.16231 27.581108 
" clip-path="url(#p2e22f06736)" style="fill: none; stroke: #9467bd; stroke-opacity: 0.8; stroke-linecap: square"/>
   </g>
   <g id="line2d_16">
    <path d="M 52.392274 163.234517 
L 57.233814 163.234517 
L 57.233814 163.234517 
L 57.233814 114.786871 
L 57.233814 114.786871 
L 172.047472 114.786871 
L 172.047472 114.786871 
" clip-path="url(#p2e22f06736)" style="fill: none; stroke: #8c564b; stroke-opacity: 0.8; stroke-linecap: square"/>
   </g>
   <g id="line2d_17">
    <path d="M 51.700626 163.234517 
L 51.700626 114.786871 
L 51.700626 114.786871 
L 147.148125 114.786871 
L 147.148125 66.339225 
L 173.430769 66.339225 
L 173.430769 66.339225 
" clip-path="url(#p2e22f06736)" style="fill: none; stroke: #e377c2; stroke-opacity: 0.8; stroke-linecap: square"/>
   </g>
   <g id="line2d_18">
    <path d="M 51.702365 163.234517 
L 61.409799 163.234517 
L 61.409799 163.234517 
L 61.409799 134.97339 
L 61.409799 134.97339 
L 176.512224 134.97339 
L 176.512224 134.97339 
" clip-path="url(#p2e22f06736)" style="fill: none; stroke: #7f7f7f; stroke-opacity: 0.8; stroke-linecap: square"/>
   </g>
   <g id="line2d_19">
    <path d="M 51.699932 163.234517 
L 191.96383 163.234517 
L 191.96383 163.234517 
" clip-path="url(#p2e22f06736)" style="fill: none; stroke: #bcbd22; stroke-opacity: 0.8; stroke-linecap: square"/>
   </g>
   <g id="line2d_20"/>
   <g id="line2d_21"/>
   <g id="line2d_22"/>
   <g id="line2d_23"/>
   <g id="line2d_24"/>
   <g id="line2d_25"/>
   <g id="line2d_26"/>
   <g id="line2d_27"/>
   <g id="line2d_28"/>
   <g id="PathCollection_1">
    <defs>
     <path id="C0_0_9903cf2aef" d="M -1.767767 3.535534 
L 0 1.767767 
L 1.767767 3.535534 
L 3.535534 1.767767 
L 1.767767 -0 
L 3.535534 -1.767767 
L 1.767767 -3.535534 
L 0 -1.767767 
L -1.767767 -3.535534 
L -3.535534 -1.767767 
L -1.767767 0 
L -3.535534 1.767767 
z
"/>
    </defs>
    <g clip-path="url(#p2e22f06736)">
     <use xlink:href="#C0_0_9903cf2aef" x="153.372962" y="114.786871" style="fill: #1f77b4; stroke: #ffffff; stroke-width: 0.565685"/>
    </g>
    <g clip-path="url(#p2e22f06736)">
     <use xlink:href="#C0_0_9903cf2aef" x="119.447843" y="106.712263" style="fill: #ff7f0e; stroke: #ffffff; stroke-width: 0.565685"/>
    </g>
    <g clip-path="url(#p2e22f06736)">
     <use xlink:href="#C0_0_9903cf2aef" x="124.793241" y="163.234517" style="fill: #2ca02c; stroke: #ffffff; stroke-width: 0.565685"/>
    </g>
    <g clip-path="url(#p2e22f06736)">
     <use xlink:href="#C0_0_9903cf2aef" x="144.790845" y="163.234517" style="fill: #d62728; stroke: #ffffff; stroke-width: 0.565685"/>
    </g>
    <g clip-path="url(#p2e22f06736)">
     <use xlink:href="#C0_0_9903cf2aef" x="126.32309" y="27.581108" style="fill: #9467bd; stroke: #ffffff; stroke-width: 0.565685"/>
    </g>
    <g clip-path="url(#p2e22f06736)">
     <use xlink:href="#C0_0_9903cf2aef" x="113.257346" y="114.786871" style="fill: #8c564b; stroke: #ffffff; stroke-width: 0.565685"/>
    </g>
    <g clip-path="url(#p2e22f06736)">
     <use xlink:href="#C0_0_9903cf2aef" x="89.741296" y="114.786871" style="fill: #e377c2; stroke: #ffffff; stroke-width: 0.565685"/>
    </g>
    <g clip-path="url(#p2e22f06736)">
     <use xlink:href="#C0_0_9903cf2aef" x="117.574235" y="134.97339" style="fill: #7f7f7f; stroke: #ffffff; stroke-width: 0.565685"/>
    </g>
    <g clip-path="url(#p2e22f06736)">
     <use xlink:href="#C0_0_9903cf2aef" x="120.795449" y="163.234517" style="fill: #bcbd22; stroke: #ffffff; stroke-width: 0.565685"/>
    </g>
   </g>
   <g id="line2d_29"/>
   <g id="line2d_30"/>
   <g id="line2d_31"/>
   <g id="line2d_32"/>
   <g id="line2d_33"/>
   <g id="line2d_34"/>
   <g id="line2d_35"/>
   <g id="line2d_36"/>
   <g id="line2d_37"/>
   <g id="patch_3">
    <path d="M 43.78125 170.017187 
L 43.78125 20.798437 
" style="fill: none; stroke: #000000; stroke-width: 0.8; stroke-linejoin: miter; stroke-linecap: square"/>
   </g>
   <g id="patch_4">
    <path d="M 43.78125 170.017187 
L 202.79125 170.017187 
" style="fill: none; stroke: #000000; stroke-width: 0.8; stroke-linejoin: miter; stroke-linecap: square"/>
   </g>
   <g id="text_13">
    <!-- dataset = org -->
    <g transform="translate(88.812812 14.798437) scale(0.1 -0.1)">
     <defs>
      <path id="DejaVuSans-64" d="M 2906 2969 
L 2906 4863 
L 3481 4863 
L 3481 0 
L 2906 0 
L 2906 525 
Q 2725 213 2448 61 
Q 2172 -91 1784 -91 
Q 1150 -91 751 415 
Q 353 922 353 1747 
Q 353 2572 751 3078 
Q 1150 3584 1784 3584 
Q 2172 3584 2448 3432 
Q 2725 3281 2906 2969 
z
M 947 1747 
Q 947 1113 1208 752 
Q 1469 391 1925 391 
Q 2381 391 2643 752 
Q 2906 1113 2906 1747 
Q 2906 2381 2643 2742 
Q 2381 3103 1925 3103 
Q 1469 3103 1208 2742 
Q 947 2381 947 1747 
z
" transform="scale(0.015625)"/>
      <path id="DejaVuSans-20" transform="scale(0.015625)"/>
      <path id="DejaVuSans-3d" d="M 678 2906 
L 4684 2906 
L 4684 2381 
L 678 2381 
L 678 2906 
z
M 678 1631 
L 4684 1631 
L 4684 1100 
L 678 1100 
L 678 1631 
z
" transform="scale(0.015625)"/>
      <path id="DejaVuSans-67" d="M 2906 1791 
Q 2906 2416 2648 2759 
Q 2391 3103 1925 3103 
Q 1463 3103 1205 2759 
Q 947 2416 947 1791 
Q 947 1169 1205 825 
Q 1463 481 1925 481 
Q 2391 481 2648 825 
Q 2906 1169 2906 1791 
z
M 3481 434 
Q 3481 -459 3084 -895 
Q 2688 -1331 1869 -1331 
Q 1566 -1331 1297 -1286 
Q 1028 -1241 775 -1147 
L 775 -588 
Q 1028 -725 1275 -790 
Q 1522 -856 1778 -856 
Q 2344 -856 2625 -561 
Q 2906 -266 2906 331 
L 2906 616 
Q 2728 306 2450 153 
Q 2172 0 1784 0 
Q 1141 0 747 490 
Q 353 981 353 1791 
Q 353 2603 747 3093 
Q 1141 3584 1784 3584 
Q 2172 3584 2450 3431 
Q 2728 3278 2906 2969 
L 2906 3500 
L 3481 3500 
L 3481 434 
z
" transform="scale(0.015625)"/>
     </defs>
     <use xlink:href="#DejaVuSans-64"/>
     <use xlink:href="#DejaVuSans-61" x="63.476562"/>
     <use xlink:href="#DejaVuSans-74" x="124.755859"/>
     <use xlink:href="#DejaVuSans-61" x="163.964844"/>
     <use xlink:href="#DejaVuSans-73" x="225.244141"/>
     <use xlink:href="#DejaVuSans-65" x="277.34375"/>
     <use xlink:href="#DejaVuSans-74" x="338.867188"/>
     <use xlink:href="#DejaVuSans-20" x="378.076172"/>
     <use xlink:href="#DejaVuSans-3d" x="409.863281"/>
     <use xlink:href="#DejaVuSans-20" x="493.652344"/>
     <use xlink:href="#DejaVuSans-6f" x="525.439453"/>
     <use xlink:href="#DejaVuSans-72" x="586.621094"/>
     <use xlink:href="#DejaVuSans-67" x="625.984375"/>
    </g>
   </g>
  </g>
  <g id="axes_2">
   <g id="patch_5">
    <path d="M 258.97125 170.017187 
L 417.98125 170.017187 
L 417.98125 20.798437 
L 258.97125 20.798437 
z
" style="fill: #ffffff"/>
   </g>
   <g id="matplotlib.axis_3">
    <g id="xtick_6">
     <g id="line2d_38">
      <g>
       <use xlink:href="#m75302780b6" x="266.198977" y="170.017187" style="stroke: #000000; stroke-width: 0.8"/>
      </g>
     </g>
     <g id="text_14">
      <!-- 0.000 -->
      <g transform="translate(251.884915 184.615625) scale(0.1 -0.1)">
       <use xlink:href="#DejaVuSans-30"/>
       <use xlink:href="#DejaVuSans-2e" x="63.623047"/>
       <use xlink:href="#DejaVuSans-30" x="95.410156"/>
       <use xlink:href="#DejaVuSans-30" x="159.033203"/>
       <use xlink:href="#DejaVuSans-30" x="222.65625"/>
      </g>
     </g>
    </g>
    <g id="xtick_7">
     <g id="line2d_39">
      <g>
       <use xlink:href="#m75302780b6" x="300.355252" y="170.017187" style="stroke: #000000; stroke-width: 0.8"/>
      </g>
     </g>
     <g id="text_15">
      <!-- 0.025 -->
      <g transform="translate(286.041189 184.615625) scale(0.1 -0.1)">
       <use xlink:href="#DejaVuSans-30"/>
       <use xlink:href="#DejaVuSans-2e" x="63.623047"/>
       <use xlink:href="#DejaVuSans-30" x="95.410156"/>
       <use xlink:href="#DejaVuSans-32" x="159.033203"/>
       <use xlink:href="#DejaVuSans-35" x="222.65625"/>
      </g>
     </g>
    </g>
    <g id="xtick_8">
     <g id="line2d_40">
      <g>
       <use xlink:href="#m75302780b6" x="334.511526" y="170.017187" style="stroke: #000000; stroke-width: 0.8"/>
      </g>
     </g>
     <g id="text_16">
      <!-- 0.050 -->
      <g transform="translate(320.197463 184.615625) scale(0.1 -0.1)">
       <use xlink:href="#DejaVuSans-30"/>
       <use xlink:href="#DejaVuSans-2e" x="63.623047"/>
       <use xlink:href="#DejaVuSans-30" x="95.410156"/>
       <use xlink:href="#DejaVuSans-35" x="159.033203"/>
       <use xlink:href="#DejaVuSans-30" x="222.65625"/>
      </g>
     </g>
    </g>
    <g id="xtick_9">
     <g id="line2d_41">
      <g>
       <use xlink:href="#m75302780b6" x="368.6678" y="170.017187" style="stroke: #000000; stroke-width: 0.8"/>
      </g>
     </g>
     <g id="text_17">
      <!-- 0.075 -->
      <g transform="translate(354.353738 184.615625) scale(0.1 -0.1)">
       <use xlink:href="#DejaVuSans-30"/>
       <use xlink:href="#DejaVuSans-2e" x="63.623047"/>
       <use xlink:href="#DejaVuSans-30" x="95.410156"/>
       <use xlink:href="#DejaVuSans-37" x="159.033203"/>
       <use xlink:href="#DejaVuSans-35" x="222.65625"/>
      </g>
     </g>
    </g>
    <g id="xtick_10">
     <g id="line2d_42">
      <g>
       <use xlink:href="#m75302780b6" x="402.824074" y="170.017187" style="stroke: #000000; stroke-width: 0.8"/>
      </g>
     </g>
     <g id="text_18">
      <!-- 0.100 -->
      <g transform="translate(388.510012 184.615625) scale(0.1 -0.1)">
       <use xlink:href="#DejaVuSans-30"/>
       <use xlink:href="#DejaVuSans-2e" x="63.623047"/>
       <use xlink:href="#DejaVuSans-31" x="95.410156"/>
       <use xlink:href="#DejaVuSans-30" x="159.033203"/>
       <use xlink:href="#DejaVuSans-30" x="222.65625"/>
      </g>
     </g>
    </g>
    <g id="text_19">
     <!-- false_pos -->
     <g transform="translate(315.243437 198.29375) scale(0.1 -0.1)">
      <use xlink:href="#DejaVuSans-66"/>
      <use xlink:href="#DejaVuSans-61" x="35.205078"/>
      <use xlink:href="#DejaVuSans-6c" x="96.484375"/>
      <use xlink:href="#DejaVuSans-73" x="124.267578"/>
      <use xlink:href="#DejaVuSans-65" x="176.367188"/>
      <use xlink:href="#DejaVuSans-5f" x="237.890625"/>
      <use xlink:href="#DejaVuSans-70" x="287.890625"/>
      <use xlink:href="#DejaVuSans-6f" x="351.367188"/>
      <use xlink:href="#DejaVuSans-73" x="412.548828"/>
     </g>
    </g>
   </g>
   <g id="matplotlib.axis_4">
    <g id="ytick_6">
     <g id="line2d_43">
      <g>
       <use xlink:href="#m136ac2726d" x="258.97125" y="155.193722" style="stroke: #000000; stroke-width: 0.8"/>
      </g>
     </g>
     <g id="text_20">
      <!-- −1.0 -->
      <g transform="translate(227.688437 158.992941) scale(0.1 -0.1)">
       <defs>
        <path id="DejaVuSans-2212" d="M 678 2272 
L 4684 2272 
L 4684 1741 
L 678 1741 
L 678 2272 
z
" transform="scale(0.015625)"/>
       </defs>
       <use xlink:href="#DejaVuSans-2212"/>
       <use xlink:href="#DejaVuSans-31" x="83.789062"/>
       <use xlink:href="#DejaVuSans-2e" x="147.412109"/>
       <use xlink:href="#DejaVuSans-30" x="179.199219"/>
      </g>
     </g>
    </g>
    <g id="ytick_7">
     <g id="line2d_44">
      <g>
       <use xlink:href="#m136ac2726d" x="258.97125" y="118.340079" style="stroke: #000000; stroke-width: 0.8"/>
      </g>
     </g>
     <g id="text_21">
      <!-- −0.5 -->
      <g transform="translate(227.688437 122.139298) scale(0.1 -0.1)">
       <use xlink:href="#DejaVuSans-2212"/>
       <use xlink:href="#DejaVuSans-30" x="83.789062"/>
       <use xlink:href="#DejaVuSans-2e" x="147.412109"/>
       <use xlink:href="#DejaVuSans-35" x="179.199219"/>
      </g>
     </g>
    </g>
    <g id="ytick_8">
     <g id="line2d_45">
      <g>
       <use xlink:href="#m136ac2726d" x="258.97125" y="81.486436" style="stroke: #000000; stroke-width: 0.8"/>
      </g>
     </g>
     <g id="text_22">
      <!-- 0.0 -->
      <g transform="translate(236.068125 85.285655) scale(0.1 -0.1)">
       <use xlink:href="#DejaVuSans-30"/>
       <use xlink:href="#DejaVuSans-2e" x="63.623047"/>
       <use xlink:href="#DejaVuSans-30" x="95.410156"/>
      </g>
     </g>
    </g>
    <g id="ytick_9">
     <g id="line2d_46">
      <g>
       <use xlink:href="#m136ac2726d" x="258.97125" y="44.632793" style="stroke: #000000; stroke-width: 0.8"/>
      </g>
     </g>
     <g id="text_23">
      <!-- 0.5 -->
      <g transform="translate(236.068125 48.432012) scale(0.1 -0.1)">
       <use xlink:href="#DejaVuSans-30"/>
       <use xlink:href="#DejaVuSans-2e" x="63.623047"/>
       <use xlink:href="#DejaVuSans-35" x="95.410156"/>
      </g>
     </g>
    </g>
    <g id="text_24">
     <!-- true_pos -->
     <g transform="translate(221.330625 117.007031) rotate(-90) scale(0.1 -0.1)">
      <use xlink:href="#DejaVuSans-74"/>
      <use xlink:href="#DejaVuSans-72" x="39.208984"/>
      <use xlink:href="#DejaVuSans-75" x="80.322266"/>
      <use xlink:href="#DejaVuSans-65" x="143.701172"/>
      <use xlink:href="#DejaVuSans-5f" x="205.224609"/>
      <use xlink:href="#DejaVuSans-70" x="255.224609"/>
      <use xlink:href="#DejaVuSans-6f" x="318.701172"/>
      <use xlink:href="#DejaVuSans-73" x="379.882812"/>
     </g>
    </g>
   </g>
   <g id="line2d_47">
    <path d="M 266.198977 80.433475 
L 266.198977 79.380514 
L 266.198977 79.380514 
L 266.900698 79.380514 
L 266.900698 79.380514 
L 266.900698 77.274591 
L 266.900698 77.274591 
L 269.707583 77.274591 
L 269.707583 77.274591 
L 269.707583 76.22163 
L 269.707583 76.22163 
L 273.216188 76.22163 
L 273.216188 75.168669 
L 273.216188 75.168669 
L 274.61963 75.168669 
L 274.61963 75.168669 
L 274.61963 74.115708 
L 274.61963 74.115708 
L 278.128236 74.115708 
L 278.128236 74.115708 
L 278.128236 73.062747 
L 278.128236 73.062747 
L 280.233399 73.062747 
L 280.233399 70.956824 
L 280.233399 70.956824 
L 283.040284 70.956824 
L 283.040284 70.956824 
L 283.040284 69.903863 
L 283.040284 69.903863 
L 285.145447 69.903863 
L 285.145447 69.903863 
L 285.145447 68.850902 
L 294.969542 68.850902 
L 294.969542 68.850902 
L 294.969542 66.744979 
L 294.969542 66.744979 
L 316.021175 66.744979 
L 316.021175 65.692018 
L 316.722896 64.639057 
L 335.669366 64.639057 
L 335.669366 64.639057 
L 336.371087 63.586096 
L 336.371087 63.586096 
L 345.493461 63.586096 
L 346.195182 62.533134 
L 346.195182 62.533134 
L 353.914114 62.533134 
L 353.914114 62.533134 
L 354.615835 61.480173 
L 358.826162 61.480173 
L 358.826162 61.480173 
L 359.527883 62.533134 
L 359.527883 61.480173 
L 360.229604 62.533134 
L 383.3864 62.533134 
L 384.088121 61.480173 
L 399.525985 61.480173 
L 400.227706 62.533134 
L 400.929427 62.533134 
L 402.33287 61.480173 
L 410.753523 61.480173 
L 410.753523 61.480173 
" clip-path="url(#p8a1d6bd50d)" style="fill: none; stroke: #1f77b4; stroke-opacity: 0.8; stroke-linecap: square"/>
   </g>
   <g id="line2d_48">
    <path d="M 266.198977 80.146304 
L 266.198977 66.744979 
L 266.198977 66.744979 
L 266.896044 66.744979 
L 266.896044 66.744979 
L 266.896044 62.724582 
L 266.896044 62.724582 
L 267.593111 62.724582 
L 267.593111 62.724582 
L 267.593111 38.602197 
L 267.593111 38.602197 
L 268.290178 39.94233 
L 268.987245 72.105509 
L 268.987245 69.425244 
L 268.987245 38.602197 
L 268.987245 38.602197 
L 269.684311 72.105509 
L 270.381378 89.527231 
L 270.381378 72.105509 
L 271.078445 96.227894 
L 271.078445 94.887761 
L 271.078445 89.527231 
L 271.078445 89.527231 
L 271.775512 113.649616 
L 271.775512 110.969351 
L 271.775512 96.227894 
L 272.472579 117.670013 
L 272.472579 114.989748 
L 272.472579 113.649616 
L 273.169645 131.071338 
L 273.169645 131.071338 
L 273.169645 117.670013 
L 273.866712 132.41147 
L 274.563779 137.772 
L 274.563779 137.772 
L 274.563779 135.091735 
L 274.563779 135.091735 
L 275.957913 143.13253 
L 275.957913 140.452265 
L 278.049113 145.812795 
L 279.443247 147.152927 
L 280.140314 148.49306 
L 281.534447 152.513457 
L 282.231514 152.513457 
L 285.019781 153.85359 
L 286.413915 155.193722 
L 287.110982 156.533855 
L 291.293383 159.21412 
L 294.08165 160.554252 
L 296.869917 163.234517 
L 296.869917 163.234517 
" clip-path="url(#p8a1d6bd50d)" style="fill: none; stroke: #ff7f0e; stroke-opacity: 0.8; stroke-linecap: square"/>
   </g>
   <g id="line2d_49">
    <path d="M 266.895689 80.068989 
L 267.5924 80.068989 
L 267.5924 80.068989 
L 267.5924 78.651541 
L 267.5924 78.651541 
L 268.289111 78.651541 
L 268.289111 78.651541 
L 268.289111 75.816645 
L 268.985823 75.816645 
L 268.985823 75.816645 
L 268.985823 72.98175 
L 268.985823 72.98175 
L 278.739782 72.98175 
L 278.739782 72.98175 
L 280.133204 70.146854 
L 280.133204 70.146854 
L 281.526627 70.146854 
L 281.526627 70.146854 
L 281.526627 68.729406 
L 281.526627 68.729406 
L 285.010184 68.729406 
L 285.010184 68.729406 
L 285.010184 67.311958 
L 285.706895 67.311958 
L 285.706895 67.311958 
L 285.706895 65.894511 
L 289.887163 65.894511 
L 289.887163 64.477063 
L 289.887163 64.477063 
L 291.280586 64.477063 
L 291.280586 64.477063 
L 291.280586 63.059615 
L 291.280586 63.059615 
L 295.460854 63.059615 
L 296.157566 64.477063 
L 296.157566 64.477063 
L 296.157566 63.059615 
L 296.157566 63.059615 
L 296.854277 64.477063 
L 298.2477 63.059615 
L 303.821391 63.059615 
L 303.821391 63.059615 
L 303.821391 61.642167 
L 303.821391 61.642167 
L 310.091793 61.642167 
L 310.091793 61.642167 
L 311.485215 60.224719 
L 311.485215 60.224719 
L 321.239174 60.224719 
L 321.239174 58.807272 
L 321.239174 58.807272 
L 325.419443 58.807272 
L 325.419443 55.972376 
L 326.812865 54.554928 
L 326.812865 54.554928 
L 327.509577 55.972376 
L 328.902999 55.972376 
L 329.599711 57.389824 
L 330.296422 57.389824 
L 330.296422 57.389824 
L 330.993133 58.807272 
L 333.083268 58.807272 
L 333.779979 60.224719 
L 333.779979 60.224719 
L 334.47669 60.224719 
L 334.47669 60.224719 
L 336.566824 61.642167 
L 336.566824 58.807272 
L 337.263536 61.642167 
L 338.656958 61.642167 
L 339.35367 63.059615 
L 339.35367 63.059615 
L 339.35367 61.642167 
L 340.747092 63.059615 
L 342.837227 63.059615 
L 343.533938 64.477063 
L 343.533938 63.059615 
L 344.927361 64.477063 
L 351.197763 64.477063 
L 351.894474 63.059615 
L 354.68132 64.477063 
L 354.68132 63.059615 
L 356.771454 64.477063 
L 358.164876 64.477063 
L 358.164876 64.477063 
L 359.558299 63.059615 
L 365.13199 63.059615 
L 365.828701 65.894511 
L 367.918835 65.894511 
L 367.918835 65.894511 
L 371.402392 67.311958 
L 383.246485 67.311958 
L 386.033331 68.729406 
L 386.730042 68.729406 
L 388.820176 70.146854 
L 388.820176 68.729406 
L 389.516887 70.146854 
L 389.516887 70.146854 
L 390.213599 70.146854 
L 390.91031 68.729406 
L 393.697156 70.146854 
L 395.090578 71.564302 
L 395.090578 71.564302 
" clip-path="url(#p8a1d6bd50d)" style="fill: none; stroke: #2ca02c; stroke-opacity: 0.8; stroke-linecap: square"/>
   </g>
   <g id="line2d_50">
    <path d="M 266.198977 80.316479 
L 267.599542 80.316479 
L 267.599542 80.316479 
L 267.599542 79.146523 
L 267.599542 79.146523 
L 269.000107 79.146523 
L 269.000107 79.146523 
L 269.000107 77.976566 
L 269.000107 77.976566 
L 269.700389 77.976566 
L 269.700389 77.976566 
L 269.700389 74.466695 
L 269.700389 74.466695 
L 271.801237 74.466695 
L 271.801237 74.466695 
L 271.801237 73.296738 
L 271.801237 73.296738 
L 273.201801 73.296738 
L 273.201801 69.786867 
L 273.201801 69.786867 
L 278.804061 69.786867 
L 278.804061 69.786867 
L 278.804061 68.61691 
L 278.804061 68.61691 
L 281.60519 68.61691 
L 281.60519 68.61691 
L 281.60519 67.446953 
L 281.60519 67.446953 
L 290.008579 67.446953 
L 290.008579 67.446953 
L 290.008579 66.276996 
L 297.711685 66.276996 
L 297.711685 66.276996 
L 298.411968 67.446953 
L 301.213097 67.446953 
L 301.213097 67.446953 
L 301.91338 66.276996 
L 301.91338 66.276996 
L 304.71451 66.276996 
L 304.71451 66.276996 
L 306.815357 65.10704 
L 308.215922 63.937083 
L 308.215922 62.767126 
L 308.215922 62.767126 
L 326.423264 62.767126 
L 326.423264 62.767126 
L 326.423264 61.597169 
L 327.823829 62.767126 
L 344.630607 62.767126 
L 344.630607 62.767126 
L 345.330889 61.597169 
L 345.330889 61.597169 
L 353.734278 61.597169 
L 353.734278 61.597169 
L 354.43456 62.767126 
L 359.336537 62.767126 
L 360.737102 61.597169 
L 386.647551 61.597169 
L 387.347833 60.427212 
L 392.24981 60.427212 
L 392.24981 60.427212 
" clip-path="url(#p8a1d6bd50d)" style="fill: none; stroke: #d62728; stroke-opacity: 0.8; stroke-linecap: square"/>
   </g>
   <g id="line2d_51">
    <path d="M 266.198977 80.386328 
L 266.198977 66.084914 
L 266.198977 66.084914 
L 266.901059 66.084914 
L 266.901059 66.084914 
L 266.901059 27.581108 
L 266.901059 27.581108 
L 267.603141 49.583283 
L 267.603141 46.282957 
L 267.603141 38.582195 
L 267.603141 38.582195 
L 268.305222 59.484262 
L 268.305222 56.183935 
L 268.305222 50.683392 
L 268.305222 50.683392 
L 269.007304 60.58437 
L 269.007304 60.58437 
L 270.411467 60.58437 
L 270.411467 60.58437 
L 270.411467 59.484262 
L 270.411467 59.484262 
L 271.113549 61.684479 
L 271.113549 61.684479 
L 271.815631 66.084914 
L 271.815631 62.784588 
L 272.517712 82.586545 
L 272.517712 80.386328 
L 272.517712 66.084914 
L 272.517712 66.084914 
L 273.219794 85.886871 
L 273.219794 84.786763 
L 273.921876 91.387415 
L 273.921876 91.387415 
L 273.921876 86.98698 
L 274.623958 99.088176 
L 274.623958 97.988068 
L 274.623958 92.487524 
L 275.326039 101.288394 
L 276.028121 104.58872 
L 276.028121 101.288394 
L 276.028121 101.288394 
L 276.730203 105.688829 
L 277.432284 105.688829 
L 278.134366 106.788938 
L 278.134366 105.688829 
L 278.836448 106.788938 
L 279.538529 108.989155 
L 279.538529 107.889046 
L 280.240611 110.089264 
L 280.942693 111.189372 
L 282.346856 112.289481 
L 283.048938 114.489699 
L 283.048938 113.38959 
L 283.75102 117.790025 
L 283.75102 116.689916 
L 284.453101 118.890134 
L 285.857265 121.090351 
L 285.857265 121.090351 
L 286.559346 121.090351 
L 288.665591 122.19046 
L 290.771836 122.19046 
L 292.878082 125.490786 
L 294.282245 126.590895 
L 304.111389 126.590895 
L 305.515552 127.691004 
L 309.02596 128.791112 
L 320.259267 128.791112 
L 323.769676 133.191547 
L 323.769676 133.191547 
" clip-path="url(#p8a1d6bd50d)" style="fill: none; stroke: #9467bd; stroke-opacity: 0.8; stroke-linecap: square"/>
   </g>
   <g id="line2d_52">
    <path d="M 266.198977 80.193326 
L 266.198977 77.607106 
L 266.198977 77.607106 
L 272.478987 77.607106 
L 272.478987 77.607106 
L 272.478987 75.020885 
L 273.176766 75.020885 
L 273.176766 75.020885 
L 273.176766 73.727775 
L 273.176766 73.727775 
L 276.66566 73.727775 
L 276.66566 73.727775 
L 277.363439 72.434664 
L 277.363439 72.434664 
L 279.456775 72.434664 
L 279.456775 72.434664 
L 279.456775 71.141554 
L 280.154554 72.434664 
L 280.154554 72.434664 
L 289.923458 72.434664 
L 289.923458 72.434664 
L 290.621237 71.141554 
L 290.621237 71.141554 
L 312.252381 71.141554 
L 312.252381 69.848444 
L 313.647938 69.848444 
L 313.647938 67.262223 
L 314.345717 67.262223 
L 315.741275 65.969113 
L 328.301294 65.969113 
L 328.301294 64.676003 
L 328.301294 64.676003 
L 336.67464 64.676003 
L 336.67464 64.676003 
L 338.767977 63.382893 
L 338.767977 63.382893 
L 340.861313 63.382893 
L 341.559092 62.089782 
L 353.421332 62.089782 
L 353.421332 62.089782 
L 353.421332 60.796672 
L 355.514669 60.796672 
L 355.514669 60.796672 
L 356.910227 59.503562 
L 368.772467 59.503562 
L 369.470246 58.210451 
L 369.470246 58.210451 
L 372.261361 58.210451 
L 373.656919 56.917341 
L 373.656919 56.917341 
L 375.750255 55.624231 
L 375.750255 55.624231 
L 377.145813 55.624231 
L 377.843592 56.917341 
L 378.541371 56.917341 
L 378.541371 56.917341 
" clip-path="url(#p8a1d6bd50d)" style="fill: none; stroke: #8c564b; stroke-opacity: 0.8; stroke-linecap: square"/>
   </g>
   <g id="line2d_53">
    <path d="M 266.198977 80.146304 
L 266.198977 41.282462 
L 266.895334 41.282462 
L 266.895334 41.282462 
L 266.895334 29.22127 
L 266.895334 29.22127 
L 267.59169 33.241667 
L 267.59169 33.241667 
L 267.59169 30.561403 
L 267.59169 30.561403 
L 268.288046 33.241667 
L 268.288046 33.241667 
L 268.288046 31.901535 
L 268.288046 31.901535 
L 268.984402 42.622595 
L 268.984402 41.282462 
L 268.984402 29.22127 
L 268.984402 29.22127 
L 269.680759 52.003522 
L 269.680759 50.66339 
L 269.680759 39.94233 
L 269.680759 39.94233 
L 270.377115 65.404847 
L 270.377115 61.384449 
L 270.377115 54.683787 
L 271.073471 68.085112 
L 271.073471 66.744979 
L 271.769827 69.425244 
L 271.769827 69.425244 
L 272.466184 76.125907 
L 272.466184 69.425244 
L 272.466184 69.425244 
L 273.16254 80.146304 
L 273.16254 78.806171 
L 273.16254 77.466039 
L 273.16254 77.466039 
L 273.858896 86.846966 
L 273.858896 85.506834 
L 273.858896 82.826569 
L 274.555252 89.527231 
L 274.555252 86.846966 
L 275.947965 90.867364 
L 275.947965 90.867364 
L 275.947965 89.527231 
L 278.73339 92.207496 
L 280.822459 94.887761 
L 280.822459 93.547629 
L 282.911527 94.887761 
L 285.696952 94.887761 
L 289.87509 97.568026 
L 293.356871 97.568026 
L 298.231365 98.908159 
L 298.231365 98.908159 
" clip-path="url(#p8a1d6bd50d)" style="fill: none; stroke: #e377c2; stroke-opacity: 0.8; stroke-linecap: square"/>
   </g>
   <g id="line2d_54">
    <path d="M 266.198977 80.041195 
L 266.198977 48.245896 
L 266.894979 48.245896 
L 266.894979 48.245896 
L 266.894979 36.683969 
L 266.894979 36.683969 
L 267.59098 43.910173 
L 267.59098 43.910173 
L 267.59098 36.683969 
L 267.59098 36.683969 
L 268.286982 61.253064 
L 268.286982 61.253064 
L 268.286982 41.019691 
L 268.286982 41.019691 
L 268.982983 64.143546 
L 268.982983 64.143546 
L 269.678985 72.814991 
L 269.678985 72.814991 
L 269.678985 64.143546 
L 269.678985 64.143546 
L 270.374986 74.260232 
L 270.374986 72.814991 
L 271.070988 77.150714 
L 271.070988 74.260232 
L 271.070988 74.260232 
L 271.766989 84.376918 
L 271.766989 82.931677 
L 271.766989 78.595955 
L 272.462991 87.2674 
L 272.462991 85.822159 
L 273.854994 88.712641 
L 275.942998 88.712641 
L 276.639 110.391254 
L 276.639 93.048364 
L 278.031003 113.281736 
L 278.031003 111.836495 
L 279.423006 116.172218 
L 280.119008 117.617459 
L 282.903014 119.0627 
L 285.68702 121.953182 
L 287.775024 126.288904 
L 289.167027 126.288904 
L 290.55903 127.734145 
L 293.343036 129.179386 
L 294.735039 132.069868 
L 295.431041 132.069868 
L 301.695054 133.515109 
L 301.695054 133.515109 
" clip-path="url(#p8a1d6bd50d)" style="fill: none; stroke: #7f7f7f; stroke-opacity: 0.8; stroke-linecap: square"/>
   </g>
   <g id="line2d_55">
    <path d="M 266.89747 81.486436 
L 269.691439 81.486436 
L 269.691439 81.486436 
L 269.691439 78.651541 
L 269.691439 78.651541 
L 270.389931 78.651541 
L 270.389931 78.651541 
L 270.389931 75.816645 
L 270.389931 75.816645 
L 273.1839 75.816645 
L 273.1839 75.816645 
L 273.882393 74.399197 
L 273.882393 74.399197 
L 274.580885 74.399197 
L 274.580885 74.399197 
L 274.580885 72.98175 
L 274.580885 72.98175 
L 275.97787 72.98175 
L 275.97787 72.98175 
L 275.97787 71.564302 
L 275.97787 71.564302 
L 277.374854 71.564302 
L 277.374854 71.564302 
L 278.073347 72.98175 
L 278.073347 71.564302 
L 278.073347 71.564302 
L 278.771839 72.98175 
L 278.771839 72.98175 
L 285.05827 72.98175 
L 285.05827 72.98175 
L 285.05827 71.564302 
L 285.05827 71.564302 
L 286.455254 71.564302 
L 286.455254 71.564302 
L 287.153747 70.146854 
L 287.153747 70.146854 
L 292.741685 70.146854 
L 292.741685 70.146854 
L 292.741685 68.729406 
L 292.741685 68.729406 
L 299.028116 68.729406 
L 299.028116 68.729406 
L 299.028116 67.311958 
L 299.028116 67.311958 
L 301.123593 67.311958 
L 301.123593 67.311958 
L 301.123593 65.894511 
L 301.123593 65.894511 
L 315.093439 65.894511 
L 315.093439 65.894511 
L 315.791932 64.477063 
L 315.791932 64.477063 
L 335.349717 64.477063 
L 335.349717 64.477063 
L 336.048209 65.894511 
L 336.048209 65.894511 
L 336.048209 64.477063 
L 336.048209 64.477063 
L 337.445194 65.894511 
L 343.033132 65.894511 
L 343.033132 64.477063 
L 343.033132 64.477063 
L 347.922578 64.477063 
L 347.922578 64.477063 
L 347.922578 63.059615 
L 347.922578 63.059615 
L 387.038148 63.059615 
L 387.73664 61.642167 
L 388.435133 61.642167 
L 389.832117 63.059615 
L 389.832117 61.642167 
L 389.832117 61.642167 
L 390.53061 63.059615 
L 390.53061 63.059615 
L 394.023071 63.059615 
L 394.023071 63.059615 
" clip-path="url(#p8a1d6bd50d)" style="fill: none; stroke: #bcbd22; stroke-opacity: 0.8; stroke-linecap: square"/>
   </g>
   <g id="line2d_56"/>
   <g id="line2d_57"/>
   <g id="line2d_58"/>
   <g id="line2d_59"/>
   <g id="line2d_60"/>
   <g id="line2d_61"/>
   <g id="line2d_62"/>
   <g id="line2d_63"/>
   <g id="line2d_64"/>
   <g id="PathCollection_2">
    <defs>
     <path id="C1_0_0578ab0494" d="M -1.767767 3.535534 
L 0 1.767767 
L 1.767767 3.535534 
L 3.535534 1.767767 
L 1.767767 -0 
L 3.535534 -1.767767 
L 1.767767 -3.535534 
L 0 -1.767767 
L -1.767767 -3.535534 
L -3.535534 -1.767767 
L -1.767767 0 
L -3.535534 1.767767 
z
"/>
    </defs>
    <g clip-path="url(#p8a1d6bd50d)">
     <use xlink:href="#C1_0_0578ab0494" x="321.634944" y="64.639057" style="fill: #1f77b4; stroke: #ffffff; stroke-width: 0.565685"/>
    </g>
    <g clip-path="url(#p8a1d6bd50d)">
     <use xlink:href="#C1_0_0578ab0494" x="268.290178" y="35.921932" style="fill: #ff7f0e; stroke: #ffffff; stroke-width: 0.565685"/>
    </g>
    <g clip-path="url(#p8a1d6bd50d)">
     <use xlink:href="#C1_0_0578ab0494" x="308.69837" y="61.642167" style="fill: #2ca02c; stroke: #ffffff; stroke-width: 0.565685"/>
    </g>
    <g clip-path="url(#p8a1d6bd50d)">
     <use xlink:href="#C1_0_0578ab0494" x="327.123546" y="63.937083" style="fill: #d62728; stroke: #ffffff; stroke-width: 0.565685"/>
    </g>
    <g clip-path="url(#p8a1d6bd50d)">
     <use xlink:href="#C1_0_0578ab0494" x="269.709386" y="42.98263" style="fill: #9467bd; stroke: #ffffff; stroke-width: 0.565685"/>
    </g>
    <g clip-path="url(#p8a1d6bd50d)">
     <use xlink:href="#C1_0_0578ab0494" x="315.043496" y="65.969113" style="fill: #8c564b; stroke: #ffffff; stroke-width: 0.565685"/>
    </g>
    <g clip-path="url(#p8a1d6bd50d)">
     <use xlink:href="#C1_0_0578ab0494" x="267.59169" y="30.561403" style="fill: #e377c2; stroke: #ffffff; stroke-width: 0.565685"/>
    </g>
    <g clip-path="url(#p8a1d6bd50d)">
     <use xlink:href="#C1_0_0578ab0494" x="267.59098" y="36.683969" style="fill: #7f7f7f; stroke: #ffffff; stroke-width: 0.565685"/>
    </g>
    <g clip-path="url(#p8a1d6bd50d)">
     <use xlink:href="#C1_0_0578ab0494" x="331.158763" y="63.059615" style="fill: #bcbd22; stroke: #ffffff; stroke-width: 0.565685"/>
    </g>
   </g>
   <g id="line2d_65"/>
   <g id="line2d_66"/>
   <g id="line2d_67"/>
   <g id="line2d_68"/>
   <g id="line2d_69"/>
   <g id="line2d_70"/>
   <g id="line2d_71"/>
   <g id="line2d_72"/>
   <g id="line2d_73"/>
   <g id="patch_6">
    <path d="M 258.97125 170.017187 
L 258.97125 20.798437 
" style="fill: none; stroke: #000000; stroke-width: 0.8; stroke-linejoin: miter; stroke-linecap: square"/>
   </g>
   <g id="patch_7">
    <path d="M 258.97125 170.017187 
L 417.98125 170.017187 
" style="fill: none; stroke: #000000; stroke-width: 0.8; stroke-linejoin: miter; stroke-linecap: square"/>
   </g>
   <g id="text_25">
    <!-- dataset = upsamp-down -->
    <g transform="translate(276.852812 14.798437) scale(0.1 -0.1)">
     <defs>
      <path id="DejaVuSans-6d" d="M 3328 2828 
Q 3544 3216 3844 3400 
Q 4144 3584 4550 3584 
Q 5097 3584 5394 3201 
Q 5691 2819 5691 2113 
L 5691 0 
L 5113 0 
L 5113 2094 
Q 5113 2597 4934 2840 
Q 4756 3084 4391 3084 
Q 3944 3084 3684 2787 
Q 3425 2491 3425 1978 
L 3425 0 
L 2847 0 
L 2847 2094 
Q 2847 2600 2669 2842 
Q 2491 3084 2119 3084 
Q 1678 3084 1418 2786 
Q 1159 2488 1159 1978 
L 1159 0 
L 581 0 
L 581 3500 
L 1159 3500 
L 1159 2956 
Q 1356 3278 1631 3431 
Q 1906 3584 2284 3584 
Q 2666 3584 2933 3390 
Q 3200 3197 3328 2828 
z
" transform="scale(0.015625)"/>
      <path id="DejaVuSans-2d" d="M 313 2009 
L 1997 2009 
L 1997 1497 
L 313 1497 
L 313 2009 
z
" transform="scale(0.015625)"/>
      <path id="DejaVuSans-77" d="M 269 3500 
L 844 3500 
L 1563 769 
L 2278 3500 
L 2956 3500 
L 3675 769 
L 4391 3500 
L 4966 3500 
L 4050 0 
L 3372 0 
L 2619 2869 
L 1863 0 
L 1184 0 
L 269 3500 
z
" transform="scale(0.015625)"/>
      <path id="DejaVuSans-6e" d="M 3513 2113 
L 3513 0 
L 2938 0 
L 2938 2094 
Q 2938 2591 2744 2837 
Q 2550 3084 2163 3084 
Q 1697 3084 1428 2787 
Q 1159 2491 1159 1978 
L 1159 0 
L 581 0 
L 581 3500 
L 1159 3500 
L 1159 2956 
Q 1366 3272 1645 3428 
Q 1925 3584 2291 3584 
Q 2894 3584 3203 3211 
Q 3513 2838 3513 2113 
z
" transform="scale(0.015625)"/>
     </defs>
     <use xlink:href="#DejaVuSans-64"/>
     <use xlink:href="#DejaVuSans-61" x="63.476562"/>
     <use xlink:href="#DejaVuSans-74" x="124.755859"/>
     <use xlink:href="#DejaVuSans-61" x="163.964844"/>
     <use xlink:href="#DejaVuSans-73" x="225.244141"/>
     <use xlink:href="#DejaVuSans-65" x="277.34375"/>
     <use xlink:href="#DejaVuSans-74" x="338.867188"/>
     <use xlink:href="#DejaVuSans-20" x="378.076172"/>
     <use xlink:href="#DejaVuSans-3d" x="409.863281"/>
     <use xlink:href="#DejaVuSans-20" x="493.652344"/>
     <use xlink:href="#DejaVuSans-75" x="525.439453"/>
     <use xlink:href="#DejaVuSans-70" x="588.818359"/>
     <use xlink:href="#DejaVuSans-73" x="652.294922"/>
     <use xlink:href="#DejaVuSans-61" x="704.394531"/>
     <use xlink:href="#DejaVuSans-6d" x="765.673828"/>
     <use xlink:href="#DejaVuSans-70" x="863.085938"/>
     <use xlink:href="#DejaVuSans-2d" x="926.5625"/>
     <use xlink:href="#DejaVuSans-64" x="962.646484"/>
     <use xlink:href="#DejaVuSans-6f" x="1026.123047"/>
     <use xlink:href="#DejaVuSans-77" x="1087.304688"/>
     <use xlink:href="#DejaVuSans-6e" x="1169.091797"/>
    </g>
   </g>
  </g>
  <g id="axes_3">
   <g id="patch_8">
    <path d="M 474.16125 170.017187 
L 633.17125 170.017187 
L 633.17125 20.798437 
L 474.16125 20.798437 
z
" style="fill: #ffffff"/>
   </g>
   <g id="matplotlib.axis_5">
    <g id="xtick_11">
     <g id="line2d_74">
      <g>
       <use xlink:href="#m75302780b6" x="481.388977" y="170.017187" style="stroke: #000000; stroke-width: 0.8"/>
      </g>
     </g>
     <g id="text_26">
      <!-- 0.000 -->
      <g transform="translate(467.074915 184.615625) scale(0.1 -0.1)">
       <use xlink:href="#DejaVuSans-30"/>
       <use xlink:href="#DejaVuSans-2e" x="63.623047"/>
       <use xlink:href="#DejaVuSans-30" x="95.410156"/>
       <use xlink:href="#DejaVuSans-30" x="159.033203"/>
       <use xlink:href="#DejaVuSans-30" x="222.65625"/>
      </g>
     </g>
    </g>
    <g id="xtick_12">
     <g id="line2d_75">
      <g>
       <use xlink:href="#m75302780b6" x="533.205022" y="170.017187" style="stroke: #000000; stroke-width: 0.8"/>
      </g>
     </g>
     <g id="text_27">
      <!-- 0.005 -->
      <g transform="translate(518.89096 184.615625) scale(0.1 -0.1)">
       <use xlink:href="#DejaVuSans-30"/>
       <use xlink:href="#DejaVuSans-2e" x="63.623047"/>
       <use xlink:href="#DejaVuSans-30" x="95.410156"/>
       <use xlink:href="#DejaVuSans-30" x="159.033203"/>
       <use xlink:href="#DejaVuSans-35" x="222.65625"/>
      </g>
     </g>
    </g>
    <g id="xtick_13">
     <g id="line2d_76">
      <g>
       <use xlink:href="#m75302780b6" x="585.021067" y="170.017187" style="stroke: #000000; stroke-width: 0.8"/>
      </g>
     </g>
     <g id="text_28">
      <!-- 0.010 -->
      <g transform="translate(570.707004 184.615625) scale(0.1 -0.1)">
       <use xlink:href="#DejaVuSans-30"/>
       <use xlink:href="#DejaVuSans-2e" x="63.623047"/>
       <use xlink:href="#DejaVuSans-30" x="95.410156"/>
       <use xlink:href="#DejaVuSans-31" x="159.033203"/>
       <use xlink:href="#DejaVuSans-30" x="222.65625"/>
      </g>
     </g>
    </g>
    <g id="text_29">
     <!-- false_pos -->
     <g transform="translate(530.433437 198.29375) scale(0.1 -0.1)">
      <use xlink:href="#DejaVuSans-66"/>
      <use xlink:href="#DejaVuSans-61" x="35.205078"/>
      <use xlink:href="#DejaVuSans-6c" x="96.484375"/>
      <use xlink:href="#DejaVuSans-73" x="124.267578"/>
      <use xlink:href="#DejaVuSans-65" x="176.367188"/>
      <use xlink:href="#DejaVuSans-5f" x="237.890625"/>
      <use xlink:href="#DejaVuSans-70" x="287.890625"/>
      <use xlink:href="#DejaVuSans-6f" x="351.367188"/>
      <use xlink:href="#DejaVuSans-73" x="412.548828"/>
     </g>
    </g>
   </g>
   <g id="matplotlib.axis_6">
    <g id="ytick_10">
     <g id="line2d_77">
      <g>
       <use xlink:href="#m136ac2726d" x="474.16125" y="163.234517" style="stroke: #000000; stroke-width: 0.8"/>
      </g>
     </g>
     <g id="text_30">
      <!-- 0.0 -->
      <g transform="translate(451.258125 167.033736) scale(0.1 -0.1)">
       <use xlink:href="#DejaVuSans-30"/>
       <use xlink:href="#DejaVuSans-2e" x="63.623047"/>
       <use xlink:href="#DejaVuSans-30" x="95.410156"/>
      </g>
     </g>
    </g>
    <g id="ytick_11">
     <g id="line2d_78">
      <g>
       <use xlink:href="#m136ac2726d" x="474.16125" y="133.435244" style="stroke: #000000; stroke-width: 0.8"/>
      </g>
     </g>
     <g id="text_31">
      <!-- 0.2 -->
      <g transform="translate(451.258125 137.234462) scale(0.1 -0.1)">
       <use xlink:href="#DejaVuSans-30"/>
       <use xlink:href="#DejaVuSans-2e" x="63.623047"/>
       <use xlink:href="#DejaVuSans-32" x="95.410156"/>
      </g>
     </g>
    </g>
    <g id="ytick_12">
     <g id="line2d_79">
      <g>
       <use xlink:href="#m136ac2726d" x="474.16125" y="103.63597" style="stroke: #000000; stroke-width: 0.8"/>
      </g>
     </g>
     <g id="text_32">
      <!-- 0.4 -->
      <g transform="translate(451.258125 107.435189) scale(0.1 -0.1)">
       <use xlink:href="#DejaVuSans-30"/>
       <use xlink:href="#DejaVuSans-2e" x="63.623047"/>
       <use xlink:href="#DejaVuSans-34" x="95.410156"/>
      </g>
     </g>
    </g>
    <g id="ytick_13">
     <g id="line2d_80">
      <g>
       <use xlink:href="#m136ac2726d" x="474.16125" y="73.836697" style="stroke: #000000; stroke-width: 0.8"/>
      </g>
     </g>
     <g id="text_33">
      <!-- 0.6 -->
      <g transform="translate(451.258125 77.635915) scale(0.1 -0.1)">
       <defs>
        <path id="DejaVuSans-36" d="M 2113 2584 
Q 1688 2584 1439 2293 
Q 1191 2003 1191 1497 
Q 1191 994 1439 701 
Q 1688 409 2113 409 
Q 2538 409 2786 701 
Q 3034 994 3034 1497 
Q 3034 2003 2786 2293 
Q 2538 2584 2113 2584 
z
M 3366 4563 
L 3366 3988 
Q 3128 4100 2886 4159 
Q 2644 4219 2406 4219 
Q 1781 4219 1451 3797 
Q 1122 3375 1075 2522 
Q 1259 2794 1537 2939 
Q 1816 3084 2150 3084 
Q 2853 3084 3261 2657 
Q 3669 2231 3669 1497 
Q 3669 778 3244 343 
Q 2819 -91 2113 -91 
Q 1303 -91 875 529 
Q 447 1150 447 2328 
Q 447 3434 972 4092 
Q 1497 4750 2381 4750 
Q 2619 4750 2861 4703 
Q 3103 4656 3366 4563 
z
" transform="scale(0.015625)"/>
       </defs>
       <use xlink:href="#DejaVuSans-30"/>
       <use xlink:href="#DejaVuSans-2e" x="63.623047"/>
       <use xlink:href="#DejaVuSans-36" x="95.410156"/>
      </g>
     </g>
    </g>
    <g id="ytick_14">
     <g id="line2d_81">
      <g>
       <use xlink:href="#m136ac2726d" x="474.16125" y="44.037423" style="stroke: #000000; stroke-width: 0.8"/>
      </g>
     </g>
     <g id="text_34">
      <!-- 0.8 -->
      <g transform="translate(451.258125 47.836642) scale(0.1 -0.1)">
       <defs>
        <path id="DejaVuSans-38" d="M 2034 2216 
Q 1584 2216 1326 1975 
Q 1069 1734 1069 1313 
Q 1069 891 1326 650 
Q 1584 409 2034 409 
Q 2484 409 2743 651 
Q 3003 894 3003 1313 
Q 3003 1734 2745 1975 
Q 2488 2216 2034 2216 
z
M 1403 2484 
Q 997 2584 770 2862 
Q 544 3141 544 3541 
Q 544 4100 942 4425 
Q 1341 4750 2034 4750 
Q 2731 4750 3128 4425 
Q 3525 4100 3525 3541 
Q 3525 3141 3298 2862 
Q 3072 2584 2669 2484 
Q 3125 2378 3379 2068 
Q 3634 1759 3634 1313 
Q 3634 634 3220 271 
Q 2806 -91 2034 -91 
Q 1263 -91 848 271 
Q 434 634 434 1313 
Q 434 1759 690 2068 
Q 947 2378 1403 2484 
z
M 1172 3481 
Q 1172 3119 1398 2916 
Q 1625 2713 2034 2713 
Q 2441 2713 2670 2916 
Q 2900 3119 2900 3481 
Q 2900 3844 2670 4047 
Q 2441 4250 2034 4250 
Q 1625 4250 1398 4047 
Q 1172 3844 1172 3481 
z
" transform="scale(0.015625)"/>
       </defs>
       <use xlink:href="#DejaVuSans-30"/>
       <use xlink:href="#DejaVuSans-2e" x="63.623047"/>
       <use xlink:href="#DejaVuSans-38" x="95.410156"/>
      </g>
     </g>
    </g>
    <g id="text_35">
     <!-- true_pos -->
     <g transform="translate(444.900312 117.007031) rotate(-90) scale(0.1 -0.1)">
      <use xlink:href="#DejaVuSans-74"/>
      <use xlink:href="#DejaVuSans-72" x="39.208984"/>
      <use xlink:href="#DejaVuSans-75" x="80.322266"/>
      <use xlink:href="#DejaVuSans-65" x="143.701172"/>
      <use xlink:href="#DejaVuSans-5f" x="205.224609"/>
      <use xlink:href="#DejaVuSans-70" x="255.224609"/>
      <use xlink:href="#DejaVuSans-6f" x="318.701172"/>
      <use xlink:href="#DejaVuSans-73" x="379.882812"/>
     </g>
    </g>
   </g>
   <g id="line2d_82">
    <path d="M 481.388977 161.105998 
L 481.388977 158.977478 
L 481.388977 158.977478 
L 482.428938 158.977478 
L 482.428938 158.977478 
L 482.428938 156.848958 
L 482.428938 156.848958 
L 492.828546 156.848958 
L 492.828546 156.848958 
L 492.828546 154.720439 
L 492.828546 154.720439 
L 494.908467 154.720439 
L 494.908467 154.720439 
L 494.908467 152.591919 
L 494.908467 152.591919 
L 497.508369 152.591919 
L 497.508369 152.591919 
L 497.508369 150.4634 
L 497.508369 150.4634 
L 524.027368 150.4634 
L 524.027368 148.33488 
L 558.346073 148.33488 
L 558.866054 146.206361 
L 588.504935 146.206361 
L 590.064877 144.077841 
L 610.344111 144.077841 
L 611.904052 141.949322 
L 625.943523 141.949322 
L 625.943523 141.949322 
" clip-path="url(#pf7f2055bd1)" style="fill: none; stroke: #1f77b4; stroke-opacity: 0.8; stroke-linecap: square"/>
   </g>
   <g id="line2d_83">
    <path d="M 481.388977 160.525492 
L 481.388977 141.562318 
L 481.388977 141.562318 
L 481.908567 141.562318 
L 481.908567 141.562318 
L 481.908567 136.144268 
L 481.908567 136.144268 
L 482.428156 136.144268 
L 482.428156 136.144268 
L 482.428156 128.017194 
L 482.428156 128.017194 
L 482.947745 128.017194 
L 482.947745 125.308169 
L 482.947745 125.308169 
L 483.467335 125.308169 
L 483.467335 125.308169 
L 483.467335 122.599144 
L 483.467335 122.599144 
L 483.986924 122.599144 
L 483.986924 122.599144 
L 483.986924 103.63597 
L 483.986924 103.63597 
L 484.506513 100.926945 
L 484.506513 100.926945 
L 486.58487 100.926945 
L 486.58487 100.926945 
L 487.10446 98.21792 
L 487.10446 98.21792 
L 487.10446 90.090846 
L 487.10446 90.090846 
L 494.8983 90.090846 
L 494.8983 90.090846 
L 494.8983 87.381821 
L 494.8983 87.381821 
L 495.937478 81.963771 
L 495.937478 81.963771 
L 495.937478 71.127672 
L 495.937478 71.127672 
L 496.457068 68.418647 
L 496.457068 60.291572 
L 496.457068 60.291572 
L 500.094193 60.291572 
L 500.613782 57.582547 
L 504.250907 57.582547 
L 504.250907 57.582547 
L 504.250907 52.164498 
L 504.250907 52.164498 
L 505.809675 52.164498 
L 506.848854 49.455473 
L 509.96639 49.455473 
L 511.005568 44.037423 
L 513.083926 44.037423 
L 514.123104 41.328398 
L 517.76023 41.328398 
L 518.799408 38.619373 
L 527.632427 38.619373 
L 528.671605 35.910349 
L 528.671605 35.910349 
L 532.30873 35.910349 
L 534.387088 33.201324 
L 569.199572 33.201324 
L 569.199572 33.201324 
" clip-path="url(#pf7f2055bd1)" style="fill: none; stroke: #ff7f0e; stroke-opacity: 0.8; stroke-linecap: square"/>
   </g>
   <g id="line2d_84">
    <path d="M 481.908488 160.369202 
L 494.376757 160.369202 
L 494.376757 160.369202 
L 494.896268 157.503888 
L 494.896268 157.503888 
L 535.41814 157.503888 
L 535.41814 154.638573 
L 551.003475 154.638573 
L 551.003475 154.638573 
L 552.562009 151.773258 
L 553.601031 148.907943 
L 568.666855 148.907943 
L 569.186366 146.042629 
L 616.981394 146.042629 
L 616.981394 146.042629 
" clip-path="url(#pf7f2055bd1)" style="fill: none; stroke: #2ca02c; stroke-opacity: 0.8; stroke-linecap: square"/>
   </g>
   <g id="line2d_85">
    <path d="M 481.908775 163.234517 
L 484.507764 163.234517 
L 484.507764 163.234517 
L 484.507764 160.869495 
L 484.507764 160.869495 
L 485.027562 160.869495 
L 485.027562 160.869495 
L 485.027562 158.504474 
L 485.027562 158.504474 
L 485.54736 158.504474 
L 485.54736 158.504474 
L 485.54736 156.139452 
L 485.54736 156.139452 
L 504.260081 156.139452 
L 504.260081 156.139452 
L 504.260081 153.77443 
L 518.81442 153.77443 
L 519.854015 151.409409 
L 551.561682 151.409409 
L 552.08148 149.044387 
L 552.08148 149.044387 
L 603.541463 149.044387 
L 603.541463 149.044387 
" clip-path="url(#pf7f2055bd1)" style="fill: none; stroke: #d62728; stroke-opacity: 0.8; stroke-linecap: square"/>
   </g>
   <g id="line2d_86">
    <path d="M 481.388977 161.010691 
L 481.388977 136.548601 
L 481.388977 136.548601 
L 481.908879 136.548601 
L 481.908879 136.548601 
L 481.908879 134.324774 
L 481.908879 134.324774 
L 482.428782 134.324774 
L 482.428782 134.324774 
L 482.428782 112.08651 
L 482.948684 112.08651 
L 482.948684 112.08651 
L 482.948684 107.638858 
L 482.948684 107.638858 
L 483.468586 107.638858 
L 483.468586 107.638858 
L 483.468586 103.191205 
L 483.468586 103.191205 
L 483.988488 103.191205 
L 483.988488 103.191205 
L 483.988488 100.967378 
L 483.988488 100.967378 
L 485.028292 100.967378 
L 485.028292 100.967378 
L 485.028292 96.519726 
L 485.028292 96.519726 
L 485.548194 94.295899 
L 485.548194 94.295899 
L 485.548194 92.072073 
L 485.548194 92.072073 
L 486.068096 92.072073 
L 486.068096 92.072073 
L 486.068096 78.729115 
L 486.068096 78.729115 
L 487.107901 78.729115 
L 487.107901 78.729115 
L 487.107901 74.281462 
L 490.227313 74.281462 
L 490.227313 74.281462 
L 490.227313 72.057636 
L 490.227313 72.057636 
L 490.747215 72.057636 
L 490.747215 72.057636 
L 490.747215 67.609983 
L 490.747215 67.609983 
L 491.78702 67.609983 
L 491.78702 67.609983 
L 491.78702 65.386156 
L 491.78702 65.386156 
L 494.38653 65.386156 
L 494.38653 63.16233 
L 494.38653 63.16233 
L 495.426335 63.16233 
L 495.426335 63.16233 
L 495.426335 60.938504 
L 495.426335 60.938504 
L 498.545747 60.938504 
L 498.545747 60.938504 
L 498.545747 56.490851 
L 499.065649 56.490851 
L 499.065649 56.490851 
L 499.585551 54.267024 
L 501.145258 54.267024 
L 501.145258 52.043198 
L 503.744768 52.043198 
L 503.744768 47.595545 
L 503.744768 47.595545 
L 507.903985 47.595545 
L 507.903985 45.371719 
L 507.903985 45.371719 
L 509.463692 45.371719 
L 509.463692 45.371719 
L 511.023398 43.147893 
L 512.063202 43.147893 
L 512.583104 40.924066 
L 512.583104 40.924066 
L 513.103007 40.924066 
L 513.103007 40.924066 
L 514.142811 38.70024 
L 516.222419 38.70024 
L 516.742321 36.476413 
L 516.742321 36.476413 
L 521.941343 36.476413 
L 522.981147 34.252587 
L 526.620462 34.252587 
L 526.620462 34.252587 
L 527.140364 32.028761 
L 537.018504 32.028761 
L 537.018504 32.028761 
L 537.018504 29.804934 
L 537.018504 29.804934 
L 538.058308 29.804934 
L 539.098113 27.581108 
L 595.247542 27.581108 
L 595.247542 27.581108 
" clip-path="url(#pf7f2055bd1)" style="fill: none; stroke: #9467bd; stroke-opacity: 0.8; stroke-linecap: square"/>
   </g>
   <g id="line2d_87">
    <path d="M 481.388977 160.620546 
L 481.388977 158.006574 
L 481.388977 158.006574 
L 486.585392 158.006574 
L 486.585392 158.006574 
L 487.105033 155.392603 
L 487.624674 155.392603 
L 487.624674 155.392603 
L 487.624674 152.778632 
L 487.624674 152.778632 
L 492.821089 152.778632 
L 492.821089 152.778632 
L 492.821089 150.16466 
L 522.44065 150.16466 
L 523.999574 147.550689 
L 523.999574 147.550689 
L 533.872761 147.550689 
L 533.872761 144.936718 
L 533.872761 144.936718 
L 573.885151 144.936718 
L 574.404793 142.322746 
L 574.404793 142.322746 
L 578.042283 142.322746 
L 579.081565 139.708775 
L 585.836904 139.708775 
L 585.836904 139.708775 
" clip-path="url(#pf7f2055bd1)" style="fill: none; stroke: #8c564b; stroke-opacity: 0.8; stroke-linecap: square"/>
   </g>
   <g id="line2d_88">
    <path d="M 481.388977 160.525492 
L 481.388977 130.726219 
L 481.388977 130.726219 
L 481.908567 130.726219 
L 481.908567 130.726219 
L 481.908567 119.890119 
L 481.908567 119.890119 
L 483.467335 119.890119 
L 483.467335 119.890119 
L 483.467335 117.181094 
L 483.467335 117.181094 
L 483.986924 117.181094 
L 483.986924 117.181094 
L 483.986924 103.63597 
L 483.986924 103.63597 
L 484.506513 103.63597 
L 484.506513 103.63597 
L 484.506513 98.21792 
L 485.026103 98.21792 
L 485.026103 98.21792 
L 485.026103 92.799871 
L 485.026103 92.799871 
L 486.065281 92.799871 
L 486.065281 92.799871 
L 486.065281 90.090846 
L 486.065281 90.090846 
L 486.58487 90.090846 
L 486.58487 90.090846 
L 486.58487 87.381821 
L 487.10446 87.381821 
L 487.10446 87.381821 
L 487.10446 84.672796 
L 487.10446 84.672796 
L 488.143638 84.672796 
L 488.143638 81.963771 
L 488.143638 81.963771 
L 490.221996 81.963771 
L 490.221996 81.963771 
L 490.221996 71.127672 
L 490.221996 71.127672 
L 491.780764 71.127672 
L 491.780764 71.127672 
L 491.780764 65.709622 
L 492.300353 65.709622 
L 492.300353 65.709622 
L 493.339532 63.000597 
L 493.339532 60.291572 
L 493.339532 60.291572 
L 497.496246 60.291572 
L 497.496246 60.291572 
L 498.015835 57.582547 
L 498.015835 57.582547 
L 498.535425 57.582547 
L 498.535425 57.582547 
L 498.535425 54.873523 
L 498.535425 54.873523 
L 499.574603 54.873523 
L 500.094193 52.164498 
L 500.094193 52.164498 
L 501.133371 52.164498 
L 501.133371 52.164498 
L 501.652961 49.455473 
L 503.211729 49.455473 
L 503.211729 44.037423 
L 503.211729 44.037423 
L 507.368443 44.037423 
L 508.407622 41.328398 
L 508.407622 41.328398 
L 508.927211 41.328398 
L 508.927211 38.619373 
L 508.927211 38.619373 
L 509.4468 35.910349 
L 525.554069 35.910349 
L 527.632427 33.201324 
L 545.818053 33.201324 
L 545.818053 33.201324 
" clip-path="url(#pf7f2055bd1)" style="fill: none; stroke: #e377c2; stroke-opacity: 0.8; stroke-linecap: square"/>
   </g>
   <g id="line2d_89">
    <path d="M 481.388977 160.31302 
L 481.388977 145.705533 
L 481.388977 145.705533 
L 481.908462 145.705533 
L 481.908462 145.705533 
L 481.908462 131.098046 
L 481.908462 131.098046 
L 482.427948 131.098046 
L 482.427948 125.255051 
L 482.427948 125.255051 
L 482.947433 125.255051 
L 482.947433 113.569061 
L 482.947433 113.569061 
L 485.025373 113.569061 
L 485.025373 113.569061 
L 485.025373 96.040077 
L 485.025373 96.040077 
L 486.064343 96.040077 
L 486.064343 96.040077 
L 486.064343 93.118579 
L 486.064343 93.118579 
L 486.583829 90.197082 
L 489.700739 90.197082 
L 489.700739 90.197082 
L 489.700739 87.275585 
L 491.259195 87.275585 
L 491.259195 87.275585 
L 491.259195 84.354087 
L 491.259195 84.354087 
L 492.298165 84.354087 
L 492.298165 84.354087 
L 492.298165 81.43259 
L 492.298165 81.43259 
L 492.81765 81.43259 
L 493.337135 78.511092 
L 493.337135 63.903605 
L 493.337135 63.903605 
L 498.012502 63.903605 
L 498.012502 63.903605 
L 498.531987 60.982108 
L 498.531987 60.982108 
L 498.531987 58.060611 
L 499.051472 55.139113 
L 504.765808 55.139113 
L 505.285293 52.217616 
L 507.363234 52.217616 
L 507.882719 49.296118 
L 510.480145 49.296118 
L 510.480145 49.296118 
L 511.519115 43.453124 
L 516.713966 43.453124 
L 517.752937 40.531626 
L 523.986758 40.531626 
L 525.545214 37.610129 
L 528.142639 34.688631 
L 535.415431 34.688631 
L 536.454402 31.767134 
L 562.428658 31.767134 
L 562.428658 31.767134 
" clip-path="url(#pf7f2055bd1)" style="fill: none; stroke: #7f7f7f; stroke-opacity: 0.8; stroke-linecap: square"/>
   </g>
   <g id="line2d_90">
    <path d="M 481.908488 163.234517 
L 489.181645 163.234517 
L 489.181645 163.234517 
L 489.701156 160.369202 
L 489.701156 160.369202 
L 491.779201 160.369202 
L 491.779201 160.369202 
L 491.779201 157.503888 
L 491.779201 157.503888 
L 499.052357 157.503888 
L 499.052357 157.503888 
L 499.052357 154.638573 
L 499.052357 154.638573 
L 524.508405 154.638573 
L 524.508405 154.638573 
L 525.027916 151.773258 
L 525.027916 151.773258 
L 553.601031 151.773258 
L 553.601031 148.907943 
L 553.601031 148.907943 
L 611.266772 148.907943 
L 611.266772 148.907943 
" clip-path="url(#pf7f2055bd1)" style="fill: none; stroke: #bcbd22; stroke-opacity: 0.8; stroke-linecap: square"/>
   </g>
   <g id="line2d_91"/>
   <g id="line2d_92"/>
   <g id="line2d_93"/>
   <g id="line2d_94"/>
   <g id="line2d_95"/>
   <g id="line2d_96"/>
   <g id="line2d_97"/>
   <g id="line2d_98"/>
   <g id="line2d_99"/>
   <g id="PathCollection_3">
    <defs>
     <path id="C2_0_9110615dc4" d="M -1.767767 3.535534 
L 0 1.767767 
L 1.767767 3.535534 
L 3.535534 1.767767 
L 1.767767 -0 
L 3.535534 -1.767767 
L 1.767767 -3.535534 
L 0 -1.767767 
L -1.767767 -3.535534 
L -3.535534 -1.767767 
L -1.767767 0 
L -3.535534 1.767767 
z
"/>
    </defs>
    <g clip-path="url(#pf7f2055bd1)">
     <use xlink:href="#C2_0_9110615dc4" x="528.707192" y="148.33488" style="fill: #1f77b4; stroke: #ffffff; stroke-width: 0.565685"/>
    </g>
    <g clip-path="url(#pf7f2055bd1)">
     <use xlink:href="#C2_0_9110615dc4" x="490.741585" y="76.545721" style="fill: #ff7f0e; stroke: #ffffff; stroke-width: 0.565685"/>
    </g>
    <g clip-path="url(#pf7f2055bd1)">
     <use xlink:href="#C2_0_9110615dc4" x="522.949871" y="157.503888" style="fill: #2ca02c; stroke: #ffffff; stroke-width: 0.565685"/>
    </g>
    <g clip-path="url(#pf7f2055bd1)">
     <use xlink:href="#C2_0_9110615dc4" x="535.967747" y="151.409409" style="fill: #d62728; stroke: #ffffff; stroke-width: 0.565685"/>
    </g>
    <g clip-path="url(#pf7f2055bd1)">
     <use xlink:href="#C2_0_9110615dc4" x="501.145258" y="52.043198" style="fill: #9467bd; stroke: #ffffff; stroke-width: 0.565685"/>
    </g>
    <g clip-path="url(#pf7f2055bd1)">
     <use xlink:href="#C2_0_9110615dc4" x="521.921009" y="150.16466" style="fill: #8c564b; stroke: #ffffff; stroke-width: 0.565685"/>
    </g>
    <g clip-path="url(#pf7f2055bd1)">
     <use xlink:href="#C2_0_9110615dc4" x="491.780764" y="71.127672" style="fill: #e377c2; stroke: #ffffff; stroke-width: 0.565685"/>
    </g>
    <g clip-path="url(#pf7f2055bd1)">
     <use xlink:href="#C2_0_9110615dc4" x="490.220225" y="87.275585" style="fill: #7f7f7f; stroke: #ffffff; stroke-width: 0.565685"/>
    </g>
    <g clip-path="url(#pf7f2055bd1)">
     <use xlink:href="#C2_0_9110615dc4" x="539.054718" y="151.773258" style="fill: #bcbd22; stroke: #ffffff; stroke-width: 0.565685"/>
    </g>
   </g>
   <g id="line2d_100"/>
   <g id="line2d_101"/>
   <g id="line2d_102"/>
   <g id="line2d_103"/>
   <g id="line2d_104"/>
   <g id="line2d_105"/>
   <g id="line2d_106"/>
   <g id="line2d_107"/>
   <g id="line2d_108"/>
   <g id="patch_9">
    <path d="M 474.16125 170.017187 
L 474.16125 20.798437 
" style="fill: none; stroke: #000000; stroke-width: 0.8; stroke-linejoin: miter; stroke-linecap: square"/>
   </g>
   <g id="patch_10">
    <path d="M 474.16125 170.017187 
L 633.17125 170.017187 
" style="fill: none; stroke: #000000; stroke-width: 0.8; stroke-linejoin: miter; stroke-linecap: square"/>
   </g>
   <g id="text_36">
    <!-- dataset = upsamp -->
    <g transform="translate(507.338125 14.798437) scale(0.1 -0.1)">
     <use xlink:href="#DejaVuSans-64"/>
     <use xlink:href="#DejaVuSans-61" x="63.476562"/>
     <use xlink:href="#DejaVuSans-74" x="124.755859"/>
     <use xlink:href="#DejaVuSans-61" x="163.964844"/>
     <use xlink:href="#DejaVuSans-73" x="225.244141"/>
     <use xlink:href="#DejaVuSans-65" x="277.34375"/>
     <use xlink:href="#DejaVuSans-74" x="338.867188"/>
     <use xlink:href="#DejaVuSans-20" x="378.076172"/>
     <use xlink:href="#DejaVuSans-3d" x="409.863281"/>
     <use xlink:href="#DejaVuSans-20" x="493.652344"/>
     <use xlink:href="#DejaVuSans-75" x="525.439453"/>
     <use xlink:href="#DejaVuSans-70" x="588.818359"/>
     <use xlink:href="#DejaVuSans-73" x="652.294922"/>
     <use xlink:href="#DejaVuSans-61" x="704.394531"/>
     <use xlink:href="#DejaVuSans-6d" x="765.673828"/>
     <use xlink:href="#DejaVuSans-70" x="863.085938"/>
    </g>
   </g>
  </g>
 </g>
 <defs>
  <clipPath id="p2e22f06736">
   <rect x="43.78125" y="20.798437" width="159.01" height="149.21875"/>
  </clipPath>
  <clipPath id="p8a1d6bd50d">
   <rect x="258.97125" y="20.798437" width="159.01" height="149.21875"/>
  </clipPath>
  <clipPath id="pf7f2055bd1">
   <rect x="474.16125" y="20.798437" width="159.01" height="149.21875"/>
  </clipPath>
 </defs>
</svg>
