<?xml version="1.0" encoding="utf-8" standalone="no"?>
<!DOCTYPE svg PUBLIC "-//W3C//DTD SVG 1.1//EN"
  "http://www.w3.org/Graphics/SVG/1.1/DTD/svg11.dtd">
<svg xmlns:xlink="http://www.w3.org/1999/xlink" width="633.98125pt" height="207.851562pt" viewBox="0 0 633.98125 207.851562" xmlns="http://www.w3.org/2000/svg" version="1.1">
 <metadata>
  <rdf:RDF xmlns:dc="http://purl.org/dc/elements/1.1/" xmlns:cc="http://creativecommons.org/ns#" xmlns:rdf="http://www.w3.org/1999/02/22-rdf-syntax-ns#">
   <cc:Work>
    <dc:type rdf:resource="http://purl.org/dc/dcmitype/StillImage"/>
    <dc:date>2024-09-04T21:01:11.987191</dc:date>
    <dc:format>image/svg+xml</dc:format>
    <dc:creator>
     <cc:Agent>
      <dc:title>Matplotlib v3.8.4, https://matplotlib.org/</dc:title>
     </cc:Agent>
    </dc:creator>
   </cc:Work>
  </rdf:RDF>
 </metadata>
 <defs>
  <style type="text/css">*{stroke-linejoin: round; stroke-linecap: butt}</style>
 </defs>
 <g id="figure_1">
  <g id="patch_1">
   <path d="M 0 207.851562 
L 633.98125 207.851562 
L 633.98125 0 
L 0 0 
z
" style="fill: #ffffff"/>
  </g>
  <g id="axes_1">
   <g id="patch_2">
    <path d="M 43.78125 170.017187 
L 206.24125 170.017187 
L 206.24125 20.798437 
L 43.78125 20.798437 
z
" style="fill: #ffffff"/>
   </g>
   <g id="matplotlib.axis_1">
    <g id="xtick_1">
     <g id="line2d_1">
      <defs>
       <path id="me7c35ed188" d="M 0 0 
L 0 3.5 
" style="stroke: #000000; stroke-width: 0.8"/>
      </defs>
      <g>
       <use xlink:href="#me7c35ed188" x="51.165795" y="170.017187" style="stroke: #000000; stroke-width: 0.8"/>
      </g>
     </g>
     <g id="text_1">
      <!-- 0.00 -->
      <g transform="translate(40.032983 184.615625) scale(0.1 -0.1)">
       <defs>
        <path id="DejaVuSans-30" d="M 2034 4250 
Q 1547 4250 1301 3770 
Q 1056 3291 1056 2328 
Q 1056 1369 1301 889 
Q 1547 409 2034 409 
Q 2525 409 2770 889 
Q 3016 1369 3016 2328 
Q 3016 3291 2770 3770 
Q 2525 4250 2034 4250 
z
M 2034 4750 
Q 2819 4750 3233 4129 
Q 3647 3509 3647 2328 
Q 3647 1150 3233 529 
Q 2819 -91 2034 -91 
Q 1250 -91 836 529 
Q 422 1150 422 2328 
Q 422 3509 836 4129 
Q 1250 4750 2034 4750 
z
" transform="scale(0.015625)"/>
        <path id="DejaVuSans-2e" d="M 684 794 
L 1344 794 
L 1344 0 
L 684 0 
L 684 794 
z
" transform="scale(0.015625)"/>
       </defs>
       <use xlink:href="#DejaVuSans-30"/>
       <use xlink:href="#DejaVuSans-2e" x="63.623047"/>
       <use xlink:href="#DejaVuSans-30" x="95.410156"/>
       <use xlink:href="#DejaVuSans-30" x="159.033203"/>
      </g>
     </g>
    </g>
    <g id="xtick_2">
     <g id="line2d_2">
      <g>
       <use xlink:href="#me7c35ed188" x="115.763936" y="170.017187" style="stroke: #000000; stroke-width: 0.8"/>
      </g>
     </g>
     <g id="text_2">
      <!-- 0.05 -->
      <g transform="translate(104.631124 184.615625) scale(0.1 -0.1)">
       <defs>
        <path id="DejaVuSans-35" d="M 691 4666 
L 3169 4666 
L 3169 4134 
L 1269 4134 
L 1269 2991 
Q 1406 3038 1543 3061 
Q 1681 3084 1819 3084 
Q 2600 3084 3056 2656 
Q 3513 2228 3513 1497 
Q 3513 744 3044 326 
Q 2575 -91 1722 -91 
Q 1428 -91 1123 -41 
Q 819 9 494 109 
L 494 744 
Q 775 591 1075 516 
Q 1375 441 1709 441 
Q 2250 441 2565 725 
Q 2881 1009 2881 1497 
Q 2881 1984 2565 2268 
Q 2250 2553 1709 2553 
Q 1456 2553 1204 2497 
Q 953 2441 691 2322 
L 691 4666 
z
" transform="scale(0.015625)"/>
       </defs>
       <use xlink:href="#DejaVuSans-30"/>
       <use xlink:href="#DejaVuSans-2e" x="63.623047"/>
       <use xlink:href="#DejaVuSans-30" x="95.410156"/>
       <use xlink:href="#DejaVuSans-35" x="159.033203"/>
      </g>
     </g>
    </g>
    <g id="xtick_3">
     <g id="line2d_3">
      <g>
       <use xlink:href="#me7c35ed188" x="180.362077" y="170.017187" style="stroke: #000000; stroke-width: 0.8"/>
      </g>
     </g>
     <g id="text_3">
      <!-- 0.10 -->
      <g transform="translate(169.229265 184.615625) scale(0.1 -0.1)">
       <defs>
        <path id="DejaVuSans-31" d="M 794 531 
L 1825 531 
L 1825 4091 
L 703 3866 
L 703 4441 
L 1819 4666 
L 2450 4666 
L 2450 531 
L 3481 531 
L 3481 0 
L 794 0 
L 794 531 
z
" transform="scale(0.015625)"/>
       </defs>
       <use xlink:href="#DejaVuSans-30"/>
       <use xlink:href="#DejaVuSans-2e" x="63.623047"/>
       <use xlink:href="#DejaVuSans-31" x="95.410156"/>
       <use xlink:href="#DejaVuSans-30" x="159.033203"/>
      </g>
     </g>
    </g>
    <g id="text_4">
     <!-- false_pos -->
     <g transform="translate(101.778437 198.29375) scale(0.1 -0.1)">
      <defs>
       <path id="DejaVuSans-66" d="M 2375 4863 
L 2375 4384 
L 1825 4384 
Q 1516 4384 1395 4259 
Q 1275 4134 1275 3809 
L 1275 3500 
L 2222 3500 
L 2222 3053 
L 1275 3053 
L 1275 0 
L 697 0 
L 697 3053 
L 147 3053 
L 147 3500 
L 697 3500 
L 697 3744 
Q 697 4328 969 4595 
Q 1241 4863 1831 4863 
L 2375 4863 
z
" transform="scale(0.015625)"/>
       <path id="DejaVuSans-61" d="M 2194 1759 
Q 1497 1759 1228 1600 
Q 959 1441 959 1056 
Q 959 750 1161 570 
Q 1363 391 1709 391 
Q 2188 391 2477 730 
Q 2766 1069 2766 1631 
L 2766 1759 
L 2194 1759 
z
M 3341 1997 
L 3341 0 
L 2766 0 
L 2766 531 
Q 2569 213 2275 61 
Q 1981 -91 1556 -91 
Q 1019 -91 701 211 
Q 384 513 384 1019 
Q 384 1609 779 1909 
Q 1175 2209 1959 2209 
L 2766 2209 
L 2766 2266 
Q 2766 2663 2505 2880 
Q 2244 3097 1772 3097 
Q 1472 3097 1187 3025 
Q 903 2953 641 2809 
L 641 3341 
Q 956 3463 1253 3523 
Q 1550 3584 1831 3584 
Q 2591 3584 2966 3190 
Q 3341 2797 3341 1997 
z
" transform="scale(0.015625)"/>
       <path id="DejaVuSans-6c" d="M 603 4863 
L 1178 4863 
L 1178 0 
L 603 0 
L 603 4863 
z
" transform="scale(0.015625)"/>
       <path id="DejaVuSans-73" d="M 2834 3397 
L 2834 2853 
Q 2591 2978 2328 3040 
Q 2066 3103 1784 3103 
Q 1356 3103 1142 2972 
Q 928 2841 928 2578 
Q 928 2378 1081 2264 
Q 1234 2150 1697 2047 
L 1894 2003 
Q 2506 1872 2764 1633 
Q 3022 1394 3022 966 
Q 3022 478 2636 193 
Q 2250 -91 1575 -91 
Q 1294 -91 989 -36 
Q 684 19 347 128 
L 347 722 
Q 666 556 975 473 
Q 1284 391 1588 391 
Q 1994 391 2212 530 
Q 2431 669 2431 922 
Q 2431 1156 2273 1281 
Q 2116 1406 1581 1522 
L 1381 1569 
Q 847 1681 609 1914 
Q 372 2147 372 2553 
Q 372 3047 722 3315 
Q 1072 3584 1716 3584 
Q 2034 3584 2315 3537 
Q 2597 3491 2834 3397 
z
" transform="scale(0.015625)"/>
       <path id="DejaVuSans-65" d="M 3597 1894 
L 3597 1613 
L 953 1613 
Q 991 1019 1311 708 
Q 1631 397 2203 397 
Q 2534 397 2845 478 
Q 3156 559 3463 722 
L 3463 178 
Q 3153 47 2828 -22 
Q 2503 -91 2169 -91 
Q 1331 -91 842 396 
Q 353 884 353 1716 
Q 353 2575 817 3079 
Q 1281 3584 2069 3584 
Q 2775 3584 3186 3129 
Q 3597 2675 3597 1894 
z
M 3022 2063 
Q 3016 2534 2758 2815 
Q 2500 3097 2075 3097 
Q 1594 3097 1305 2825 
Q 1016 2553 972 2059 
L 3022 2063 
z
" transform="scale(0.015625)"/>
       <path id="DejaVuSans-5f" d="M 3263 -1063 
L 3263 -1509 
L -63 -1509 
L -63 -1063 
L 3263 -1063 
z
" transform="scale(0.015625)"/>
       <path id="DejaVuSans-70" d="M 1159 525 
L 1159 -1331 
L 581 -1331 
L 581 3500 
L 1159 3500 
L 1159 2969 
Q 1341 3281 1617 3432 
Q 1894 3584 2278 3584 
Q 2916 3584 3314 3078 
Q 3713 2572 3713 1747 
Q 3713 922 3314 415 
Q 2916 -91 2278 -91 
Q 1894 -91 1617 61 
Q 1341 213 1159 525 
z
M 3116 1747 
Q 3116 2381 2855 2742 
Q 2594 3103 2138 3103 
Q 1681 3103 1420 2742 
Q 1159 2381 1159 1747 
Q 1159 1113 1420 752 
Q 1681 391 2138 391 
Q 2594 391 2855 752 
Q 3116 1113 3116 1747 
z
" transform="scale(0.015625)"/>
       <path id="DejaVuSans-6f" d="M 1959 3097 
Q 1497 3097 1228 2736 
Q 959 2375 959 1747 
Q 959 1119 1226 758 
Q 1494 397 1959 397 
Q 2419 397 2687 759 
Q 2956 1122 2956 1747 
Q 2956 2369 2687 2733 
Q 2419 3097 1959 3097 
z
M 1959 3584 
Q 2709 3584 3137 3096 
Q 3566 2609 3566 1747 
Q 3566 888 3137 398 
Q 2709 -91 1959 -91 
Q 1206 -91 779 398 
Q 353 888 353 1747 
Q 353 2609 779 3096 
Q 1206 3584 1959 3584 
z
" transform="scale(0.015625)"/>
      </defs>
      <use xlink:href="#DejaVuSans-66"/>
      <use xlink:href="#DejaVuSans-61" x="35.205078"/>
      <use xlink:href="#DejaVuSans-6c" x="96.484375"/>
      <use xlink:href="#DejaVuSans-73" x="124.267578"/>
      <use xlink:href="#DejaVuSans-65" x="176.367188"/>
      <use xlink:href="#DejaVuSans-5f" x="237.890625"/>
      <use xlink:href="#DejaVuSans-70" x="287.890625"/>
      <use xlink:href="#DejaVuSans-6f" x="351.367188"/>
      <use xlink:href="#DejaVuSans-73" x="412.548828"/>
     </g>
    </g>
   </g>
   <g id="matplotlib.axis_2">
    <g id="ytick_1">
     <g id="line2d_4">
      <defs>
       <path id="me5a7404bdd" d="M 0 0 
L -3.5 0 
" style="stroke: #000000; stroke-width: 0.8"/>
      </defs>
      <g>
       <use xlink:href="#me5a7404bdd" x="43.78125" y="163.234517" style="stroke: #000000; stroke-width: 0.8"/>
      </g>
     </g>
     <g id="text_5">
      <!-- 0.0 -->
      <g transform="translate(20.878125 167.033736) scale(0.1 -0.1)">
       <use xlink:href="#DejaVuSans-30"/>
       <use xlink:href="#DejaVuSans-2e" x="63.623047"/>
       <use xlink:href="#DejaVuSans-30" x="95.410156"/>
      </g>
     </g>
    </g>
    <g id="ytick_2">
     <g id="line2d_5">
      <g>
       <use xlink:href="#me5a7404bdd" x="43.78125" y="121.740533" style="stroke: #000000; stroke-width: 0.8"/>
      </g>
     </g>
     <g id="text_6">
      <!-- 0.1 -->
      <g transform="translate(20.878125 125.539752) scale(0.1 -0.1)">
       <use xlink:href="#DejaVuSans-30"/>
       <use xlink:href="#DejaVuSans-2e" x="63.623047"/>
       <use xlink:href="#DejaVuSans-31" x="95.410156"/>
      </g>
     </g>
    </g>
    <g id="ytick_3">
     <g id="line2d_6">
      <g>
       <use xlink:href="#me5a7404bdd" x="43.78125" y="80.246549" style="stroke: #000000; stroke-width: 0.8"/>
      </g>
     </g>
     <g id="text_7">
      <!-- 0.2 -->
      <g transform="translate(20.878125 84.045768) scale(0.1 -0.1)">
       <defs>
        <path id="DejaVuSans-32" d="M 1228 531 
L 3431 531 
L 3431 0 
L 469 0 
L 469 531 
Q 828 903 1448 1529 
Q 2069 2156 2228 2338 
Q 2531 2678 2651 2914 
Q 2772 3150 2772 3378 
Q 2772 3750 2511 3984 
Q 2250 4219 1831 4219 
Q 1534 4219 1204 4116 
Q 875 4013 500 3803 
L 500 4441 
Q 881 4594 1212 4672 
Q 1544 4750 1819 4750 
Q 2544 4750 2975 4387 
Q 3406 4025 3406 3419 
Q 3406 3131 3298 2873 
Q 3191 2616 2906 2266 
Q 2828 2175 2409 1742 
Q 1991 1309 1228 531 
z
" transform="scale(0.015625)"/>
       </defs>
       <use xlink:href="#DejaVuSans-30"/>
       <use xlink:href="#DejaVuSans-2e" x="63.623047"/>
       <use xlink:href="#DejaVuSans-32" x="95.410156"/>
      </g>
     </g>
    </g>
    <g id="ytick_4">
     <g id="line2d_7">
      <g>
       <use xlink:href="#me5a7404bdd" x="43.78125" y="38.752565" style="stroke: #000000; stroke-width: 0.8"/>
      </g>
     </g>
     <g id="text_8">
      <!-- 0.3 -->
      <g transform="translate(20.878125 42.551784) scale(0.1 -0.1)">
       <defs>
        <path id="DejaVuSans-33" d="M 2597 2516 
Q 3050 2419 3304 2112 
Q 3559 1806 3559 1356 
Q 3559 666 3084 287 
Q 2609 -91 1734 -91 
Q 1441 -91 1130 -33 
Q 819 25 488 141 
L 488 750 
Q 750 597 1062 519 
Q 1375 441 1716 441 
Q 2309 441 2620 675 
Q 2931 909 2931 1356 
Q 2931 1769 2642 2001 
Q 2353 2234 1838 2234 
L 1294 2234 
L 1294 2753 
L 1863 2753 
Q 2328 2753 2575 2939 
Q 2822 3125 2822 3475 
Q 2822 3834 2567 4026 
Q 2313 4219 1838 4219 
Q 1578 4219 1281 4162 
Q 984 4106 628 3988 
L 628 4550 
Q 988 4650 1302 4700 
Q 1616 4750 1894 4750 
Q 2613 4750 3031 4423 
Q 3450 4097 3450 3541 
Q 3450 3153 3228 2886 
Q 3006 2619 2597 2516 
z
" transform="scale(0.015625)"/>
       </defs>
       <use xlink:href="#DejaVuSans-30"/>
       <use xlink:href="#DejaVuSans-2e" x="63.623047"/>
       <use xlink:href="#DejaVuSans-33" x="95.410156"/>
      </g>
     </g>
    </g>
    <g id="text_9">
     <!-- true_pos -->
     <g transform="translate(14.520313 117.007031) rotate(-90) scale(0.1 -0.1)">
      <defs>
       <path id="DejaVuSans-74" d="M 1172 4494 
L 1172 3500 
L 2356 3500 
L 2356 3053 
L 1172 3053 
L 1172 1153 
Q 1172 725 1289 603 
Q 1406 481 1766 481 
L 2356 481 
L 2356 0 
L 1766 0 
Q 1100 0 847 248 
Q 594 497 594 1153 
L 594 3053 
L 172 3053 
L 172 3500 
L 594 3500 
L 594 4494 
L 1172 4494 
z
" transform="scale(0.015625)"/>
       <path id="DejaVuSans-72" d="M 2631 2963 
Q 2534 3019 2420 3045 
Q 2306 3072 2169 3072 
Q 1681 3072 1420 2755 
Q 1159 2438 1159 1844 
L 1159 0 
L 581 0 
L 581 3500 
L 1159 3500 
L 1159 2956 
Q 1341 3275 1631 3429 
Q 1922 3584 2338 3584 
Q 2397 3584 2469 3576 
Q 2541 3569 2628 3553 
L 2631 2963 
z
" transform="scale(0.015625)"/>
       <path id="DejaVuSans-75" d="M 544 1381 
L 544 3500 
L 1119 3500 
L 1119 1403 
Q 1119 906 1312 657 
Q 1506 409 1894 409 
Q 2359 409 2629 706 
Q 2900 1003 2900 1516 
L 2900 3500 
L 3475 3500 
L 3475 0 
L 2900 0 
L 2900 538 
Q 2691 219 2414 64 
Q 2138 -91 1772 -91 
Q 1169 -91 856 284 
Q 544 659 544 1381 
z
M 1991 3584 
L 1991 3584 
z
" transform="scale(0.015625)"/>
      </defs>
      <use xlink:href="#DejaVuSans-74"/>
      <use xlink:href="#DejaVuSans-72" x="39.208984"/>
      <use xlink:href="#DejaVuSans-75" x="80.322266"/>
      <use xlink:href="#DejaVuSans-65" x="143.701172"/>
      <use xlink:href="#DejaVuSans-5f" x="205.224609"/>
      <use xlink:href="#DejaVuSans-70" x="255.224609"/>
      <use xlink:href="#DejaVuSans-6f" x="318.701172"/>
      <use xlink:href="#DejaVuSans-73" x="379.882812"/>
     </g>
    </g>
   </g>
   <g id="line2d_8">
    <path d="M 51.829702 163.234517 
L 51.829702 155.550446 
L 51.829702 155.550446 
L 67.099561 155.550446 
L 67.099561 147.866375 
L 67.099561 147.866375 
L 80.377699 147.866375 
L 80.377699 147.866375 
L 80.377699 140.182304 
L 80.377699 140.182304 
L 89.672395 140.182304 
L 89.672395 140.182304 
L 89.672395 132.498233 
L 89.672395 132.498233 
L 99.630999 132.498233 
L 99.630999 132.498233 
L 99.630999 124.814162 
L 101.622719 124.814162 
L 101.622719 124.814162 
L 101.622719 117.13009 
L 101.622719 117.13009 
L 108.925695 117.13009 
L 108.925695 117.13009 
L 108.925695 109.446019 
L 108.925695 109.446019 
L 113.573044 109.446019 
L 113.573044 101.761948 
L 114.900857 101.761948 
L 114.900857 94.077877 
L 114.900857 94.077877 
L 115.564764 86.393806 
L 115.564764 86.393806 
L 124.859461 86.393806 
L 124.859461 86.393806 
L 126.187275 78.709735 
L 126.187275 78.709735 
L 176.644199 78.709735 
L 176.644199 78.709735 
" clip-path="url(#pcf6e39af59)" style="fill: none; stroke: #1f77b4; stroke-opacity: 0.9; stroke-linecap: square"/>
   </g>
   <g id="line2d_9">
    <path d="M 51.165795 152.019927 
L 55.114739 152.019927 
L 55.114739 152.019927 
L 55.114739 140.805337 
L 55.114739 140.805337 
L 62.35447 140.805337 
L 62.35447 140.805337 
L 62.35447 129.590746 
L 62.35447 129.590746 
L 126.853887 129.590746 
L 126.853887 129.590746 
L 126.853887 118.376156 
L 128.828359 118.376156 
L 128.828359 118.376156 
L 129.486516 107.161566 
L 129.486516 107.161566 
L 140.017034 107.161566 
L 140.675191 95.946975 
L 140.675191 95.946975 
L 142.649663 95.946975 
L 142.649663 95.946975 
L 142.649663 84.732385 
L 160.41991 84.732385 
L 160.41991 84.732385 
L 160.41991 73.517795 
L 160.41991 73.517795 
L 161.078068 73.517795 
L 161.736225 62.303205 
L 184.771731 62.303205 
L 184.771731 62.303205 
" clip-path="url(#pcf6e39af59)" style="fill: none; stroke: #ff7f0e; stroke-opacity: 0.9; stroke-linecap: square"/>
   </g>
   <g id="line2d_10">
    <path d="M 51.825971 163.234517 
L 51.825971 153.584753 
L 51.825971 153.584753 
L 53.146321 153.584753 
L 53.146321 153.584753 
L 53.146321 143.93499 
L 53.146321 143.93499 
L 58.427722 143.93499 
L 58.427722 143.93499 
L 58.427722 124.635462 
L 58.427722 124.635462 
L 84.834729 124.635462 
L 84.834729 124.635462 
L 84.834729 114.985698 
L 84.834729 114.985698 
L 94.077182 114.985698 
L 94.737357 105.335935 
L 94.737357 105.335935 
L 151.512422 105.335935 
L 152.832772 95.686171 
L 173.298203 95.686171 
L 173.298203 95.686171 
L 174.618553 76.386644 
L 174.618553 76.386644 
L 183.861006 76.386644 
L 183.861006 76.386644 
" clip-path="url(#pcf6e39af59)" style="fill: none; stroke: #2ca02c; stroke-opacity: 0.9; stroke-linecap: square"/>
   </g>
   <g id="line2d_11">
    <path d="M 51.830044 163.234517 
L 59.136774 163.234517 
L 59.136774 163.234517 
L 59.136774 155.690156 
L 59.136774 155.690156 
L 65.115008 155.690156 
L 65.115008 155.690156 
L 65.115008 148.145796 
L 65.115008 148.145796 
L 72.421739 148.145796 
L 72.421739 148.145796 
L 72.421739 140.601435 
L 72.421739 140.601435 
L 74.414484 140.601435 
L 74.414484 140.601435 
L 74.414484 133.057074 
L 74.414484 133.057074 
L 80.392718 133.057074 
L 80.392718 133.057074 
L 81.056966 125.512713 
L 81.056966 125.512713 
L 81.056966 117.968353 
L 81.056966 117.968353 
L 119.583364 117.968353 
L 119.583364 117.968353 
L 120.247612 110.423992 
L 132.20408 110.423992 
L 132.20408 110.423992 
L 132.20408 102.879631 
L 132.20408 102.879631 
L 143.4963 102.879631 
L 143.4963 102.879631 
L 144.824797 95.335271 
L 144.824797 95.335271 
L 157.445513 95.335271 
L 157.445513 95.335271 
L 157.445513 87.79091 
L 157.445513 87.79091 
L 158.77401 87.79091 
L 158.77401 87.79091 
L 158.77401 80.246549 
L 158.77401 80.246549 
L 179.365705 80.246549 
L 179.365705 72.702188 
L 187.336684 72.702188 
L 187.336684 65.157828 
L 187.336684 65.157828 
L 188.66518 65.157828 
L 188.66518 65.157828 
L 188.66518 57.613467 
L 188.66518 57.613467 
L 191.322173 57.613467 
L 191.322173 57.613467 
" clip-path="url(#pcf6e39af59)" style="fill: none; stroke: #d62728; stroke-opacity: 0.9; stroke-linecap: square"/>
   </g>
   <g id="line2d_12">
    <path d="M 51.830727 163.234517 
L 53.825523 163.234517 
L 53.825523 163.234517 
L 53.825523 155.954871 
L 53.825523 155.954871 
L 72.443618 155.954871 
L 72.443618 148.675224 
L 72.443618 148.675224 
L 74.438414 148.675224 
L 74.438414 141.395578 
L 76.43321 141.395578 
L 77.098142 134.115932 
L 77.098142 134.115932 
L 89.73185 134.115932 
L 89.73185 134.115932 
L 90.396782 126.836286 
L 90.396782 126.836286 
L 98.375965 126.836286 
L 98.375965 119.556639 
L 98.375965 119.556639 
L 106.355149 119.556639 
L 106.355149 119.556639 
L 107.020081 112.276993 
L 107.020081 112.276993 
L 133.61736 112.276993 
L 133.61736 104.997347 
L 133.61736 104.997347 
L 142.261475 104.997347 
L 142.261475 97.7177 
L 148.910795 97.7177 
L 148.910795 97.7177 
L 149.575727 90.438054 
L 149.575727 90.438054 
L 152.900387 90.438054 
L 152.900387 83.158408 
L 152.900387 83.158408 
L 178.832734 83.158408 
L 178.832734 83.158408 
" clip-path="url(#pcf6e39af59)" style="fill: none; stroke: #9467bd; stroke-opacity: 0.9; stroke-linecap: square"/>
   </g>
   <g id="line2d_13">
    <path d="M 51.165795 156.080382 
L 51.83107 156.080382 
L 51.83107 156.080382 
L 51.83107 148.926247 
L 51.83107 148.926247 
L 52.496344 148.926247 
L 52.496344 148.926247 
L 52.496344 134.617976 
L 52.496344 134.617976 
L 53.161619 134.617976 
L 53.161619 134.617976 
L 53.161619 127.463841 
L 53.161619 127.463841 
L 98.400275 127.463841 
L 98.400275 127.463841 
L 98.400275 120.309706 
L 98.400275 120.309706 
L 113.036311 120.309706 
L 113.036311 106.001436 
L 116.362683 106.001436 
L 116.362683 106.001436 
L 116.362683 98.847301 
L 140.977835 98.847301 
L 141.643109 91.693165 
L 141.643109 91.693165 
L 147.630578 91.693165 
L 147.630578 91.693165 
L 148.295853 84.53903 
L 148.295853 84.53903 
L 152.287499 84.53903 
L 152.287499 84.53903 
L 152.287499 77.384895 
L 152.287499 77.384895 
L 156.94442 77.384895 
L 157.609694 70.23076 
L 157.609694 70.23076 
L 198.19143 70.23076 
L 198.19143 63.076625 
L 198.856705 63.076625 
L 198.856705 63.076625 
" clip-path="url(#pcf6e39af59)" style="fill: none; stroke: #8c564b; stroke-opacity: 0.9; stroke-linecap: square"/>
   </g>
   <g id="line2d_14">
    <path d="M 51.82834 163.234517 
L 54.478521 163.234517 
L 54.478521 163.234517 
L 54.478521 154.93572 
L 54.478521 154.93572 
L 62.429061 154.93572 
L 62.429061 154.93572 
L 63.091606 146.636923 
L 69.054511 146.636923 
L 69.054511 146.636923 
L 69.054511 138.338127 
L 69.054511 138.338127 
L 75.017417 138.338127 
L 75.017417 130.03933 
L 75.017417 130.03933 
L 79.655232 130.03933 
L 79.655232 121.740533 
L 110.794849 121.740533 
L 110.794849 121.740533 
L 110.794849 113.441736 
L 110.794849 113.441736 
L 154.522821 113.441736 
L 154.522821 105.14294 
L 177.711897 105.14294 
L 177.711897 96.844143 
L 177.711897 96.844143 
L 183.012257 96.844143 
L 183.012257 96.844143 
" clip-path="url(#pcf6e39af59)" style="fill: none; stroke: #e377c2; stroke-opacity: 0.9; stroke-linecap: square"/>
   </g>
   <g id="line2d_15">
    <path d="M 51.829021 163.234517 
L 51.829021 155.254905 
L 51.829021 155.254905 
L 52.492246 155.254905 
L 52.492246 155.254905 
L 52.492246 147.275292 
L 52.492246 147.275292 
L 53.818697 147.275292 
L 53.818697 147.275292 
L 53.818697 131.316068 
L 53.818697 131.316068 
L 63.767076 131.316068 
L 63.767076 131.316068 
L 63.767076 123.336456 
L 63.767076 123.336456 
L 64.430301 123.336456 
L 64.430301 123.336456 
L 64.430301 115.356843 
L 64.430301 115.356843 
L 78.358031 115.356843 
L 78.358031 115.356843 
L 78.358031 107.377231 
L 80.347707 107.377231 
L 80.347707 99.397619 
L 80.347707 99.397619 
L 83.000608 99.397619 
L 83.000608 99.397619 
L 84.327059 83.438394 
L 85.653509 83.438394 
L 85.653509 83.438394 
L 85.653509 75.458782 
L 85.653509 75.458782 
L 122.794124 75.458782 
L 123.457349 67.479169 
L 123.457349 67.479169 
L 124.7838 67.479169 
L 126.11025 59.499557 
L 126.11025 59.499557 
L 137.38508 59.499557 
L 137.38508 59.499557 
L 137.38508 51.519945 
L 137.38508 51.519945 
L 151.312811 51.519945 
L 151.312811 43.540333 
L 151.976036 43.540333 
L 153.302486 35.56072 
L 173.86247 35.56072 
L 174.525695 27.581108 
L 177.841821 27.581108 
L 177.841821 27.581108 
" clip-path="url(#pcf6e39af59)" style="fill: none; stroke: #7f7f7f; stroke-opacity: 0.9; stroke-linecap: square"/>
   </g>
   <g id="line2d_16">
    <path d="M 51.165795 156.432225 
L 51.832099 156.432225 
L 51.832099 156.432225 
L 51.832099 149.629932 
L 51.832099 149.629932 
L 52.498403 149.629932 
L 53.164706 142.82764 
L 53.164706 142.82764 
L 60.494047 142.82764 
L 60.494047 136.025347 
L 60.494047 136.025347 
L 62.492958 136.025347 
L 62.492958 136.025347 
L 62.492958 129.223055 
L 65.158173 129.223055 
L 65.158173 129.223055 
L 65.158173 122.420762 
L 65.158173 122.420762 
L 84.480979 122.420762 
L 84.480979 122.420762 
L 84.480979 115.61847 
L 90.477712 115.61847 
L 90.477712 115.61847 
L 91.144016 108.816177 
L 91.144016 108.816177 
L 93.80923 108.816177 
L 93.80923 108.816177 
L 93.80923 102.013885 
L 93.80923 102.013885 
L 102.471178 102.013885 
L 103.803785 95.211593 
L 111.799429 95.211593 
L 112.465733 88.4093 
L 115.797252 88.4093 
L 115.797252 81.607008 
L 128.457021 81.607008 
L 128.457021 74.804715 
L 129.789629 74.804715 
L 129.789629 74.804715 
L 130.455932 68.002423 
L 130.455932 68.002423 
L 134.453754 68.002423 
L 134.453754 61.20013 
L 134.453754 61.20013 
L 146.44722 61.20013 
L 146.44722 54.397838 
L 159.10699 54.397838 
L 159.773294 47.595545 
L 159.773294 47.595545 
L 165.770027 47.595545 
L 167.102634 40.793253 
L 176.430886 40.793253 
L 177.763493 33.99096 
L 185.092833 33.99096 
L 185.092833 33.99096 
" clip-path="url(#pcf6e39af59)" style="fill: none; stroke: #bcbd22; stroke-opacity: 0.9; stroke-linecap: square"/>
   </g>
   <g id="line2d_17"/>
   <g id="line2d_18"/>
   <g id="line2d_19"/>
   <g id="line2d_20"/>
   <g id="line2d_21"/>
   <g id="line2d_22"/>
   <g id="line2d_23"/>
   <g id="line2d_24"/>
   <g id="line2d_25"/>
   <g id="line2d_26">
    <path d="M 43.78125 165.606212 
L 206.24125 113.428916 
" clip-path="url(#pcf6e39af59)" style="fill: none; stroke-dasharray: 1,1.65; stroke-dashoffset: 0; stroke: #000000; stroke-opacity: 0.8"/>
   </g>
   <g id="PathCollection_1">
    <defs>
     <path id="C0_0_2fa74c9e17" d="M -1.767767 3.535534 
L 0 1.767767 
L 1.767767 3.535534 
L 3.535534 1.767767 
L 1.767767 -0 
L 3.535534 -1.767767 
L 1.767767 -3.535534 
L 0 -1.767767 
L -1.767767 -3.535534 
L -3.535534 -1.767767 
L -1.767767 0 
L -3.535534 1.767767 
z
"/>
    </defs>
    <g clip-path="url(#pcf6e39af59)">
     <use xlink:href="#C0_0_2fa74c9e17" x="117.556485" y="94.077877" style="fill: #1f77b4; stroke: #ffffff; stroke-width: 0.565685"/>
    </g>
    <g clip-path="url(#pcf6e39af59)">
     <use xlink:href="#C0_0_2fa74c9e17" x="143.965977" y="84.732385" style="fill: #ff7f0e; stroke: #ffffff; stroke-width: 0.565685"/>
    </g>
    <g clip-path="url(#pcf6e39af59)">
     <use xlink:href="#C0_0_2fa74c9e17" x="125.105415" y="105.335935" style="fill: #2ca02c; stroke: #ffffff; stroke-width: 0.565685"/>
    </g>
    <g clip-path="url(#pcf6e39af59)">
     <use xlink:href="#C0_0_2fa74c9e17" x="148.146038" y="95.335271" style="fill: #d62728; stroke: #ffffff; stroke-width: 0.565685"/>
    </g>
    <g clip-path="url(#pcf6e39af59)">
     <use xlink:href="#C0_0_2fa74c9e17" x="119.653788" y="112.276993" style="fill: #9467bd; stroke: #ffffff; stroke-width: 0.565685"/>
    </g>
    <g clip-path="url(#pcf6e39af59)">
     <use xlink:href="#C0_0_2fa74c9e17" x="118.358506" y="91.693165" style="fill: #8c564b; stroke: #ffffff; stroke-width: 0.565685"/>
    </g>
    <g clip-path="url(#pcf6e39af59)">
     <use xlink:href="#C0_0_2fa74c9e17" x="105.494488" y="121.740533" style="fill: #e377c2; stroke: #ffffff; stroke-width: 0.565685"/>
    </g>
    <g clip-path="url(#pcf6e39af59)">
     <use xlink:href="#C0_0_2fa74c9e17" x="89.632861" y="75.458782" style="fill: #7f7f7f; stroke: #ffffff; stroke-width: 0.565685"/>
    </g>
    <g clip-path="url(#pcf6e39af59)">
     <use xlink:href="#C0_0_2fa74c9e17" x="110.466822" y="88.4093" style="fill: #bcbd22; stroke: #ffffff; stroke-width: 0.565685"/>
    </g>
   </g>
   <g id="line2d_27"/>
   <g id="line2d_28"/>
   <g id="line2d_29"/>
   <g id="line2d_30"/>
   <g id="line2d_31"/>
   <g id="line2d_32"/>
   <g id="line2d_33"/>
   <g id="line2d_34"/>
   <g id="line2d_35"/>
   <g id="patch_3">
    <path d="M 43.78125 170.017187 
L 43.78125 20.798437 
" style="fill: none; stroke: #000000; stroke-width: 0.8; stroke-linejoin: miter; stroke-linecap: square"/>
   </g>
   <g id="patch_4">
    <path d="M 43.78125 170.017187 
L 206.24125 170.017187 
" style="fill: none; stroke: #000000; stroke-width: 0.8; stroke-linejoin: miter; stroke-linecap: square"/>
   </g>
   <g id="text_10">
    <!-- dataset = org -->
    <g transform="translate(90.537812 14.798437) scale(0.1 -0.1)">
     <defs>
      <path id="DejaVuSans-64" d="M 2906 2969 
L 2906 4863 
L 3481 4863 
L 3481 0 
L 2906 0 
L 2906 525 
Q 2725 213 2448 61 
Q 2172 -91 1784 -91 
Q 1150 -91 751 415 
Q 353 922 353 1747 
Q 353 2572 751 3078 
Q 1150 3584 1784 3584 
Q 2172 3584 2448 3432 
Q 2725 3281 2906 2969 
z
M 947 1747 
Q 947 1113 1208 752 
Q 1469 391 1925 391 
Q 2381 391 2643 752 
Q 2906 1113 2906 1747 
Q 2906 2381 2643 2742 
Q 2381 3103 1925 3103 
Q 1469 3103 1208 2742 
Q 947 2381 947 1747 
z
" transform="scale(0.015625)"/>
      <path id="DejaVuSans-20" transform="scale(0.015625)"/>
      <path id="DejaVuSans-3d" d="M 678 2906 
L 4684 2906 
L 4684 2381 
L 678 2381 
L 678 2906 
z
M 678 1631 
L 4684 1631 
L 4684 1100 
L 678 1100 
L 678 1631 
z
" transform="scale(0.015625)"/>
      <path id="DejaVuSans-67" d="M 2906 1791 
Q 2906 2416 2648 2759 
Q 2391 3103 1925 3103 
Q 1463 3103 1205 2759 
Q 947 2416 947 1791 
Q 947 1169 1205 825 
Q 1463 481 1925 481 
Q 2391 481 2648 825 
Q 2906 1169 2906 1791 
z
M 3481 434 
Q 3481 -459 3084 -895 
Q 2688 -1331 1869 -1331 
Q 1566 -1331 1297 -1286 
Q 1028 -1241 775 -1147 
L 775 -588 
Q 1028 -725 1275 -790 
Q 1522 -856 1778 -856 
Q 2344 -856 2625 -561 
Q 2906 -266 2906 331 
L 2906 616 
Q 2728 306 2450 153 
Q 2172 0 1784 0 
Q 1141 0 747 490 
Q 353 981 353 1791 
Q 353 2603 747 3093 
Q 1141 3584 1784 3584 
Q 2172 3584 2450 3431 
Q 2728 3278 2906 2969 
L 2906 3500 
L 3481 3500 
L 3481 434 
z
" transform="scale(0.015625)"/>
     </defs>
     <use xlink:href="#DejaVuSans-64"/>
     <use xlink:href="#DejaVuSans-61" x="63.476562"/>
     <use xlink:href="#DejaVuSans-74" x="124.755859"/>
     <use xlink:href="#DejaVuSans-61" x="163.964844"/>
     <use xlink:href="#DejaVuSans-73" x="225.244141"/>
     <use xlink:href="#DejaVuSans-65" x="277.34375"/>
     <use xlink:href="#DejaVuSans-74" x="338.867188"/>
     <use xlink:href="#DejaVuSans-20" x="378.076172"/>
     <use xlink:href="#DejaVuSans-3d" x="409.863281"/>
     <use xlink:href="#DejaVuSans-20" x="493.652344"/>
     <use xlink:href="#DejaVuSans-6f" x="525.439453"/>
     <use xlink:href="#DejaVuSans-72" x="586.621094"/>
     <use xlink:href="#DejaVuSans-67" x="625.984375"/>
    </g>
   </g>
  </g>
  <g id="axes_2">
   <g id="patch_5">
    <path d="M 254.05125 170.017187 
L 416.51125 170.017187 
L 416.51125 20.798437 
L 254.05125 20.798437 
z
" style="fill: #ffffff"/>
   </g>
   <g id="matplotlib.axis_3">
    <g id="xtick_4">
     <g id="line2d_36">
      <g>
       <use xlink:href="#me7c35ed188" x="261.435795" y="170.017187" style="stroke: #000000; stroke-width: 0.8"/>
      </g>
     </g>
     <g id="text_11">
      <!-- 0.00 -->
      <g transform="translate(250.302983 184.615625) scale(0.1 -0.1)">
       <use xlink:href="#DejaVuSans-30"/>
       <use xlink:href="#DejaVuSans-2e" x="63.623047"/>
       <use xlink:href="#DejaVuSans-30" x="95.410156"/>
       <use xlink:href="#DejaVuSans-30" x="159.033203"/>
      </g>
     </g>
    </g>
    <g id="xtick_5">
     <g id="line2d_37">
      <g>
       <use xlink:href="#me7c35ed188" x="300.80655" y="170.017187" style="stroke: #000000; stroke-width: 0.8"/>
      </g>
     </g>
     <g id="text_12">
      <!-- 0.02 -->
      <g transform="translate(289.673738 184.615625) scale(0.1 -0.1)">
       <use xlink:href="#DejaVuSans-30"/>
       <use xlink:href="#DejaVuSans-2e" x="63.623047"/>
       <use xlink:href="#DejaVuSans-30" x="95.410156"/>
       <use xlink:href="#DejaVuSans-32" x="159.033203"/>
      </g>
     </g>
    </g>
    <g id="xtick_6">
     <g id="line2d_38">
      <g>
       <use xlink:href="#me7c35ed188" x="340.177305" y="170.017187" style="stroke: #000000; stroke-width: 0.8"/>
      </g>
     </g>
     <g id="text_13">
      <!-- 0.04 -->
      <g transform="translate(329.044492 184.615625) scale(0.1 -0.1)">
       <defs>
        <path id="DejaVuSans-34" d="M 2419 4116 
L 825 1625 
L 2419 1625 
L 2419 4116 
z
M 2253 4666 
L 3047 4666 
L 3047 1625 
L 3713 1625 
L 3713 1100 
L 3047 1100 
L 3047 0 
L 2419 0 
L 2419 1100 
L 313 1100 
L 313 1709 
L 2253 4666 
z
" transform="scale(0.015625)"/>
       </defs>
       <use xlink:href="#DejaVuSans-30"/>
       <use xlink:href="#DejaVuSans-2e" x="63.623047"/>
       <use xlink:href="#DejaVuSans-30" x="95.410156"/>
       <use xlink:href="#DejaVuSans-34" x="159.033203"/>
      </g>
     </g>
    </g>
    <g id="xtick_7">
     <g id="line2d_39">
      <g>
       <use xlink:href="#me7c35ed188" x="379.548059" y="170.017187" style="stroke: #000000; stroke-width: 0.8"/>
      </g>
     </g>
     <g id="text_14">
      <!-- 0.06 -->
      <g transform="translate(368.415247 184.615625) scale(0.1 -0.1)">
       <defs>
        <path id="DejaVuSans-36" d="M 2113 2584 
Q 1688 2584 1439 2293 
Q 1191 2003 1191 1497 
Q 1191 994 1439 701 
Q 1688 409 2113 409 
Q 2538 409 2786 701 
Q 3034 994 3034 1497 
Q 3034 2003 2786 2293 
Q 2538 2584 2113 2584 
z
M 3366 4563 
L 3366 3988 
Q 3128 4100 2886 4159 
Q 2644 4219 2406 4219 
Q 1781 4219 1451 3797 
Q 1122 3375 1075 2522 
Q 1259 2794 1537 2939 
Q 1816 3084 2150 3084 
Q 2853 3084 3261 2657 
Q 3669 2231 3669 1497 
Q 3669 778 3244 343 
Q 2819 -91 2113 -91 
Q 1303 -91 875 529 
Q 447 1150 447 2328 
Q 447 3434 972 4092 
Q 1497 4750 2381 4750 
Q 2619 4750 2861 4703 
Q 3103 4656 3366 4563 
z
" transform="scale(0.015625)"/>
       </defs>
       <use xlink:href="#DejaVuSans-30"/>
       <use xlink:href="#DejaVuSans-2e" x="63.623047"/>
       <use xlink:href="#DejaVuSans-30" x="95.410156"/>
       <use xlink:href="#DejaVuSans-36" x="159.033203"/>
      </g>
     </g>
    </g>
    <g id="text_15">
     <!-- false_pos -->
     <g transform="translate(312.048437 198.29375) scale(0.1 -0.1)">
      <use xlink:href="#DejaVuSans-66"/>
      <use xlink:href="#DejaVuSans-61" x="35.205078"/>
      <use xlink:href="#DejaVuSans-6c" x="96.484375"/>
      <use xlink:href="#DejaVuSans-73" x="124.267578"/>
      <use xlink:href="#DejaVuSans-65" x="176.367188"/>
      <use xlink:href="#DejaVuSans-5f" x="237.890625"/>
      <use xlink:href="#DejaVuSans-70" x="287.890625"/>
      <use xlink:href="#DejaVuSans-6f" x="351.367188"/>
      <use xlink:href="#DejaVuSans-73" x="412.548828"/>
     </g>
    </g>
   </g>
   <g id="matplotlib.axis_4">
    <g id="ytick_5">
     <g id="line2d_40">
      <g>
       <use xlink:href="#me5a7404bdd" x="254.05125" y="163.234517" style="stroke: #000000; stroke-width: 0.8"/>
      </g>
     </g>
     <g id="text_16">
      <!-- 0.0 -->
      <g transform="translate(231.148125 167.033736) scale(0.1 -0.1)">
       <use xlink:href="#DejaVuSans-30"/>
       <use xlink:href="#DejaVuSans-2e" x="63.623047"/>
       <use xlink:href="#DejaVuSans-30" x="95.410156"/>
      </g>
     </g>
    </g>
    <g id="ytick_6">
     <g id="line2d_41">
      <g>
       <use xlink:href="#me5a7404bdd" x="254.05125" y="127.964631" style="stroke: #000000; stroke-width: 0.8"/>
      </g>
     </g>
     <g id="text_17">
      <!-- 0.2 -->
      <g transform="translate(231.148125 131.763849) scale(0.1 -0.1)">
       <use xlink:href="#DejaVuSans-30"/>
       <use xlink:href="#DejaVuSans-2e" x="63.623047"/>
       <use xlink:href="#DejaVuSans-32" x="95.410156"/>
      </g>
     </g>
    </g>
    <g id="ytick_7">
     <g id="line2d_42">
      <g>
       <use xlink:href="#me5a7404bdd" x="254.05125" y="92.694744" style="stroke: #000000; stroke-width: 0.8"/>
      </g>
     </g>
     <g id="text_18">
      <!-- 0.4 -->
      <g transform="translate(231.148125 96.493963) scale(0.1 -0.1)">
       <use xlink:href="#DejaVuSans-30"/>
       <use xlink:href="#DejaVuSans-2e" x="63.623047"/>
       <use xlink:href="#DejaVuSans-34" x="95.410156"/>
      </g>
     </g>
    </g>
    <g id="ytick_8">
     <g id="line2d_43">
      <g>
       <use xlink:href="#me5a7404bdd" x="254.05125" y="57.424858" style="stroke: #000000; stroke-width: 0.8"/>
      </g>
     </g>
     <g id="text_19">
      <!-- 0.6 -->
      <g transform="translate(231.148125 61.224077) scale(0.1 -0.1)">
       <use xlink:href="#DejaVuSans-30"/>
       <use xlink:href="#DejaVuSans-2e" x="63.623047"/>
       <use xlink:href="#DejaVuSans-36" x="95.410156"/>
      </g>
     </g>
    </g>
    <g id="ytick_9">
     <g id="line2d_44">
      <g>
       <use xlink:href="#me5a7404bdd" x="254.05125" y="22.154972" style="stroke: #000000; stroke-width: 0.8"/>
      </g>
     </g>
     <g id="text_20">
      <!-- 0.8 -->
      <g transform="translate(231.148125 25.95419) scale(0.1 -0.1)">
       <defs>
        <path id="DejaVuSans-38" d="M 2034 2216 
Q 1584 2216 1326 1975 
Q 1069 1734 1069 1313 
Q 1069 891 1326 650 
Q 1584 409 2034 409 
Q 2484 409 2743 651 
Q 3003 894 3003 1313 
Q 3003 1734 2745 1975 
Q 2488 2216 2034 2216 
z
M 1403 2484 
Q 997 2584 770 2862 
Q 544 3141 544 3541 
Q 544 4100 942 4425 
Q 1341 4750 2034 4750 
Q 2731 4750 3128 4425 
Q 3525 4100 3525 3541 
Q 3525 3141 3298 2862 
Q 3072 2584 2669 2484 
Q 3125 2378 3379 2068 
Q 3634 1759 3634 1313 
Q 3634 634 3220 271 
Q 2806 -91 2034 -91 
Q 1263 -91 848 271 
Q 434 634 434 1313 
Q 434 1759 690 2068 
Q 947 2378 1403 2484 
z
M 1172 3481 
Q 1172 3119 1398 2916 
Q 1625 2713 2034 2713 
Q 2441 2713 2670 2916 
Q 2900 3119 2900 3481 
Q 2900 3844 2670 4047 
Q 2441 4250 2034 4250 
Q 1625 4250 1398 4047 
Q 1172 3844 1172 3481 
z
" transform="scale(0.015625)"/>
       </defs>
       <use xlink:href="#DejaVuSans-30"/>
       <use xlink:href="#DejaVuSans-2e" x="63.623047"/>
       <use xlink:href="#DejaVuSans-38" x="95.410156"/>
      </g>
     </g>
    </g>
    <g id="text_21">
     <!-- true_pos -->
     <g transform="translate(224.790312 117.007031) rotate(-90) scale(0.1 -0.1)">
      <use xlink:href="#DejaVuSans-74"/>
      <use xlink:href="#DejaVuSans-72" x="39.208984"/>
      <use xlink:href="#DejaVuSans-75" x="80.322266"/>
      <use xlink:href="#DejaVuSans-65" x="143.701172"/>
      <use xlink:href="#DejaVuSans-5f" x="205.224609"/>
      <use xlink:href="#DejaVuSans-70" x="255.224609"/>
      <use xlink:href="#DejaVuSans-6f" x="318.701172"/>
      <use xlink:href="#DejaVuSans-73" x="379.882812"/>
     </g>
    </g>
   </g>
   <g id="line2d_45">
    <path d="M 261.435795 160.715239 
L 261.435795 143.080296 
L 261.435795 143.080296 
L 262.446857 143.080296 
L 262.446857 143.080296 
L 262.446857 127.964631 
L 262.446857 127.964631 
L 264.468981 127.964631 
L 264.468981 127.964631 
L 264.468981 125.445353 
L 264.468981 125.445353 
L 265.480043 125.445353 
L 265.480043 125.445353 
L 266.491106 122.926075 
L 266.491106 102.771855 
L 266.491106 102.771855 
L 267.502168 100.252577 
L 267.502168 100.252577 
L 267.502168 87.656189 
L 268.51323 87.656189 
L 268.51323 87.656189 
L 268.51323 82.617634 
L 268.51323 82.617634 
L 269.524292 82.617634 
L 269.524292 80.098356 
L 270.535354 80.098356 
L 270.535354 80.098356 
L 270.535354 75.059801 
L 270.535354 75.059801 
L 271.546416 75.059801 
L 271.546416 75.059801 
L 271.546416 64.982691 
L 271.546416 64.982691 
L 272.557478 64.982691 
L 272.557478 64.982691 
L 272.557478 57.424858 
L 272.557478 57.424858 
L 273.56854 64.982691 
L 273.56854 64.982691 
L 273.56854 57.424858 
L 273.56854 57.424858 
L 274.579602 77.579079 
L 274.579602 77.579079 
L 274.579602 64.982691 
L 274.579602 64.982691 
L 275.590664 90.175467 
L 275.590664 87.656189 
L 275.590664 80.098356 
L 276.601726 87.656189 
L 276.601726 85.136912 
L 276.601726 85.136912 
L 277.612788 87.656189 
L 279.634912 87.656189 
L 279.634912 87.656189 
L 280.645974 105.291132 
L 280.645974 105.291132 
L 280.645974 87.656189 
L 280.645974 87.656189 
L 281.657036 107.81041 
L 283.67916 110.329687 
L 283.67916 107.81041 
L 285.701284 112.848965 
L 285.701284 112.848965 
L 285.701284 110.329687 
L 286.712346 115.368243 
L 287.723408 115.368243 
L 287.723408 112.848965 
L 287.723408 112.848965 
L 288.73447 115.368243 
L 289.745532 122.926075 
L 289.745532 122.926075 
L 297.834028 122.926075 
L 299.856152 125.445353 
L 302.889338 127.964631 
L 302.889338 125.445353 
L 303.9004 125.445353 
L 304.911462 130.483908 
L 306.933586 133.003186 
L 317.044206 133.003186 
L 323.110578 135.522463 
L 324.12164 135.522463 
L 326.143764 138.041741 
L 336.254384 138.041741 
L 342.320756 148.118851 
L 344.34288 155.676684 
L 346.365004 158.195962 
L 349.39819 163.234517 
L 402.984477 163.234517 
L 402.984477 163.234517 
" clip-path="url(#p2c47cc158e)" style="fill: none; stroke: #1f77b4; stroke-opacity: 0.9; stroke-linecap: square"/>
   </g>
   <g id="line2d_46">
    <path d="M 261.435795 160.028164 
L 261.435795 108.726511 
L 261.435795 108.726511 
L 262.440151 108.726511 
L 262.440151 108.726511 
L 262.440151 70.250271 
L 262.440151 70.250271 
L 263.444507 70.250271 
L 263.444507 70.250271 
L 263.444507 63.837565 
L 263.444507 63.837565 
L 264.448863 67.043918 
L 264.448863 67.043918 
L 264.448863 47.805798 
L 264.448863 47.805798 
L 265.453219 89.488391 
L 265.453219 63.837565 
L 266.457575 99.107451 
L 266.457575 95.901098 
L 266.457575 89.488391 
L 266.457575 89.488391 
L 267.461931 108.726511 
L 267.461931 108.726511 
L 267.461931 99.107451 
L 268.466287 105.520158 
L 270.474999 105.520158 
L 270.474999 102.313804 
L 270.474999 102.313804 
L 271.479355 111.932864 
L 271.479355 111.932864 
L 271.479355 105.520158 
L 272.483711 111.932864 
L 272.483711 111.932864 
L 273.488067 115.139217 
L 273.488067 111.932864 
L 273.488067 111.932864 
L 274.492423 121.551924 
L 274.492423 121.551924 
L 274.492423 115.139217 
L 275.496779 127.964631 
L 277.505491 143.996397 
L 277.505491 143.996397 
L 277.505491 134.377337 
L 279.514203 143.996397 
L 280.518559 153.615457 
L 281.522915 153.615457 
L 282.527271 160.028164 
L 282.527271 156.82181 
L 282.527271 156.82181 
L 283.531627 163.234517 
L 283.531627 163.234517 
L 283.531627 160.028164 
L 284.535983 163.234517 
L 284.535983 163.234517 
L 328.727647 163.234517 
L 328.727647 163.234517 
" clip-path="url(#p2c47cc158e)" style="fill: none; stroke: #ff7f0e; stroke-opacity: 0.9; stroke-linecap: square"/>
   </g>
   <g id="line2d_47">
    <path d="M 261.435795 159.843182 
L 261.435795 30.972443 
L 261.435795 30.972443 
L 262.439639 30.972443 
L 262.439639 30.972443 
L 262.439639 27.581108 
L 262.439639 27.581108 
L 263.443483 75.059801 
L 263.443483 71.668466 
L 263.443483 27.581108 
L 263.443483 27.581108 
L 264.447327 105.581818 
L 264.447327 98.799148 
L 264.447327 75.059801 
L 265.451171 119.147159 
L 265.451171 115.755824 
L 265.451171 108.973153 
L 266.455015 122.538494 
L 267.458858 142.886506 
L 267.458858 142.886506 
L 267.458858 122.538494 
L 268.462702 142.886506 
L 269.466546 159.843182 
L 269.466546 146.277841 
L 270.47039 159.843182 
L 272.478077 159.843182 
L 272.478077 159.843182 
L 273.481921 163.234517 
L 273.481921 163.234517 
L 284.524203 163.234517 
L 284.524203 163.234517 
" clip-path="url(#p2c47cc158e)" style="fill: none; stroke: #2ca02c; stroke-opacity: 0.9; stroke-linecap: square"/>
   </g>
   <g id="line2d_48">
    <path d="M 261.435795 160.43532 
L 261.435795 118.44736 
L 261.435795 118.44736 
L 262.444785 115.648162 
L 262.444785 115.648162 
L 262.444785 96.053781 
L 263.453774 93.254584 
L 263.453774 93.254584 
L 264.462763 93.254584 
L 264.462763 93.254584 
L 264.462763 70.861005 
L 264.462763 70.861005 
L 265.471752 70.861005 
L 265.471752 70.861005 
L 265.471752 68.061808 
L 265.471752 68.061808 
L 267.48973 68.061808 
L 267.48973 68.061808 
L 267.48973 56.865018 
L 267.48973 56.865018 
L 268.498719 62.463413 
L 268.498719 62.463413 
L 268.498719 56.865018 
L 268.498719 56.865018 
L 269.507708 62.463413 
L 269.507708 62.463413 
L 269.507708 59.664216 
L 269.507708 59.664216 
L 270.516697 73.660202 
L 270.516697 62.463413 
L 271.525686 73.660202 
L 271.525686 73.660202 
L 272.534676 76.4594 
L 272.534676 76.4594 
L 272.534676 73.660202 
L 272.534676 73.660202 
L 274.552654 79.258597 
L 274.552654 73.660202 
L 276.570632 84.856992 
L 276.570632 84.856992 
L 276.570632 79.258597 
L 278.58861 87.656189 
L 278.58861 87.656189 
L 278.58861 84.856992 
L 278.58861 84.856992 
L 279.597599 84.856992 
L 279.597599 82.057794 
L 279.597599 82.057794 
L 280.606588 82.057794 
L 282.624567 90.455386 
L 282.624567 84.856992 
L 283.633556 98.852978 
L 283.633556 93.254584 
L 285.651534 104.451373 
L 285.651534 93.254584 
L 287.669512 118.44736 
L 287.669512 107.25057 
L 287.669512 107.25057 
L 290.696479 121.246557 
L 292.714458 135.242544 
L 292.714458 121.246557 
L 294.732436 152.037728 
L 294.732436 138.041741 
L 295.741425 163.234517 
L 295.741425 152.037728 
L 296.750414 163.234517 
L 296.750414 163.234517 
L 363.343695 163.234517 
L 363.343695 163.234517 
" clip-path="url(#p2c47cc158e)" style="fill: none; stroke: #d62728; stroke-opacity: 0.9; stroke-linecap: square"/>
   </g>
   <g id="line2d_49">
    <path d="M 261.435795 160.602436 
L 261.435795 129.017463 
L 261.435795 129.017463 
L 262.447377 129.017463 
L 262.447377 129.017463 
L 262.447377 100.064571 
L 264.47054 100.064571 
L 264.47054 94.800409 
L 264.47054 94.800409 
L 266.493703 89.536247 
L 266.493703 89.536247 
L 266.493703 65.847517 
L 266.493703 65.847517 
L 269.528448 65.847517 
L 269.528448 65.847517 
L 269.528448 63.215436 
L 269.528448 63.215436 
L 270.54003 60.583355 
L 270.54003 60.583355 
L 270.54003 42.158788 
L 270.54003 42.158788 
L 271.551611 42.158788 
L 271.551611 42.158788 
L 272.563193 55.319193 
L 272.563193 39.526707 
L 272.563193 39.526707 
L 273.574774 55.319193 
L 273.574774 55.319193 
L 274.586356 57.951274 
L 274.586356 57.951274 
L 274.586356 55.319193 
L 275.597937 71.11168 
L 275.597937 71.11168 
L 275.597937 55.319193 
L 275.597937 55.319193 
L 276.609519 76.375842 
L 276.609519 71.11168 
L 276.609519 71.11168 
L 277.621101 81.640004 
L 277.621101 79.007923 
L 277.621101 79.007923 
L 278.632682 105.328733 
L 278.632682 102.696652 
L 278.632682 79.007923 
L 279.644264 115.857058 
L 279.644264 115.857058 
L 279.644264 107.960815 
L 279.644264 107.960815 
L 281.667427 126.385382 
L 281.667427 126.385382 
L 281.667427 123.753301 
L 281.667427 123.753301 
L 282.679008 129.017463 
L 282.679008 126.385382 
L 284.702172 131.649544 
L 284.702172 131.649544 
L 285.713753 139.545787 
L 285.713753 139.545787 
L 285.713753 134.281625 
L 286.725335 139.545787 
L 287.736916 150.074112 
L 287.736916 142.177868 
L 289.760079 152.706193 
L 290.771661 152.706193 
L 291.783243 155.338274 
L 291.783243 152.706193 
L 295.829569 152.706193 
L 295.829569 152.706193 
L 296.84115 157.970355 
L 298.864314 163.234517 
L 409.126705 163.234517 
L 409.126705 163.234517 
" clip-path="url(#p2c47cc158e)" style="fill: none; stroke: #9467bd; stroke-opacity: 0.9; stroke-linecap: square"/>
   </g>
   <g id="line2d_50">
    <path d="M 261.435795 160.140667 
L 261.435795 33.29283 
L 261.435795 33.29283 
L 262.441177 76.606726 
L 262.441177 73.512876 
L 262.441177 54.949778 
L 262.441177 54.949778 
L 263.446559 110.639072 
L 263.446559 107.545223 
L 263.446559 70.419027 
L 263.446559 70.419027 
L 265.457323 153.952968 
L 265.457323 116.826772 
L 265.457323 116.826772 
L 266.462705 163.234517 
L 266.462705 160.140667 
L 266.462705 157.046818 
L 267.468087 163.234517 
L 351.920165 163.234517 
L 351.920165 163.234517 
" clip-path="url(#p2c47cc158e)" style="fill: none; stroke: #8c564b; stroke-opacity: 0.9; stroke-linecap: square"/>
   </g>
   <g id="line2d_51">
    <path d="M 261.435795 160.028164 
L 261.435795 95.901098 
L 261.435795 95.901098 
L 262.439128 95.901098 
L 262.439128 95.901098 
L 262.439128 51.012151 
L 262.439128 51.012151 
L 263.44246 60.631211 
L 263.44246 60.631211 
L 263.44246 54.218505 
L 263.44246 54.218505 
L 266.452456 63.837565 
L 266.452456 63.837565 
L 266.452456 51.012151 
L 266.452456 51.012151 
L 267.455789 54.218505 
L 268.459121 63.837565 
L 268.459121 63.837565 
L 268.459121 54.218505 
L 268.459121 54.218505 
L 269.462453 73.456624 
L 269.462453 73.456624 
L 269.462453 67.043918 
L 269.462453 67.043918 
L 270.465785 79.869331 
L 270.465785 79.869331 
L 271.469117 83.075684 
L 271.469117 79.869331 
L 271.469117 79.869331 
L 272.472449 83.075684 
L 272.472449 76.662978 
L 272.472449 76.662978 
L 273.475782 76.662978 
L 273.475782 76.662978 
L 274.479114 79.869331 
L 274.479114 79.869331 
L 275.482446 118.345571 
L 275.482446 115.139217 
L 275.482446 79.869331 
L 276.485778 127.964631 
L 278.492442 140.790044 
L 278.492442 140.790044 
L 278.492442 134.377337 
L 279.495775 140.790044 
L 281.502439 147.202751 
L 281.502439 143.996397 
L 282.505771 150.409104 
L 282.505771 150.409104 
L 283.509103 150.409104 
L 284.512436 153.615457 
L 286.5191 153.615457 
L 289.529096 156.82181 
L 290.532429 163.234517 
L 290.532429 163.234517 
L 290.532429 160.028164 
L 291.535761 163.234517 
L 389.862314 163.234517 
L 389.862314 163.234517 
" clip-path="url(#p2c47cc158e)" style="fill: none; stroke: #e377c2; stroke-opacity: 0.9; stroke-linecap: square"/>
   </g>
   <g id="line2d_52">
    <path d="M 261.435795 159.776685 
L 261.435795 107.909205 
L 261.435795 107.909205 
L 262.438617 107.909205 
L 262.438617 31.836901 
L 262.438617 31.836901 
L 263.441438 56.041725 
L 263.441438 56.041725 
L 263.441438 42.210397 
L 263.441438 42.210397 
L 264.444259 66.415221 
L 264.444259 66.415221 
L 264.444259 56.041725 
L 264.444259 56.041725 
L 266.449901 76.788717 
L 266.449901 76.788717 
L 266.449901 62.957389 
L 266.449901 62.957389 
L 267.452722 83.704381 
L 267.452722 83.704381 
L 267.452722 76.788717 
L 267.452722 76.788717 
L 268.455543 83.704381 
L 269.458364 94.077877 
L 269.458364 83.704381 
L 269.458364 83.704381 
L 270.461185 94.077877 
L 271.464006 100.993541 
L 271.464006 100.993541 
L 271.464006 94.077877 
L 272.466827 125.198365 
L 272.466827 100.993541 
L 273.469648 135.571861 
L 275.47529 139.029693 
L 279.486574 139.029693 
L 280.489396 142.487525 
L 281.492217 142.487525 
L 282.495038 139.029693 
L 282.495038 139.029693 
L 289.514785 145.945357 
L 289.514785 142.487525 
L 291.520427 145.945357 
L 305.559922 145.945357 
L 317.593775 152.861021 
L 324.613522 152.861021 
L 324.613522 152.861021 
" clip-path="url(#p2c47cc158e)" style="fill: none; stroke: #7f7f7f; stroke-opacity: 0.9; stroke-linecap: square"/>
   </g>
   <g id="line2d_53">
    <path d="M 261.435795 159.843182 
L 261.435795 61.49446 
L 261.435795 61.49446 
L 262.442205 75.059801 
L 262.442205 75.059801 
L 262.442205 61.49446 
L 262.442205 61.49446 
L 263.448615 88.625142 
L 263.448615 88.625142 
L 263.448615 71.668466 
L 263.448615 71.668466 
L 264.455025 98.799148 
L 264.455025 81.842472 
L 265.461435 139.49517 
L 265.461435 136.103835 
L 265.461435 102.190483 
L 266.467845 142.886506 
L 267.474255 163.234517 
L 267.474255 163.234517 
L 267.474255 142.886506 
L 267.474255 142.886506 
L 269.487075 163.234517 
L 269.487075 163.234517 
L 311.75629 163.234517 
L 311.75629 163.234517 
" clip-path="url(#p2c47cc158e)" style="fill: none; stroke: #bcbd22; stroke-opacity: 0.9; stroke-linecap: square"/>
   </g>
   <g id="line2d_54"/>
   <g id="line2d_55"/>
   <g id="line2d_56"/>
   <g id="line2d_57"/>
   <g id="line2d_58"/>
   <g id="line2d_59"/>
   <g id="line2d_60"/>
   <g id="line2d_61"/>
   <g id="line2d_62"/>
   <g id="line2d_63">
    <path d="M 254.05125 163.896054 
L 416.51125 149.342242 
" clip-path="url(#p2c47cc158e)" style="fill: none; stroke-dasharray: 1,1.65; stroke-dashoffset: 0; stroke: #000000; stroke-opacity: 0.8"/>
   </g>
   <g id="PathCollection_2">
    <defs>
     <path id="C1_0_f7f08679f0" d="M -1.767767 3.535534 
L 0 1.767767 
L 1.767767 3.535534 
L 3.535534 1.767767 
L 1.767767 -0 
L 3.535534 -1.767767 
L 1.767767 -3.535534 
L 0 -1.767767 
L -1.767767 -3.535534 
L -3.535534 -1.767767 
L -1.767767 0 
L -3.535534 1.767767 
z
"/>
    </defs>
    <g clip-path="url(#p2c47cc158e)">
     <use xlink:href="#C1_0_f7f08679f0" x="270.535354" y="54.90558" style="fill: #1f77b4; stroke: #ffffff; stroke-width: 0.565685"/>
    </g>
    <g clip-path="url(#p2c47cc158e)">
     <use xlink:href="#C1_0_f7f08679f0" x="265.453219" y="41.393091" style="fill: #ff7f0e; stroke: #ffffff; stroke-width: 0.565685"/>
    </g>
    <g clip-path="url(#p2c47cc158e)">
     <use xlink:href="#C1_0_f7f08679f0" x="262.439639" y="34.363778" style="fill: #2ca02c; stroke: #ffffff; stroke-width: 0.565685"/>
    </g>
    <g clip-path="url(#p2c47cc158e)">
     <use xlink:href="#C1_0_f7f08679f0" x="267.48973" y="48.467426" style="fill: #d62728; stroke: #ffffff; stroke-width: 0.565685"/>
    </g>
    <g clip-path="url(#p2c47cc158e)">
     <use xlink:href="#C1_0_f7f08679f0" x="276.609519" y="50.055031" style="fill: #9467bd; stroke: #ffffff; stroke-width: 0.565685"/>
    </g>
    <g clip-path="url(#p2c47cc158e)">
     <use xlink:href="#C1_0_f7f08679f0" x="261.435795" y="33.29283" style="fill: #8c564b; stroke: #ffffff; stroke-width: 0.565685"/>
    </g>
    <g clip-path="url(#p2c47cc158e)">
     <use xlink:href="#C1_0_f7f08679f0" x="266.452456" y="54.218505" style="fill: #e377c2; stroke: #ffffff; stroke-width: 0.565685"/>
    </g>
    <g clip-path="url(#p2c47cc158e)">
     <use xlink:href="#C1_0_f7f08679f0" x="263.441438" y="35.294733" style="fill: #7f7f7f; stroke: #ffffff; stroke-width: 0.565685"/>
    </g>
    <g clip-path="url(#p2c47cc158e)">
     <use xlink:href="#C1_0_f7f08679f0" x="262.442205" y="41.146449" style="fill: #bcbd22; stroke: #ffffff; stroke-width: 0.565685"/>
    </g>
   </g>
   <g id="line2d_64"/>
   <g id="line2d_65"/>
   <g id="line2d_66"/>
   <g id="line2d_67"/>
   <g id="line2d_68"/>
   <g id="line2d_69"/>
   <g id="line2d_70"/>
   <g id="line2d_71"/>
   <g id="line2d_72"/>
   <g id="patch_6">
    <path d="M 254.05125 170.017187 
L 254.05125 20.798437 
" style="fill: none; stroke: #000000; stroke-width: 0.8; stroke-linejoin: miter; stroke-linecap: square"/>
   </g>
   <g id="patch_7">
    <path d="M 254.05125 170.017187 
L 416.51125 170.017187 
" style="fill: none; stroke: #000000; stroke-width: 0.8; stroke-linejoin: miter; stroke-linecap: square"/>
   </g>
   <g id="text_22">
    <!-- dataset = upsamp-down -->
    <g transform="translate(273.657812 14.798437) scale(0.1 -0.1)">
     <defs>
      <path id="DejaVuSans-6d" d="M 3328 2828 
Q 3544 3216 3844 3400 
Q 4144 3584 4550 3584 
Q 5097 3584 5394 3201 
Q 5691 2819 5691 2113 
L 5691 0 
L 5113 0 
L 5113 2094 
Q 5113 2597 4934 2840 
Q 4756 3084 4391 3084 
Q 3944 3084 3684 2787 
Q 3425 2491 3425 1978 
L 3425 0 
L 2847 0 
L 2847 2094 
Q 2847 2600 2669 2842 
Q 2491 3084 2119 3084 
Q 1678 3084 1418 2786 
Q 1159 2488 1159 1978 
L 1159 0 
L 581 0 
L 581 3500 
L 1159 3500 
L 1159 2956 
Q 1356 3278 1631 3431 
Q 1906 3584 2284 3584 
Q 2666 3584 2933 3390 
Q 3200 3197 3328 2828 
z
" transform="scale(0.015625)"/>
      <path id="DejaVuSans-2d" d="M 313 2009 
L 1997 2009 
L 1997 1497 
L 313 1497 
L 313 2009 
z
" transform="scale(0.015625)"/>
      <path id="DejaVuSans-77" d="M 269 3500 
L 844 3500 
L 1563 769 
L 2278 3500 
L 2956 3500 
L 3675 769 
L 4391 3500 
L 4966 3500 
L 4050 0 
L 3372 0 
L 2619 2869 
L 1863 0 
L 1184 0 
L 269 3500 
z
" transform="scale(0.015625)"/>
      <path id="DejaVuSans-6e" d="M 3513 2113 
L 3513 0 
L 2938 0 
L 2938 2094 
Q 2938 2591 2744 2837 
Q 2550 3084 2163 3084 
Q 1697 3084 1428 2787 
Q 1159 2491 1159 1978 
L 1159 0 
L 581 0 
L 581 3500 
L 1159 3500 
L 1159 2956 
Q 1366 3272 1645 3428 
Q 1925 3584 2291 3584 
Q 2894 3584 3203 3211 
Q 3513 2838 3513 2113 
z
" transform="scale(0.015625)"/>
     </defs>
     <use xlink:href="#DejaVuSans-64"/>
     <use xlink:href="#DejaVuSans-61" x="63.476562"/>
     <use xlink:href="#DejaVuSans-74" x="124.755859"/>
     <use xlink:href="#DejaVuSans-61" x="163.964844"/>
     <use xlink:href="#DejaVuSans-73" x="225.244141"/>
     <use xlink:href="#DejaVuSans-65" x="277.34375"/>
     <use xlink:href="#DejaVuSans-74" x="338.867188"/>
     <use xlink:href="#DejaVuSans-20" x="378.076172"/>
     <use xlink:href="#DejaVuSans-3d" x="409.863281"/>
     <use xlink:href="#DejaVuSans-20" x="493.652344"/>
     <use xlink:href="#DejaVuSans-75" x="525.439453"/>
     <use xlink:href="#DejaVuSans-70" x="588.818359"/>
     <use xlink:href="#DejaVuSans-73" x="652.294922"/>
     <use xlink:href="#DejaVuSans-61" x="704.394531"/>
     <use xlink:href="#DejaVuSans-6d" x="765.673828"/>
     <use xlink:href="#DejaVuSans-70" x="863.085938"/>
     <use xlink:href="#DejaVuSans-2d" x="926.5625"/>
     <use xlink:href="#DejaVuSans-64" x="962.646484"/>
     <use xlink:href="#DejaVuSans-6f" x="1026.123047"/>
     <use xlink:href="#DejaVuSans-77" x="1087.304688"/>
     <use xlink:href="#DejaVuSans-6e" x="1169.091797"/>
    </g>
   </g>
  </g>
  <g id="axes_3">
   <g id="patch_8">
    <path d="M 464.32125 170.017187 
L 626.78125 170.017187 
L 626.78125 20.798437 
L 464.32125 20.798437 
z
" style="fill: #ffffff"/>
   </g>
   <g id="matplotlib.axis_5">
    <g id="xtick_8">
     <g id="line2d_73">
      <g>
       <use xlink:href="#me7c35ed188" x="471.705795" y="170.017187" style="stroke: #000000; stroke-width: 0.8"/>
      </g>
     </g>
     <g id="text_23">
      <!-- 0.000 -->
      <g transform="translate(457.391733 184.615625) scale(0.1 -0.1)">
       <use xlink:href="#DejaVuSans-30"/>
       <use xlink:href="#DejaVuSans-2e" x="63.623047"/>
       <use xlink:href="#DejaVuSans-30" x="95.410156"/>
       <use xlink:href="#DejaVuSans-30" x="159.033203"/>
       <use xlink:href="#DejaVuSans-30" x="222.65625"/>
      </g>
     </g>
    </g>
    <g id="xtick_9">
     <g id="line2d_74">
      <g>
       <use xlink:href="#me7c35ed188" x="531.299376" y="170.017187" style="stroke: #000000; stroke-width: 0.8"/>
      </g>
     </g>
     <g id="text_24">
      <!-- 0.005 -->
      <g transform="translate(516.985314 184.615625) scale(0.1 -0.1)">
       <use xlink:href="#DejaVuSans-30"/>
       <use xlink:href="#DejaVuSans-2e" x="63.623047"/>
       <use xlink:href="#DejaVuSans-30" x="95.410156"/>
       <use xlink:href="#DejaVuSans-30" x="159.033203"/>
       <use xlink:href="#DejaVuSans-35" x="222.65625"/>
      </g>
     </g>
    </g>
    <g id="xtick_10">
     <g id="line2d_75">
      <g>
       <use xlink:href="#me7c35ed188" x="590.892957" y="170.017187" style="stroke: #000000; stroke-width: 0.8"/>
      </g>
     </g>
     <g id="text_25">
      <!-- 0.010 -->
      <g transform="translate(576.578895 184.615625) scale(0.1 -0.1)">
       <use xlink:href="#DejaVuSans-30"/>
       <use xlink:href="#DejaVuSans-2e" x="63.623047"/>
       <use xlink:href="#DejaVuSans-30" x="95.410156"/>
       <use xlink:href="#DejaVuSans-31" x="159.033203"/>
       <use xlink:href="#DejaVuSans-30" x="222.65625"/>
      </g>
     </g>
    </g>
    <g id="text_26">
     <!-- false_pos -->
     <g transform="translate(522.318437 198.29375) scale(0.1 -0.1)">
      <use xlink:href="#DejaVuSans-66"/>
      <use xlink:href="#DejaVuSans-61" x="35.205078"/>
      <use xlink:href="#DejaVuSans-6c" x="96.484375"/>
      <use xlink:href="#DejaVuSans-73" x="124.267578"/>
      <use xlink:href="#DejaVuSans-65" x="176.367188"/>
      <use xlink:href="#DejaVuSans-5f" x="237.890625"/>
      <use xlink:href="#DejaVuSans-70" x="287.890625"/>
      <use xlink:href="#DejaVuSans-6f" x="351.367188"/>
      <use xlink:href="#DejaVuSans-73" x="412.548828"/>
     </g>
    </g>
   </g>
   <g id="matplotlib.axis_6">
    <g id="ytick_10">
     <g id="line2d_76">
      <g>
       <use xlink:href="#me5a7404bdd" x="464.32125" y="163.234517" style="stroke: #000000; stroke-width: 0.8"/>
      </g>
     </g>
     <g id="text_27">
      <!-- 0.0 -->
      <g transform="translate(441.418125 167.033736) scale(0.1 -0.1)">
       <use xlink:href="#DejaVuSans-30"/>
       <use xlink:href="#DejaVuSans-2e" x="63.623047"/>
       <use xlink:href="#DejaVuSans-30" x="95.410156"/>
      </g>
     </g>
    </g>
    <g id="ytick_11">
     <g id="line2d_77">
      <g>
       <use xlink:href="#me5a7404bdd" x="464.32125" y="133.495116" style="stroke: #000000; stroke-width: 0.8"/>
      </g>
     </g>
     <g id="text_28">
      <!-- 0.2 -->
      <g transform="translate(441.418125 137.294335) scale(0.1 -0.1)">
       <use xlink:href="#DejaVuSans-30"/>
       <use xlink:href="#DejaVuSans-2e" x="63.623047"/>
       <use xlink:href="#DejaVuSans-32" x="95.410156"/>
      </g>
     </g>
    </g>
    <g id="ytick_12">
     <g id="line2d_78">
      <g>
       <use xlink:href="#me5a7404bdd" x="464.32125" y="103.755715" style="stroke: #000000; stroke-width: 0.8"/>
      </g>
     </g>
     <g id="text_29">
      <!-- 0.4 -->
      <g transform="translate(441.418125 107.554933) scale(0.1 -0.1)">
       <use xlink:href="#DejaVuSans-30"/>
       <use xlink:href="#DejaVuSans-2e" x="63.623047"/>
       <use xlink:href="#DejaVuSans-34" x="95.410156"/>
      </g>
     </g>
    </g>
    <g id="ytick_13">
     <g id="line2d_79">
      <g>
       <use xlink:href="#me5a7404bdd" x="464.32125" y="74.016313" style="stroke: #000000; stroke-width: 0.8"/>
      </g>
     </g>
     <g id="text_30">
      <!-- 0.6 -->
      <g transform="translate(441.418125 77.815532) scale(0.1 -0.1)">
       <use xlink:href="#DejaVuSans-30"/>
       <use xlink:href="#DejaVuSans-2e" x="63.623047"/>
       <use xlink:href="#DejaVuSans-36" x="95.410156"/>
      </g>
     </g>
    </g>
    <g id="ytick_14">
     <g id="line2d_80">
      <g>
       <use xlink:href="#me5a7404bdd" x="464.32125" y="44.276912" style="stroke: #000000; stroke-width: 0.8"/>
      </g>
     </g>
     <g id="text_31">
      <!-- 0.8 -->
      <g transform="translate(441.418125 48.076131) scale(0.1 -0.1)">
       <use xlink:href="#DejaVuSans-30"/>
       <use xlink:href="#DejaVuSans-2e" x="63.623047"/>
       <use xlink:href="#DejaVuSans-38" x="95.410156"/>
      </g>
     </g>
    </g>
    <g id="text_32">
     <!-- true_pos -->
     <g transform="translate(435.060312 117.007031) rotate(-90) scale(0.1 -0.1)">
      <use xlink:href="#DejaVuSans-74"/>
      <use xlink:href="#DejaVuSans-72" x="39.208984"/>
      <use xlink:href="#DejaVuSans-75" x="80.322266"/>
      <use xlink:href="#DejaVuSans-65" x="143.701172"/>
      <use xlink:href="#DejaVuSans-5f" x="205.224609"/>
      <use xlink:href="#DejaVuSans-70" x="255.224609"/>
      <use xlink:href="#DejaVuSans-6f" x="318.701172"/>
      <use xlink:href="#DejaVuSans-73" x="379.882812"/>
     </g>
    </g>
   </g>
   <g id="line2d_81">
    <path d="M 471.705795 161.110274 
L 471.705795 158.986031 
L 471.705795 158.986031 
L 472.303824 158.986031 
L 472.303824 158.986031 
L 472.303824 148.364816 
L 472.303824 148.364816 
L 472.901853 148.364816 
L 472.901853 148.364816 
L 472.901853 146.240573 
L 472.901853 146.240573 
L 477.088056 146.240573 
L 477.088056 146.240573 
L 477.088056 144.116331 
L 477.088056 144.116331 
L 481.274258 144.116331 
L 481.274258 144.116331 
L 481.274258 141.992088 
L 481.274258 141.992088 
L 482.470316 141.992088 
L 482.470316 141.992088 
L 482.470316 139.867845 
L 482.470316 139.867845 
L 483.068345 137.743602 
L 483.068345 137.743602 
L 485.46046 137.743602 
L 485.46046 137.743602 
L 485.46046 135.619359 
L 487.852576 135.619359 
L 487.852576 133.495116 
L 488.450605 133.495116 
L 488.450605 133.495116 
L 489.048634 131.370873 
L 489.048634 131.370873 
L 495.028923 131.370873 
L 495.028923 131.370873 
L 495.028923 129.24663 
L 495.028923 129.24663 
L 496.224981 129.24663 
L 496.224981 129.24663 
L 496.224981 127.122387 
L 496.224981 127.122387 
L 496.82301 127.122387 
L 497.421039 124.998144 
L 497.421039 124.998144 
L 497.421039 122.873901 
L 501.009212 122.873901 
L 501.009212 122.873901 
L 501.009212 116.501172 
L 501.009212 116.501172 
L 514.165848 116.501172 
L 514.165848 116.501172 
L 514.763877 112.252686 
L 515.959935 110.128443 
L 518.950079 110.128443 
L 518.950079 110.128443 
L 519.548108 108.0042 
L 524.332339 108.0042 
L 524.332339 108.0042 
L 524.930368 105.879958 
L 524.930368 105.879958 
L 537.488975 105.879958 
L 538.087004 103.755715 
L 539.283062 101.631472 
L 571.576623 101.631472 
L 574.566768 99.507229 
L 611.046531 99.507229 
L 611.046531 99.507229 
" clip-path="url(#pa11ea154c8)" style="fill: none; stroke: #1f77b4; stroke-opacity: 0.9; stroke-linecap: square"/>
   </g>
   <g id="line2d_82">
    <path d="M 471.705795 160.530935 
L 472.303375 160.530935 
L 472.303375 160.530935 
L 472.303375 144.309444 
L 472.303375 144.309444 
L 473.498533 144.309444 
L 473.498533 144.309444 
L 473.498533 138.90228 
L 473.498533 138.90228 
L 474.096112 136.198698 
L 474.096112 136.198698 
L 474.096112 128.087952 
L 474.096112 128.087952 
L 475.29127 128.087952 
L 475.29127 128.087952 
L 475.29127 111.86646 
L 475.29127 111.86646 
L 475.88885 109.162878 
L 476.486429 109.162878 
L 476.486429 109.162878 
L 476.486429 103.755715 
L 476.486429 103.755715 
L 477.084008 103.755715 
L 477.084008 103.755715 
L 477.084008 98.348551 
L 477.084008 98.348551 
L 477.681587 98.348551 
L 477.681587 98.348551 
L 477.681587 95.644969 
L 477.681587 95.644969 
L 478.876745 95.644969 
L 478.876745 95.644969 
L 478.876745 92.941387 
L 479.474324 92.941387 
L 479.474324 92.941387 
L 479.474324 84.830641 
L 479.474324 84.830641 
L 480.669483 84.830641 
L 480.669483 84.830641 
L 481.267062 82.127059 
L 481.267062 82.127059 
L 484.254958 82.127059 
L 484.254958 82.127059 
L 484.254958 71.312731 
L 489.035591 71.312731 
L 489.035591 68.60915 
L 490.828328 68.60915 
L 490.828328 68.60915 
L 490.828328 63.201986 
L 490.828328 63.201986 
L 492.023487 63.201986 
L 493.218645 60.498404 
L 493.218645 60.498404 
L 497.401699 60.498404 
L 497.401699 60.498404 
L 497.999278 57.794822 
L 499.194436 57.794822 
L 499.194436 55.09124 
L 499.194436 55.09124 
L 500.987174 55.09124 
L 500.987174 52.387658 
L 500.987174 52.387658 
L 504.572649 52.387658 
L 504.572649 49.684076 
L 504.572649 49.684076 
L 513.536336 49.684076 
L 515.329073 46.980494 
L 517.121811 46.980494 
L 517.121811 46.980494 
L 519.512127 41.57333 
L 560.745089 41.57333 
L 560.745089 41.57333 
" clip-path="url(#pa11ea154c8)" style="fill: none; stroke: #ff7f0e; stroke-opacity: 0.9; stroke-linecap: square"/>
   </g>
   <g id="line2d_83">
    <path d="M 471.705795 160.374959 
L 471.705795 143.217612 
L 471.705795 143.217612 
L 472.303285 143.217612 
L 472.303285 143.217612 
L 472.303285 117.481592 
L 472.303285 117.481592 
L 472.900774 117.481592 
L 472.900774 117.481592 
L 472.900774 114.622034 
L 473.498263 114.622034 
L 473.498263 114.622034 
L 473.498263 108.902919 
L 473.498263 108.902919 
L 474.095753 108.902919 
L 474.095753 108.902919 
L 474.095753 100.324245 
L 475.88822 100.324245 
L 475.88822 100.324245 
L 475.88822 91.745572 
L 475.88822 91.745572 
L 476.48571 88.886014 
L 476.48571 88.886014 
L 476.48571 77.447783 
L 477.680688 74.588225 
L 477.680688 74.588225 
L 479.473156 74.588225 
L 479.473156 74.588225 
L 479.473156 71.728667 
L 479.473156 71.728667 
L 480.070645 71.728667 
L 480.070645 71.728667 
L 480.070645 68.869109 
L 480.070645 68.869109 
L 481.863113 68.869109 
L 481.863113 66.009552 
L 481.863113 66.009552 
L 482.460602 66.009552 
L 482.460602 66.009552 
L 482.460602 57.430878 
L 482.460602 57.430878 
L 484.85056 57.430878 
L 484.85056 54.57132 
L 485.448049 54.57132 
L 485.448049 51.711762 
L 486.643027 51.711762 
L 487.240517 48.852205 
L 487.240517 48.852205 
L 487.240517 43.133089 
L 490.227963 43.133089 
L 490.227963 43.133089 
L 490.227963 40.273531 
L 490.227963 40.273531 
L 490.825452 37.413973 
L 490.825452 37.413973 
L 497.995324 37.413973 
L 497.995324 34.554416 
L 497.995324 34.554416 
L 505.165195 34.554416 
L 506.360174 31.694858 
L 515.920002 31.694858 
L 515.920002 31.694858 
" clip-path="url(#pa11ea154c8)" style="fill: none; stroke: #2ca02c; stroke-opacity: 0.9; stroke-linecap: square"/>
   </g>
   <g id="line2d_84">
    <path d="M 471.705795 160.874247 
L 471.705795 156.153707 
L 471.705795 156.153707 
L 472.303614 156.153707 
L 472.303614 156.153707 
L 472.303614 151.433167 
L 472.303614 151.433167 
L 472.901433 151.433167 
L 472.901433 151.433167 
L 472.901433 149.072897 
L 472.901433 149.072897 
L 474.097071 149.072897 
L 474.097071 149.072897 
L 474.097071 146.712627 
L 474.097071 146.712627 
L 475.890528 146.712627 
L 475.890528 146.712627 
L 476.488347 144.352358 
L 476.488347 144.352358 
L 477.683985 144.352358 
L 477.683985 144.352358 
L 477.683985 130.190738 
L 477.683985 130.190738 
L 478.281804 130.190738 
L 478.879623 127.830468 
L 478.879623 127.830468 
L 479.477442 127.830468 
L 479.477442 127.830468 
L 479.477442 120.749658 
L 479.477442 120.749658 
L 480.075261 120.749658 
L 480.075261 120.749658 
L 480.075261 116.029118 
L 480.075261 116.029118 
L 481.868717 116.029118 
L 481.868717 116.029118 
L 481.868717 113.668848 
L 481.868717 113.668848 
L 483.064355 113.668848 
L 483.064355 113.668848 
L 483.064355 111.308578 
L 483.064355 111.308578 
L 483.662174 108.948308 
L 485.455631 108.948308 
L 485.455631 108.948308 
L 486.05345 106.588039 
L 486.05345 106.588039 
L 487.249088 106.588039 
L 487.249088 106.588039 
L 487.249088 101.867499 
L 487.249088 101.867499 
L 488.444726 101.867499 
L 488.444726 101.867499 
L 488.444726 99.507229 
L 490.238183 99.507229 
L 490.238183 99.507229 
L 490.238183 97.146959 
L 490.238183 97.146959 
L 495.618553 97.146959 
L 495.618553 97.146959 
L 495.618553 94.786689 
L 495.618553 94.786689 
L 497.41201 94.786689 
L 497.41201 94.786689 
L 497.41201 92.426419 
L 500.998923 92.426419 
L 501.596742 90.066149 
L 501.596742 90.066149 
L 502.79238 90.066149 
L 502.79238 90.066149 
L 502.79238 87.705879 
L 502.79238 87.705879 
L 505.781475 87.705879 
L 505.781475 87.705879 
L 506.977113 82.985339 
L 506.977113 82.985339 
L 507.574932 82.985339 
L 508.77057 80.625069 
L 508.77057 78.264799 
L 515.346578 78.264799 
L 515.944397 75.904529 
L 521.324767 75.904529 
L 523.118224 73.544259 
L 525.5095 73.544259 
L 525.5095 71.183989 
L 526.107319 68.82372 
L 527.900776 68.82372 
L 529.096413 66.46345 
L 542.24843 66.46345 
L 542.846249 64.10318 
L 552.411352 64.10318 
L 555.998266 61.74291 
L 558.389541 59.38264 
L 576.921928 59.38264 
L 579.911023 57.02237 
L 588.878307 57.02237 
L 588.878307 57.02237 
" clip-path="url(#pa11ea154c8)" style="fill: none; stroke: #d62728; stroke-opacity: 0.9; stroke-linecap: square"/>
   </g>
   <g id="line2d_85">
    <path d="M 471.705795 161.015159 
L 472.901673 161.015159 
L 472.901673 161.015159 
L 472.901673 158.7958 
L 472.901673 158.7958 
L 473.499612 158.7958 
L 473.499612 158.7958 
L 473.499612 152.137726 
L 473.499612 152.137726 
L 475.293429 152.137726 
L 475.293429 152.137726 
L 475.293429 147.699009 
L 475.293429 147.699009 
L 475.891368 147.699009 
L 475.891368 147.699009 
L 475.891368 141.040934 
L 475.891368 141.040934 
L 476.489307 141.040934 
L 476.489307 141.040934 
L 476.489307 138.821576 
L 476.489307 138.821576 
L 478.283123 138.821576 
L 478.283123 138.821576 
L 478.283123 136.602217 
L 478.283123 136.602217 
L 481.272818 136.602217 
L 481.272818 136.602217 
L 481.272818 134.382859 
L 481.272818 134.382859 
L 481.870757 132.163501 
L 481.870757 132.163501 
L 484.262512 132.163501 
L 484.262512 132.163501 
L 484.860451 129.944143 
L 484.860451 129.944143 
L 486.056329 129.944143 
L 486.056329 129.944143 
L 486.056329 123.286068 
L 486.056329 123.286068 
L 486.654268 123.286068 
L 486.654268 123.286068 
L 486.654268 121.066709 
L 486.654268 121.066709 
L 489.046024 121.066709 
L 489.046024 121.066709 
L 489.643963 118.847351 
L 489.643963 118.847351 
L 489.643963 116.627993 
L 489.643963 116.627993 
L 490.241901 116.627993 
L 490.241901 116.627993 
L 490.83984 114.408634 
L 490.83984 114.408634 
L 491.437779 114.408634 
L 491.437779 114.408634 
L 491.437779 105.531201 
L 493.829535 105.531201 
L 493.829535 105.531201 
L 493.829535 103.311843 
L 493.829535 103.311843 
L 495.025413 103.311843 
L 495.025413 103.311843 
L 495.025413 101.092485 
L 495.025413 101.092485 
L 499.210985 101.092485 
L 499.210985 101.092485 
L 499.210985 98.873126 
L 499.210985 98.873126 
L 502.798618 98.873126 
L 502.798618 96.653768 
L 502.798618 96.653768 
L 511.169763 96.653768 
L 511.169763 94.43441 
L 511.169763 94.43441 
L 512.96358 94.43441 
L 512.96358 94.43441 
L 513.561519 92.215051 
L 514.757396 92.215051 
L 514.757396 92.215051 
L 515.355335 89.995693 
L 519.540908 89.995693 
L 519.540908 85.556977 
L 520.138847 85.556977 
L 520.736786 83.337618 
L 520.736786 83.337618 
L 531.499686 83.337618 
L 532.097625 81.11826 
L 545.850219 81.11826 
L 546.448158 78.898902 
L 548.839914 78.898902 
L 550.035792 76.679543 
L 551.829608 74.460185 
L 619.396705 74.460185 
L 619.396705 74.460185 
" clip-path="url(#pa11ea154c8)" style="fill: none; stroke: #9467bd; stroke-opacity: 0.9; stroke-linecap: square"/>
   </g>
   <g id="line2d_86">
    <path d="M 471.705795 160.625798 
L 471.705795 134.538604 
L 471.705795 134.538604 
L 472.303435 134.538604 
L 472.303435 134.538604 
L 472.303435 126.712445 
L 472.303435 126.712445 
L 472.901074 126.712445 
L 472.901074 126.712445 
L 472.901074 103.233971 
L 472.901074 103.233971 
L 474.096352 103.233971 
L 474.096352 103.233971 
L 474.096352 100.625251 
L 474.096352 100.625251 
L 476.486908 100.625251 
L 476.486908 100.625251 
L 476.486908 98.016532 
L 476.486908 98.016532 
L 477.084547 98.016532 
L 477.084547 98.016532 
L 477.084547 82.364215 
L 477.084547 82.364215 
L 478.877464 82.364215 
L 478.877464 82.364215 
L 478.877464 79.755496 
L 478.877464 79.755496 
L 480.072743 79.755496 
L 480.072743 79.755496 
L 480.072743 74.538057 
L 480.072743 74.538057 
L 482.463299 74.538057 
L 482.463299 74.538057 
L 482.463299 71.929338 
L 482.463299 71.929338 
L 484.256216 71.929338 
L 484.256216 71.929338 
L 485.451494 66.711899 
L 485.451494 66.711899 
L 485.451494 61.49446 
L 485.451494 61.49446 
L 486.049133 61.49446 
L 486.049133 61.49446 
L 486.049133 58.885741 
L 486.049133 58.885741 
L 486.646772 58.885741 
L 486.646772 58.885741 
L 486.646772 53.668302 
L 490.232607 53.668302 
L 490.830246 51.059583 
L 490.830246 51.059583 
L 492.025524 51.059583 
L 492.025524 51.059583 
L 492.025524 48.450863 
L 492.025524 48.450863 
L 495.01372 48.450863 
L 497.404276 43.233424 
L 497.404276 43.233424 
L 502.185388 43.233424 
L 502.185388 40.624705 
L 503.380667 38.015986 
L 503.380667 38.015986 
L 510.552336 38.015986 
L 511.747614 35.407266 
L 512.345253 32.798547 
L 512.345253 30.189827 
L 520.7122 30.189827 
L 520.7122 30.189827 
L 521.309839 27.581108 
L 600.795837 27.581108 
L 600.795837 27.581108 
" clip-path="url(#pa11ea154c8)" style="fill: none; stroke: #8c564b; stroke-opacity: 0.9; stroke-linecap: square"/>
   </g>
   <g id="line2d_87">
    <path d="M 471.705795 160.530935 
L 471.705795 130.791534 
L 471.705795 130.791534 
L 472.303375 130.791534 
L 472.303375 130.791534 
L 472.303375 128.087952 
L 472.303375 128.087952 
L 472.900954 128.087952 
L 472.900954 128.087952 
L 472.900954 111.86646 
L 472.900954 111.86646 
L 474.096112 111.86646 
L 474.096112 101.052133 
L 474.096112 101.052133 
L 474.693691 101.052133 
L 474.693691 101.052133 
L 474.693691 98.348551 
L 474.693691 98.348551 
L 475.29127 98.348551 
L 475.29127 98.348551 
L 475.29127 87.534223 
L 475.29127 87.534223 
L 475.88885 87.534223 
L 475.88885 87.534223 
L 475.88885 84.830641 
L 475.88885 84.830641 
L 477.084008 84.830641 
L 477.084008 84.830641 
L 477.084008 82.127059 
L 477.084008 82.127059 
L 478.279166 82.127059 
L 478.279166 82.127059 
L 478.279166 79.423477 
L 478.279166 79.423477 
L 480.071904 79.423477 
L 480.071904 76.719895 
L 480.071904 76.719895 
L 480.669483 76.719895 
L 480.669483 71.312731 
L 480.669483 71.312731 
L 483.059799 71.312731 
L 483.059799 71.312731 
L 483.059799 68.60915 
L 483.059799 68.60915 
L 483.657378 68.60915 
L 484.254958 63.201986 
L 484.254958 63.201986 
L 486.047695 63.201986 
L 486.047695 63.201986 
L 486.645274 60.498404 
L 489.63317 60.498404 
L 489.63317 60.498404 
L 490.230749 57.794822 
L 496.80412 57.794822 
L 496.80412 57.794822 
L 496.80412 55.09124 
L 496.80412 55.09124 
L 504.572649 55.09124 
L 505.170228 52.387658 
L 505.170228 49.684076 
L 505.767807 46.980494 
L 508.158124 46.980494 
L 509.950861 44.276912 
L 566.72088 44.276912 
L 570.903934 41.57333 
L 595.40468 41.57333 
L 598.990155 38.869748 
L 598.990155 38.869748 
" clip-path="url(#pa11ea154c8)" style="fill: none; stroke: #e377c2; stroke-opacity: 0.9; stroke-linecap: square"/>
   </g>
   <g id="line2d_88">
    <path d="M 471.705795 160.318889 
L 471.705795 134.078241 
L 471.705795 134.078241 
L 472.303255 134.078241 
L 472.303255 134.078241 
L 472.303255 125.331359 
L 474.095633 125.331359 
L 474.095633 122.415731 
L 474.095633 122.415731 
L 475.888011 122.415731 
L 475.888011 122.415731 
L 475.888011 116.584476 
L 475.888011 116.584476 
L 476.48547 116.584476 
L 476.48547 104.921966 
L 476.48547 104.921966 
L 477.082929 104.921966 
L 477.082929 99.09071 
L 477.082929 99.09071 
L 480.070226 99.09071 
L 480.070226 99.09071 
L 480.070226 78.681317 
L 480.070226 78.681317 
L 481.265145 78.681317 
L 481.265145 78.681317 
L 481.265145 75.76569 
L 481.265145 75.76569 
L 481.862604 75.76569 
L 481.862604 75.76569 
L 481.862604 72.850062 
L 481.862604 72.850062 
L 482.460063 72.850062 
L 482.460063 72.850062 
L 483.654982 67.018807 
L 484.252441 67.018807 
L 484.252441 67.018807 
L 484.252441 64.10318 
L 484.252441 64.10318 
L 486.044819 64.10318 
L 486.044819 64.10318 
L 486.642279 61.187552 
L 486.642279 61.187552 
L 489.032116 61.187552 
L 489.032116 61.187552 
L 489.032116 58.271924 
L 489.032116 58.271924 
L 490.824494 58.271924 
L 490.824494 58.271924 
L 490.824494 55.356297 
L 490.824494 55.356297 
L 494.40925 55.356297 
L 494.40925 55.356297 
L 494.40925 49.525042 
L 494.40925 49.525042 
L 499.188925 49.525042 
L 499.188925 46.609414 
L 506.358437 46.609414 
L 508.150815 43.693787 
L 512.33303 43.693787 
L 512.930489 40.778159 
L 542.205996 40.778159 
L 542.205996 40.778159 
" clip-path="url(#pa11ea154c8)" style="fill: none; stroke: #7f7f7f; stroke-opacity: 0.9; stroke-linecap: square"/>
   </g>
   <g id="line2d_89">
    <path d="M 471.705795 160.374959 
L 471.705795 143.217612 
L 471.705795 143.217612 
L 472.303285 143.217612 
L 472.303285 143.217612 
L 472.303285 140.358055 
L 472.303285 140.358055 
L 472.900774 140.358055 
L 472.900774 140.358055 
L 472.900774 137.498497 
L 472.900774 137.498497 
L 473.498263 137.498497 
L 473.498263 137.498497 
L 473.498263 134.638939 
L 473.498263 134.638939 
L 474.095753 134.638939 
L 474.095753 134.638939 
L 474.095753 128.919823 
L 474.095753 128.919823 
L 474.693242 128.919823 
L 474.693242 128.919823 
L 474.693242 123.200708 
L 474.693242 123.200708 
L 475.290731 120.34115 
L 475.290731 120.34115 
L 477.083199 120.34115 
L 477.083199 120.34115 
L 477.083199 114.622034 
L 477.680688 114.622034 
L 477.680688 114.622034 
L 477.680688 111.762476 
L 479.473156 111.762476 
L 479.473156 111.762476 
L 479.473156 106.043361 
L 479.473156 106.043361 
L 480.668135 106.043361 
L 480.668135 106.043361 
L 481.265624 103.183803 
L 481.265624 103.183803 
L 481.863113 103.183803 
L 481.863113 100.324245 
L 481.863113 100.324245 
L 482.460602 97.464687 
L 482.460602 97.464687 
L 482.460602 94.60513 
L 482.460602 94.60513 
L 483.655581 94.60513 
L 483.655581 91.745572 
L 483.655581 91.745572 
L 485.448049 91.745572 
L 485.448049 91.745572 
L 485.448049 83.166898 
L 488.435495 83.166898 
L 488.435495 83.166898 
L 489.630474 80.307341 
L 494.410388 80.307341 
L 494.410388 80.307341 
L 495.007877 74.588225 
L 495.007877 74.588225 
L 495.605367 74.588225 
L 495.605367 74.588225 
L 496.202856 71.728667 
L 496.202856 71.728667 
L 497.995324 71.728667 
L 497.995324 71.728667 
L 498.592813 66.009552 
L 498.592813 66.009552 
L 498.592813 63.149994 
L 500.98277 63.149994 
L 502.177749 57.430878 
L 503.372727 54.57132 
L 503.372727 54.57132 
L 503.970217 54.57132 
L 503.970217 54.57132 
L 503.970217 51.711762 
L 503.970217 51.711762 
L 505.165195 51.711762 
L 506.360174 45.992647 
L 509.945109 45.992647 
L 511.737577 43.133089 
L 511.737577 43.133089 
L 515.920002 43.133089 
L 517.114981 40.273531 
L 518.907449 40.273531 
L 518.907449 40.273531 
L 521.894895 37.413973 
L 521.894895 37.413973 
L 545.196977 37.413973 
L 545.794466 34.554416 
L 565.511612 34.554416 
L 565.511612 34.554416 
" clip-path="url(#pa11ea154c8)" style="fill: none; stroke: #bcbd22; stroke-opacity: 0.9; stroke-linecap: square"/>
   </g>
   <g id="line2d_90"/>
   <g id="line2d_91"/>
   <g id="line2d_92"/>
   <g id="line2d_93"/>
   <g id="line2d_94"/>
   <g id="line2d_95"/>
   <g id="line2d_96"/>
   <g id="line2d_97"/>
   <g id="line2d_98"/>
   <g id="line2d_99">
    <path d="M 464.32125 163.326646 
L 626.78125 161.299807 
" clip-path="url(#pa11ea154c8)" style="fill: none; stroke-dasharray: 1,1.65; stroke-dashoffset: 0; stroke: #000000; stroke-opacity: 0.8"/>
   </g>
   <g id="PathCollection_3">
    <defs>
     <path id="C2_0_ff6dc48708" d="M -1.767767 3.535534 
L 0 1.767767 
L 1.767767 3.535534 
L 3.535534 1.767767 
L 1.767767 -0 
L 3.535534 -1.767767 
L 1.767767 -3.535534 
L 0 -1.767767 
L -1.767767 -3.535534 
L -3.535534 -1.767767 
L -1.767767 0 
L -3.535534 1.767767 
z
"/>
    </defs>
    <g clip-path="url(#pa11ea154c8)">
     <use xlink:href="#C2_0_ff6dc48708" x="494.430894" y="129.24663" style="fill: #1f77b4; stroke: #ffffff; stroke-width: 0.565685"/>
    </g>
    <g clip-path="url(#pa11ea154c8)">
     <use xlink:href="#C2_0_ff6dc48708" x="480.669483" y="90.237805" style="fill: #ff7f0e; stroke: #ffffff; stroke-width: 0.565685"/>
    </g>
    <g clip-path="url(#pa11ea154c8)">
     <use xlink:href="#C2_0_ff6dc48708" x="478.875667" y="86.026456" style="fill: #2ca02c; stroke: #ffffff; stroke-width: 0.565685"/>
    </g>
    <g clip-path="url(#pa11ea154c8)">
     <use xlink:href="#C2_0_ff6dc48708" x="485.455631" y="106.588039" style="fill: #d62728; stroke: #ffffff; stroke-width: 0.565685"/>
    </g>
    <g clip-path="url(#pa11ea154c8)">
     <use xlink:href="#C2_0_ff6dc48708" x="501.004802" y="98.873126" style="fill: #9467bd; stroke: #ffffff; stroke-width: 0.565685"/>
    </g>
    <g clip-path="url(#pa11ea154c8)">
     <use xlink:href="#C2_0_ff6dc48708" x="479.475103" y="87.581654" style="fill: #8c564b; stroke: #ffffff; stroke-width: 0.565685"/>
    </g>
    <g clip-path="url(#pa11ea154c8)">
     <use xlink:href="#C2_0_ff6dc48708" x="484.254958" y="76.719895" style="fill: #e377c2; stroke: #ffffff; stroke-width: 0.565685"/>
    </g>
    <g clip-path="url(#pa11ea154c8)">
     <use xlink:href="#C2_0_ff6dc48708" x="481.265145" y="90.343828" style="fill: #7f7f7f; stroke: #ffffff; stroke-width: 0.565685"/>
    </g>
    <g clip-path="url(#pa11ea154c8)">
     <use xlink:href="#C2_0_ff6dc48708" x="483.058092" y="88.886014" style="fill: #bcbd22; stroke: #ffffff; stroke-width: 0.565685"/>
    </g>
   </g>
   <g id="line2d_100"/>
   <g id="line2d_101"/>
   <g id="line2d_102"/>
   <g id="line2d_103"/>
   <g id="line2d_104"/>
   <g id="line2d_105"/>
   <g id="line2d_106"/>
   <g id="line2d_107"/>
   <g id="line2d_108"/>
   <g id="patch_9">
    <path d="M 464.32125 170.017187 
L 464.32125 20.798437 
" style="fill: none; stroke: #000000; stroke-width: 0.8; stroke-linejoin: miter; stroke-linecap: square"/>
   </g>
   <g id="patch_10">
    <path d="M 464.32125 170.017187 
L 626.78125 170.017187 
" style="fill: none; stroke: #000000; stroke-width: 0.8; stroke-linejoin: miter; stroke-linecap: square"/>
   </g>
   <g id="text_33">
    <!-- dataset = upsamp -->
    <g transform="translate(499.223125 14.798437) scale(0.1 -0.1)">
     <use xlink:href="#DejaVuSans-64"/>
     <use xlink:href="#DejaVuSans-61" x="63.476562"/>
     <use xlink:href="#DejaVuSans-74" x="124.755859"/>
     <use xlink:href="#DejaVuSans-61" x="163.964844"/>
     <use xlink:href="#DejaVuSans-73" x="225.244141"/>
     <use xlink:href="#DejaVuSans-65" x="277.34375"/>
     <use xlink:href="#DejaVuSans-74" x="338.867188"/>
     <use xlink:href="#DejaVuSans-20" x="378.076172"/>
     <use xlink:href="#DejaVuSans-3d" x="409.863281"/>
     <use xlink:href="#DejaVuSans-20" x="493.652344"/>
     <use xlink:href="#DejaVuSans-75" x="525.439453"/>
     <use xlink:href="#DejaVuSans-70" x="588.818359"/>
     <use xlink:href="#DejaVuSans-73" x="652.294922"/>
     <use xlink:href="#DejaVuSans-61" x="704.394531"/>
     <use xlink:href="#DejaVuSans-6d" x="765.673828"/>
     <use xlink:href="#DejaVuSans-70" x="863.085938"/>
    </g>
   </g>
  </g>
 </g>
 <defs>
  <clipPath id="pcf6e39af59">
   <rect x="43.78125" y="20.798437" width="162.46" height="149.21875"/>
  </clipPath>
  <clipPath id="p2c47cc158e">
   <rect x="254.05125" y="20.798437" width="162.46" height="149.21875"/>
  </clipPath>
  <clipPath id="pa11ea154c8">
   <rect x="464.32125" y="20.798437" width="162.46" height="149.21875"/>
  </clipPath>
 </defs>
</svg>
