<?xml version="1.0" encoding="utf-8" standalone="no"?>
<!DOCTYPE svg PUBLIC "-//W3C//DTD SVG 1.1//EN"
  "http://www.w3.org/Graphics/SVG/1.1/DTD/svg11.dtd">
<svg xmlns:xlink="http://www.w3.org/1999/xlink" width="634.16125pt" height="207.851562pt" viewBox="0 0 634.16125 207.851562" xmlns="http://www.w3.org/2000/svg" version="1.1">
 <metadata>
  <rdf:RDF xmlns:dc="http://purl.org/dc/elements/1.1/" xmlns:cc="http://creativecommons.org/ns#" xmlns:rdf="http://www.w3.org/1999/02/22-rdf-syntax-ns#">
   <cc:Work>
    <dc:type rdf:resource="http://purl.org/dc/dcmitype/StillImage"/>
    <dc:date>2024-09-05T20:08:59.714432</dc:date>
    <dc:format>image/svg+xml</dc:format>
    <dc:creator>
     <cc:Agent>
      <dc:title>Matplotlib v3.9.2, https://matplotlib.org/</dc:title>
     </cc:Agent>
    </dc:creator>
   </cc:Work>
  </rdf:RDF>
 </metadata>
 <defs>
  <style type="text/css">*{stroke-linejoin: round; stroke-linecap: butt}</style>
 </defs>
 <g id="figure_1">
  <g id="patch_1">
   <path d="M 0 207.851562 
L 634.16125 207.851562 
L 634.16125 0 
L 0 0 
z
" style="fill: #ffffff"/>
  </g>
  <g id="axes_1">
   <g id="patch_2">
    <path d="M 43.78125 170.017187 
L 206.36125 170.017187 
L 206.36125 20.798437 
L 43.78125 20.798437 
z
" style="fill: #ffffff"/>
   </g>
   <g id="matplotlib.axis_1">
    <g id="xtick_1">
     <g id="line2d_1">
      <defs>
       <path id="mecbac76ea7" d="M 0 0 
L 0 3.5 
" style="stroke: #000000; stroke-width: 0.8"/>
      </defs>
      <g>
       <use xlink:href="#mecbac76ea7" x="51.17125" y="170.017187" style="stroke: #000000; stroke-width: 0.8"/>
      </g>
     </g>
     <g id="text_1">
      <!-- 0.00 -->
      <g transform="translate(40.038438 184.615625) scale(0.1 -0.1)">
       <defs>
        <path id="DejaVuSans-30" d="M 2034 4250 
Q 1547 4250 1301 3770 
Q 1056 3291 1056 2328 
Q 1056 1369 1301 889 
Q 1547 409 2034 409 
Q 2525 409 2770 889 
Q 3016 1369 3016 2328 
Q 3016 3291 2770 3770 
Q 2525 4250 2034 4250 
z
M 2034 4750 
Q 2819 4750 3233 4129 
Q 3647 3509 3647 2328 
Q 3647 1150 3233 529 
Q 2819 -91 2034 -91 
Q 1250 -91 836 529 
Q 422 1150 422 2328 
Q 422 3509 836 4129 
Q 1250 4750 2034 4750 
z
" transform="scale(0.015625)"/>
        <path id="DejaVuSans-2e" d="M 684 794 
L 1344 794 
L 1344 0 
L 684 0 
L 684 794 
z
" transform="scale(0.015625)"/>
       </defs>
       <use xlink:href="#DejaVuSans-30"/>
       <use xlink:href="#DejaVuSans-2e" x="63.623047"/>
       <use xlink:href="#DejaVuSans-30" x="95.410156"/>
       <use xlink:href="#DejaVuSans-30" x="159.033203"/>
      </g>
     </g>
    </g>
    <g id="xtick_2">
     <g id="line2d_2">
      <g>
       <use xlink:href="#mecbac76ea7" x="115.817106" y="170.017187" style="stroke: #000000; stroke-width: 0.8"/>
      </g>
     </g>
     <g id="text_2">
      <!-- 0.05 -->
      <g transform="translate(104.684293 184.615625) scale(0.1 -0.1)">
       <defs>
        <path id="DejaVuSans-35" d="M 691 4666 
L 3169 4666 
L 3169 4134 
L 1269 4134 
L 1269 2991 
Q 1406 3038 1543 3061 
Q 1681 3084 1819 3084 
Q 2600 3084 3056 2656 
Q 3513 2228 3513 1497 
Q 3513 744 3044 326 
Q 2575 -91 1722 -91 
Q 1428 -91 1123 -41 
Q 819 9 494 109 
L 494 744 
Q 775 591 1075 516 
Q 1375 441 1709 441 
Q 2250 441 2565 725 
Q 2881 1009 2881 1497 
Q 2881 1984 2565 2268 
Q 2250 2553 1709 2553 
Q 1456 2553 1204 2497 
Q 953 2441 691 2322 
L 691 4666 
z
" transform="scale(0.015625)"/>
       </defs>
       <use xlink:href="#DejaVuSans-30"/>
       <use xlink:href="#DejaVuSans-2e" x="63.623047"/>
       <use xlink:href="#DejaVuSans-30" x="95.410156"/>
       <use xlink:href="#DejaVuSans-35" x="159.033203"/>
      </g>
     </g>
    </g>
    <g id="xtick_3">
     <g id="line2d_3">
      <g>
       <use xlink:href="#mecbac76ea7" x="180.462962" y="170.017187" style="stroke: #000000; stroke-width: 0.8"/>
      </g>
     </g>
     <g id="text_3">
      <!-- 0.10 -->
      <g transform="translate(169.330149 184.615625) scale(0.1 -0.1)">
       <defs>
        <path id="DejaVuSans-31" d="M 794 531 
L 1825 531 
L 1825 4091 
L 703 3866 
L 703 4441 
L 1819 4666 
L 2450 4666 
L 2450 531 
L 3481 531 
L 3481 0 
L 794 0 
L 794 531 
z
" transform="scale(0.015625)"/>
       </defs>
       <use xlink:href="#DejaVuSans-30"/>
       <use xlink:href="#DejaVuSans-2e" x="63.623047"/>
       <use xlink:href="#DejaVuSans-31" x="95.410156"/>
       <use xlink:href="#DejaVuSans-30" x="159.033203"/>
      </g>
     </g>
    </g>
    <g id="text_4">
     <!-- false_pos -->
     <g transform="translate(101.838437 198.29375) scale(0.1 -0.1)">
      <defs>
       <path id="DejaVuSans-66" d="M 2375 4863 
L 2375 4384 
L 1825 4384 
Q 1516 4384 1395 4259 
Q 1275 4134 1275 3809 
L 1275 3500 
L 2222 3500 
L 2222 3053 
L 1275 3053 
L 1275 0 
L 697 0 
L 697 3053 
L 147 3053 
L 147 3500 
L 697 3500 
L 697 3744 
Q 697 4328 969 4595 
Q 1241 4863 1831 4863 
L 2375 4863 
z
" transform="scale(0.015625)"/>
       <path id="DejaVuSans-61" d="M 2194 1759 
Q 1497 1759 1228 1600 
Q 959 1441 959 1056 
Q 959 750 1161 570 
Q 1363 391 1709 391 
Q 2188 391 2477 730 
Q 2766 1069 2766 1631 
L 2766 1759 
L 2194 1759 
z
M 3341 1997 
L 3341 0 
L 2766 0 
L 2766 531 
Q 2569 213 2275 61 
Q 1981 -91 1556 -91 
Q 1019 -91 701 211 
Q 384 513 384 1019 
Q 384 1609 779 1909 
Q 1175 2209 1959 2209 
L 2766 2209 
L 2766 2266 
Q 2766 2663 2505 2880 
Q 2244 3097 1772 3097 
Q 1472 3097 1187 3025 
Q 903 2953 641 2809 
L 641 3341 
Q 956 3463 1253 3523 
Q 1550 3584 1831 3584 
Q 2591 3584 2966 3190 
Q 3341 2797 3341 1997 
z
" transform="scale(0.015625)"/>
       <path id="DejaVuSans-6c" d="M 603 4863 
L 1178 4863 
L 1178 0 
L 603 0 
L 603 4863 
z
" transform="scale(0.015625)"/>
       <path id="DejaVuSans-73" d="M 2834 3397 
L 2834 2853 
Q 2591 2978 2328 3040 
Q 2066 3103 1784 3103 
Q 1356 3103 1142 2972 
Q 928 2841 928 2578 
Q 928 2378 1081 2264 
Q 1234 2150 1697 2047 
L 1894 2003 
Q 2506 1872 2764 1633 
Q 3022 1394 3022 966 
Q 3022 478 2636 193 
Q 2250 -91 1575 -91 
Q 1294 -91 989 -36 
Q 684 19 347 128 
L 347 722 
Q 666 556 975 473 
Q 1284 391 1588 391 
Q 1994 391 2212 530 
Q 2431 669 2431 922 
Q 2431 1156 2273 1281 
Q 2116 1406 1581 1522 
L 1381 1569 
Q 847 1681 609 1914 
Q 372 2147 372 2553 
Q 372 3047 722 3315 
Q 1072 3584 1716 3584 
Q 2034 3584 2315 3537 
Q 2597 3491 2834 3397 
z
" transform="scale(0.015625)"/>
       <path id="DejaVuSans-65" d="M 3597 1894 
L 3597 1613 
L 953 1613 
Q 991 1019 1311 708 
Q 1631 397 2203 397 
Q 2534 397 2845 478 
Q 3156 559 3463 722 
L 3463 178 
Q 3153 47 2828 -22 
Q 2503 -91 2169 -91 
Q 1331 -91 842 396 
Q 353 884 353 1716 
Q 353 2575 817 3079 
Q 1281 3584 2069 3584 
Q 2775 3584 3186 3129 
Q 3597 2675 3597 1894 
z
M 3022 2063 
Q 3016 2534 2758 2815 
Q 2500 3097 2075 3097 
Q 1594 3097 1305 2825 
Q 1016 2553 972 2059 
L 3022 2063 
z
" transform="scale(0.015625)"/>
       <path id="DejaVuSans-5f" d="M 3263 -1063 
L 3263 -1509 
L -63 -1509 
L -63 -1063 
L 3263 -1063 
z
" transform="scale(0.015625)"/>
       <path id="DejaVuSans-70" d="M 1159 525 
L 1159 -1331 
L 581 -1331 
L 581 3500 
L 1159 3500 
L 1159 2969 
Q 1341 3281 1617 3432 
Q 1894 3584 2278 3584 
Q 2916 3584 3314 3078 
Q 3713 2572 3713 1747 
Q 3713 922 3314 415 
Q 2916 -91 2278 -91 
Q 1894 -91 1617 61 
Q 1341 213 1159 525 
z
M 3116 1747 
Q 3116 2381 2855 2742 
Q 2594 3103 2138 3103 
Q 1681 3103 1420 2742 
Q 1159 2381 1159 1747 
Q 1159 1113 1420 752 
Q 1681 391 2138 391 
Q 2594 391 2855 752 
Q 3116 1113 3116 1747 
z
" transform="scale(0.015625)"/>
       <path id="DejaVuSans-6f" d="M 1959 3097 
Q 1497 3097 1228 2736 
Q 959 2375 959 1747 
Q 959 1119 1226 758 
Q 1494 397 1959 397 
Q 2419 397 2687 759 
Q 2956 1122 2956 1747 
Q 2956 2369 2687 2733 
Q 2419 3097 1959 3097 
z
M 1959 3584 
Q 2709 3584 3137 3096 
Q 3566 2609 3566 1747 
Q 3566 888 3137 398 
Q 2709 -91 1959 -91 
Q 1206 -91 779 398 
Q 353 888 353 1747 
Q 353 2609 779 3096 
Q 1206 3584 1959 3584 
z
" transform="scale(0.015625)"/>
      </defs>
      <use xlink:href="#DejaVuSans-66"/>
      <use xlink:href="#DejaVuSans-61" x="35.205078"/>
      <use xlink:href="#DejaVuSans-6c" x="96.484375"/>
      <use xlink:href="#DejaVuSans-73" x="124.267578"/>
      <use xlink:href="#DejaVuSans-65" x="176.367188"/>
      <use xlink:href="#DejaVuSans-5f" x="237.890625"/>
      <use xlink:href="#DejaVuSans-70" x="287.890625"/>
      <use xlink:href="#DejaVuSans-6f" x="351.367188"/>
      <use xlink:href="#DejaVuSans-73" x="412.548828"/>
     </g>
    </g>
   </g>
   <g id="matplotlib.axis_2">
    <g id="ytick_1">
     <g id="line2d_4">
      <defs>
       <path id="m32e3cfdf49" d="M 0 0 
L -3.5 0 
" style="stroke: #000000; stroke-width: 0.8"/>
      </defs>
      <g>
       <use xlink:href="#m32e3cfdf49" x="43.78125" y="163.234517" style="stroke: #000000; stroke-width: 0.8"/>
      </g>
     </g>
     <g id="text_5">
      <!-- 0.0 -->
      <g transform="translate(20.878125 167.033736) scale(0.1 -0.1)">
       <use xlink:href="#DejaVuSans-30"/>
       <use xlink:href="#DejaVuSans-2e" x="63.623047"/>
       <use xlink:href="#DejaVuSans-30" x="95.410156"/>
      </g>
     </g>
    </g>
    <g id="ytick_2">
     <g id="line2d_5">
      <g>
       <use xlink:href="#m32e3cfdf49" x="43.78125" y="121.740533" style="stroke: #000000; stroke-width: 0.8"/>
      </g>
     </g>
     <g id="text_6">
      <!-- 0.1 -->
      <g transform="translate(20.878125 125.539752) scale(0.1 -0.1)">
       <use xlink:href="#DejaVuSans-30"/>
       <use xlink:href="#DejaVuSans-2e" x="63.623047"/>
       <use xlink:href="#DejaVuSans-31" x="95.410156"/>
      </g>
     </g>
    </g>
    <g id="ytick_3">
     <g id="line2d_6">
      <g>
       <use xlink:href="#m32e3cfdf49" x="43.78125" y="80.246549" style="stroke: #000000; stroke-width: 0.8"/>
      </g>
     </g>
     <g id="text_7">
      <!-- 0.2 -->
      <g transform="translate(20.878125 84.045768) scale(0.1 -0.1)">
       <defs>
        <path id="DejaVuSans-32" d="M 1228 531 
L 3431 531 
L 3431 0 
L 469 0 
L 469 531 
Q 828 903 1448 1529 
Q 2069 2156 2228 2338 
Q 2531 2678 2651 2914 
Q 2772 3150 2772 3378 
Q 2772 3750 2511 3984 
Q 2250 4219 1831 4219 
Q 1534 4219 1204 4116 
Q 875 4013 500 3803 
L 500 4441 
Q 881 4594 1212 4672 
Q 1544 4750 1819 4750 
Q 2544 4750 2975 4387 
Q 3406 4025 3406 3419 
Q 3406 3131 3298 2873 
Q 3191 2616 2906 2266 
Q 2828 2175 2409 1742 
Q 1991 1309 1228 531 
z
" transform="scale(0.015625)"/>
       </defs>
       <use xlink:href="#DejaVuSans-30"/>
       <use xlink:href="#DejaVuSans-2e" x="63.623047"/>
       <use xlink:href="#DejaVuSans-32" x="95.410156"/>
      </g>
     </g>
    </g>
    <g id="ytick_4">
     <g id="line2d_7">
      <g>
       <use xlink:href="#m32e3cfdf49" x="43.78125" y="38.752565" style="stroke: #000000; stroke-width: 0.8"/>
      </g>
     </g>
     <g id="text_8">
      <!-- 0.3 -->
      <g transform="translate(20.878125 42.551784) scale(0.1 -0.1)">
       <defs>
        <path id="DejaVuSans-33" d="M 2597 2516 
Q 3050 2419 3304 2112 
Q 3559 1806 3559 1356 
Q 3559 666 3084 287 
Q 2609 -91 1734 -91 
Q 1441 -91 1130 -33 
Q 819 25 488 141 
L 488 750 
Q 750 597 1062 519 
Q 1375 441 1716 441 
Q 2309 441 2620 675 
Q 2931 909 2931 1356 
Q 2931 1769 2642 2001 
Q 2353 2234 1838 2234 
L 1294 2234 
L 1294 2753 
L 1863 2753 
Q 2328 2753 2575 2939 
Q 2822 3125 2822 3475 
Q 2822 3834 2567 4026 
Q 2313 4219 1838 4219 
Q 1578 4219 1281 4162 
Q 984 4106 628 3988 
L 628 4550 
Q 988 4650 1302 4700 
Q 1616 4750 1894 4750 
Q 2613 4750 3031 4423 
Q 3450 4097 3450 3541 
Q 3450 3153 3228 2886 
Q 3006 2619 2597 2516 
z
" transform="scale(0.015625)"/>
       </defs>
       <use xlink:href="#DejaVuSans-30"/>
       <use xlink:href="#DejaVuSans-2e" x="63.623047"/>
       <use xlink:href="#DejaVuSans-33" x="95.410156"/>
      </g>
     </g>
    </g>
    <g id="text_9">
     <!-- true_pos -->
     <g transform="translate(14.520313 117.007031) rotate(-90) scale(0.1 -0.1)">
      <defs>
       <path id="DejaVuSans-74" d="M 1172 4494 
L 1172 3500 
L 2356 3500 
L 2356 3053 
L 1172 3053 
L 1172 1153 
Q 1172 725 1289 603 
Q 1406 481 1766 481 
L 2356 481 
L 2356 0 
L 1766 0 
Q 1100 0 847 248 
Q 594 497 594 1153 
L 594 3053 
L 172 3053 
L 172 3500 
L 594 3500 
L 594 4494 
L 1172 4494 
z
" transform="scale(0.015625)"/>
       <path id="DejaVuSans-72" d="M 2631 2963 
Q 2534 3019 2420 3045 
Q 2306 3072 2169 3072 
Q 1681 3072 1420 2755 
Q 1159 2438 1159 1844 
L 1159 0 
L 581 0 
L 581 3500 
L 1159 3500 
L 1159 2956 
Q 1341 3275 1631 3429 
Q 1922 3584 2338 3584 
Q 2397 3584 2469 3576 
Q 2541 3569 2628 3553 
L 2631 2963 
z
" transform="scale(0.015625)"/>
       <path id="DejaVuSans-75" d="M 544 1381 
L 544 3500 
L 1119 3500 
L 1119 1403 
Q 1119 906 1312 657 
Q 1506 409 1894 409 
Q 2359 409 2629 706 
Q 2900 1003 2900 1516 
L 2900 3500 
L 3475 3500 
L 3475 0 
L 2900 0 
L 2900 538 
Q 2691 219 2414 64 
Q 2138 -91 1772 -91 
Q 1169 -91 856 284 
Q 544 659 544 1381 
z
M 1991 3584 
L 1991 3584 
z
" transform="scale(0.015625)"/>
      </defs>
      <use xlink:href="#DejaVuSans-74"/>
      <use xlink:href="#DejaVuSans-72" x="39.208984"/>
      <use xlink:href="#DejaVuSans-75" x="80.322266"/>
      <use xlink:href="#DejaVuSans-65" x="143.701172"/>
      <use xlink:href="#DejaVuSans-5f" x="205.224609"/>
      <use xlink:href="#DejaVuSans-70" x="255.224609"/>
      <use xlink:href="#DejaVuSans-6f" x="318.701172"/>
      <use xlink:href="#DejaVuSans-73" x="379.882812"/>
     </g>
    </g>
   </g>
   <g id="line2d_8">
    <path d="M 51.835647 163.234517 
L 51.835647 155.550446 
L 51.835647 155.550446 
L 67.116785 155.550446 
L 67.116785 147.866375 
L 67.116785 147.866375 
L 80.404731 147.866375 
L 80.404731 147.866375 
L 80.404731 140.182304 
L 80.404731 140.182304 
L 89.706293 140.182304 
L 89.706293 140.182304 
L 89.706293 132.498233 
L 89.706293 132.498233 
L 99.672252 132.498233 
L 99.672252 132.498233 
L 99.672252 124.814162 
L 101.665444 124.814162 
L 101.665444 124.814162 
L 101.665444 117.13009 
L 101.665444 117.13009 
L 108.973814 117.13009 
L 108.973814 117.13009 
L 108.973814 109.446019 
L 108.973814 109.446019 
L 113.624595 109.446019 
L 113.624595 101.761948 
L 114.953389 101.761948 
L 114.953389 94.077877 
L 114.953389 94.077877 
L 115.617787 86.393806 
L 124.919349 86.393806 
L 124.919349 86.393806 
L 126.248143 78.709735 
L 126.248143 78.709735 
L 176.742337 78.709735 
L 176.742337 78.709735 
" clip-path="url(#p0e871efa15)" style="fill: none; stroke: #1f77b4; stroke-opacity: 0.9; stroke-linecap: square"/>
   </g>
   <g id="line2d_9">
    <path d="M 51.17125 152.019927 
L 55.123111 152.019927 
L 55.123111 152.019927 
L 55.123111 140.805337 
L 55.123111 140.805337 
L 62.368189 140.805337 
L 62.368189 140.805337 
L 62.368189 129.590746 
L 62.368189 129.590746 
L 126.915248 129.590746 
L 126.915248 129.590746 
L 126.915248 118.376156 
L 128.891179 118.376156 
L 128.891179 118.376156 
L 129.549822 107.161566 
L 129.549822 107.161566 
L 140.088117 107.161566 
L 140.746761 95.946975 
L 140.746761 95.946975 
L 142.722691 95.946975 
L 142.722691 95.946975 
L 142.722691 84.732385 
L 160.506065 84.732385 
L 160.506065 84.732385 
L 160.506065 73.517795 
L 160.506065 73.517795 
L 161.164708 73.517795 
L 161.164708 73.517795 
L 161.823352 62.303205 
L 184.875873 62.303205 
L 184.875873 62.303205 
" clip-path="url(#p0e871efa15)" style="fill: none; stroke: #ff7f0e; stroke-opacity: 0.9; stroke-linecap: square"/>
   </g>
   <g id="line2d_10">
    <path d="M 51.831913 163.234517 
L 51.831913 153.584753 
L 51.831913 153.584753 
L 53.153238 153.584753 
L 53.153238 153.584753 
L 53.153238 143.93499 
L 53.153238 143.93499 
L 58.438541 143.93499 
L 58.438541 143.93499 
L 58.438541 124.635462 
L 58.438541 124.635462 
L 84.865053 124.635462 
L 84.865053 124.635462 
L 84.865053 114.985698 
L 84.865053 114.985698 
L 94.114333 114.985698 
L 94.774995 105.335935 
L 94.774995 105.335935 
L 151.591997 105.335935 
L 152.913323 95.686171 
L 173.39387 95.686171 
L 173.39387 95.686171 
L 174.715195 76.386644 
L 174.715195 76.386644 
L 183.964475 76.386644 
L 183.964475 76.386644 
" clip-path="url(#p0e871efa15)" style="fill: none; stroke: #2ca02c; stroke-opacity: 0.9; stroke-linecap: square"/>
   </g>
   <g id="line2d_11">
    <path d="M 51.835989 163.234517 
L 59.148117 163.234517 
L 59.148117 163.234517 
L 59.148117 155.690156 
L 59.148117 155.690156 
L 65.130766 155.690156 
L 65.130766 155.690156 
L 65.130766 148.145796 
L 65.130766 148.145796 
L 72.442894 148.145796 
L 72.442894 148.145796 
L 72.442894 140.601435 
L 72.442894 140.601435 
L 74.437111 140.601435 
L 74.437111 140.601435 
L 74.437111 133.057074 
L 74.437111 133.057074 
L 80.419761 133.057074 
L 80.419761 133.057074 
L 81.084499 125.512713 
L 81.084499 125.512713 
L 81.084499 117.968353 
L 81.084499 117.968353 
L 119.639354 117.968353 
L 119.639354 117.968353 
L 120.304093 110.423992 
L 132.269393 110.423992 
L 132.269393 110.423992 
L 132.269393 102.879631 
L 132.269393 102.879631 
L 143.569954 102.879631 
L 143.569954 102.879631 
L 144.899432 95.335271 
L 144.899432 95.335271 
L 157.52947 95.335271 
L 157.52947 95.335271 
L 157.52947 87.79091 
L 157.52947 87.79091 
L 158.858948 87.79091 
L 158.858948 87.79091 
L 158.858948 80.246549 
L 158.858948 80.246549 
L 179.465853 80.246549 
L 179.465853 72.702188 
L 187.44272 72.702188 
L 187.44272 65.157828 
L 187.44272 65.157828 
L 188.772198 65.157828 
L 188.772198 65.157828 
L 188.772198 57.613467 
L 188.772198 57.613467 
L 191.431153 57.613467 
L 191.431153 57.613467 
" clip-path="url(#p0e871efa15)" style="fill: none; stroke: #d62728; stroke-opacity: 0.9; stroke-linecap: square"/>
   </g>
   <g id="line2d_12">
    <path d="M 51.836673 163.234517 
L 53.832942 163.234517 
L 53.832942 163.234517 
L 53.832942 155.954871 
L 53.832942 155.954871 
L 72.46479 155.954871 
L 72.46479 148.675224 
L 72.46479 148.675224 
L 74.461059 148.675224 
L 74.461059 141.395578 
L 76.457328 141.395578 
L 77.122752 134.115932 
L 77.122752 134.115932 
L 89.765791 134.115932 
L 89.765791 134.115932 
L 90.431214 126.836286 
L 98.416291 126.836286 
L 98.416291 119.556639 
L 98.416291 119.556639 
L 106.401369 119.556639 
L 106.401369 119.556639 
L 107.066792 112.276993 
L 107.066792 112.276993 
L 133.683717 112.276993 
L 133.683717 104.997347 
L 133.683717 104.997347 
L 142.334217 104.997347 
L 142.334217 97.7177 
L 148.988448 97.7177 
L 148.988448 97.7177 
L 149.653871 90.438054 
L 149.653871 90.438054 
L 152.980987 90.438054 
L 152.980987 83.158408 
L 152.980987 83.158408 
L 178.932489 83.158408 
L 178.932489 83.158408 
" clip-path="url(#p0e871efa15)" style="fill: none; stroke: #9467bd; stroke-opacity: 0.9; stroke-linecap: square"/>
   </g>
   <g id="line2d_13">
    <path d="M 51.17125 156.080382 
L 51.837016 156.080382 
L 51.837016 156.080382 
L 51.837016 148.926247 
L 51.837016 148.926247 
L 52.502782 148.926247 
L 52.502782 148.926247 
L 52.502782 134.617976 
L 52.502782 134.617976 
L 53.168547 134.617976 
L 53.168547 134.617976 
L 53.168547 127.463841 
L 53.168547 127.463841 
L 98.440619 127.463841 
L 98.440619 127.463841 
L 98.440619 120.309706 
L 98.440619 120.309706 
L 113.087466 120.309706 
L 113.087466 106.001436 
L 116.416295 106.001436 
L 116.416295 106.001436 
L 116.416295 98.847301 
L 141.049628 98.847301 
L 141.715394 91.693165 
L 141.715394 91.693165 
L 147.707286 91.693165 
L 147.707286 91.693165 
L 148.373052 84.53903 
L 148.373052 84.53903 
L 152.367646 84.53903 
L 152.367646 84.53903 
L 152.367646 77.384895 
L 152.367646 77.384895 
L 157.028007 77.384895 
L 157.693773 70.23076 
L 157.693773 70.23076 
L 198.305484 70.23076 
L 198.305484 63.076625 
L 198.97125 63.076625 
L 198.97125 63.076625 
" clip-path="url(#p0e871efa15)" style="fill: none; stroke: #8c564b; stroke-opacity: 0.9; stroke-linecap: square"/>
   </g>
   <g id="line2d_14">
    <path d="M 51.834284 163.234517 
L 54.486422 163.234517 
L 54.486422 163.234517 
L 54.486422 154.93572 
L 54.486422 154.93572 
L 62.442835 154.93572 
L 62.442835 154.93572 
L 63.10587 146.636923 
L 69.073179 146.636923 
L 69.073179 146.636923 
L 69.073179 138.338127 
L 69.073179 138.338127 
L 75.040489 138.338127 
L 75.040489 130.03933 
L 75.040489 130.03933 
L 79.68173 130.03933 
L 79.68173 121.740533 
L 110.844348 121.740533 
L 110.844348 121.740533 
L 110.844348 113.441736 
L 110.844348 113.441736 
L 154.604619 113.441736 
L 154.604619 105.14294 
L 177.810824 105.14294 
L 177.810824 96.844143 
L 177.810824 96.844143 
L 183.115099 96.844143 
L 183.115099 96.844143 
" clip-path="url(#p0e871efa15)" style="fill: none; stroke: #e377c2; stroke-opacity: 0.9; stroke-linecap: square"/>
   </g>
   <g id="line2d_15">
    <path d="M 51.834965 163.234517 
L 51.834965 155.254905 
L 51.834965 155.254905 
L 52.49868 155.254905 
L 52.49868 155.254905 
L 52.49868 147.275292 
L 52.49868 147.275292 
L 53.826111 147.275292 
L 53.826111 147.275292 
L 53.826111 131.316068 
L 53.826111 131.316068 
L 63.781838 131.316068 
L 63.781838 131.316068 
L 63.781838 123.336456 
L 63.781838 123.336456 
L 64.445553 123.336456 
L 64.445553 123.336456 
L 64.445553 115.356843 
L 64.445553 115.356843 
L 78.383571 115.356843 
L 78.383571 115.356843 
L 78.383571 107.377231 
L 80.374717 107.377231 
L 80.374717 99.397619 
L 80.374717 99.397619 
L 83.029577 99.397619 
L 83.029577 99.397619 
L 84.357008 83.438394 
L 85.684438 83.438394 
L 85.684438 83.438394 
L 85.684438 75.458782 
L 85.684438 75.458782 
L 122.852486 75.458782 
L 123.516202 67.479169 
L 123.516202 67.479169 
L 124.843632 67.479169 
L 126.171062 59.499557 
L 126.171062 59.499557 
L 137.45422 59.499557 
L 137.45422 59.499557 
L 137.45422 51.519945 
L 137.45422 51.519945 
L 151.392238 51.519945 
L 151.392238 43.540333 
L 152.055953 43.540333 
L 153.383383 35.56072 
L 173.958553 35.56072 
L 174.622268 27.581108 
L 177.940844 27.581108 
L 177.940844 27.581108 
" clip-path="url(#p0e871efa15)" style="fill: none; stroke: #7f7f7f; stroke-opacity: 0.9; stroke-linecap: square"/>
   </g>
   <g id="line2d_16">
    <path d="M 51.17125 156.432225 
L 51.838046 156.432225 
L 51.838046 156.432225 
L 51.838046 149.629932 
L 51.838046 149.629932 
L 52.504842 149.629932 
L 53.171637 142.82764 
L 53.171637 142.82764 
L 60.506392 142.82764 
L 60.506392 136.025347 
L 60.506392 136.025347 
L 62.506779 136.025347 
L 62.506779 136.025347 
L 62.506779 129.223055 
L 65.173962 129.223055 
L 65.173962 129.223055 
L 65.173962 122.420762 
L 65.173962 122.420762 
L 84.511042 122.420762 
L 84.511042 122.420762 
L 84.511042 115.61847 
L 90.512204 115.61847 
L 90.512204 115.61847 
L 91.179 108.816177 
L 91.179 108.816177 
L 93.846183 108.816177 
L 93.846183 108.816177 
L 93.846183 102.013885 
L 93.846183 102.013885 
L 102.514529 102.013885 
L 103.848121 95.211593 
L 111.849671 95.211593 
L 112.516466 88.4093 
L 115.850446 88.4093 
L 115.850446 81.607008 
L 128.519566 81.607008 
L 128.519566 74.804715 
L 129.853158 74.804715 
L 129.853158 74.804715 
L 130.519954 68.002423 
L 130.519954 68.002423 
L 134.520729 68.002423 
L 134.520729 61.20013 
L 134.520729 61.20013 
L 146.523054 61.20013 
L 146.523054 54.397838 
L 159.192175 54.397838 
L 159.858971 47.595545 
L 159.858971 47.595545 
L 165.860133 47.595545 
L 167.193725 40.793253 
L 176.528866 40.793253 
L 177.862458 33.99096 
L 185.197212 33.99096 
L 185.197212 33.99096 
" clip-path="url(#p0e871efa15)" style="fill: none; stroke: #bcbd22; stroke-opacity: 0.9; stroke-linecap: square"/>
   </g>
   <g id="line2d_17"/>
   <g id="line2d_18"/>
   <g id="line2d_19"/>
   <g id="line2d_20"/>
   <g id="line2d_21"/>
   <g id="line2d_22"/>
   <g id="line2d_23"/>
   <g id="line2d_24"/>
   <g id="line2d_25"/>
   <g id="line2d_26">
    <path d="M 43.78125 165.606212 
L 206.36125 113.428916 
" clip-path="url(#p0e871efa15)" style="fill: none; stroke-dasharray: 1,1.65; stroke-dashoffset: 0; stroke: #000000; stroke-opacity: 0.8"/>
   </g>
   <g id="PathCollection_1">
    <defs>
     <path id="C0_0_b3fef8cbc1" d="M -1.767767 3.535534 
L 0 1.767767 
L 1.767767 3.535534 
L 3.535534 1.767767 
L 1.767767 -0 
L 3.535534 -1.767767 
L 1.767767 -3.535534 
L 0 -1.767767 
L -1.767767 -3.535534 
L -3.535534 -1.767767 
L -1.767767 0 
L -3.535534 1.767767 
z
"/>
    </defs>
    <g clip-path="url(#p0e871efa15)">
     <use xlink:href="#C0_0_b3fef8cbc1" x="118.275376" y="94.077877" style="fill: #1f77b4; stroke: #ffffff; stroke-width: 0.565685"/>
    </g>
    <g clip-path="url(#p0e871efa15)">
     <use xlink:href="#C0_0_b3fef8cbc1" x="174.337578" y="39.874024" style="fill: #ff7f0e; stroke: #ffffff; stroke-width: 0.565685"/>
    </g>
    <g clip-path="url(#p0e871efa15)">
     <use xlink:href="#C0_0_b3fef8cbc1" x="150.931334" y="37.787589" style="fill: #2ca02c; stroke: #ffffff; stroke-width: 0.565685"/>
    </g>
    <g clip-path="url(#p0e871efa15)">
     <use xlink:href="#C0_0_b3fef8cbc1" x="182.124809" y="72.702188" style="fill: #d62728; stroke: #ffffff; stroke-width: 0.565685"/>
    </g>
    <g clip-path="url(#p0e871efa15)">
     <use xlink:href="#C0_0_b3fef8cbc1" x="190.910105" y="54.039822" style="fill: #9467bd; stroke: #ffffff; stroke-width: 0.565685"/>
    </g>
    <g clip-path="url(#p0e871efa15)">
     <use xlink:href="#C0_0_b3fef8cbc1" x="169.677556" y="77.384895" style="fill: #8c564b; stroke: #ffffff; stroke-width: 0.565685"/>
    </g>
    <g clip-path="url(#p0e871efa15)">
     <use xlink:href="#C0_0_b3fef8cbc1" x="156.593723" y="113.441736" style="fill: #e377c2; stroke: #ffffff; stroke-width: 0.565685"/>
    </g>
    <g clip-path="url(#p0e871efa15)">
     <use xlink:href="#C0_0_b3fef8cbc1" x="94.97645" y="59.499557" style="fill: #7f7f7f; stroke: #ffffff; stroke-width: 0.565685"/>
    </g>
    <g clip-path="url(#p0e871efa15)">
     <use xlink:href="#C0_0_b3fef8cbc1" x="157.191787" y="40.793253" style="fill: #bcbd22; stroke: #ffffff; stroke-width: 0.565685"/>
    </g>
   </g>
   <g id="line2d_27"/>
   <g id="line2d_28"/>
   <g id="line2d_29"/>
   <g id="line2d_30"/>
   <g id="line2d_31"/>
   <g id="line2d_32"/>
   <g id="line2d_33"/>
   <g id="line2d_34"/>
   <g id="line2d_35"/>
   <g id="patch_3">
    <path d="M 43.78125 170.017187 
L 43.78125 20.798437 
" style="fill: none; stroke: #000000; stroke-width: 0.8; stroke-linejoin: miter; stroke-linecap: square"/>
   </g>
   <g id="patch_4">
    <path d="M 43.78125 170.017187 
L 206.36125 170.017187 
" style="fill: none; stroke: #000000; stroke-width: 0.8; stroke-linejoin: miter; stroke-linecap: square"/>
   </g>
   <g id="text_10">
    <!-- dataset = org -->
    <g transform="translate(90.597812 14.798437) scale(0.1 -0.1)">
     <defs>
      <path id="DejaVuSans-64" d="M 2906 2969 
L 2906 4863 
L 3481 4863 
L 3481 0 
L 2906 0 
L 2906 525 
Q 2725 213 2448 61 
Q 2172 -91 1784 -91 
Q 1150 -91 751 415 
Q 353 922 353 1747 
Q 353 2572 751 3078 
Q 1150 3584 1784 3584 
Q 2172 3584 2448 3432 
Q 2725 3281 2906 2969 
z
M 947 1747 
Q 947 1113 1208 752 
Q 1469 391 1925 391 
Q 2381 391 2643 752 
Q 2906 1113 2906 1747 
Q 2906 2381 2643 2742 
Q 2381 3103 1925 3103 
Q 1469 3103 1208 2742 
Q 947 2381 947 1747 
z
" transform="scale(0.015625)"/>
      <path id="DejaVuSans-20" transform="scale(0.015625)"/>
      <path id="DejaVuSans-3d" d="M 678 2906 
L 4684 2906 
L 4684 2381 
L 678 2381 
L 678 2906 
z
M 678 1631 
L 4684 1631 
L 4684 1100 
L 678 1100 
L 678 1631 
z
" transform="scale(0.015625)"/>
      <path id="DejaVuSans-67" d="M 2906 1791 
Q 2906 2416 2648 2759 
Q 2391 3103 1925 3103 
Q 1463 3103 1205 2759 
Q 947 2416 947 1791 
Q 947 1169 1205 825 
Q 1463 481 1925 481 
Q 2391 481 2648 825 
Q 2906 1169 2906 1791 
z
M 3481 434 
Q 3481 -459 3084 -895 
Q 2688 -1331 1869 -1331 
Q 1566 -1331 1297 -1286 
Q 1028 -1241 775 -1147 
L 775 -588 
Q 1028 -725 1275 -790 
Q 1522 -856 1778 -856 
Q 2344 -856 2625 -561 
Q 2906 -266 2906 331 
L 2906 616 
Q 2728 306 2450 153 
Q 2172 0 1784 0 
Q 1141 0 747 490 
Q 353 981 353 1791 
Q 353 2603 747 3093 
Q 1141 3584 1784 3584 
Q 2172 3584 2450 3431 
Q 2728 3278 2906 2969 
L 2906 3500 
L 3481 3500 
L 3481 434 
z
" transform="scale(0.015625)"/>
     </defs>
     <use xlink:href="#DejaVuSans-64"/>
     <use xlink:href="#DejaVuSans-61" x="63.476562"/>
     <use xlink:href="#DejaVuSans-74" x="124.755859"/>
     <use xlink:href="#DejaVuSans-61" x="163.964844"/>
     <use xlink:href="#DejaVuSans-73" x="225.244141"/>
     <use xlink:href="#DejaVuSans-65" x="277.34375"/>
     <use xlink:href="#DejaVuSans-74" x="338.867188"/>
     <use xlink:href="#DejaVuSans-20" x="378.076172"/>
     <use xlink:href="#DejaVuSans-3d" x="409.863281"/>
     <use xlink:href="#DejaVuSans-20" x="493.652344"/>
     <use xlink:href="#DejaVuSans-6f" x="525.439453"/>
     <use xlink:href="#DejaVuSans-72" x="586.621094"/>
     <use xlink:href="#DejaVuSans-67" x="625.984375"/>
    </g>
   </g>
  </g>
  <g id="axes_2">
   <g id="patch_5">
    <path d="M 254.08125 170.017187 
L 416.66125 170.017187 
L 416.66125 20.798437 
L 254.08125 20.798437 
z
" style="fill: #ffffff"/>
   </g>
   <g id="matplotlib.axis_3">
    <g id="xtick_4">
     <g id="line2d_36">
      <g>
       <use xlink:href="#mecbac76ea7" x="261.47125" y="170.017187" style="stroke: #000000; stroke-width: 0.8"/>
      </g>
     </g>
     <g id="text_11">
      <!-- 0.00 -->
      <g transform="translate(250.338437 184.615625) scale(0.1 -0.1)">
       <use xlink:href="#DejaVuSans-30"/>
       <use xlink:href="#DejaVuSans-2e" x="63.623047"/>
       <use xlink:href="#DejaVuSans-30" x="95.410156"/>
       <use xlink:href="#DejaVuSans-30" x="159.033203"/>
      </g>
     </g>
    </g>
    <g id="xtick_5">
     <g id="line2d_37">
      <g>
       <use xlink:href="#mecbac76ea7" x="300.871086" y="170.017187" style="stroke: #000000; stroke-width: 0.8"/>
      </g>
     </g>
     <g id="text_12">
      <!-- 0.02 -->
      <g transform="translate(289.738273 184.615625) scale(0.1 -0.1)">
       <use xlink:href="#DejaVuSans-30"/>
       <use xlink:href="#DejaVuSans-2e" x="63.623047"/>
       <use xlink:href="#DejaVuSans-30" x="95.410156"/>
       <use xlink:href="#DejaVuSans-32" x="159.033203"/>
      </g>
     </g>
    </g>
    <g id="xtick_6">
     <g id="line2d_38">
      <g>
       <use xlink:href="#mecbac76ea7" x="340.270921" y="170.017187" style="stroke: #000000; stroke-width: 0.8"/>
      </g>
     </g>
     <g id="text_13">
      <!-- 0.04 -->
      <g transform="translate(329.138109 184.615625) scale(0.1 -0.1)">
       <defs>
        <path id="DejaVuSans-34" d="M 2419 4116 
L 825 1625 
L 2419 1625 
L 2419 4116 
z
M 2253 4666 
L 3047 4666 
L 3047 1625 
L 3713 1625 
L 3713 1100 
L 3047 1100 
L 3047 0 
L 2419 0 
L 2419 1100 
L 313 1100 
L 313 1709 
L 2253 4666 
z
" transform="scale(0.015625)"/>
       </defs>
       <use xlink:href="#DejaVuSans-30"/>
       <use xlink:href="#DejaVuSans-2e" x="63.623047"/>
       <use xlink:href="#DejaVuSans-30" x="95.410156"/>
       <use xlink:href="#DejaVuSans-34" x="159.033203"/>
      </g>
     </g>
    </g>
    <g id="xtick_7">
     <g id="line2d_39">
      <g>
       <use xlink:href="#mecbac76ea7" x="379.670757" y="170.017187" style="stroke: #000000; stroke-width: 0.8"/>
      </g>
     </g>
     <g id="text_14">
      <!-- 0.06 -->
      <g transform="translate(368.537944 184.615625) scale(0.1 -0.1)">
       <defs>
        <path id="DejaVuSans-36" d="M 2113 2584 
Q 1688 2584 1439 2293 
Q 1191 2003 1191 1497 
Q 1191 994 1439 701 
Q 1688 409 2113 409 
Q 2538 409 2786 701 
Q 3034 994 3034 1497 
Q 3034 2003 2786 2293 
Q 2538 2584 2113 2584 
z
M 3366 4563 
L 3366 3988 
Q 3128 4100 2886 4159 
Q 2644 4219 2406 4219 
Q 1781 4219 1451 3797 
Q 1122 3375 1075 2522 
Q 1259 2794 1537 2939 
Q 1816 3084 2150 3084 
Q 2853 3084 3261 2657 
Q 3669 2231 3669 1497 
Q 3669 778 3244 343 
Q 2819 -91 2113 -91 
Q 1303 -91 875 529 
Q 447 1150 447 2328 
Q 447 3434 972 4092 
Q 1497 4750 2381 4750 
Q 2619 4750 2861 4703 
Q 3103 4656 3366 4563 
z
" transform="scale(0.015625)"/>
       </defs>
       <use xlink:href="#DejaVuSans-30"/>
       <use xlink:href="#DejaVuSans-2e" x="63.623047"/>
       <use xlink:href="#DejaVuSans-30" x="95.410156"/>
       <use xlink:href="#DejaVuSans-36" x="159.033203"/>
      </g>
     </g>
    </g>
    <g id="text_15">
     <!-- false_pos -->
     <g transform="translate(312.138437 198.29375) scale(0.1 -0.1)">
      <use xlink:href="#DejaVuSans-66"/>
      <use xlink:href="#DejaVuSans-61" x="35.205078"/>
      <use xlink:href="#DejaVuSans-6c" x="96.484375"/>
      <use xlink:href="#DejaVuSans-73" x="124.267578"/>
      <use xlink:href="#DejaVuSans-65" x="176.367188"/>
      <use xlink:href="#DejaVuSans-5f" x="237.890625"/>
      <use xlink:href="#DejaVuSans-70" x="287.890625"/>
      <use xlink:href="#DejaVuSans-6f" x="351.367188"/>
      <use xlink:href="#DejaVuSans-73" x="412.548828"/>
     </g>
    </g>
   </g>
   <g id="matplotlib.axis_4">
    <g id="ytick_5">
     <g id="line2d_40">
      <g>
       <use xlink:href="#m32e3cfdf49" x="254.08125" y="163.234517" style="stroke: #000000; stroke-width: 0.8"/>
      </g>
     </g>
     <g id="text_16">
      <!-- 0.0 -->
      <g transform="translate(231.178125 167.033736) scale(0.1 -0.1)">
       <use xlink:href="#DejaVuSans-30"/>
       <use xlink:href="#DejaVuSans-2e" x="63.623047"/>
       <use xlink:href="#DejaVuSans-30" x="95.410156"/>
      </g>
     </g>
    </g>
    <g id="ytick_6">
     <g id="line2d_41">
      <g>
       <use xlink:href="#m32e3cfdf49" x="254.08125" y="132.565051" style="stroke: #000000; stroke-width: 0.8"/>
      </g>
     </g>
     <g id="text_17">
      <!-- 0.2 -->
      <g transform="translate(231.178125 136.364269) scale(0.1 -0.1)">
       <use xlink:href="#DejaVuSans-30"/>
       <use xlink:href="#DejaVuSans-2e" x="63.623047"/>
       <use xlink:href="#DejaVuSans-32" x="95.410156"/>
      </g>
     </g>
    </g>
    <g id="ytick_7">
     <g id="line2d_42">
      <g>
       <use xlink:href="#m32e3cfdf49" x="254.08125" y="101.895584" style="stroke: #000000; stroke-width: 0.8"/>
      </g>
     </g>
     <g id="text_18">
      <!-- 0.4 -->
      <g transform="translate(231.178125 105.694803) scale(0.1 -0.1)">
       <use xlink:href="#DejaVuSans-30"/>
       <use xlink:href="#DejaVuSans-2e" x="63.623047"/>
       <use xlink:href="#DejaVuSans-34" x="95.410156"/>
      </g>
     </g>
    </g>
    <g id="ytick_8">
     <g id="line2d_43">
      <g>
       <use xlink:href="#m32e3cfdf49" x="254.08125" y="71.226118" style="stroke: #000000; stroke-width: 0.8"/>
      </g>
     </g>
     <g id="text_19">
      <!-- 0.6 -->
      <g transform="translate(231.178125 75.025337) scale(0.1 -0.1)">
       <use xlink:href="#DejaVuSans-30"/>
       <use xlink:href="#DejaVuSans-2e" x="63.623047"/>
       <use xlink:href="#DejaVuSans-36" x="95.410156"/>
      </g>
     </g>
    </g>
    <g id="ytick_9">
     <g id="line2d_44">
      <g>
       <use xlink:href="#m32e3cfdf49" x="254.08125" y="40.556651" style="stroke: #000000; stroke-width: 0.8"/>
      </g>
     </g>
     <g id="text_20">
      <!-- 0.8 -->
      <g transform="translate(231.178125 44.35587) scale(0.1 -0.1)">
       <defs>
        <path id="DejaVuSans-38" d="M 2034 2216 
Q 1584 2216 1326 1975 
Q 1069 1734 1069 1313 
Q 1069 891 1326 650 
Q 1584 409 2034 409 
Q 2484 409 2743 651 
Q 3003 894 3003 1313 
Q 3003 1734 2745 1975 
Q 2488 2216 2034 2216 
z
M 1403 2484 
Q 997 2584 770 2862 
Q 544 3141 544 3541 
Q 544 4100 942 4425 
Q 1341 4750 2034 4750 
Q 2731 4750 3128 4425 
Q 3525 4100 3525 3541 
Q 3525 3141 3298 2862 
Q 3072 2584 2669 2484 
Q 3125 2378 3379 2068 
Q 3634 1759 3634 1313 
Q 3634 634 3220 271 
Q 2806 -91 2034 -91 
Q 1263 -91 848 271 
Q 434 634 434 1313 
Q 434 1759 690 2068 
Q 947 2378 1403 2484 
z
M 1172 3481 
Q 1172 3119 1398 2916 
Q 1625 2713 2034 2713 
Q 2441 2713 2670 2916 
Q 2900 3119 2900 3481 
Q 2900 3844 2670 4047 
Q 2441 4250 2034 4250 
Q 1625 4250 1398 4047 
Q 1172 3844 1172 3481 
z
" transform="scale(0.015625)"/>
       </defs>
       <use xlink:href="#DejaVuSans-30"/>
       <use xlink:href="#DejaVuSans-2e" x="63.623047"/>
       <use xlink:href="#DejaVuSans-38" x="95.410156"/>
      </g>
     </g>
    </g>
    <g id="text_21">
     <!-- true_pos -->
     <g transform="translate(224.820312 117.007031) rotate(-90) scale(0.1 -0.1)">
      <use xlink:href="#DejaVuSans-74"/>
      <use xlink:href="#DejaVuSans-72" x="39.208984"/>
      <use xlink:href="#DejaVuSans-75" x="80.322266"/>
      <use xlink:href="#DejaVuSans-65" x="143.701172"/>
      <use xlink:href="#DejaVuSans-5f" x="205.224609"/>
      <use xlink:href="#DejaVuSans-70" x="255.224609"/>
      <use xlink:href="#DejaVuSans-6f" x="318.701172"/>
      <use xlink:href="#DejaVuSans-73" x="379.882812"/>
     </g>
    </g>
   </g>
   <g id="line2d_45">
    <path d="M 261.47125 161.043841 
L 261.47125 145.709108 
L 261.47125 145.709108 
L 262.483059 145.709108 
L 262.483059 145.709108 
L 262.483059 132.565051 
L 262.483059 132.565051 
L 264.506676 132.565051 
L 264.506676 132.565051 
L 264.506676 130.374374 
L 264.506676 130.374374 
L 265.518485 130.374374 
L 265.518485 130.374374 
L 266.530294 128.183698 
L 266.530294 110.658289 
L 266.530294 110.658289 
L 267.542103 108.467613 
L 267.542103 108.467613 
L 267.542103 97.514232 
L 268.553912 97.514232 
L 268.553912 97.514232 
L 268.553912 93.13288 
L 268.553912 93.13288 
L 269.565721 93.13288 
L 269.565721 90.942203 
L 270.577529 90.942203 
L 270.577529 90.942203 
L 270.577529 86.560851 
L 270.577529 86.560851 
L 271.589338 86.560851 
L 271.589338 86.560851 
L 271.589338 77.798146 
L 271.589338 77.798146 
L 272.601147 77.798146 
L 272.601147 77.798146 
L 272.601147 71.226118 
L 272.601147 71.226118 
L 273.612956 77.798146 
L 273.612956 77.798146 
L 273.612956 71.226118 
L 273.612956 71.226118 
L 274.624765 88.751527 
L 274.624765 88.751527 
L 274.624765 77.798146 
L 274.624765 77.798146 
L 275.636574 99.704908 
L 275.636574 97.514232 
L 275.636574 90.942203 
L 276.648382 97.514232 
L 276.648382 95.323556 
L 276.648382 95.323556 
L 277.660191 97.514232 
L 279.683809 97.514232 
L 279.683809 97.514232 
L 280.695618 112.848965 
L 280.695618 112.848965 
L 280.695618 97.514232 
L 280.695618 97.514232 
L 281.707426 115.039641 
L 283.731044 117.230317 
L 283.731044 115.039641 
L 285.754662 119.420994 
L 285.754662 119.420994 
L 285.754662 117.230317 
L 286.766471 121.61167 
L 286.766471 121.61167 
L 287.778279 121.61167 
L 287.778279 119.420994 
L 287.778279 119.420994 
L 288.790088 121.61167 
L 289.801897 128.183698 
L 289.801897 128.183698 
L 297.896368 128.183698 
L 299.919985 130.374374 
L 302.955412 132.565051 
L 302.955412 130.374374 
L 303.967221 130.374374 
L 304.979029 134.755727 
L 307.002647 136.946403 
L 317.120735 136.946403 
L 323.191588 139.137079 
L 324.203397 139.137079 
L 326.227015 141.327755 
L 336.345103 141.327755 
L 342.415956 150.09046 
L 344.439574 156.662489 
L 346.463191 158.853165 
L 349.498618 163.234517 
L 403.124485 163.234517 
L 403.124485 163.234517 
" clip-path="url(#p1409b11973)" style="fill: none; stroke: #1f77b4; stroke-opacity: 0.9; stroke-linecap: square"/>
   </g>
   <g id="line2d_46">
    <path d="M 261.47125 160.446384 
L 261.47125 115.836251 
L 261.47125 115.836251 
L 262.476348 115.836251 
L 262.476348 115.836251 
L 262.476348 82.378651 
L 262.476348 82.378651 
L 263.481446 82.378651 
L 263.481446 82.378651 
L 263.481446 76.802384 
L 263.481446 76.802384 
L 264.486544 79.590518 
L 264.486544 79.590518 
L 264.486544 62.861718 
L 264.486544 62.861718 
L 265.491641 99.107451 
L 265.491641 76.802384 
L 266.496739 107.471851 
L 266.496739 104.683718 
L 266.496739 99.107451 
L 266.496739 99.107451 
L 267.501837 115.836251 
L 267.501837 115.836251 
L 267.501837 107.471851 
L 268.506935 113.048117 
L 270.517131 113.048117 
L 270.517131 110.259984 
L 270.517131 110.259984 
L 271.522228 118.624384 
L 271.522228 118.624384 
L 271.522228 113.048117 
L 272.527326 118.624384 
L 272.527326 118.624384 
L 273.532424 121.412517 
L 273.532424 118.624384 
L 273.532424 118.624384 
L 274.537522 126.988784 
L 274.537522 126.988784 
L 274.537522 121.412517 
L 275.54262 132.565051 
L 277.552816 146.505717 
L 277.552816 146.505717 
L 277.552816 138.141317 
L 279.563011 146.505717 
L 280.568109 154.870117 
L 281.573207 154.870117 
L 282.578305 160.446384 
L 282.578305 157.65825 
L 282.578305 157.65825 
L 283.583403 163.234517 
L 283.583403 163.234517 
L 283.583403 160.446384 
L 284.5885 163.234517 
L 284.5885 163.234517 
L 328.812806 163.234517 
L 328.812806 163.234517 
" clip-path="url(#p1409b11973)" style="fill: none; stroke: #ff7f0e; stroke-opacity: 0.9; stroke-linecap: square"/>
   </g>
   <g id="line2d_47">
    <path d="M 261.47125 160.28553 
L 261.47125 48.224018 
L 261.47125 48.224018 
L 262.475835 48.224018 
L 262.475835 48.224018 
L 262.475835 45.275031 
L 262.475835 45.275031 
L 263.480421 86.560851 
L 263.480421 83.611864 
L 263.480421 45.275031 
L 263.480421 45.275031 
L 264.485006 113.101735 
L 264.485006 107.203761 
L 264.485006 86.560851 
L 265.489591 124.897684 
L 265.489591 121.948697 
L 265.489591 116.050723 
L 266.494177 127.846671 
L 267.498762 145.540594 
L 267.498762 145.540594 
L 267.498762 127.846671 
L 268.503347 145.540594 
L 269.507932 160.28553 
L 269.507932 148.489581 
L 270.512518 160.28553 
L 272.521688 160.28553 
L 272.521688 160.28553 
L 273.526274 163.234517 
L 273.526274 163.234517 
L 284.576712 163.234517 
L 284.576712 163.234517 
" clip-path="url(#p1409b11973)" style="fill: none; stroke: #2ca02c; stroke-opacity: 0.9; stroke-linecap: square"/>
   </g>
   <g id="line2d_48">
    <path d="M 261.47125 160.800432 
L 261.47125 124.289163 
L 261.47125 124.289163 
L 262.480984 121.855078 
L 262.480984 121.855078 
L 262.480984 104.816486 
L 263.490719 102.382401 
L 263.490719 102.382401 
L 264.500453 102.382401 
L 264.500453 102.382401 
L 264.500453 82.909724 
L 264.500453 82.909724 
L 265.510188 82.909724 
L 265.510188 82.909724 
L 265.510188 80.475639 
L 265.510188 80.475639 
L 267.529656 80.475639 
L 267.529656 80.475639 
L 267.529656 70.739301 
L 267.529656 70.739301 
L 268.539391 75.60747 
L 268.539391 75.60747 
L 268.539391 70.739301 
L 268.539391 70.739301 
L 269.549125 75.60747 
L 269.549125 75.60747 
L 269.549125 73.173386 
L 269.549125 73.173386 
L 270.558859 85.343809 
L 270.558859 75.60747 
L 271.568594 85.343809 
L 271.568594 85.343809 
L 272.578328 87.777893 
L 272.578328 87.777893 
L 272.578328 85.343809 
L 272.578328 85.343809 
L 274.597797 90.211978 
L 274.597797 85.343809 
L 276.617266 95.080147 
L 276.617266 95.080147 
L 276.617266 90.211978 
L 276.617266 90.211978 
L 278.636735 97.514232 
L 278.636735 97.514232 
L 278.636735 95.080147 
L 278.636735 95.080147 
L 279.646469 95.080147 
L 279.646469 92.646063 
L 279.646469 92.646063 
L 280.656203 92.646063 
L 282.675672 99.948317 
L 282.675672 95.080147 
L 283.685406 107.25057 
L 283.685406 102.382401 
L 285.704875 112.11874 
L 285.704875 102.382401 
L 287.724344 124.289163 
L 287.724344 114.552824 
L 287.724344 114.552824 
L 290.753547 126.723248 
L 292.773016 138.893671 
L 292.773016 126.723248 
L 294.792485 153.498179 
L 294.792485 141.327755 
L 295.802219 163.234517 
L 295.802219 153.498179 
L 296.811953 163.234517 
L 296.811953 163.234517 
L 363.454423 163.234517 
L 363.454423 163.234517 
" clip-path="url(#p1409b11973)" style="fill: none; stroke: #d62728; stroke-opacity: 0.9; stroke-linecap: square"/>
   </g>
   <g id="line2d_49">
    <path d="M 261.47125 160.945751 
L 261.47125 133.480557 
L 261.47125 133.480557 
L 262.483579 133.480557 
L 262.483579 133.480557 
L 262.483579 108.304129 
L 264.508236 108.304129 
L 264.508236 103.726597 
L 264.508236 103.726597 
L 266.532894 99.149065 
L 266.532894 99.149065 
L 266.532894 78.55017 
L 266.532894 78.55017 
L 269.56988 78.55017 
L 269.56988 78.55017 
L 269.56988 76.261403 
L 269.56988 76.261403 
L 270.582209 73.972637 
L 270.582209 73.972637 
L 270.582209 57.951274 
L 270.582209 57.951274 
L 271.594538 57.951274 
L 271.594538 57.951274 
L 272.606866 69.395105 
L 272.606866 55.662508 
L 272.606866 55.662508 
L 273.619195 69.395105 
L 273.619195 69.395105 
L 274.631524 71.683871 
L 274.631524 71.683871 
L 274.631524 69.395105 
L 275.643853 83.127702 
L 275.643853 83.127702 
L 275.643853 69.395105 
L 275.643853 69.395105 
L 276.656182 87.705234 
L 276.656182 83.127702 
L 276.656182 83.127702 
L 277.66851 92.282766 
L 277.66851 89.994 
L 277.66851 89.994 
L 278.680839 112.881662 
L 278.680839 110.592896 
L 278.680839 89.994 
L 279.693168 122.036726 
L 279.693168 122.036726 
L 279.693168 115.170428 
L 279.693168 115.170428 
L 281.717825 131.191791 
L 281.717825 131.191791 
L 281.717825 128.903025 
L 281.717825 128.903025 
L 282.730154 133.480557 
L 282.730154 131.191791 
L 284.754812 135.769323 
L 284.754812 135.769323 
L 285.76714 142.635622 
L 285.76714 142.635622 
L 285.76714 138.058089 
L 286.779469 142.635622 
L 287.791798 151.790686 
L 287.791798 144.924388 
L 289.816455 154.079452 
L 290.828784 154.079452 
L 291.841113 156.368219 
L 291.841113 154.079452 
L 295.890428 154.079452 
L 295.890428 154.079452 
L 296.902757 158.656985 
L 298.927414 163.234517 
L 409.27125 163.234517 
L 409.27125 163.234517 
" clip-path="url(#p1409b11973)" style="fill: none; stroke: #9467bd; stroke-opacity: 0.9; stroke-linecap: square"/>
   </g>
   <g id="line2d_50">
    <path d="M 261.47125 160.544213 
L 261.47125 50.241746 
L 261.47125 50.241746 
L 262.477375 87.906003 
L 262.477375 85.215699 
L 262.477375 69.073875 
L 262.477375 69.073875 
L 263.483499 117.499348 
L 263.483499 114.809044 
L 263.483499 82.525395 
L 263.483499 82.525395 
L 265.495748 155.163605 
L 265.495748 122.879956 
L 265.495748 122.879956 
L 266.501873 163.234517 
L 266.501873 160.544213 
L 266.501873 157.853909 
L 267.507997 163.234517 
L 352.022455 163.234517 
L 352.022455 163.234517 
" clip-path="url(#p1409b11973)" style="fill: none; stroke: #8c564b; stroke-opacity: 0.9; stroke-linecap: square"/>
   </g>
   <g id="line2d_51">
    <path d="M 261.47125 160.446384 
L 261.47125 104.683718 
L 261.47125 104.683718 
L 262.475323 104.683718 
L 262.475323 104.683718 
L 262.475323 65.649851 
L 262.475323 65.649851 
L 263.479397 74.014251 
L 263.479397 74.014251 
L 263.479397 68.437985 
L 263.479397 68.437985 
L 266.491616 76.802384 
L 266.491616 76.802384 
L 266.491616 65.649851 
L 266.491616 65.649851 
L 267.49569 68.437985 
L 268.499763 76.802384 
L 268.499763 76.802384 
L 268.499763 68.437985 
L 268.499763 68.437985 
L 269.503836 85.166784 
L 269.503836 85.166784 
L 269.503836 79.590518 
L 269.503836 79.590518 
L 270.50791 90.743051 
L 270.50791 90.743051 
L 271.511983 93.531184 
L 271.511983 90.743051 
L 271.511983 90.743051 
L 272.516056 93.531184 
L 272.516056 87.954918 
L 272.516056 87.954918 
L 273.520129 87.954918 
L 273.520129 87.954918 
L 274.524203 90.743051 
L 274.524203 90.743051 
L 275.528276 124.200651 
L 275.528276 121.412517 
L 275.528276 90.743051 
L 276.532349 132.565051 
L 278.540496 143.717584 
L 278.540496 143.717584 
L 278.540496 138.141317 
L 279.544569 143.717584 
L 281.552716 149.29385 
L 281.552716 146.505717 
L 282.556789 152.081984 
L 282.556789 152.081984 
L 283.560862 152.081984 
L 284.564936 154.870117 
L 286.573082 154.870117 
L 289.585302 157.65825 
L 290.589375 163.234517 
L 290.589375 163.234517 
L 290.589375 160.446384 
L 291.593448 163.234517 
L 389.99263 163.234517 
L 389.99263 163.234517 
" clip-path="url(#p1409b11973)" style="fill: none; stroke: #e377c2; stroke-opacity: 0.9; stroke-linecap: square"/>
   </g>
   <g id="line2d_52">
    <path d="M 261.47125 160.227707 
L 261.47125 115.12555 
L 261.47125 115.12555 
L 262.474812 115.12555 
L 262.474812 48.975721 
L 262.474812 48.975721 
L 263.478374 70.023394 
L 263.478374 70.023394 
L 263.478374 57.996152 
L 263.478374 57.996152 
L 264.481935 79.043825 
L 264.481935 79.043825 
L 264.481935 70.023394 
L 264.481935 70.023394 
L 266.489059 88.064256 
L 266.489059 88.064256 
L 266.489059 76.037015 
L 266.489059 76.037015 
L 267.492621 94.077877 
L 267.492621 94.077877 
L 267.492621 88.064256 
L 267.492621 88.064256 
L 268.496182 94.077877 
L 269.499744 103.098308 
L 269.499744 103.098308 
L 269.499744 94.077877 
L 269.499744 94.077877 
L 270.503306 103.098308 
L 271.506868 109.111929 
L 271.506868 109.111929 
L 271.506868 103.098308 
L 272.51043 130.159602 
L 272.51043 109.111929 
L 273.513991 139.180034 
L 275.521115 142.186844 
L 279.535362 142.186844 
L 280.538924 145.193654 
L 281.542486 145.193654 
L 282.546047 142.186844 
L 282.546047 142.186844 
L 289.57098 148.200465 
L 289.57098 145.193654 
L 291.578104 148.200465 
L 305.627968 148.200465 
L 317.67071 154.214086 
L 324.695642 154.214086 
L 324.695642 154.214086 
" clip-path="url(#p1409b11973)" style="fill: none; stroke: #7f7f7f; stroke-opacity: 0.9; stroke-linecap: square"/>
   </g>
   <g id="line2d_53">
    <path d="M 261.47125 160.28553 
L 261.47125 74.764902 
L 261.47125 74.764902 
L 262.478403 86.560851 
L 262.478403 86.560851 
L 262.478403 74.764902 
L 262.478403 74.764902 
L 263.485557 98.3568 
L 263.485557 98.3568 
L 263.485557 83.611864 
L 263.485557 83.611864 
L 264.49271 107.203761 
L 264.49271 92.458825 
L 265.499863 142.591607 
L 265.499863 139.64262 
L 265.499863 110.152748 
L 266.507016 145.540594 
L 267.51417 163.234517 
L 267.51417 163.234517 
L 267.51417 145.540594 
L 267.51417 145.540594 
L 269.528476 163.234517 
L 269.528476 163.234517 
L 311.828913 163.234517 
L 311.828913 163.234517 
" clip-path="url(#p1409b11973)" style="fill: none; stroke: #bcbd22; stroke-opacity: 0.9; stroke-linecap: square"/>
   </g>
   <g id="line2d_54"/>
   <g id="line2d_55"/>
   <g id="line2d_56"/>
   <g id="line2d_57"/>
   <g id="line2d_58"/>
   <g id="line2d_59"/>
   <g id="line2d_60"/>
   <g id="line2d_61"/>
   <g id="line2d_62"/>
   <g id="line2d_63">
    <path d="M 254.08125 163.809767 
L 416.66125 151.154278 
" clip-path="url(#p1409b11973)" style="fill: none; stroke-dasharray: 1,1.65; stroke-dashoffset: 0; stroke: #000000; stroke-opacity: 0.8"/>
   </g>
   <g id="PathCollection_2">
    <defs>
     <path id="C1_0_3b22f22b6d" d="M -1.767767 3.535534 
L 0 1.767767 
L 1.767767 3.535534 
L 3.535534 1.767767 
L 1.767767 -0 
L 3.535534 -1.767767 
L 1.767767 -3.535534 
L 0 -1.767767 
L -1.767767 -3.535534 
L -3.535534 -1.767767 
L -1.767767 0 
L -3.535534 1.767767 
z
"/>
    </defs>
    <g clip-path="url(#p1409b11973)">
     <use xlink:href="#C1_0_3b22f22b6d" x="278.672" y="73.416794" style="fill: #1f77b4; stroke: #ffffff; stroke-width: 0.565685"/>
    </g>
    <g clip-path="url(#p1409b11973)">
     <use xlink:href="#C1_0_3b22f22b6d" x="266.496739" y="37.768518" style="fill: #ff7f0e; stroke: #ffffff; stroke-width: 0.565685"/>
    </g>
    <g clip-path="url(#p1409b11973)">
     <use xlink:href="#C1_0_3b22f22b6d" x="262.475835" y="27.581108" style="fill: #2ca02c; stroke: #ffffff; stroke-width: 0.565685"/>
    </g>
    <g clip-path="url(#p1409b11973)">
     <use xlink:href="#C1_0_3b22f22b6d" x="283.685406" y="141.327755" style="fill: #d62728; stroke: #ffffff; stroke-width: 0.565685"/>
    </g>
    <g clip-path="url(#p1409b11973)">
     <use xlink:href="#C1_0_3b22f22b6d" x="281.717825" y="156.368219" style="fill: #9467bd; stroke: #ffffff; stroke-width: 0.565685"/>
    </g>
    <g clip-path="url(#p1409b11973)">
     <use xlink:href="#C1_0_3b22f22b6d" x="267.507997" y="163.234517" style="fill: #8c564b; stroke: #ffffff; stroke-width: 0.565685"/>
    </g>
    <g clip-path="url(#p1409b11973)">
     <use xlink:href="#C1_0_3b22f22b6d" x="277.536423" y="146.505717" style="fill: #e377c2; stroke: #ffffff; stroke-width: 0.565685"/>
    </g>
    <g clip-path="url(#p1409b11973)">
     <use xlink:href="#C1_0_3b22f22b6d" x="262.474812" y="27.928048" style="fill: #7f7f7f; stroke: #ffffff; stroke-width: 0.565685"/>
    </g>
    <g clip-path="url(#p1409b11973)">
     <use xlink:href="#C1_0_3b22f22b6d" x="267.51417" y="163.234517" style="fill: #bcbd22; stroke: #ffffff; stroke-width: 0.565685"/>
    </g>
   </g>
   <g id="line2d_64"/>
   <g id="line2d_65"/>
   <g id="line2d_66"/>
   <g id="line2d_67"/>
   <g id="line2d_68"/>
   <g id="line2d_69"/>
   <g id="line2d_70"/>
   <g id="line2d_71"/>
   <g id="line2d_72"/>
   <g id="patch_6">
    <path d="M 254.08125 170.017187 
L 254.08125 20.798437 
" style="fill: none; stroke: #000000; stroke-width: 0.8; stroke-linejoin: miter; stroke-linecap: square"/>
   </g>
   <g id="patch_7">
    <path d="M 254.08125 170.017187 
L 416.66125 170.017187 
" style="fill: none; stroke: #000000; stroke-width: 0.8; stroke-linejoin: miter; stroke-linecap: square"/>
   </g>
   <g id="text_22">
    <!-- dataset = upsamp-down -->
    <g transform="translate(273.747812 14.798437) scale(0.1 -0.1)">
     <defs>
      <path id="DejaVuSans-6d" d="M 3328 2828 
Q 3544 3216 3844 3400 
Q 4144 3584 4550 3584 
Q 5097 3584 5394 3201 
Q 5691 2819 5691 2113 
L 5691 0 
L 5113 0 
L 5113 2094 
Q 5113 2597 4934 2840 
Q 4756 3084 4391 3084 
Q 3944 3084 3684 2787 
Q 3425 2491 3425 1978 
L 3425 0 
L 2847 0 
L 2847 2094 
Q 2847 2600 2669 2842 
Q 2491 3084 2119 3084 
Q 1678 3084 1418 2786 
Q 1159 2488 1159 1978 
L 1159 0 
L 581 0 
L 581 3500 
L 1159 3500 
L 1159 2956 
Q 1356 3278 1631 3431 
Q 1906 3584 2284 3584 
Q 2666 3584 2933 3390 
Q 3200 3197 3328 2828 
z
" transform="scale(0.015625)"/>
      <path id="DejaVuSans-2d" d="M 313 2009 
L 1997 2009 
L 1997 1497 
L 313 1497 
L 313 2009 
z
" transform="scale(0.015625)"/>
      <path id="DejaVuSans-77" d="M 269 3500 
L 844 3500 
L 1563 769 
L 2278 3500 
L 2956 3500 
L 3675 769 
L 4391 3500 
L 4966 3500 
L 4050 0 
L 3372 0 
L 2619 2869 
L 1863 0 
L 1184 0 
L 269 3500 
z
" transform="scale(0.015625)"/>
      <path id="DejaVuSans-6e" d="M 3513 2113 
L 3513 0 
L 2938 0 
L 2938 2094 
Q 2938 2591 2744 2837 
Q 2550 3084 2163 3084 
Q 1697 3084 1428 2787 
Q 1159 2491 1159 1978 
L 1159 0 
L 581 0 
L 581 3500 
L 1159 3500 
L 1159 2956 
Q 1366 3272 1645 3428 
Q 1925 3584 2291 3584 
Q 2894 3584 3203 3211 
Q 3513 2838 3513 2113 
z
" transform="scale(0.015625)"/>
     </defs>
     <use xlink:href="#DejaVuSans-64"/>
     <use xlink:href="#DejaVuSans-61" x="63.476562"/>
     <use xlink:href="#DejaVuSans-74" x="124.755859"/>
     <use xlink:href="#DejaVuSans-61" x="163.964844"/>
     <use xlink:href="#DejaVuSans-73" x="225.244141"/>
     <use xlink:href="#DejaVuSans-65" x="277.34375"/>
     <use xlink:href="#DejaVuSans-74" x="338.867188"/>
     <use xlink:href="#DejaVuSans-20" x="378.076172"/>
     <use xlink:href="#DejaVuSans-3d" x="409.863281"/>
     <use xlink:href="#DejaVuSans-20" x="493.652344"/>
     <use xlink:href="#DejaVuSans-75" x="525.439453"/>
     <use xlink:href="#DejaVuSans-70" x="588.818359"/>
     <use xlink:href="#DejaVuSans-73" x="652.294922"/>
     <use xlink:href="#DejaVuSans-61" x="704.394531"/>
     <use xlink:href="#DejaVuSans-6d" x="765.673828"/>
     <use xlink:href="#DejaVuSans-70" x="863.085938"/>
     <use xlink:href="#DejaVuSans-2d" x="926.5625"/>
     <use xlink:href="#DejaVuSans-64" x="962.646484"/>
     <use xlink:href="#DejaVuSans-6f" x="1026.123047"/>
     <use xlink:href="#DejaVuSans-77" x="1087.304688"/>
     <use xlink:href="#DejaVuSans-6e" x="1169.091797"/>
    </g>
   </g>
  </g>
  <g id="axes_3">
   <g id="patch_8">
    <path d="M 464.38125 170.017187 
L 626.96125 170.017187 
L 626.96125 20.798437 
L 464.38125 20.798437 
z
" style="fill: #ffffff"/>
   </g>
   <g id="matplotlib.axis_5">
    <g id="xtick_8">
     <g id="line2d_73">
      <g>
       <use xlink:href="#mecbac76ea7" x="471.77125" y="170.017187" style="stroke: #000000; stroke-width: 0.8"/>
      </g>
     </g>
     <g id="text_23">
      <!-- 0.000 -->
      <g transform="translate(457.457187 184.615625) scale(0.1 -0.1)">
       <use xlink:href="#DejaVuSans-30"/>
       <use xlink:href="#DejaVuSans-2e" x="63.623047"/>
       <use xlink:href="#DejaVuSans-30" x="95.410156"/>
       <use xlink:href="#DejaVuSans-30" x="159.033203"/>
       <use xlink:href="#DejaVuSans-30" x="222.65625"/>
      </g>
     </g>
    </g>
    <g id="xtick_9">
     <g id="line2d_74">
      <g>
       <use xlink:href="#mecbac76ea7" x="531.408849" y="170.017187" style="stroke: #000000; stroke-width: 0.8"/>
      </g>
     </g>
     <g id="text_24">
      <!-- 0.005 -->
      <g transform="translate(517.094787 184.615625) scale(0.1 -0.1)">
       <use xlink:href="#DejaVuSans-30"/>
       <use xlink:href="#DejaVuSans-2e" x="63.623047"/>
       <use xlink:href="#DejaVuSans-30" x="95.410156"/>
       <use xlink:href="#DejaVuSans-30" x="159.033203"/>
       <use xlink:href="#DejaVuSans-35" x="222.65625"/>
      </g>
     </g>
    </g>
    <g id="xtick_10">
     <g id="line2d_75">
      <g>
       <use xlink:href="#mecbac76ea7" x="591.046448" y="170.017187" style="stroke: #000000; stroke-width: 0.8"/>
      </g>
     </g>
     <g id="text_25">
      <!-- 0.010 -->
      <g transform="translate(576.732386 184.615625) scale(0.1 -0.1)">
       <use xlink:href="#DejaVuSans-30"/>
       <use xlink:href="#DejaVuSans-2e" x="63.623047"/>
       <use xlink:href="#DejaVuSans-30" x="95.410156"/>
       <use xlink:href="#DejaVuSans-31" x="159.033203"/>
       <use xlink:href="#DejaVuSans-30" x="222.65625"/>
      </g>
     </g>
    </g>
    <g id="text_26">
     <!-- false_pos -->
     <g transform="translate(522.438437 198.29375) scale(0.1 -0.1)">
      <use xlink:href="#DejaVuSans-66"/>
      <use xlink:href="#DejaVuSans-61" x="35.205078"/>
      <use xlink:href="#DejaVuSans-6c" x="96.484375"/>
      <use xlink:href="#DejaVuSans-73" x="124.267578"/>
      <use xlink:href="#DejaVuSans-65" x="176.367188"/>
      <use xlink:href="#DejaVuSans-5f" x="237.890625"/>
      <use xlink:href="#DejaVuSans-70" x="287.890625"/>
      <use xlink:href="#DejaVuSans-6f" x="351.367188"/>
      <use xlink:href="#DejaVuSans-73" x="412.548828"/>
     </g>
    </g>
   </g>
   <g id="matplotlib.axis_6">
    <g id="ytick_10">
     <g id="line2d_76">
      <g>
       <use xlink:href="#m32e3cfdf49" x="464.38125" y="163.234517" style="stroke: #000000; stroke-width: 0.8"/>
      </g>
     </g>
     <g id="text_27">
      <!-- 0.0 -->
      <g transform="translate(441.478125 167.033736) scale(0.1 -0.1)">
       <use xlink:href="#DejaVuSans-30"/>
       <use xlink:href="#DejaVuSans-2e" x="63.623047"/>
       <use xlink:href="#DejaVuSans-30" x="95.410156"/>
      </g>
     </g>
    </g>
    <g id="ytick_11">
     <g id="line2d_77">
      <g>
       <use xlink:href="#m32e3cfdf49" x="464.38125" y="134.056237" style="stroke: #000000; stroke-width: 0.8"/>
      </g>
     </g>
     <g id="text_28">
      <!-- 0.2 -->
      <g transform="translate(441.478125 137.855455) scale(0.1 -0.1)">
       <use xlink:href="#DejaVuSans-30"/>
       <use xlink:href="#DejaVuSans-2e" x="63.623047"/>
       <use xlink:href="#DejaVuSans-32" x="95.410156"/>
      </g>
     </g>
    </g>
    <g id="ytick_12">
     <g id="line2d_78">
      <g>
       <use xlink:href="#m32e3cfdf49" x="464.38125" y="104.877956" style="stroke: #000000; stroke-width: 0.8"/>
      </g>
     </g>
     <g id="text_29">
      <!-- 0.4 -->
      <g transform="translate(441.478125 108.677175) scale(0.1 -0.1)">
       <use xlink:href="#DejaVuSans-30"/>
       <use xlink:href="#DejaVuSans-2e" x="63.623047"/>
       <use xlink:href="#DejaVuSans-34" x="95.410156"/>
      </g>
     </g>
    </g>
    <g id="ytick_13">
     <g id="line2d_79">
      <g>
       <use xlink:href="#m32e3cfdf49" x="464.38125" y="75.699676" style="stroke: #000000; stroke-width: 0.8"/>
      </g>
     </g>
     <g id="text_30">
      <!-- 0.6 -->
      <g transform="translate(441.478125 79.498894) scale(0.1 -0.1)">
       <use xlink:href="#DejaVuSans-30"/>
       <use xlink:href="#DejaVuSans-2e" x="63.623047"/>
       <use xlink:href="#DejaVuSans-36" x="95.410156"/>
      </g>
     </g>
    </g>
    <g id="ytick_14">
     <g id="line2d_80">
      <g>
       <use xlink:href="#m32e3cfdf49" x="464.38125" y="46.521395" style="stroke: #000000; stroke-width: 0.8"/>
      </g>
     </g>
     <g id="text_31">
      <!-- 0.8 -->
      <g transform="translate(441.478125 50.320614) scale(0.1 -0.1)">
       <use xlink:href="#DejaVuSans-30"/>
       <use xlink:href="#DejaVuSans-2e" x="63.623047"/>
       <use xlink:href="#DejaVuSans-38" x="95.410156"/>
      </g>
     </g>
    </g>
    <g id="text_32">
     <!-- true_pos -->
     <g transform="translate(435.120312 117.007031) rotate(-90) scale(0.1 -0.1)">
      <use xlink:href="#DejaVuSans-74"/>
      <use xlink:href="#DejaVuSans-72" x="39.208984"/>
      <use xlink:href="#DejaVuSans-75" x="80.322266"/>
      <use xlink:href="#DejaVuSans-65" x="143.701172"/>
      <use xlink:href="#DejaVuSans-5f" x="205.224609"/>
      <use xlink:href="#DejaVuSans-70" x="255.224609"/>
      <use xlink:href="#DejaVuSans-6f" x="318.701172"/>
      <use xlink:href="#DejaVuSans-73" x="379.882812"/>
     </g>
    </g>
   </g>
   <g id="line2d_81">
    <path d="M 471.77125 161.150354 
L 471.77125 159.066191 
L 471.77125 159.066191 
L 472.369721 159.066191 
L 472.369721 159.066191 
L 472.369721 148.645377 
L 472.369721 148.645377 
L 472.968191 148.645377 
L 472.968191 148.645377 
L 472.968191 146.561214 
L 472.968191 146.561214 
L 477.157486 146.561214 
L 477.157486 146.561214 
L 477.157486 144.477051 
L 477.157486 144.477051 
L 481.34678 144.477051 
L 481.34678 144.477051 
L 481.34678 142.392888 
L 481.34678 142.392888 
L 482.543722 142.392888 
L 482.543722 142.392888 
L 482.543722 140.308725 
L 482.543722 140.308725 
L 483.142192 138.224562 
L 483.142192 138.224562 
L 485.536075 138.224562 
L 485.536075 138.224562 
L 485.536075 136.140399 
L 487.929957 136.140399 
L 487.929957 134.056237 
L 488.528428 134.056237 
L 488.528428 134.056237 
L 489.126899 131.972074 
L 489.126899 131.972074 
L 495.111605 131.972074 
L 495.111605 131.972074 
L 495.111605 129.887911 
L 495.111605 129.887911 
L 496.308546 129.887911 
L 496.308546 129.887911 
L 496.308546 127.803748 
L 496.308546 127.803748 
L 496.907017 127.803748 
L 497.505487 125.719585 
L 497.505487 125.719585 
L 497.505487 123.635422 
L 501.096311 123.635422 
L 501.096311 123.635422 
L 501.096311 117.382933 
L 501.096311 117.382933 
L 514.262665 117.382933 
L 514.262665 117.382933 
L 514.861136 113.214608 
L 516.058077 111.130445 
L 519.05043 111.130445 
L 519.05043 111.130445 
L 519.648901 109.046282 
L 524.436666 109.046282 
L 524.436666 109.046282 
L 525.035137 106.962119 
L 525.035137 106.962119 
L 537.60302 106.962119 
L 538.201491 104.877956 
L 539.398432 102.793793 
L 571.715847 102.793793 
L 574.7082 100.70963 
L 611.214909 100.70963 
L 611.214909 100.70963 
" clip-path="url(#p15aa0933cb)" style="fill: none; stroke: #1f77b4; stroke-opacity: 0.9; stroke-linecap: square"/>
   </g>
   <g id="line2d_82">
    <path d="M 471.77125 160.581946 
L 472.369271 160.581946 
L 472.369271 160.581946 
L 472.369271 144.66652 
L 472.369271 144.66652 
L 473.565312 144.66652 
L 473.565312 144.66652 
L 473.565312 139.361378 
L 473.565312 139.361378 
L 474.163332 136.708808 
L 474.163332 136.708808 
L 474.163332 128.751095 
L 474.163332 128.751095 
L 475.359373 128.751095 
L 475.359373 128.751095 
L 475.359373 112.835669 
L 475.359373 112.835669 
L 475.957394 110.183098 
L 476.555414 110.183098 
L 476.555414 110.183098 
L 476.555414 104.877956 
L 476.555414 104.877956 
L 477.153435 104.877956 
L 477.153435 104.877956 
L 477.153435 99.572814 
L 477.153435 99.572814 
L 477.751455 99.572814 
L 477.751455 99.572814 
L 477.751455 96.920243 
L 477.751455 96.920243 
L 478.947497 96.920243 
L 478.947497 96.920243 
L 478.947497 94.267672 
L 479.545517 94.267672 
L 479.545517 94.267672 
L 479.545517 86.30996 
L 479.545517 86.30996 
L 480.741558 86.30996 
L 480.741558 86.30996 
L 481.339579 83.657389 
L 481.339579 83.657389 
L 484.329682 83.657389 
L 484.329682 83.657389 
L 484.329682 73.047105 
L 489.113846 73.047105 
L 489.113846 70.394534 
L 490.907908 70.394534 
L 490.907908 70.394534 
L 490.907908 65.089392 
L 490.907908 65.089392 
L 492.103949 65.089392 
L 493.29999 62.436821 
L 493.29999 62.436821 
L 497.486134 62.436821 
L 497.486134 62.436821 
L 498.084154 59.78425 
L 499.280195 59.78425 
L 499.280195 57.131679 
L 499.280195 57.131679 
L 501.074257 57.131679 
L 501.074257 54.479108 
L 501.074257 54.479108 
L 504.66238 54.479108 
L 504.66238 51.826537 
L 504.66238 51.826537 
L 513.632688 51.826537 
L 515.42675 49.173966 
L 517.220812 49.173966 
L 517.220812 49.173966 
L 519.612894 43.868824 
L 560.876312 43.868824 
L 560.876312 43.868824 
" clip-path="url(#p15aa0933cb)" style="fill: none; stroke: #ff7f0e; stroke-opacity: 0.9; stroke-linecap: square"/>
   </g>
   <g id="line2d_83">
    <path d="M 471.77125 160.428913 
L 471.77125 143.59529 
L 471.77125 143.59529 
L 472.369181 143.59529 
L 472.369181 143.59529 
L 472.369181 118.344855 
L 472.369181 118.344855 
L 472.967111 118.344855 
L 472.967111 118.344855 
L 472.967111 115.539251 
L 473.565042 115.539251 
L 473.565042 115.539251 
L 473.565042 109.928043 
L 473.565042 109.928043 
L 474.162972 109.928043 
L 474.162972 109.928043 
L 474.162972 101.511231 
L 475.956764 101.511231 
L 475.956764 101.511231 
L 475.956764 93.09442 
L 475.956764 93.09442 
L 476.554695 90.288816 
L 476.554695 90.288816 
L 476.554695 79.0664 
L 477.750556 76.260796 
L 477.750556 76.260796 
L 479.544348 76.260796 
L 479.544348 76.260796 
L 479.544348 73.455193 
L 479.544348 73.455193 
L 480.142279 73.455193 
L 480.142279 73.455193 
L 480.142279 70.649589 
L 480.142279 70.649589 
L 481.93607 70.649589 
L 481.93607 67.843985 
L 481.93607 67.843985 
L 482.534001 67.843985 
L 482.534001 67.843985 
L 482.534001 59.427173 
L 482.534001 59.427173 
L 484.925723 59.427173 
L 484.925723 56.621569 
L 485.523654 56.621569 
L 485.523654 53.815965 
L 486.719515 53.815965 
L 487.317446 51.010361 
L 487.317446 51.010361 
L 487.317446 45.399154 
L 490.307099 45.399154 
L 490.307099 45.399154 
L 490.307099 42.59355 
L 490.307099 42.59355 
L 490.90503 39.787946 
L 490.90503 39.787946 
L 498.080197 39.787946 
L 498.080197 36.982342 
L 498.080197 36.982342 
L 505.255364 36.982342 
L 506.451225 34.176738 
L 516.018115 34.176738 
L 516.018115 34.176738 
" clip-path="url(#p15aa0933cb)" style="fill: none; stroke: #2ca02c; stroke-opacity: 0.9; stroke-linecap: square"/>
   </g>
   <g id="line2d_84">
    <path d="M 471.77125 160.918781 
L 471.77125 156.287307 
L 471.77125 156.287307 
L 472.369511 156.287307 
L 472.369511 156.287307 
L 472.369511 151.655834 
L 472.369511 151.655834 
L 472.967771 151.655834 
L 472.967771 151.655834 
L 472.967771 149.340098 
L 472.967771 149.340098 
L 474.164292 149.340098 
L 474.164292 149.340098 
L 474.164292 147.024361 
L 474.164292 147.024361 
L 475.959074 147.024361 
L 475.959074 147.024361 
L 476.557334 144.708625 
L 476.557334 144.708625 
L 477.753855 144.708625 
L 477.753855 144.708625 
L 477.753855 130.814205 
L 477.753855 130.814205 
L 478.352116 130.814205 
L 478.950376 128.498469 
L 478.950376 128.498469 
L 479.548637 128.498469 
L 479.548637 128.498469 
L 479.548637 121.551259 
L 479.548637 121.551259 
L 480.146897 121.551259 
L 480.146897 121.551259 
L 480.146897 116.919786 
L 480.146897 116.919786 
L 481.941679 116.919786 
L 481.941679 116.919786 
L 481.941679 114.60405 
L 481.941679 114.60405 
L 483.1382 114.60405 
L 483.1382 114.60405 
L 483.1382 112.288313 
L 483.1382 112.288313 
L 483.73646 109.972577 
L 485.531242 109.972577 
L 485.531242 109.972577 
L 486.129502 107.65684 
L 486.129502 107.65684 
L 487.326023 107.65684 
L 487.326023 107.65684 
L 487.326023 103.025367 
L 487.326023 103.025367 
L 488.522544 103.025367 
L 488.522544 103.025367 
L 488.522544 100.70963 
L 490.317326 100.70963 
L 490.317326 100.70963 
L 490.317326 98.393894 
L 490.317326 98.393894 
L 495.701671 98.393894 
L 495.701671 98.393894 
L 495.701671 96.078157 
L 495.701671 96.078157 
L 497.496452 96.078157 
L 497.496452 96.078157 
L 497.496452 93.762421 
L 501.086015 93.762421 
L 501.684276 91.446684 
L 501.684276 91.446684 
L 502.880797 91.446684 
L 502.880797 91.446684 
L 502.880797 89.130948 
L 502.880797 89.130948 
L 505.872099 89.130948 
L 505.872099 89.130948 
L 507.06862 84.499475 
L 507.06862 84.499475 
L 507.666881 84.499475 
L 508.863402 82.183738 
L 508.863402 79.868001 
L 515.444267 79.868001 
L 516.042528 77.552265 
L 521.426873 77.552265 
L 523.221654 75.236528 
L 525.614696 75.236528 
L 525.614696 72.920792 
L 526.212957 70.605055 
L 528.007738 70.605055 
L 529.204259 68.289319 
L 542.36599 68.289319 
L 542.964251 65.973582 
L 552.536419 65.973582 
L 556.125982 63.657846 
L 558.519024 61.342109 
L 577.0651 61.342109 
L 580.056403 59.026373 
L 589.03031 59.026373 
L 589.03031 59.026373 
" clip-path="url(#p15aa0933cb)" style="fill: none; stroke: #d62728; stroke-opacity: 0.9; stroke-linecap: square"/>
   </g>
   <g id="line2d_85">
    <path d="M 471.77125 161.057033 
L 472.968011 161.057033 
L 472.968011 161.057033 
L 472.968011 158.87955 
L 472.968011 158.87955 
L 473.566392 158.87955 
L 473.566392 158.87955 
L 473.566392 152.347099 
L 473.566392 152.347099 
L 475.361533 152.347099 
L 475.361533 152.347099 
L 475.361533 147.992132 
L 475.361533 147.992132 
L 475.959914 147.992132 
L 475.959914 147.992132 
L 475.959914 141.459681 
L 475.959914 141.459681 
L 476.558295 141.459681 
L 476.558295 141.459681 
L 476.558295 139.282197 
L 476.558295 139.282197 
L 478.353436 139.282197 
L 478.353436 139.282197 
L 478.353436 137.104714 
L 478.353436 137.104714 
L 481.345339 137.104714 
L 481.345339 137.104714 
L 481.345339 134.92723 
L 481.345339 134.92723 
L 481.94372 132.749746 
L 481.94372 132.749746 
L 484.337242 132.749746 
L 484.337242 132.749746 
L 484.935622 130.572263 
L 484.935622 130.572263 
L 486.132384 130.572263 
L 486.132384 130.572263 
L 486.132384 124.039812 
L 486.132384 124.039812 
L 486.730764 124.039812 
L 486.730764 124.039812 
L 486.730764 121.862328 
L 486.730764 121.862328 
L 489.124286 121.862328 
L 489.124286 121.862328 
L 489.722667 119.684845 
L 489.722667 119.684845 
L 489.722667 117.507361 
L 489.722667 117.507361 
L 490.321048 117.507361 
L 490.321048 117.507361 
L 490.919428 115.329878 
L 490.919428 115.329878 
L 491.517809 115.329878 
L 491.517809 115.329878 
L 491.517809 106.619943 
L 493.911331 106.619943 
L 493.911331 106.619943 
L 493.911331 104.442459 
L 493.911331 104.442459 
L 495.108092 104.442459 
L 495.108092 104.442459 
L 495.108092 102.264976 
L 495.108092 102.264976 
L 499.296756 102.264976 
L 499.296756 102.264976 
L 499.296756 100.087492 
L 499.296756 100.087492 
L 502.887039 100.087492 
L 502.887039 97.910009 
L 502.887039 97.910009 
L 511.264367 97.910009 
L 511.264367 95.732525 
L 511.264367 95.732525 
L 513.059509 95.732525 
L 513.059509 95.732525 
L 513.65789 93.555041 
L 514.854651 93.555041 
L 514.854651 93.555041 
L 515.453031 91.377558 
L 519.641695 91.377558 
L 519.641695 87.022591 
L 520.240076 87.022591 
L 520.838456 84.845107 
L 520.838456 84.845107 
L 531.609307 84.845107 
L 532.207687 82.667623 
L 545.97044 82.667623 
L 546.568821 80.49014 
L 548.962343 80.49014 
L 550.159104 78.312656 
L 551.954246 76.135172 
L 619.57125 76.135172 
L 619.57125 76.135172 
" clip-path="url(#p15aa0933cb)" style="fill: none; stroke: #9467bd; stroke-opacity: 0.9; stroke-linecap: square"/>
   </g>
   <g id="line2d_86">
    <path d="M 471.77125 160.675019 
L 471.77125 135.080036 
L 471.77125 135.080036 
L 472.369331 135.080036 
L 472.369331 135.080036 
L 472.369331 127.401541 
L 472.369331 127.401541 
L 472.967411 127.401541 
L 472.967411 127.401541 
L 472.967411 104.366056 
L 472.967411 104.366056 
L 474.163572 104.366056 
L 474.163572 104.366056 
L 474.163572 101.806558 
L 474.163572 101.806558 
L 476.555894 101.806558 
L 476.555894 101.806558 
L 476.555894 99.24706 
L 476.555894 99.24706 
L 477.153975 99.24706 
L 477.153975 99.24706 
L 477.153975 83.89007 
L 477.153975 83.89007 
L 478.948216 83.89007 
L 478.948216 83.89007 
L 478.948216 81.330572 
L 478.948216 81.330572 
L 480.144377 81.330572 
L 480.144377 81.330572 
L 480.144377 76.211575 
L 480.144377 76.211575 
L 482.536699 76.211575 
L 482.536699 76.211575 
L 482.536699 73.652077 
L 482.536699 73.652077 
L 484.330941 73.652077 
L 484.330941 73.652077 
L 485.527102 68.533081 
L 485.527102 68.533081 
L 485.527102 63.414084 
L 485.527102 63.414084 
L 486.125183 63.414084 
L 486.125183 63.414084 
L 486.125183 60.854586 
L 486.125183 60.854586 
L 486.723263 60.854586 
L 486.723263 60.854586 
L 486.723263 55.735589 
L 490.311746 55.735589 
L 490.909827 53.176091 
L 490.909827 53.176091 
L 492.105988 53.176091 
L 492.105988 53.176091 
L 492.105988 50.616593 
L 492.105988 50.616593 
L 495.09639 50.616593 
L 497.488712 45.497596 
L 497.488712 45.497596 
L 502.273357 45.497596 
L 502.273357 42.938098 
L 503.469518 40.378599 
L 503.469518 40.378599 
L 510.646484 40.378599 
L 511.842645 37.819101 
L 512.440725 35.259603 
L 512.440725 32.700105 
L 520.813853 32.700105 
L 520.813853 32.700105 
L 521.411933 30.140606 
L 600.956643 30.140606 
L 600.956643 30.140606 
" clip-path="url(#p15aa0933cb)" style="fill: none; stroke: #8c564b; stroke-opacity: 0.9; stroke-linecap: square"/>
   </g>
   <g id="line2d_87">
    <path d="M 471.77125 160.581946 
L 471.77125 131.403666 
L 471.77125 131.403666 
L 472.369271 131.403666 
L 472.369271 131.403666 
L 472.369271 128.751095 
L 472.369271 128.751095 
L 472.967291 128.751095 
L 472.967291 128.751095 
L 472.967291 112.835669 
L 472.967291 112.835669 
L 474.163332 112.835669 
L 474.163332 102.225385 
L 474.163332 102.225385 
L 474.761353 102.225385 
L 474.761353 102.225385 
L 474.761353 99.572814 
L 474.761353 99.572814 
L 475.359373 99.572814 
L 475.359373 99.572814 
L 475.359373 88.96253 
L 475.359373 88.96253 
L 475.957394 88.96253 
L 475.957394 88.96253 
L 475.957394 86.30996 
L 475.957394 86.30996 
L 477.153435 86.30996 
L 477.153435 86.30996 
L 477.153435 83.657389 
L 477.153435 83.657389 
L 478.349476 83.657389 
L 478.349476 83.657389 
L 478.349476 81.004818 
L 478.349476 81.004818 
L 480.143538 81.004818 
L 480.143538 78.352247 
L 480.143538 78.352247 
L 480.741558 78.352247 
L 480.741558 73.047105 
L 480.741558 73.047105 
L 483.13364 73.047105 
L 483.13364 73.047105 
L 483.13364 70.394534 
L 483.13364 70.394534 
L 483.731661 70.394534 
L 484.329682 65.089392 
L 484.329682 65.089392 
L 486.123743 65.089392 
L 486.123743 65.089392 
L 486.721764 62.436821 
L 489.711866 62.436821 
L 489.711866 62.436821 
L 490.309887 59.78425 
L 496.888113 59.78425 
L 496.888113 59.78425 
L 496.888113 57.131679 
L 496.888113 57.131679 
L 504.66238 57.131679 
L 505.260401 54.479108 
L 505.260401 51.826537 
L 505.858421 49.173966 
L 508.250503 49.173966 
L 510.044565 46.521395 
L 566.856517 46.521395 
L 571.042661 43.868824 
L 595.561504 43.868824 
L 599.149627 41.216253 
L 599.149627 41.216253 
" clip-path="url(#p15aa0933cb)" style="fill: none; stroke: #e377c2; stroke-opacity: 0.9; stroke-linecap: square"/>
   </g>
   <g id="line2d_88">
    <path d="M 471.77125 160.373901 
L 471.77125 134.62836 
L 471.77125 134.62836 
L 472.369151 134.62836 
L 472.369151 134.62836 
L 472.369151 126.046513 
L 474.162853 126.046513 
L 474.162853 123.185897 
L 474.162853 123.185897 
L 475.956554 123.185897 
L 475.956554 123.185897 
L 475.956554 117.464665 
L 475.956554 117.464665 
L 476.554455 117.464665 
L 476.554455 106.022202 
L 476.554455 106.022202 
L 477.152356 106.022202 
L 477.152356 100.300971 
L 477.152356 100.300971 
L 480.141859 100.300971 
L 480.141859 100.300971 
L 480.141859 80.276661 
L 480.141859 80.276661 
L 481.33766 80.276661 
L 481.33766 80.276661 
L 481.33766 77.416045 
L 481.33766 77.416045 
L 481.935561 77.416045 
L 481.935561 77.416045 
L 481.935561 74.555429 
L 481.935561 74.555429 
L 482.533461 74.555429 
L 482.533461 74.555429 
L 483.729263 68.834198 
L 484.327163 68.834198 
L 484.327163 68.834198 
L 484.327163 65.973582 
L 484.327163 65.973582 
L 486.120865 65.973582 
L 486.120865 65.973582 
L 486.718766 63.112966 
L 486.718766 63.112966 
L 489.110369 63.112966 
L 489.110369 63.112966 
L 489.110369 60.252351 
L 489.110369 60.252351 
L 490.90407 60.252351 
L 490.90407 60.252351 
L 490.90407 57.391735 
L 490.90407 57.391735 
L 494.491474 57.391735 
L 494.491474 57.391735 
L 494.491474 51.670504 
L 494.491474 51.670504 
L 499.274679 51.670504 
L 499.274679 48.809888 
L 506.449487 48.809888 
L 508.243189 45.949272 
L 512.428493 45.949272 
L 513.026394 43.088656 
L 542.323525 43.088656 
L 542.323525 43.088656 
" clip-path="url(#p15aa0933cb)" style="fill: none; stroke: #7f7f7f; stroke-opacity: 0.9; stroke-linecap: square"/>
   </g>
   <g id="line2d_89">
    <path d="M 471.77125 160.428913 
L 471.77125 143.59529 
L 471.77125 143.59529 
L 472.369181 143.59529 
L 472.369181 143.59529 
L 472.369181 140.789686 
L 472.369181 140.789686 
L 472.967111 140.789686 
L 472.967111 140.789686 
L 472.967111 137.984082 
L 472.967111 137.984082 
L 473.565042 137.984082 
L 473.565042 137.984082 
L 473.565042 135.178478 
L 473.565042 135.178478 
L 474.162972 135.178478 
L 474.162972 135.178478 
L 474.162972 129.56727 
L 474.162972 129.56727 
L 474.760903 129.56727 
L 474.760903 129.56727 
L 474.760903 123.956063 
L 474.760903 123.956063 
L 475.358834 121.150459 
L 475.358834 121.150459 
L 477.152626 121.150459 
L 477.152626 121.150459 
L 477.152626 115.539251 
L 477.750556 115.539251 
L 477.750556 115.539251 
L 477.750556 112.733647 
L 479.544348 112.733647 
L 479.544348 112.733647 
L 479.544348 107.122439 
L 479.544348 107.122439 
L 480.740209 107.122439 
L 480.740209 107.122439 
L 481.33814 104.316835 
L 481.33814 104.316835 
L 481.93607 104.316835 
L 481.93607 101.511231 
L 481.93607 101.511231 
L 482.534001 98.705628 
L 482.534001 98.705628 
L 482.534001 95.900024 
L 482.534001 95.900024 
L 483.729862 95.900024 
L 483.729862 93.09442 
L 483.729862 93.09442 
L 485.523654 93.09442 
L 485.523654 93.09442 
L 485.523654 84.677608 
L 488.513307 84.677608 
L 488.513307 84.677608 
L 489.709168 81.872004 
L 494.492613 81.872004 
L 494.492613 81.872004 
L 495.090544 76.260796 
L 495.090544 76.260796 
L 495.688474 76.260796 
L 495.688474 76.260796 
L 496.286405 73.455193 
L 496.286405 73.455193 
L 498.080197 73.455193 
L 498.080197 73.455193 
L 498.678128 67.843985 
L 498.678128 67.843985 
L 498.678128 65.038381 
L 501.06985 65.038381 
L 502.265711 59.427173 
L 503.461572 56.621569 
L 503.461572 56.621569 
L 504.059503 56.621569 
L 504.059503 56.621569 
L 504.059503 53.815965 
L 504.059503 53.815965 
L 505.255364 53.815965 
L 506.451225 48.204758 
L 510.038809 48.204758 
L 511.832601 45.399154 
L 511.832601 45.399154 
L 516.018115 45.399154 
L 517.213976 42.59355 
L 519.007768 42.59355 
L 519.007768 42.59355 
L 521.997421 39.787946 
L 521.997421 39.787946 
L 545.316715 39.787946 
L 545.914646 36.982342 
L 565.646356 36.982342 
L 565.646356 36.982342 
" clip-path="url(#p15aa0933cb)" style="fill: none; stroke: #bcbd22; stroke-opacity: 0.9; stroke-linecap: square"/>
   </g>
   <g id="line2d_90"/>
   <g id="line2d_91"/>
   <g id="line2d_92"/>
   <g id="line2d_93"/>
   <g id="line2d_94"/>
   <g id="line2d_95"/>
   <g id="line2d_96"/>
   <g id="line2d_97"/>
   <g id="line2d_98"/>
   <g id="line2d_99">
    <path d="M 464.38125 163.324908 
L 626.96125 161.336311 
" clip-path="url(#p15aa0933cb)" style="fill: none; stroke-dasharray: 1,1.65; stroke-dashoffset: 0; stroke: #000000; stroke-opacity: 0.8"/>
   </g>
   <g id="PathCollection_3">
    <defs>
     <path id="C2_0_ef6d1068f5" d="M -1.767767 3.535534 
L 0 1.767767 
L 1.767767 3.535534 
L 3.535534 1.767767 
L 1.767767 -0 
L 3.535534 -1.767767 
L 1.767767 -3.535534 
L 0 -1.767767 
L -1.767767 -3.535534 
L -3.535534 -1.767767 
L -1.767767 0 
L -3.535534 1.767767 
z
"/>
    </defs>
    <g clip-path="url(#p15aa0933cb)">
     <use xlink:href="#C2_0_ef6d1068f5" x="514.262665" y="111.130445" style="fill: #1f77b4; stroke: #ffffff; stroke-width: 0.565685"/>
    </g>
    <g clip-path="url(#p15aa0933cb)">
     <use xlink:href="#C2_0_ef6d1068f5" x="485.525723" y="75.699676" style="fill: #ff7f0e; stroke: #ffffff; stroke-width: 0.565685"/>
    </g>
    <g clip-path="url(#p15aa0933cb)">
     <use xlink:href="#C2_0_ef6d1068f5" x="480.142279" y="59.427173" style="fill: #2ca02c; stroke: #ffffff; stroke-width: 0.565685"/>
    </g>
    <g clip-path="url(#p15aa0933cb)">
     <use xlink:href="#C2_0_ef6d1068f5" x="522.623394" y="56.710636" style="fill: #d62728; stroke: #ffffff; stroke-width: 0.565685"/>
    </g>
    <g clip-path="url(#p15aa0933cb)">
     <use xlink:href="#C2_0_ef6d1068f5" x="530.412546" y="73.957689" style="fill: #9467bd; stroke: #ffffff; stroke-width: 0.565685"/>
    </g>
    <g clip-path="url(#p15aa0933cb)">
     <use xlink:href="#C2_0_ef6d1068f5" x="516.029209" y="27.581108" style="fill: #8c564b; stroke: #ffffff; stroke-width: 0.565685"/>
    </g>
    <g clip-path="url(#p15aa0933cb)">
     <use xlink:href="#C2_0_ef6d1068f5" x="513.034668" y="43.868824" style="fill: #e377c2; stroke: #ffffff; stroke-width: 0.565685"/>
    </g>
    <g clip-path="url(#p15aa0933cb)">
     <use xlink:href="#C2_0_ef6d1068f5" x="481.33766" y="71.694814" style="fill: #7f7f7f; stroke: #ffffff; stroke-width: 0.565685"/>
    </g>
    <g clip-path="url(#p15aa0933cb)">
     <use xlink:href="#C2_0_ef6d1068f5" x="514.224323" y="42.59355" style="fill: #bcbd22; stroke: #ffffff; stroke-width: 0.565685"/>
    </g>
   </g>
   <g id="line2d_100"/>
   <g id="line2d_101"/>
   <g id="line2d_102"/>
   <g id="line2d_103"/>
   <g id="line2d_104"/>
   <g id="line2d_105"/>
   <g id="line2d_106"/>
   <g id="line2d_107"/>
   <g id="line2d_108"/>
   <g id="patch_9">
    <path d="M 464.38125 170.017187 
L 464.38125 20.798437 
" style="fill: none; stroke: #000000; stroke-width: 0.8; stroke-linejoin: miter; stroke-linecap: square"/>
   </g>
   <g id="patch_10">
    <path d="M 464.38125 170.017187 
L 626.96125 170.017187 
" style="fill: none; stroke: #000000; stroke-width: 0.8; stroke-linejoin: miter; stroke-linecap: square"/>
   </g>
   <g id="text_33">
    <!-- dataset = upsamp -->
    <g transform="translate(499.343125 14.798437) scale(0.1 -0.1)">
     <use xlink:href="#DejaVuSans-64"/>
     <use xlink:href="#DejaVuSans-61" x="63.476562"/>
     <use xlink:href="#DejaVuSans-74" x="124.755859"/>
     <use xlink:href="#DejaVuSans-61" x="163.964844"/>
     <use xlink:href="#DejaVuSans-73" x="225.244141"/>
     <use xlink:href="#DejaVuSans-65" x="277.34375"/>
     <use xlink:href="#DejaVuSans-74" x="338.867188"/>
     <use xlink:href="#DejaVuSans-20" x="378.076172"/>
     <use xlink:href="#DejaVuSans-3d" x="409.863281"/>
     <use xlink:href="#DejaVuSans-20" x="493.652344"/>
     <use xlink:href="#DejaVuSans-75" x="525.439453"/>
     <use xlink:href="#DejaVuSans-70" x="588.818359"/>
     <use xlink:href="#DejaVuSans-73" x="652.294922"/>
     <use xlink:href="#DejaVuSans-61" x="704.394531"/>
     <use xlink:href="#DejaVuSans-6d" x="765.673828"/>
     <use xlink:href="#DejaVuSans-70" x="863.085938"/>
    </g>
   </g>
  </g>
 </g>
 <defs>
  <clipPath id="p0e871efa15">
   <rect x="43.78125" y="20.798437" width="162.58" height="149.21875"/>
  </clipPath>
  <clipPath id="p1409b11973">
   <rect x="254.08125" y="20.798437" width="162.58" height="149.21875"/>
  </clipPath>
  <clipPath id="p15aa0933cb">
   <rect x="464.38125" y="20.798437" width="162.58" height="149.21875"/>
  </clipPath>
 </defs>
</svg>
