<?xml version="1.0" encoding="utf-8" standalone="no"?>
<!DOCTYPE svg PUBLIC "-//W3C//DTD SVG 1.1//EN"
  "http://www.w3.org/Graphics/SVG/1.1/DTD/svg11.dtd">
<svg xmlns:xlink="http://www.w3.org/1999/xlink" width="424.304962pt" height="423.674687pt" viewBox="0 0 424.304962 423.674687" xmlns="http://www.w3.org/2000/svg" version="1.1">
 <metadata>
  <rdf:RDF xmlns:dc="http://purl.org/dc/elements/1.1/" xmlns:cc="http://creativecommons.org/ns#" xmlns:rdf="http://www.w3.org/1999/02/22-rdf-syntax-ns#">
   <cc:Work>
    <dc:type rdf:resource="http://purl.org/dc/dcmitype/StillImage"/>
    <dc:date>2024-12-05T17:18:56.943732</dc:date>
    <dc:format>image/svg+xml</dc:format>
    <dc:creator>
     <cc:Agent>
      <dc:title>Matplotlib v3.9.2, https://matplotlib.org/</dc:title>
     </cc:Agent>
    </dc:creator>
   </cc:Work>
  </rdf:RDF>
 </metadata>
 <defs>
  <style type="text/css">*{stroke-linejoin: round; stroke-linecap: butt}</style>
 </defs>
 <g id="figure_1">
  <g id="patch_1">
   <path d="M 0 423.674687 
L 424.304962 423.674687 
L 424.304962 0 
L 0 0 
z
" style="fill: #ffffff"/>
  </g>
  <g id="axes_1">
   <g id="patch_2">
    <path d="M 43.78125 100.691731 
L 216.586924 100.691731 
L 216.586924 20.798437 
L 43.78125 20.798437 
z
" style="fill: #ffffff"/>
   </g>
   <g id="PolyCollection_1"/>
   <g id="matplotlib.axis_1">
    <g id="xtick_1">
     <g id="line2d_1">
      <defs>
       <path id="m084f7790da" d="M 0 0 
L 0 3.5 
" style="stroke: #000000; stroke-width: 0.8"/>
      </defs>
      <g>
       <use xlink:href="#m084f7790da" x="51.636053" y="100.691731" style="stroke: #000000; stroke-width: 0.8"/>
      </g>
     </g>
    </g>
    <g id="xtick_2">
     <g id="line2d_2">
      <g>
       <use xlink:href="#m084f7790da" x="104.001409" y="100.691731" style="stroke: #000000; stroke-width: 0.8"/>
      </g>
     </g>
    </g>
    <g id="xtick_3">
     <g id="line2d_3">
      <g>
       <use xlink:href="#m084f7790da" x="156.366765" y="100.691731" style="stroke: #000000; stroke-width: 0.8"/>
      </g>
     </g>
    </g>
    <g id="xtick_4">
     <g id="line2d_4">
      <g>
       <use xlink:href="#m084f7790da" x="208.732121" y="100.691731" style="stroke: #000000; stroke-width: 0.8"/>
      </g>
     </g>
    </g>
   </g>
   <g id="matplotlib.axis_2">
    <g id="ytick_1">
     <g id="line2d_5">
      <defs>
       <path id="m43d0862c90" d="M 0 0 
L -3.5 0 
" style="stroke: #000000; stroke-width: 0.8"/>
      </defs>
      <g>
       <use xlink:href="#m43d0862c90" x="43.78125" y="76.251893" style="stroke: #000000; stroke-width: 0.8"/>
      </g>
     </g>
     <g id="text_1">
      <!-- 2.5 -->
      <g transform="translate(20.878125 80.051112) scale(0.1 -0.1)">
       <defs>
        <path id="DejaVuSans-32" d="M 1228 531 
L 3431 531 
L 3431 0 
L 469 0 
L 469 531 
Q 828 903 1448 1529 
Q 2069 2156 2228 2338 
Q 2531 2678 2651 2914 
Q 2772 3150 2772 3378 
Q 2772 3750 2511 3984 
Q 2250 4219 1831 4219 
Q 1534 4219 1204 4116 
Q 875 4013 500 3803 
L 500 4441 
Q 881 4594 1212 4672 
Q 1544 4750 1819 4750 
Q 2544 4750 2975 4387 
Q 3406 4025 3406 3419 
Q 3406 3131 3298 2873 
Q 3191 2616 2906 2266 
Q 2828 2175 2409 1742 
Q 1991 1309 1228 531 
z
" transform="scale(0.015625)"/>
        <path id="DejaVuSans-2e" d="M 684 794 
L 1344 794 
L 1344 0 
L 684 0 
L 684 794 
z
" transform="scale(0.015625)"/>
        <path id="DejaVuSans-35" d="M 691 4666 
L 3169 4666 
L 3169 4134 
L 1269 4134 
L 1269 2991 
Q 1406 3038 1543 3061 
Q 1681 3084 1819 3084 
Q 2600 3084 3056 2656 
Q 3513 2228 3513 1497 
Q 3513 744 3044 326 
Q 2575 -91 1722 -91 
Q 1428 -91 1123 -41 
Q 819 9 494 109 
L 494 744 
Q 775 591 1075 516 
Q 1375 441 1709 441 
Q 2250 441 2565 725 
Q 2881 1009 2881 1497 
Q 2881 1984 2565 2268 
Q 2250 2553 1709 2553 
Q 1456 2553 1204 2497 
Q 953 2441 691 2322 
L 691 4666 
z
" transform="scale(0.015625)"/>
       </defs>
       <use xlink:href="#DejaVuSans-32"/>
       <use xlink:href="#DejaVuSans-2e" x="63.623047"/>
       <use xlink:href="#DejaVuSans-35" x="95.410156"/>
      </g>
     </g>
    </g>
    <g id="ytick_2">
     <g id="line2d_6">
      <g>
       <use xlink:href="#m43d0862c90" x="43.78125" y="49.793443" style="stroke: #000000; stroke-width: 0.8"/>
      </g>
     </g>
     <g id="text_2">
      <!-- 5.0 -->
      <g transform="translate(20.878125 53.592661) scale(0.1 -0.1)">
       <defs>
        <path id="DejaVuSans-30" d="M 2034 4250 
Q 1547 4250 1301 3770 
Q 1056 3291 1056 2328 
Q 1056 1369 1301 889 
Q 1547 409 2034 409 
Q 2525 409 2770 889 
Q 3016 1369 3016 2328 
Q 3016 3291 2770 3770 
Q 2525 4250 2034 4250 
z
M 2034 4750 
Q 2819 4750 3233 4129 
Q 3647 3509 3647 2328 
Q 3647 1150 3233 529 
Q 2819 -91 2034 -91 
Q 1250 -91 836 529 
Q 422 1150 422 2328 
Q 422 3509 836 4129 
Q 1250 4750 2034 4750 
z
" transform="scale(0.015625)"/>
       </defs>
       <use xlink:href="#DejaVuSans-35"/>
       <use xlink:href="#DejaVuSans-2e" x="63.623047"/>
       <use xlink:href="#DejaVuSans-30" x="95.410156"/>
      </g>
     </g>
    </g>
    <g id="ytick_3">
     <g id="line2d_7">
      <g>
       <use xlink:href="#m43d0862c90" x="43.78125" y="23.334992" style="stroke: #000000; stroke-width: 0.8"/>
      </g>
     </g>
     <g id="text_3">
      <!-- 7.5 -->
      <g transform="translate(20.878125 27.134211) scale(0.1 -0.1)">
       <defs>
        <path id="DejaVuSans-37" d="M 525 4666 
L 3525 4666 
L 3525 4397 
L 1831 0 
L 1172 0 
L 2766 4134 
L 525 4134 
L 525 4666 
z
" transform="scale(0.015625)"/>
       </defs>
       <use xlink:href="#DejaVuSans-37"/>
       <use xlink:href="#DejaVuSans-2e" x="63.623047"/>
       <use xlink:href="#DejaVuSans-35" x="95.410156"/>
      </g>
     </g>
    </g>
    <g id="text_4">
     <!-- value -->
     <g transform="translate(14.798438 74.402897) rotate(-90) scale(0.1 -0.1)">
      <defs>
       <path id="DejaVuSans-76" d="M 191 3500 
L 800 3500 
L 1894 563 
L 2988 3500 
L 3597 3500 
L 2284 0 
L 1503 0 
L 191 3500 
z
" transform="scale(0.015625)"/>
       <path id="DejaVuSans-61" d="M 2194 1759 
Q 1497 1759 1228 1600 
Q 959 1441 959 1056 
Q 959 750 1161 570 
Q 1363 391 1709 391 
Q 2188 391 2477 730 
Q 2766 1069 2766 1631 
L 2766 1759 
L 2194 1759 
z
M 3341 1997 
L 3341 0 
L 2766 0 
L 2766 531 
Q 2569 213 2275 61 
Q 1981 -91 1556 -91 
Q 1019 -91 701 211 
Q 384 513 384 1019 
Q 384 1609 779 1909 
Q 1175 2209 1959 2209 
L 2766 2209 
L 2766 2266 
Q 2766 2663 2505 2880 
Q 2244 3097 1772 3097 
Q 1472 3097 1187 3025 
Q 903 2953 641 2809 
L 641 3341 
Q 956 3463 1253 3523 
Q 1550 3584 1831 3584 
Q 2591 3584 2966 3190 
Q 3341 2797 3341 1997 
z
" transform="scale(0.015625)"/>
       <path id="DejaVuSans-6c" d="M 603 4863 
L 1178 4863 
L 1178 0 
L 603 0 
L 603 4863 
z
" transform="scale(0.015625)"/>
       <path id="DejaVuSans-75" d="M 544 1381 
L 544 3500 
L 1119 3500 
L 1119 1403 
Q 1119 906 1312 657 
Q 1506 409 1894 409 
Q 2359 409 2629 706 
Q 2900 1003 2900 1516 
L 2900 3500 
L 3475 3500 
L 3475 0 
L 2900 0 
L 2900 538 
Q 2691 219 2414 64 
Q 2138 -91 1772 -91 
Q 1169 -91 856 284 
Q 544 659 544 1381 
z
M 1991 3584 
L 1991 3584 
z
" transform="scale(0.015625)"/>
       <path id="DejaVuSans-65" d="M 3597 1894 
L 3597 1613 
L 953 1613 
Q 991 1019 1311 708 
Q 1631 397 2203 397 
Q 2534 397 2845 478 
Q 3156 559 3463 722 
L 3463 178 
Q 3153 47 2828 -22 
Q 2503 -91 2169 -91 
Q 1331 -91 842 396 
Q 353 884 353 1716 
Q 353 2575 817 3079 
Q 1281 3584 2069 3584 
Q 2775 3584 3186 3129 
Q 3597 2675 3597 1894 
z
M 3022 2063 
Q 3016 2534 2758 2815 
Q 2500 3097 2075 3097 
Q 1594 3097 1305 2825 
Q 1016 2553 972 2059 
L 3022 2063 
z
" transform="scale(0.015625)"/>
      </defs>
      <use xlink:href="#DejaVuSans-76"/>
      <use xlink:href="#DejaVuSans-61" x="59.179688"/>
      <use xlink:href="#DejaVuSans-6c" x="120.458984"/>
      <use xlink:href="#DejaVuSans-75" x="148.242188"/>
      <use xlink:href="#DejaVuSans-65" x="211.621094"/>
     </g>
    </g>
   </g>
   <g id="line2d_8">
    <path d="M 51.636053 34.287085 
L 53.222882 33.787842 
L 54.809711 33.851198 
L 56.39654 33.261315 
L 57.983369 32.561165 
L 59.570198 32.624039 
L 61.157027 31.787115 
L 62.743856 31.850335 
L 64.330685 31.913464 
L 65.917514 30.905307 
L 67.504343 30.969515 
L 69.091172 31.033622 
L 70.678001 31.097551 
L 72.26483 29.872345 
L 73.851659 29.938399 
L 75.438488 30.004339 
L 77.025317 30.070072 
L 78.612146 30.135646 
L 80.198975 30.201115 
L 81.785804 28.700532 
L 83.372633 28.769533 
L 84.959462 28.838602 
L 86.546291 28.907228 
L 88.13312 28.975678 
L 89.719949 29.044011 
L 91.306778 29.112117 
L 92.893607 29.180255 
L 94.480435 29.248082 
L 96.067264 29.31567 
L 97.654093 27.473794 
L 99.240922 27.547134 
L 100.827751 27.620064 
L 102.41458 27.692682 
L 104.001409 27.765194 
L 105.588238 27.837504 
L 107.175067 27.909916 
L 108.761896 27.981644 
L 110.348725 28.05359 
L 111.935554 28.125134 
L 113.522383 28.196486 
L 115.109212 28.267643 
L 116.696041 28.339075 
L 118.28287 28.409848 
L 119.869699 28.479604 
L 121.456528 26.229779 
L 123.043357 26.308536 
L 124.630186 26.387493 
L 126.217015 26.465284 
L 127.803844 26.54385 
L 129.390673 26.621071 
L 130.977502 26.698609 
L 132.564331 26.775892 
L 134.15116 26.852938 
L 135.737989 26.929763 
L 137.324818 27.005635 
L 138.911647 27.082731 
L 140.498475 27.158845 
L 142.085304 27.234029 
L 143.672133 27.309691 
L 145.258962 27.385055 
L 146.845791 27.460352 
L 148.43262 27.535353 
L 150.019449 27.610036 
L 151.606278 27.684674 
L 153.193107 27.758911 
L 154.779936 27.833114 
L 156.366765 25.131705 
L 157.953594 25.21713 
L 159.540423 25.302238 
L 161.127252 25.387002 
L 162.714081 25.47153 
L 164.30091 25.555713 
L 165.887739 25.639547 
L 167.474568 25.723123 
L 169.061397 25.806445 
L 170.648226 25.889421 
L 172.235055 25.972043 
L 173.821884 26.054421 
L 175.408713 26.136571 
L 176.995542 26.216416 
L 178.582371 26.29987 
L 180.1692 26.381084 
L 181.756029 26.461936 
L 183.342858 26.542651 
L 184.929687 26.621167 
L 186.516516 26.703077 
L 188.103344 26.78278 
L 189.690173 26.862375 
L 191.277002 26.941513 
L 192.863831 27.020556 
L 194.45066 27.097484 
L 196.037489 27.176626 
L 197.624318 27.254772 
L 199.211147 27.332629 
L 200.797976 27.411421 
L 202.384805 27.488397 
L 203.971634 27.565755 
L 205.558463 24.429951 
L 207.145292 24.524013 
L 208.732121 24.615012 
" clip-path="url(#p3d18cfe7f8)" style="fill: none; stroke: #1f77b4; stroke-width: 1.5; stroke-linecap: square"/>
   </g>
   <g id="patch_3">
    <path d="M 43.78125 100.691731 
L 43.78125 20.798437 
" style="fill: none; stroke: #000000; stroke-width: 0.8; stroke-linejoin: miter; stroke-linecap: square"/>
   </g>
   <g id="patch_4">
    <path d="M 43.78125 100.691731 
L 216.586924 100.691731 
" style="fill: none; stroke: #000000; stroke-width: 0.8; stroke-linejoin: miter; stroke-linecap: square"/>
   </g>
   <g id="text_5">
    <!-- fit_amp = False -->
    <g transform="translate(91.544243 14.798437) scale(0.1 -0.1)">
     <defs>
      <path id="DejaVuSans-66" d="M 2375 4863 
L 2375 4384 
L 1825 4384 
Q 1516 4384 1395 4259 
Q 1275 4134 1275 3809 
L 1275 3500 
L 2222 3500 
L 2222 3053 
L 1275 3053 
L 1275 0 
L 697 0 
L 697 3053 
L 147 3053 
L 147 3500 
L 697 3500 
L 697 3744 
Q 697 4328 969 4595 
Q 1241 4863 1831 4863 
L 2375 4863 
z
" transform="scale(0.015625)"/>
      <path id="DejaVuSans-69" d="M 603 3500 
L 1178 3500 
L 1178 0 
L 603 0 
L 603 3500 
z
M 603 4863 
L 1178 4863 
L 1178 4134 
L 603 4134 
L 603 4863 
z
" transform="scale(0.015625)"/>
      <path id="DejaVuSans-74" d="M 1172 4494 
L 1172 3500 
L 2356 3500 
L 2356 3053 
L 1172 3053 
L 1172 1153 
Q 1172 725 1289 603 
Q 1406 481 1766 481 
L 2356 481 
L 2356 0 
L 1766 0 
Q 1100 0 847 248 
Q 594 497 594 1153 
L 594 3053 
L 172 3053 
L 172 3500 
L 594 3500 
L 594 4494 
L 1172 4494 
z
" transform="scale(0.015625)"/>
      <path id="DejaVuSans-5f" d="M 3263 -1063 
L 3263 -1509 
L -63 -1509 
L -63 -1063 
L 3263 -1063 
z
" transform="scale(0.015625)"/>
      <path id="DejaVuSans-6d" d="M 3328 2828 
Q 3544 3216 3844 3400 
Q 4144 3584 4550 3584 
Q 5097 3584 5394 3201 
Q 5691 2819 5691 2113 
L 5691 0 
L 5113 0 
L 5113 2094 
Q 5113 2597 4934 2840 
Q 4756 3084 4391 3084 
Q 3944 3084 3684 2787 
Q 3425 2491 3425 1978 
L 3425 0 
L 2847 0 
L 2847 2094 
Q 2847 2600 2669 2842 
Q 2491 3084 2119 3084 
Q 1678 3084 1418 2786 
Q 1159 2488 1159 1978 
L 1159 0 
L 581 0 
L 581 3500 
L 1159 3500 
L 1159 2956 
Q 1356 3278 1631 3431 
Q 1906 3584 2284 3584 
Q 2666 3584 2933 3390 
Q 3200 3197 3328 2828 
z
" transform="scale(0.015625)"/>
      <path id="DejaVuSans-70" d="M 1159 525 
L 1159 -1331 
L 581 -1331 
L 581 3500 
L 1159 3500 
L 1159 2969 
Q 1341 3281 1617 3432 
Q 1894 3584 2278 3584 
Q 2916 3584 3314 3078 
Q 3713 2572 3713 1747 
Q 3713 922 3314 415 
Q 2916 -91 2278 -91 
Q 1894 -91 1617 61 
Q 1341 213 1159 525 
z
M 3116 1747 
Q 3116 2381 2855 2742 
Q 2594 3103 2138 3103 
Q 1681 3103 1420 2742 
Q 1159 2381 1159 1747 
Q 1159 1113 1420 752 
Q 1681 391 2138 391 
Q 2594 391 2855 752 
Q 3116 1113 3116 1747 
z
" transform="scale(0.015625)"/>
      <path id="DejaVuSans-20" transform="scale(0.015625)"/>
      <path id="DejaVuSans-3d" d="M 678 2906 
L 4684 2906 
L 4684 2381 
L 678 2381 
L 678 2906 
z
M 678 1631 
L 4684 1631 
L 4684 1100 
L 678 1100 
L 678 1631 
z
" transform="scale(0.015625)"/>
      <path id="DejaVuSans-46" d="M 628 4666 
L 3309 4666 
L 3309 4134 
L 1259 4134 
L 1259 2759 
L 3109 2759 
L 3109 2228 
L 1259 2228 
L 1259 0 
L 628 0 
L 628 4666 
z
" transform="scale(0.015625)"/>
      <path id="DejaVuSans-73" d="M 2834 3397 
L 2834 2853 
Q 2591 2978 2328 3040 
Q 2066 3103 1784 3103 
Q 1356 3103 1142 2972 
Q 928 2841 928 2578 
Q 928 2378 1081 2264 
Q 1234 2150 1697 2047 
L 1894 2003 
Q 2506 1872 2764 1633 
Q 3022 1394 3022 966 
Q 3022 478 2636 193 
Q 2250 -91 1575 -91 
Q 1294 -91 989 -36 
Q 684 19 347 128 
L 347 722 
Q 666 556 975 473 
Q 1284 391 1588 391 
Q 1994 391 2212 530 
Q 2431 669 2431 922 
Q 2431 1156 2273 1281 
Q 2116 1406 1581 1522 
L 1381 1569 
Q 847 1681 609 1914 
Q 372 2147 372 2553 
Q 372 3047 722 3315 
Q 1072 3584 1716 3584 
Q 2034 3584 2315 3537 
Q 2597 3491 2834 3397 
z
" transform="scale(0.015625)"/>
     </defs>
     <use xlink:href="#DejaVuSans-66"/>
     <use xlink:href="#DejaVuSans-69" x="35.205078"/>
     <use xlink:href="#DejaVuSans-74" x="62.988281"/>
     <use xlink:href="#DejaVuSans-5f" x="102.197266"/>
     <use xlink:href="#DejaVuSans-61" x="152.197266"/>
     <use xlink:href="#DejaVuSans-6d" x="213.476562"/>
     <use xlink:href="#DejaVuSans-70" x="310.888672"/>
     <use xlink:href="#DejaVuSans-20" x="374.365234"/>
     <use xlink:href="#DejaVuSans-3d" x="406.152344"/>
     <use xlink:href="#DejaVuSans-20" x="489.941406"/>
     <use xlink:href="#DejaVuSans-46" x="521.728516"/>
     <use xlink:href="#DejaVuSans-61" x="570.123047"/>
     <use xlink:href="#DejaVuSans-6c" x="631.402344"/>
     <use xlink:href="#DejaVuSans-73" x="659.185547"/>
     <use xlink:href="#DejaVuSans-65" x="711.285156"/>
    </g>
   </g>
  </g>
  <g id="axes_2">
   <g id="patch_5">
    <path d="M 230.886924 100.691731 
L 403.692599 100.691731 
L 403.692599 20.798437 
L 230.886924 20.798437 
z
" style="fill: #ffffff"/>
   </g>
   <g id="PolyCollection_2"/>
   <g id="matplotlib.axis_3">
    <g id="xtick_5">
     <g id="line2d_9">
      <g>
       <use xlink:href="#m084f7790da" x="238.741728" y="100.691731" style="stroke: #000000; stroke-width: 0.8"/>
      </g>
     </g>
    </g>
    <g id="xtick_6">
     <g id="line2d_10">
      <g>
       <use xlink:href="#m084f7790da" x="291.107084" y="100.691731" style="stroke: #000000; stroke-width: 0.8"/>
      </g>
     </g>
    </g>
    <g id="xtick_7">
     <g id="line2d_11">
      <g>
       <use xlink:href="#m084f7790da" x="343.47244" y="100.691731" style="stroke: #000000; stroke-width: 0.8"/>
      </g>
     </g>
    </g>
    <g id="xtick_8">
     <g id="line2d_12">
      <g>
       <use xlink:href="#m084f7790da" x="395.837795" y="100.691731" style="stroke: #000000; stroke-width: 0.8"/>
      </g>
     </g>
    </g>
   </g>
   <g id="matplotlib.axis_4">
    <g id="ytick_4">
     <g id="line2d_13">
      <g>
       <use xlink:href="#m43d0862c90" x="230.886924" y="76.251893" style="stroke: #000000; stroke-width: 0.8"/>
      </g>
     </g>
    </g>
    <g id="ytick_5">
     <g id="line2d_14">
      <g>
       <use xlink:href="#m43d0862c90" x="230.886924" y="49.793443" style="stroke: #000000; stroke-width: 0.8"/>
      </g>
     </g>
    </g>
    <g id="ytick_6">
     <g id="line2d_15">
      <g>
       <use xlink:href="#m43d0862c90" x="230.886924" y="23.334992" style="stroke: #000000; stroke-width: 0.8"/>
      </g>
     </g>
    </g>
   </g>
   <g id="line2d_16">
    <path d="M 238.741728 97.060217 
L 240.328557 97.05028 
L 241.915386 97.040351 
L 243.502215 97.030423 
L 245.089044 97.020503 
L 246.675873 97.01059 
L 248.262702 97.000677 
L 249.849531 96.990774 
L 251.43636 96.980876 
L 253.023189 96.970979 
L 254.610017 96.961092 
L 256.196846 96.95121 
L 257.783675 96.941329 
L 259.370504 96.931457 
L 260.957333 96.921589 
L 262.544162 96.911724 
L 264.130991 96.901865 
L 265.71782 96.892012 
L 267.304649 96.88216 
L 268.891478 96.872315 
L 270.478307 96.862475 
L 272.065136 96.852636 
L 273.651965 96.842803 
L 275.238794 96.832974 
L 276.825623 96.823145 
L 278.412452 96.813324 
L 279.999281 96.803507 
L 281.58611 96.79369 
L 283.172939 96.783879 
L 284.759768 96.774069 
L 286.346597 96.764266 
L 287.933426 96.754466 
L 289.520255 96.744666 
L 291.107084 96.734872 
L 292.693913 96.725081 
L 294.280742 96.71529 
L 295.867571 96.705505 
L 297.4544 96.695719 
L 299.041229 96.685939 
L 300.628058 96.676163 
L 302.214886 96.666384 
L 303.801715 96.656612 
L 305.388544 96.646842 
L 306.975373 96.637222 
L 308.562202 96.627455 
L 310.149031 96.617692 
L 311.73586 96.607775 
L 313.322689 96.59817 
L 314.909518 96.588252 
L 316.496347 96.578235 
L 318.083176 96.568896 
L 319.670005 96.558725 
L 321.256834 96.548974 
L 322.843663 96.539218 
L 324.430492 96.52947 
L 326.017321 96.520118 
L 327.60415 96.510369 
L 329.190979 96.500223 
L 330.777808 96.490472 
L 332.364637 96.481124 
L 333.951466 96.470977 
L 335.538295 96.461232 
L 337.125124 96.451884 
L 338.711953 96.44174 
L 340.298782 96.432392 
L 341.885611 96.422672 
L 343.47244 96.412926 
L 345.059269 96.403182 
L 346.646098 96.393437 
L 348.232926 96.383661 
L 349.819755 96.373946 
L 351.406584 96.3642 
L 352.993413 96.354421 
L 354.580242 96.344674 
L 356.167071 96.334958 
L 357.7539 96.32521 
L 359.340729 96.315426 
L 360.927558 96.305675 
L 362.514387 96.295961 
L 364.101216 96.286016 
L 365.688045 96.276455 
L 367.274874 96.2667 
L 368.861703 96.256905 
L 370.448532 96.247187 
L 372.035361 96.237231 
L 373.62219 96.227668 
L 375.209019 96.217864 
L 376.795848 96.208142 
L 378.382677 96.198333 
L 379.969506 96.188609 
L 381.556335 96.178633 
L 383.143164 96.169067 
L 384.729993 96.159294 
L 386.316822 96.149517 
L 387.903651 96.139739 
L 389.49048 96.129907 
L 391.077309 96.120174 
L 392.664138 96.110337 
L 394.250967 96.100598 
L 395.837795 96.090807 
" clip-path="url(#pfaa7f21309)" style="fill: none; stroke: #1f77b4; stroke-width: 1.5; stroke-linecap: square"/>
   </g>
   <g id="patch_6">
    <path d="M 230.886924 100.691731 
L 230.886924 20.798437 
" style="fill: none; stroke: #000000; stroke-width: 0.8; stroke-linejoin: miter; stroke-linecap: square"/>
   </g>
   <g id="patch_7">
    <path d="M 230.886924 100.691731 
L 403.692599 100.691731 
" style="fill: none; stroke: #000000; stroke-width: 0.8; stroke-linejoin: miter; stroke-linecap: square"/>
   </g>
   <g id="text_6">
    <!-- variable = tau_d -->
    <g transform="translate(409.506525 19.338053) rotate(-270) scale(0.1 -0.1)">
     <defs>
      <path id="DejaVuSans-72" d="M 2631 2963 
Q 2534 3019 2420 3045 
Q 2306 3072 2169 3072 
Q 1681 3072 1420 2755 
Q 1159 2438 1159 1844 
L 1159 0 
L 581 0 
L 581 3500 
L 1159 3500 
L 1159 2956 
Q 1341 3275 1631 3429 
Q 1922 3584 2338 3584 
Q 2397 3584 2469 3576 
Q 2541 3569 2628 3553 
L 2631 2963 
z
" transform="scale(0.015625)"/>
      <path id="DejaVuSans-62" d="M 3116 1747 
Q 3116 2381 2855 2742 
Q 2594 3103 2138 3103 
Q 1681 3103 1420 2742 
Q 1159 2381 1159 1747 
Q 1159 1113 1420 752 
Q 1681 391 2138 391 
Q 2594 391 2855 752 
Q 3116 1113 3116 1747 
z
M 1159 2969 
Q 1341 3281 1617 3432 
Q 1894 3584 2278 3584 
Q 2916 3584 3314 3078 
Q 3713 2572 3713 1747 
Q 3713 922 3314 415 
Q 2916 -91 2278 -91 
Q 1894 -91 1617 61 
Q 1341 213 1159 525 
L 1159 0 
L 581 0 
L 581 4863 
L 1159 4863 
L 1159 2969 
z
" transform="scale(0.015625)"/>
      <path id="DejaVuSans-64" d="M 2906 2969 
L 2906 4863 
L 3481 4863 
L 3481 0 
L 2906 0 
L 2906 525 
Q 2725 213 2448 61 
Q 2172 -91 1784 -91 
Q 1150 -91 751 415 
Q 353 922 353 1747 
Q 353 2572 751 3078 
Q 1150 3584 1784 3584 
Q 2172 3584 2448 3432 
Q 2725 3281 2906 2969 
z
M 947 1747 
Q 947 1113 1208 752 
Q 1469 391 1925 391 
Q 2381 391 2643 752 
Q 2906 1113 2906 1747 
Q 2906 2381 2643 2742 
Q 2381 3103 1925 3103 
Q 1469 3103 1208 2742 
Q 947 2381 947 1747 
z
" transform="scale(0.015625)"/>
     </defs>
     <use xlink:href="#DejaVuSans-76"/>
     <use xlink:href="#DejaVuSans-61" x="59.179688"/>
     <use xlink:href="#DejaVuSans-72" x="120.458984"/>
     <use xlink:href="#DejaVuSans-69" x="161.572266"/>
     <use xlink:href="#DejaVuSans-61" x="189.355469"/>
     <use xlink:href="#DejaVuSans-62" x="250.634766"/>
     <use xlink:href="#DejaVuSans-6c" x="314.111328"/>
     <use xlink:href="#DejaVuSans-65" x="341.894531"/>
     <use xlink:href="#DejaVuSans-20" x="403.417969"/>
     <use xlink:href="#DejaVuSans-3d" x="435.205078"/>
     <use xlink:href="#DejaVuSans-20" x="518.994141"/>
     <use xlink:href="#DejaVuSans-74" x="550.78125"/>
     <use xlink:href="#DejaVuSans-61" x="589.990234"/>
     <use xlink:href="#DejaVuSans-75" x="651.269531"/>
     <use xlink:href="#DejaVuSans-5f" x="714.648438"/>
     <use xlink:href="#DejaVuSans-64" x="764.648438"/>
    </g>
   </g>
   <g id="text_7">
    <!-- fit_amp = True -->
    <g transform="translate(280.586637 14.798437) scale(0.1 -0.1)">
     <defs>
      <path id="DejaVuSans-54" d="M -19 4666 
L 3928 4666 
L 3928 4134 
L 2272 4134 
L 2272 0 
L 1638 0 
L 1638 4134 
L -19 4134 
L -19 4666 
z
" transform="scale(0.015625)"/>
     </defs>
     <use xlink:href="#DejaVuSans-66"/>
     <use xlink:href="#DejaVuSans-69" x="35.205078"/>
     <use xlink:href="#DejaVuSans-74" x="62.988281"/>
     <use xlink:href="#DejaVuSans-5f" x="102.197266"/>
     <use xlink:href="#DejaVuSans-61" x="152.197266"/>
     <use xlink:href="#DejaVuSans-6d" x="213.476562"/>
     <use xlink:href="#DejaVuSans-70" x="310.888672"/>
     <use xlink:href="#DejaVuSans-20" x="374.365234"/>
     <use xlink:href="#DejaVuSans-3d" x="406.152344"/>
     <use xlink:href="#DejaVuSans-20" x="489.941406"/>
     <use xlink:href="#DejaVuSans-54" x="521.728516"/>
     <use xlink:href="#DejaVuSans-72" x="568.0625"/>
     <use xlink:href="#DejaVuSans-75" x="609.175781"/>
     <use xlink:href="#DejaVuSans-65" x="672.554688"/>
    </g>
   </g>
  </g>
  <g id="axes_3">
   <g id="patch_8">
    <path d="M 43.78125 195.833966 
L 216.586924 195.833966 
L 216.586924 115.940673 
L 43.78125 115.940673 
z
" style="fill: #ffffff"/>
   </g>
   <g id="PolyCollection_3"/>
   <g id="matplotlib.axis_5">
    <g id="xtick_9">
     <g id="line2d_17">
      <g>
       <use xlink:href="#m084f7790da" x="51.636053" y="195.833966" style="stroke: #000000; stroke-width: 0.8"/>
      </g>
     </g>
    </g>
    <g id="xtick_10">
     <g id="line2d_18">
      <g>
       <use xlink:href="#m084f7790da" x="104.001409" y="195.833966" style="stroke: #000000; stroke-width: 0.8"/>
      </g>
     </g>
    </g>
    <g id="xtick_11">
     <g id="line2d_19">
      <g>
       <use xlink:href="#m084f7790da" x="156.366765" y="195.833966" style="stroke: #000000; stroke-width: 0.8"/>
      </g>
     </g>
    </g>
    <g id="xtick_12">
     <g id="line2d_20">
      <g>
       <use xlink:href="#m084f7790da" x="208.732121" y="195.833966" style="stroke: #000000; stroke-width: 0.8"/>
      </g>
     </g>
    </g>
   </g>
   <g id="matplotlib.axis_6">
    <g id="ytick_7">
     <g id="line2d_21">
      <g>
       <use xlink:href="#m43d0862c90" x="43.78125" y="193.210602" style="stroke: #000000; stroke-width: 0.8"/>
      </g>
     </g>
     <g id="text_8">
      <!-- 0.0 -->
      <g transform="translate(20.878125 197.009821) scale(0.1 -0.1)">
       <use xlink:href="#DejaVuSans-30"/>
       <use xlink:href="#DejaVuSans-2e" x="63.623047"/>
       <use xlink:href="#DejaVuSans-30" x="95.410156"/>
      </g>
     </g>
    </g>
    <g id="ytick_8">
     <g id="line2d_22">
      <g>
       <use xlink:href="#m43d0862c90" x="43.78125" y="150.717922" style="stroke: #000000; stroke-width: 0.8"/>
      </g>
     </g>
     <g id="text_9">
      <!-- 0.5 -->
      <g transform="translate(20.878125 154.517141) scale(0.1 -0.1)">
       <use xlink:href="#DejaVuSans-30"/>
       <use xlink:href="#DejaVuSans-2e" x="63.623047"/>
       <use xlink:href="#DejaVuSans-35" x="95.410156"/>
      </g>
     </g>
    </g>
    <g id="text_10">
     <!-- value -->
     <g transform="translate(14.798438 169.545132) rotate(-90) scale(0.1 -0.1)">
      <use xlink:href="#DejaVuSans-76"/>
      <use xlink:href="#DejaVuSans-61" x="59.179688"/>
      <use xlink:href="#DejaVuSans-6c" x="120.458984"/>
      <use xlink:href="#DejaVuSans-75" x="148.242188"/>
      <use xlink:href="#DejaVuSans-65" x="211.621094"/>
     </g>
    </g>
   </g>
   <g id="line2d_23">
    <path d="M 51.636053 119.572186 
L 53.222882 120.601549 
L 54.809711 120.448702 
L 56.39654 121.64791 
L 57.983369 123.044261 
L 59.570198 122.896817 
L 61.157027 124.530868 
L 62.743856 124.385104 
L 64.330685 124.239792 
L 65.917514 126.160584 
L 67.504343 126.016325 
L 69.091172 125.871659 
L 70.678001 125.727847 
L 72.26483 127.995403 
L 73.851659 127.851338 
L 75.438488 127.707456 
L 77.025317 127.563871 
L 78.612146 127.420524 
L 80.198975 127.277347 
L 81.785804 129.965875 
L 83.372633 129.82076 
L 84.959462 129.676679 
L 86.546291 129.532016 
L 88.13312 129.387611 
L 89.719949 129.243343 
L 91.306778 129.099499 
L 92.893607 128.955459 
L 94.480435 128.811927 
L 96.067264 128.668811 
L 97.654093 131.853696 
L 99.240922 131.708401 
L 100.827751 131.561402 
L 102.41458 131.412634 
L 104.001409 131.266116 
L 105.588238 131.119871 
L 107.175067 130.973735 
L 108.761896 130.828325 
L 110.348725 130.682916 
L 111.935554 130.537657 
L 113.522383 130.392654 
L 115.109212 130.24837 
L 116.696041 130.103056 
L 118.28287 129.958801 
L 119.869699 129.815065 
L 121.456528 133.57527 
L 123.043357 133.424515 
L 124.630186 133.271332 
L 126.217015 133.123909 
L 127.803844 132.971911 
L 129.390673 132.824483 
L 130.977502 132.675203 
L 132.564331 132.526224 
L 134.15116 132.37753 
L 135.737989 132.229108 
L 137.324818 132.082138 
L 138.911647 131.932933 
L 140.498475 131.785334 
L 142.085304 131.639316 
L 143.672133 131.492277 
L 145.258962 131.34544 
L 146.845791 131.198957 
L 148.43262 131.052671 
L 150.019449 130.906588 
L 151.606278 130.760914 
L 153.193107 130.615319 
L 154.779936 130.470181 
L 156.366765 134.833695 
L 157.953594 134.678774 
L 159.540423 134.524275 
L 161.127252 134.370433 
L 162.714081 134.216213 
L 164.30091 134.062721 
L 165.887739 133.909815 
L 167.474568 133.756901 
L 169.061397 133.604152 
L 170.648226 133.451965 
L 172.235055 133.300202 
L 173.821884 133.148625 
L 175.408713 132.997199 
L 176.995542 132.839513 
L 178.582371 132.695625 
L 180.1692 132.545331 
L 181.756029 132.395313 
L 183.342858 132.245619 
L 184.929687 132.089486 
L 186.516516 131.947128 
L 188.103344 131.798232 
L 189.690173 131.64985 
L 191.277002 131.501505 
L 192.863831 131.353774 
L 194.45066 131.199366 
L 196.037489 131.060536 
L 197.624318 130.913486 
L 199.211147 130.766796 
L 200.797976 130.618367 
L 202.384805 130.472321 
L 203.971634 130.326448 
L 205.558463 135.258921 
L 207.145292 135.108785 
L 208.732121 134.951342 
" clip-path="url(#p3623dc9010)" style="fill: none; stroke: #ff7f0e; stroke-width: 1.5; stroke-linecap: square"/>
   </g>
   <g id="patch_9">
    <path d="M 43.78125 195.833966 
L 43.78125 115.940673 
" style="fill: none; stroke: #000000; stroke-width: 0.8; stroke-linejoin: miter; stroke-linecap: square"/>
   </g>
   <g id="patch_10">
    <path d="M 43.78125 195.833966 
L 216.586924 195.833966 
" style="fill: none; stroke: #000000; stroke-width: 0.8; stroke-linejoin: miter; stroke-linecap: square"/>
   </g>
  </g>
  <g id="axes_4">
   <g id="patch_11">
    <path d="M 230.886924 195.833966 
L 403.692599 195.833966 
L 403.692599 115.940673 
L 230.886924 115.940673 
z
" style="fill: #ffffff"/>
   </g>
   <g id="PolyCollection_4"/>
   <g id="matplotlib.axis_7">
    <g id="xtick_13">
     <g id="line2d_24">
      <g>
       <use xlink:href="#m084f7790da" x="238.741728" y="195.833966" style="stroke: #000000; stroke-width: 0.8"/>
      </g>
     </g>
    </g>
    <g id="xtick_14">
     <g id="line2d_25">
      <g>
       <use xlink:href="#m084f7790da" x="291.107084" y="195.833966" style="stroke: #000000; stroke-width: 0.8"/>
      </g>
     </g>
    </g>
    <g id="xtick_15">
     <g id="line2d_26">
      <g>
       <use xlink:href="#m084f7790da" x="343.47244" y="195.833966" style="stroke: #000000; stroke-width: 0.8"/>
      </g>
     </g>
    </g>
    <g id="xtick_16">
     <g id="line2d_27">
      <g>
       <use xlink:href="#m084f7790da" x="395.837795" y="195.833966" style="stroke: #000000; stroke-width: 0.8"/>
      </g>
     </g>
    </g>
   </g>
   <g id="matplotlib.axis_8">
    <g id="ytick_9">
     <g id="line2d_28">
      <g>
       <use xlink:href="#m43d0862c90" x="230.886924" y="193.210602" style="stroke: #000000; stroke-width: 0.8"/>
      </g>
     </g>
    </g>
    <g id="ytick_10">
     <g id="line2d_29">
      <g>
       <use xlink:href="#m43d0862c90" x="230.886924" y="150.717922" style="stroke: #000000; stroke-width: 0.8"/>
      </g>
     </g>
    </g>
   </g>
   <g id="line2d_30">
    <path d="M 238.741728 191.28186 
L 240.328557 191.269285 
L 241.915386 191.254494 
L 243.502215 191.195131 
L 245.089044 191.183191 
L 246.675873 191.171019 
L 248.262702 191.114841 
L 249.849531 191.103429 
L 251.43636 191.093461 
L 253.023189 191.036827 
L 254.610017 191.026308 
L 256.196846 191.017309 
L 257.783675 190.958744 
L 259.370504 190.951013 
L 260.957333 190.94152 
L 262.544162 190.882849 
L 264.130991 190.874721 
L 265.71782 190.866532 
L 267.304649 190.808006 
L 268.891478 190.799498 
L 270.478307 190.792816 
L 272.065136 190.732697 
L 273.651965 190.727741 
L 275.238794 190.722808 
L 276.825623 190.66738 
L 278.412452 190.664335 
L 279.999281 190.659191 
L 281.58611 190.602765 
L 283.172939 190.599603 
L 284.759768 190.542267 
L 286.346597 190.539038 
L 287.933426 190.535807 
L 289.520255 190.477488 
L 291.107084 190.474181 
L 292.693913 190.470865 
L 294.280742 190.411559 
L 295.867571 190.40817 
L 297.4544 190.350285 
L 299.041229 190.346812 
L 300.628058 190.343335 
L 302.214886 190.284586 
L 303.801715 190.281034 
L 305.388544 190.277465 
L 306.975373 190.769769 
L 308.562202 190.773361 
L 310.149031 192.202453 
L 311.73586 190.150104 
L 313.322689 190.695852 
L 314.909518 191.433813 
L 316.496347 190.635616 
L 318.083176 190.57969 
L 319.670005 190.574321 
L 321.256834 190.570277 
L 322.843663 190.514726 
L 324.430492 190.510582 
L 326.017321 190.537563 
L 327.60415 190.538722 
L 329.190979 190.445721 
L 330.777808 190.388443 
L 332.364637 190.489646 
L 333.951466 190.327491 
L 335.538295 190.324537 
L 337.125124 190.440032 
L 338.711953 190.262671 
L 340.298782 190.388751 
L 341.885611 190.201534 
L 343.47244 191.965425 
L 345.059269 191.805557 
L 346.646098 191.779464 
L 348.232926 190.176289 
L 349.819755 191.761232 
L 351.406584 191.428766 
L 352.993413 191.754336 
L 354.580242 192.11334 
L 356.167071 191.830409 
L 357.7539 191.69153 
L 359.340729 191.825764 
L 360.927558 191.77094 
L 362.514387 191.764439 
L 364.101216 191.318458 
L 365.688045 191.669861 
L 367.274874 191.685945 
L 368.861703 191.771294 
L 370.448532 191.677691 
L 372.035361 191.25565 
L 373.62219 191.637701 
L 375.209019 191.756534 
L 376.795848 191.61436 
L 378.382677 191.752596 
L 379.969506 191.5881 
L 381.556335 191.158575 
L 383.143164 191.554471 
L 384.729993 191.559508 
L 386.316822 191.52808 
L 387.903651 191.52937 
L 389.49048 191.655827 
L 391.077309 191.497926 
L 392.664138 191.648874 
L 394.250967 191.471851 
L 395.837795 191.469182 
" clip-path="url(#p085108c9a0)" style="fill: none; stroke: #ff7f0e; stroke-width: 1.5; stroke-linecap: square"/>
   </g>
   <g id="patch_12">
    <path d="M 230.886924 195.833966 
L 230.886924 115.940673 
" style="fill: none; stroke: #000000; stroke-width: 0.8; stroke-linejoin: miter; stroke-linecap: square"/>
   </g>
   <g id="patch_13">
    <path d="M 230.886924 195.833966 
L 403.692599 195.833966 
" style="fill: none; stroke: #000000; stroke-width: 0.8; stroke-linejoin: miter; stroke-linecap: square"/>
   </g>
   <g id="text_11">
    <!-- variable = tau_r -->
    <g transform="translate(409.506525 115.599038) rotate(-270) scale(0.1 -0.1)">
     <use xlink:href="#DejaVuSans-76"/>
     <use xlink:href="#DejaVuSans-61" x="59.179688"/>
     <use xlink:href="#DejaVuSans-72" x="120.458984"/>
     <use xlink:href="#DejaVuSans-69" x="161.572266"/>
     <use xlink:href="#DejaVuSans-61" x="189.355469"/>
     <use xlink:href="#DejaVuSans-62" x="250.634766"/>
     <use xlink:href="#DejaVuSans-6c" x="314.111328"/>
     <use xlink:href="#DejaVuSans-65" x="341.894531"/>
     <use xlink:href="#DejaVuSans-20" x="403.417969"/>
     <use xlink:href="#DejaVuSans-3d" x="435.205078"/>
     <use xlink:href="#DejaVuSans-20" x="518.994141"/>
     <use xlink:href="#DejaVuSans-74" x="550.78125"/>
     <use xlink:href="#DejaVuSans-61" x="589.990234"/>
     <use xlink:href="#DejaVuSans-75" x="651.269531"/>
     <use xlink:href="#DejaVuSans-5f" x="714.648438"/>
     <use xlink:href="#DejaVuSans-72" x="764.648438"/>
    </g>
   </g>
  </g>
  <g id="axes_5">
   <g id="patch_14">
    <path d="M 43.78125 290.976202 
L 216.586924 290.976202 
L 216.586924 211.082909 
L 43.78125 211.082909 
z
" style="fill: #ffffff"/>
   </g>
   <g id="PolyCollection_5"/>
   <g id="matplotlib.axis_9">
    <g id="xtick_17">
     <g id="line2d_31">
      <g>
       <use xlink:href="#m084f7790da" x="51.636053" y="290.976202" style="stroke: #000000; stroke-width: 0.8"/>
      </g>
     </g>
    </g>
    <g id="xtick_18">
     <g id="line2d_32">
      <g>
       <use xlink:href="#m084f7790da" x="104.001409" y="290.976202" style="stroke: #000000; stroke-width: 0.8"/>
      </g>
     </g>
    </g>
    <g id="xtick_19">
     <g id="line2d_33">
      <g>
       <use xlink:href="#m084f7790da" x="156.366765" y="290.976202" style="stroke: #000000; stroke-width: 0.8"/>
      </g>
     </g>
    </g>
    <g id="xtick_20">
     <g id="line2d_34">
      <g>
       <use xlink:href="#m084f7790da" x="208.732121" y="290.976202" style="stroke: #000000; stroke-width: 0.8"/>
      </g>
     </g>
    </g>
   </g>
   <g id="matplotlib.axis_10">
    <g id="ytick_11">
     <g id="line2d_35">
      <g>
       <use xlink:href="#m43d0862c90" x="43.78125" y="289.290303" style="stroke: #000000; stroke-width: 0.8"/>
      </g>
     </g>
     <g id="text_12">
      <!-- 0.0 -->
      <g transform="translate(20.878125 293.089522) scale(0.1 -0.1)">
       <use xlink:href="#DejaVuSans-30"/>
       <use xlink:href="#DejaVuSans-2e" x="63.623047"/>
       <use xlink:href="#DejaVuSans-30" x="95.410156"/>
      </g>
     </g>
    </g>
    <g id="ytick_12">
     <g id="line2d_36">
      <g>
       <use xlink:href="#m43d0862c90" x="43.78125" y="260.645128" style="stroke: #000000; stroke-width: 0.8"/>
      </g>
     </g>
     <g id="text_13">
      <!-- 2.5 -->
      <g transform="translate(20.878125 264.444347) scale(0.1 -0.1)">
       <use xlink:href="#DejaVuSans-32"/>
       <use xlink:href="#DejaVuSans-2e" x="63.623047"/>
       <use xlink:href="#DejaVuSans-35" x="95.410156"/>
      </g>
     </g>
    </g>
    <g id="ytick_13">
     <g id="line2d_37">
      <g>
       <use xlink:href="#m43d0862c90" x="43.78125" y="231.999953" style="stroke: #000000; stroke-width: 0.8"/>
      </g>
     </g>
     <g id="text_14">
      <!-- 5.0 -->
      <g transform="translate(20.878125 235.799172) scale(0.1 -0.1)">
       <use xlink:href="#DejaVuSans-35"/>
       <use xlink:href="#DejaVuSans-2e" x="63.623047"/>
       <use xlink:href="#DejaVuSans-30" x="95.410156"/>
      </g>
     </g>
    </g>
    <g id="text_15">
     <!-- value -->
     <g transform="translate(14.798438 264.687368) rotate(-90) scale(0.1 -0.1)">
      <use xlink:href="#DejaVuSans-76"/>
      <use xlink:href="#DejaVuSans-61" x="59.179688"/>
      <use xlink:href="#DejaVuSans-6c" x="120.458984"/>
      <use xlink:href="#DejaVuSans-75" x="148.242188"/>
      <use xlink:href="#DejaVuSans-65" x="211.621094"/>
     </g>
    </g>
   </g>
   <g id="line2d_38">
    <path d="M 51.636053 287.18622 
L 53.222882 287.202768 
L 54.809711 287.197292 
L 56.39654 287.217022 
L 57.983369 287.240361 
L 59.570198 287.235087 
L 61.157027 287.26281 
L 62.743856 287.257629 
L 64.330685 287.25244 
L 65.917514 287.2855 
L 67.504343 287.2804 
L 69.091172 287.275288 
L 70.678001 287.270171 
L 72.26483 287.309757 
L 73.851659 287.304719 
L 75.438488 287.299672 
L 77.025317 287.294619 
L 78.612146 287.289558 
L 80.198975 287.284487 
L 81.785804 287.332177 
L 83.372633 287.327172 
L 84.959462 287.322157 
L 86.546291 287.317137 
L 88.13312 287.31211 
L 89.719949 287.307072 
L 91.306778 287.30203 
L 92.893607 287.296972 
L 94.480435 287.291912 
L 96.067264 287.286846 
L 97.654093 287.344689 
L 99.240922 287.339666 
L 100.827751 287.334636 
L 102.41458 287.329595 
L 104.001409 287.324551 
L 105.588238 287.319499 
L 107.175067 287.314431 
L 108.761896 287.309371 
L 110.348725 287.304291 
L 111.935554 287.299209 
L 113.522383 287.294119 
L 115.109212 287.289023 
L 116.696041 287.283903 
L 118.28287 287.278791 
L 119.869699 287.273696 
L 121.456528 287.344064 
L 123.043357 287.338957 
L 124.630186 287.33382 
L 126.217015 287.328722 
L 127.803844 287.32357 
L 129.390673 287.31846 
L 130.977502 287.313318 
L 132.564331 287.308169 
L 134.15116 287.303014 
L 135.737989 287.297851 
L 137.324818 287.292704 
L 138.911647 287.287503 
L 140.498475 287.282319 
L 142.085304 287.277152 
L 143.672133 287.271955 
L 145.258962 287.266751 
L 146.845791 287.261537 
L 148.43262 287.256317 
L 150.019449 287.251092 
L 151.606278 287.245856 
L 153.193107 287.240617 
L 154.779936 287.235367 
L 156.366765 287.320742 
L 157.953594 287.315466 
L 159.540423 287.310185 
L 161.127252 287.304899 
L 162.714081 287.299604 
L 164.30091 287.294304 
L 165.887739 287.289 
L 167.474568 287.283688 
L 169.061397 287.278368 
L 170.648226 287.273044 
L 172.235055 287.267716 
L 173.821884 287.262379 
L 175.408713 287.257034 
L 176.995542 287.25172 
L 178.582371 287.24633 
L 180.1692 287.240969 
L 181.756029 287.235603 
L 183.342858 287.230228 
L 184.929687 287.22488 
L 186.516516 287.219462 
L 188.103344 287.214071 
L 189.690173 287.20867 
L 191.277002 287.203268 
L 192.863831 287.197854 
L 194.45066 287.192467 
L 196.037489 287.187048 
L 197.624318 287.181618 
L 199.211147 287.176182 
L 200.797976 287.170697 
L 202.384805 287.165259 
L 203.971634 287.159795 
L 205.558463 287.262315 
L 207.145292 287.256743 
L 208.732121 287.251218 
" clip-path="url(#pec18e22e3c)" style="fill: none; stroke: #2ca02c; stroke-width: 1.5; stroke-linecap: square"/>
   </g>
   <g id="patch_15">
    <path d="M 43.78125 290.976202 
L 43.78125 211.082909 
" style="fill: none; stroke: #000000; stroke-width: 0.8; stroke-linejoin: miter; stroke-linecap: square"/>
   </g>
   <g id="patch_16">
    <path d="M 43.78125 290.976202 
L 216.586924 290.976202 
" style="fill: none; stroke: #000000; stroke-width: 0.8; stroke-linejoin: miter; stroke-linecap: square"/>
   </g>
  </g>
  <g id="axes_6">
   <g id="patch_17">
    <path d="M 230.886924 290.976202 
L 403.692599 290.976202 
L 403.692599 211.082909 
L 230.886924 211.082909 
z
" style="fill: #ffffff"/>
   </g>
   <g id="PolyCollection_6"/>
   <g id="matplotlib.axis_11">
    <g id="xtick_21">
     <g id="line2d_39">
      <g>
       <use xlink:href="#m084f7790da" x="238.741728" y="290.976202" style="stroke: #000000; stroke-width: 0.8"/>
      </g>
     </g>
    </g>
    <g id="xtick_22">
     <g id="line2d_40">
      <g>
       <use xlink:href="#m084f7790da" x="291.107084" y="290.976202" style="stroke: #000000; stroke-width: 0.8"/>
      </g>
     </g>
    </g>
    <g id="xtick_23">
     <g id="line2d_41">
      <g>
       <use xlink:href="#m084f7790da" x="343.47244" y="290.976202" style="stroke: #000000; stroke-width: 0.8"/>
      </g>
     </g>
    </g>
    <g id="xtick_24">
     <g id="line2d_42">
      <g>
       <use xlink:href="#m084f7790da" x="395.837795" y="290.976202" style="stroke: #000000; stroke-width: 0.8"/>
      </g>
     </g>
    </g>
   </g>
   <g id="matplotlib.axis_12">
    <g id="ytick_14">
     <g id="line2d_43">
      <g>
       <use xlink:href="#m43d0862c90" x="230.886924" y="289.290303" style="stroke: #000000; stroke-width: 0.8"/>
      </g>
     </g>
    </g>
    <g id="ytick_15">
     <g id="line2d_44">
      <g>
       <use xlink:href="#m43d0862c90" x="230.886924" y="260.645128" style="stroke: #000000; stroke-width: 0.8"/>
      </g>
     </g>
    </g>
    <g id="ytick_16">
     <g id="line2d_45">
      <g>
       <use xlink:href="#m43d0862c90" x="230.886924" y="231.999953" style="stroke: #000000; stroke-width: 0.8"/>
      </g>
     </g>
    </g>
   </g>
   <g id="line2d_46">
    <path d="M 238.741728 214.714422 
L 240.328557 214.959269 
L 241.915386 215.202266 
L 243.502215 215.443585 
L 245.089044 215.683084 
L 246.675873 215.920834 
L 248.262702 216.156977 
L 249.849531 216.391308 
L 251.43636 216.623969 
L 253.023189 216.855055 
L 254.610017 217.084393 
L 256.196846 217.312116 
L 257.783675 217.538299 
L 259.370504 217.762829 
L 260.957333 217.985764 
L 262.544162 218.207225 
L 264.130991 218.427073 
L 265.71782 218.645396 
L 267.304649 218.862292 
L 268.891478 219.077613 
L 270.478307 219.291475 
L 272.065136 219.50394 
L 273.651965 219.714914 
L 275.238794 219.924459 
L 276.825623 220.132684 
L 278.412452 220.339434 
L 279.999281 220.544788 
L 281.58611 220.748863 
L 283.172939 220.951511 
L 284.759768 221.152894 
L 286.346597 221.352881 
L 287.933426 221.551558 
L 289.520255 221.749009 
L 291.107084 221.945108 
L 292.693913 222.139939 
L 294.280742 222.333583 
L 295.867571 222.525916 
L 297.4544 222.717102 
L 299.041229 222.90699 
L 300.628058 223.095675 
L 302.214886 223.283248 
L 303.801715 223.469563 
L 305.388544 223.65471 
L 306.975373 223.835919 
L 308.562202 224.018823 
L 310.149031 224.200545 
L 311.73586 224.384026 
L 313.322689 224.56067 
L 314.909518 224.741985 
L 316.496347 224.924005 
L 318.083176 225.092718 
L 319.670005 225.275369 
L 321.256834 225.449429 
L 322.843663 225.622553 
L 324.430492 225.794537 
L 326.017321 225.95857 
L 327.60415 226.128608 
L 329.190979 226.304503 
L 330.777808 226.47256 
L 332.364637 226.632766 
L 333.951466 226.805649 
L 335.538295 226.970701 
L 337.125124 227.128153 
L 338.711953 227.298033 
L 340.298782 227.453672 
L 341.885611 227.614622 
L 343.47244 227.775067 
L 345.059269 227.934575 
L 346.646098 228.093206 
L 348.232926 228.251418 
L 349.819755 228.40777 
L 351.406584 228.563745 
L 352.993413 228.719361 
L 354.580242 228.87359 
L 356.167071 229.026471 
L 357.7539 229.17902 
L 359.340729 229.331255 
L 360.927558 229.48215 
L 362.514387 229.631633 
L 364.101216 229.783817 
L 365.688045 229.929303 
L 367.274874 230.076945 
L 368.861703 230.224374 
L 370.448532 230.369844 
L 372.035361 230.518049 
L 373.62219 230.659633 
L 375.209019 230.803996 
L 376.795848 230.946368 
L 378.382677 231.089241 
L 379.969506 231.230105 
L 381.556335 231.373824 
L 383.143164 231.510896 
L 384.729993 231.650195 
L 386.316822 231.788795 
L 387.903651 231.926666 
L 389.49048 232.064551 
L 391.077309 232.200319 
L 392.664138 232.336803 
L 394.250967 232.471205 
L 395.837795 232.605615 
" clip-path="url(#pbfebe8ecdb)" style="fill: none; stroke: #2ca02c; stroke-width: 1.5; stroke-linecap: square"/>
   </g>
   <g id="patch_18">
    <path d="M 230.886924 290.976202 
L 230.886924 211.082909 
" style="fill: none; stroke: #000000; stroke-width: 0.8; stroke-linejoin: miter; stroke-linecap: square"/>
   </g>
   <g id="patch_19">
    <path d="M 230.886924 290.976202 
L 403.692599 290.976202 
" style="fill: none; stroke: #000000; stroke-width: 0.8; stroke-linejoin: miter; stroke-linecap: square"/>
   </g>
   <g id="text_16">
    <!-- variable = p -->
    <g transform="translate(409.2284 220.315493) rotate(-270) scale(0.1 -0.1)">
     <use xlink:href="#DejaVuSans-76"/>
     <use xlink:href="#DejaVuSans-61" x="59.179688"/>
     <use xlink:href="#DejaVuSans-72" x="120.458984"/>
     <use xlink:href="#DejaVuSans-69" x="161.572266"/>
     <use xlink:href="#DejaVuSans-61" x="189.355469"/>
     <use xlink:href="#DejaVuSans-62" x="250.634766"/>
     <use xlink:href="#DejaVuSans-6c" x="314.111328"/>
     <use xlink:href="#DejaVuSans-65" x="341.894531"/>
     <use xlink:href="#DejaVuSans-20" x="403.417969"/>
     <use xlink:href="#DejaVuSans-3d" x="435.205078"/>
     <use xlink:href="#DejaVuSans-20" x="518.994141"/>
     <use xlink:href="#DejaVuSans-70" x="550.78125"/>
    </g>
   </g>
  </g>
  <g id="axes_7">
   <g id="patch_20">
    <path d="M 43.78125 386.118437 
L 216.586924 386.118437 
L 216.586924 306.225144 
L 43.78125 306.225144 
z
" style="fill: #ffffff"/>
   </g>
   <g id="PolyCollection_7"/>
   <g id="matplotlib.axis_13">
    <g id="xtick_25">
     <g id="line2d_47">
      <g>
       <use xlink:href="#m084f7790da" x="51.636053" y="386.118437" style="stroke: #000000; stroke-width: 0.8"/>
      </g>
     </g>
     <g id="text_17">
      <!-- 0.0 -->
      <g transform="translate(43.684491 400.716875) scale(0.1 -0.1)">
       <use xlink:href="#DejaVuSans-30"/>
       <use xlink:href="#DejaVuSans-2e" x="63.623047"/>
       <use xlink:href="#DejaVuSans-30" x="95.410156"/>
      </g>
     </g>
    </g>
    <g id="xtick_26">
     <g id="line2d_48">
      <g>
       <use xlink:href="#m084f7790da" x="104.001409" y="386.118437" style="stroke: #000000; stroke-width: 0.8"/>
      </g>
     </g>
     <g id="text_18">
      <!-- 0.1 -->
      <g transform="translate(96.049847 400.716875) scale(0.1 -0.1)">
       <defs>
        <path id="DejaVuSans-31" d="M 794 531 
L 1825 531 
L 1825 4091 
L 703 3866 
L 703 4441 
L 1819 4666 
L 2450 4666 
L 2450 531 
L 3481 531 
L 3481 0 
L 794 0 
L 794 531 
z
" transform="scale(0.015625)"/>
       </defs>
       <use xlink:href="#DejaVuSans-30"/>
       <use xlink:href="#DejaVuSans-2e" x="63.623047"/>
       <use xlink:href="#DejaVuSans-31" x="95.410156"/>
      </g>
     </g>
    </g>
    <g id="xtick_27">
     <g id="line2d_49">
      <g>
       <use xlink:href="#m084f7790da" x="156.366765" y="386.118437" style="stroke: #000000; stroke-width: 0.8"/>
      </g>
     </g>
     <g id="text_19">
      <!-- 0.2 -->
      <g transform="translate(148.415203 400.716875) scale(0.1 -0.1)">
       <use xlink:href="#DejaVuSans-30"/>
       <use xlink:href="#DejaVuSans-2e" x="63.623047"/>
       <use xlink:href="#DejaVuSans-32" x="95.410156"/>
      </g>
     </g>
    </g>
    <g id="xtick_28">
     <g id="line2d_50">
      <g>
       <use xlink:href="#m084f7790da" x="208.732121" y="386.118437" style="stroke: #000000; stroke-width: 0.8"/>
      </g>
     </g>
     <g id="text_20">
      <!-- 0.3 -->
      <g transform="translate(200.780559 400.716875) scale(0.1 -0.1)">
       <defs>
        <path id="DejaVuSans-33" d="M 2597 2516 
Q 3050 2419 3304 2112 
Q 3559 1806 3559 1356 
Q 3559 666 3084 287 
Q 2609 -91 1734 -91 
Q 1441 -91 1130 -33 
Q 819 25 488 141 
L 488 750 
Q 750 597 1062 519 
Q 1375 441 1716 441 
Q 2309 441 2620 675 
Q 2931 909 2931 1356 
Q 2931 1769 2642 2001 
Q 2353 2234 1838 2234 
L 1294 2234 
L 1294 2753 
L 1863 2753 
Q 2328 2753 2575 2939 
Q 2822 3125 2822 3475 
Q 2822 3834 2567 4026 
Q 2313 4219 1838 4219 
Q 1578 4219 1281 4162 
Q 984 4106 628 3988 
L 628 4550 
Q 988 4650 1302 4700 
Q 1616 4750 1894 4750 
Q 2613 4750 3031 4423 
Q 3450 4097 3450 3541 
Q 3450 3153 3228 2886 
Q 3006 2619 2597 2516 
z
" transform="scale(0.015625)"/>
       </defs>
       <use xlink:href="#DejaVuSans-30"/>
       <use xlink:href="#DejaVuSans-2e" x="63.623047"/>
       <use xlink:href="#DejaVuSans-33" x="95.410156"/>
      </g>
     </g>
    </g>
    <g id="text_21">
     <!-- ns -->
     <g transform="translate(124.41065 414.395) scale(0.1 -0.1)">
      <defs>
       <path id="DejaVuSans-6e" d="M 3513 2113 
L 3513 0 
L 2938 0 
L 2938 2094 
Q 2938 2591 2744 2837 
Q 2550 3084 2163 3084 
Q 1697 3084 1428 2787 
Q 1159 2491 1159 1978 
L 1159 0 
L 581 0 
L 581 3500 
L 1159 3500 
L 1159 2956 
Q 1366 3272 1645 3428 
Q 1925 3584 2291 3584 
Q 2894 3584 3203 3211 
Q 3513 2838 3513 2113 
z
" transform="scale(0.015625)"/>
      </defs>
      <use xlink:href="#DejaVuSans-6e"/>
      <use xlink:href="#DejaVuSans-73" x="63.378906"/>
     </g>
    </g>
   </g>
   <g id="matplotlib.axis_14">
    <g id="ytick_17">
     <g id="line2d_51">
      <g>
       <use xlink:href="#m43d0862c90" x="43.78125" y="372.537929" style="stroke: #000000; stroke-width: 0.8"/>
      </g>
     </g>
     <g id="text_22">
      <!-- 2.5 -->
      <g transform="translate(20.878125 376.337148) scale(0.1 -0.1)">
       <use xlink:href="#DejaVuSans-32"/>
       <use xlink:href="#DejaVuSans-2e" x="63.623047"/>
       <use xlink:href="#DejaVuSans-35" x="95.410156"/>
      </g>
     </g>
    </g>
    <g id="ytick_18">
     <g id="line2d_52">
      <g>
       <use xlink:href="#m43d0862c90" x="43.78125" y="341.6028" style="stroke: #000000; stroke-width: 0.8"/>
      </g>
     </g>
     <g id="text_23">
      <!-- 5.0 -->
      <g transform="translate(20.878125 345.402019) scale(0.1 -0.1)">
       <use xlink:href="#DejaVuSans-35"/>
       <use xlink:href="#DejaVuSans-2e" x="63.623047"/>
       <use xlink:href="#DejaVuSans-30" x="95.410156"/>
      </g>
     </g>
    </g>
    <g id="ytick_19">
     <g id="line2d_53">
      <g>
       <use xlink:href="#m43d0862c90" x="43.78125" y="310.667671" style="stroke: #000000; stroke-width: 0.8"/>
      </g>
     </g>
     <g id="text_24">
      <!-- 7.5 -->
      <g transform="translate(20.878125 314.46689) scale(0.1 -0.1)">
       <use xlink:href="#DejaVuSans-37"/>
       <use xlink:href="#DejaVuSans-2e" x="63.623047"/>
       <use xlink:href="#DejaVuSans-35" x="95.410156"/>
      </g>
     </g>
    </g>
    <g id="text_25">
     <!-- value -->
     <g transform="translate(14.798438 359.829603) rotate(-90) scale(0.1 -0.1)">
      <use xlink:href="#DejaVuSans-76"/>
      <use xlink:href="#DejaVuSans-61" x="59.179688"/>
      <use xlink:href="#DejaVuSans-6c" x="120.458984"/>
      <use xlink:href="#DejaVuSans-75" x="148.242188"/>
      <use xlink:href="#DejaVuSans-65" x="211.621094"/>
     </g>
    </g>
   </g>
   <g id="line2d_54">
    <path d="M 51.636053 347.573824 
L 53.222882 346.697654 
L 54.809711 346.582193 
L 56.39654 345.529992 
L 57.983369 344.325324 
L 59.570198 344.204507 
L 61.157027 342.811823 
L 62.743856 342.690927 
L 64.330685 342.569814 
L 65.917514 340.943369 
L 67.504343 340.816478 
L 69.091172 340.68928 
L 70.678001 340.561714 
L 72.26483 338.642623 
L 73.851659 338.517163 
L 75.438488 338.391498 
L 77.025317 338.265503 
L 78.612146 338.139244 
L 80.198975 338.011736 
L 81.785804 335.72685 
L 83.372633 335.603448 
L 84.959462 335.462497 
L 86.546291 335.321071 
L 88.13312 335.179362 
L 89.719949 335.037453 
L 91.306778 334.895182 
L 92.893607 334.75173 
L 94.480435 334.604121 
L 96.067264 334.45614 
L 97.654093 331.75866 
L 99.240922 331.618041 
L 100.827751 331.475735 
L 102.41458 331.333255 
L 104.001409 331.190328 
L 105.588238 331.047094 
L 107.175067 330.903911 
L 108.761896 330.759827 
L 110.348725 330.615935 
L 111.935554 330.471529 
L 113.522383 330.322141 
L 115.109212 330.166026 
L 116.696041 330.00791 
L 118.28287 329.848529 
L 119.869699 329.687928 
L 121.456528 326.522328 
L 123.043357 326.374139 
L 124.630186 326.226426 
L 126.217015 326.074946 
L 127.803844 325.923722 
L 129.390673 325.770436 
L 130.977502 325.612324 
L 132.564331 325.442622 
L 134.15116 325.272593 
L 135.737989 325.102255 
L 137.324818 324.930695 
L 138.911647 324.760649 
L 140.498475 324.589331 
L 142.085304 324.416796 
L 143.672133 324.244842 
L 145.258962 324.072505 
L 146.845791 323.898879 
L 148.43262 323.724529 
L 150.019449 323.549776 
L 151.606278 323.374878 
L 153.193107 323.199506 
L 154.779936 323.023994 
L 156.366765 319.399679 
L 157.953594 319.237083 
L 159.540423 319.074071 
L 161.127252 318.910585 
L 162.714081 318.746032 
L 164.30091 318.580257 
L 165.887739 318.414013 
L 167.474568 318.247465 
L 169.061397 318.080599 
L 170.648226 317.913267 
L 172.235055 317.745478 
L 173.821884 317.577375 
L 175.408713 317.408978 
L 176.995542 317.238926 
L 178.582371 317.070871 
L 180.1692 316.901245 
L 181.756029 316.731167 
L 183.342858 316.560867 
L 184.929687 316.38904 
L 186.516516 316.218989 
L 188.103344 316.047412 
L 189.690173 315.875617 
L 191.277002 315.703299 
L 192.863831 315.530762 
L 194.45066 315.356811 
L 196.037489 315.177795 
L 197.624318 314.990977 
L 199.211147 314.803781 
L 200.797976 314.617695 
L 202.384805 314.429449 
L 203.971634 314.241518 
L 205.558463 310.176606 
L 207.145292 310.017778 
L 208.732121 309.856658 
" clip-path="url(#pcda68f5fb8)" style="fill: none; stroke: #d62728; stroke-width: 1.5; stroke-linecap: square"/>
   </g>
   <g id="patch_21">
    <path d="M 43.78125 386.118437 
L 43.78125 306.225144 
" style="fill: none; stroke: #000000; stroke-width: 0.8; stroke-linejoin: miter; stroke-linecap: square"/>
   </g>
   <g id="patch_22">
    <path d="M 43.78125 386.118437 
L 216.586924 386.118437 
" style="fill: none; stroke: #000000; stroke-width: 0.8; stroke-linejoin: miter; stroke-linecap: square"/>
   </g>
  </g>
  <g id="axes_8">
   <g id="patch_23">
    <path d="M 230.886924 386.118437 
L 403.692599 386.118437 
L 403.692599 306.225144 
L 230.886924 306.225144 
z
" style="fill: #ffffff"/>
   </g>
   <g id="PolyCollection_8"/>
   <g id="matplotlib.axis_15">
    <g id="xtick_29">
     <g id="line2d_55">
      <g>
       <use xlink:href="#m084f7790da" x="238.741728" y="386.118437" style="stroke: #000000; stroke-width: 0.8"/>
      </g>
     </g>
     <g id="text_26">
      <!-- 0.0 -->
      <g transform="translate(230.790165 400.716875) scale(0.1 -0.1)">
       <use xlink:href="#DejaVuSans-30"/>
       <use xlink:href="#DejaVuSans-2e" x="63.623047"/>
       <use xlink:href="#DejaVuSans-30" x="95.410156"/>
      </g>
     </g>
    </g>
    <g id="xtick_30">
     <g id="line2d_56">
      <g>
       <use xlink:href="#m084f7790da" x="291.107084" y="386.118437" style="stroke: #000000; stroke-width: 0.8"/>
      </g>
     </g>
     <g id="text_27">
      <!-- 0.1 -->
      <g transform="translate(283.155521 400.716875) scale(0.1 -0.1)">
       <use xlink:href="#DejaVuSans-30"/>
       <use xlink:href="#DejaVuSans-2e" x="63.623047"/>
       <use xlink:href="#DejaVuSans-31" x="95.410156"/>
      </g>
     </g>
    </g>
    <g id="xtick_31">
     <g id="line2d_57">
      <g>
       <use xlink:href="#m084f7790da" x="343.47244" y="386.118437" style="stroke: #000000; stroke-width: 0.8"/>
      </g>
     </g>
     <g id="text_28">
      <!-- 0.2 -->
      <g transform="translate(335.520877 400.716875) scale(0.1 -0.1)">
       <use xlink:href="#DejaVuSans-30"/>
       <use xlink:href="#DejaVuSans-2e" x="63.623047"/>
       <use xlink:href="#DejaVuSans-32" x="95.410156"/>
      </g>
     </g>
    </g>
    <g id="xtick_32">
     <g id="line2d_58">
      <g>
       <use xlink:href="#m084f7790da" x="395.837795" y="386.118437" style="stroke: #000000; stroke-width: 0.8"/>
      </g>
     </g>
     <g id="text_29">
      <!-- 0.3 -->
      <g transform="translate(387.886233 400.716875) scale(0.1 -0.1)">
       <use xlink:href="#DejaVuSans-30"/>
       <use xlink:href="#DejaVuSans-2e" x="63.623047"/>
       <use xlink:href="#DejaVuSans-33" x="95.410156"/>
      </g>
     </g>
    </g>
    <g id="text_30">
     <!-- ns -->
     <g transform="translate(311.516324 414.395) scale(0.1 -0.1)">
      <use xlink:href="#DejaVuSans-6e"/>
      <use xlink:href="#DejaVuSans-73" x="63.378906"/>
     </g>
    </g>
   </g>
   <g id="matplotlib.axis_16">
    <g id="ytick_20">
     <g id="line2d_59">
      <g>
       <use xlink:href="#m43d0862c90" x="230.886924" y="372.537929" style="stroke: #000000; stroke-width: 0.8"/>
      </g>
     </g>
    </g>
    <g id="ytick_21">
     <g id="line2d_60">
      <g>
       <use xlink:href="#m43d0862c90" x="230.886924" y="341.6028" style="stroke: #000000; stroke-width: 0.8"/>
      </g>
     </g>
    </g>
    <g id="ytick_22">
     <g id="line2d_61">
      <g>
       <use xlink:href="#m43d0862c90" x="230.886924" y="310.667671" style="stroke: #000000; stroke-width: 0.8"/>
      </g>
     </g>
    </g>
   </g>
   <g id="line2d_62">
    <path d="M 238.741728 382.486924 
L 240.328557 382.248934 
L 241.915386 381.98195 
L 243.502215 381.709575 
L 245.089044 381.437131 
L 246.675873 381.156003 
L 248.262702 380.86562 
L 249.849531 380.567291 
L 251.43636 380.267974 
L 253.023189 379.968578 
L 254.610017 379.668994 
L 256.196846 379.360226 
L 257.783675 379.051377 
L 259.370504 378.742447 
L 260.957333 378.433437 
L 262.544162 378.124345 
L 264.130991 377.815173 
L 265.71782 377.505919 
L 267.304649 377.196584 
L 268.891478 376.887168 
L 270.478307 376.577671 
L 272.065136 376.268091 
L 273.651965 375.958431 
L 275.238794 375.648689 
L 276.825623 375.338865 
L 278.412452 375.02896 
L 279.999281 374.718973 
L 281.58611 374.408903 
L 283.172939 374.09193 
L 284.759768 373.772489 
L 286.346597 373.452965 
L 287.933426 373.133355 
L 289.520255 372.81366 
L 291.107084 372.493881 
L 292.693913 372.172913 
L 294.280742 371.848448 
L 295.867571 371.523899 
L 297.4544 371.199261 
L 299.041229 370.874538 
L 300.628058 370.549727 
L 302.214886 370.216693 
L 303.801715 369.877042 
L 305.388544 369.527736 
L 306.975373 369.176058 
L 308.562202 368.824236 
L 310.149031 368.472318 
L 311.73586 368.120255 
L 313.322689 367.768197 
L 314.909518 367.415941 
L 316.496347 367.063557 
L 318.083176 366.711295 
L 319.670005 366.358669 
L 321.256834 366.006082 
L 322.843663 365.653397 
L 324.430492 365.300618 
L 326.017321 364.947868 
L 327.60415 364.594894 
L 329.190979 364.241701 
L 330.777808 363.888535 
L 332.364637 363.535397 
L 333.951466 363.181914 
L 335.538295 362.82846 
L 337.125124 362.47503 
L 338.711953 362.12126 
L 340.298782 361.767635 
L 341.885611 361.4138 
L 343.47244 361.059861 
L 345.059269 360.705562 
L 346.646098 360.345212 
L 348.232926 359.984754 
L 349.819755 359.624214 
L 351.406584 359.263566 
L 352.993413 358.90281 
L 354.580242 358.541964 
L 356.167071 358.181028 
L 357.7539 357.819982 
L 359.340729 357.458828 
L 360.927558 357.097583 
L 362.514387 356.73625 
L 364.101216 356.360306 
L 365.688045 355.98429 
L 367.274874 355.608115 
L 368.861703 355.231825 
L 370.448532 354.855452 
L 372.035361 354.478909 
L 373.62219 354.102371 
L 375.209019 353.725661 
L 376.795848 353.348871 
L 378.382677 352.971951 
L 379.969506 352.594951 
L 381.556335 352.217778 
L 383.143164 351.840612 
L 384.729993 351.463284 
L 386.316822 351.08552 
L 387.903651 350.707261 
L 389.49048 350.328882 
L 391.077309 349.950424 
L 392.664138 349.571835 
L 394.250967 349.193166 
L 395.837795 348.814378 
" clip-path="url(#p0af6a9a7b2)" style="fill: none; stroke: #d62728; stroke-width: 1.5; stroke-linecap: square"/>
   </g>
   <g id="patch_24">
    <path d="M 230.886924 386.118437 
L 230.886924 306.225144 
" style="fill: none; stroke: #000000; stroke-width: 0.8; stroke-linejoin: miter; stroke-linecap: square"/>
   </g>
   <g id="patch_25">
    <path d="M 230.886924 386.118437 
L 403.692599 386.118437 
" style="fill: none; stroke: #000000; stroke-width: 0.8; stroke-linejoin: miter; stroke-linecap: square"/>
   </g>
   <g id="text_31">
    <!-- variable = err -->
    <g transform="translate(409.2284 311.531947) rotate(-270) scale(0.1 -0.1)">
     <use xlink:href="#DejaVuSans-76"/>
     <use xlink:href="#DejaVuSans-61" x="59.179688"/>
     <use xlink:href="#DejaVuSans-72" x="120.458984"/>
     <use xlink:href="#DejaVuSans-69" x="161.572266"/>
     <use xlink:href="#DejaVuSans-61" x="189.355469"/>
     <use xlink:href="#DejaVuSans-62" x="250.634766"/>
     <use xlink:href="#DejaVuSans-6c" x="314.111328"/>
     <use xlink:href="#DejaVuSans-65" x="341.894531"/>
     <use xlink:href="#DejaVuSans-20" x="403.417969"/>
     <use xlink:href="#DejaVuSans-3d" x="435.205078"/>
     <use xlink:href="#DejaVuSans-20" x="518.994141"/>
     <use xlink:href="#DejaVuSans-65" x="550.78125"/>
     <use xlink:href="#DejaVuSans-72" x="612.304688"/>
     <use xlink:href="#DejaVuSans-72" x="651.667969"/>
    </g>
   </g>
  </g>
 </g>
 <defs>
  <clipPath id="p3d18cfe7f8">
   <rect x="43.78125" y="20.798437" width="172.805674" height="79.893293"/>
  </clipPath>
  <clipPath id="pfaa7f21309">
   <rect x="230.886924" y="20.798437" width="172.805674" height="79.893293"/>
  </clipPath>
  <clipPath id="p3623dc9010">
   <rect x="43.78125" y="115.940673" width="172.805674" height="79.893293"/>
  </clipPath>
  <clipPath id="p085108c9a0">
   <rect x="230.886924" y="115.940673" width="172.805674" height="79.893293"/>
  </clipPath>
  <clipPath id="pec18e22e3c">
   <rect x="43.78125" y="211.082909" width="172.805674" height="79.893293"/>
  </clipPath>
  <clipPath id="pbfebe8ecdb">
   <rect x="230.886924" y="211.082909" width="172.805674" height="79.893293"/>
  </clipPath>
  <clipPath id="pcda68f5fb8">
   <rect x="43.78125" y="306.225144" width="172.805674" height="79.893293"/>
  </clipPath>
  <clipPath id="p0af6a9a7b2">
   <rect x="230.886924" y="306.225144" width="172.805674" height="79.893293"/>
  </clipPath>
 </defs>
</svg>
