<?xml version="1.0" encoding="utf-8" standalone="no"?>
<!DOCTYPE svg PUBLIC "-//W3C//DTD SVG 1.1//EN"
  "http://www.w3.org/Graphics/SVG/1.1/DTD/svg11.dtd">
<svg xmlns:xlink="http://www.w3.org/1999/xlink" width="640.386694pt" height="423.674687pt" viewBox="0 0 640.386694 423.674687" xmlns="http://www.w3.org/2000/svg" version="1.1">
 <metadata>
  <rdf:RDF xmlns:dc="http://purl.org/dc/elements/1.1/" xmlns:cc="http://creativecommons.org/ns#" xmlns:rdf="http://www.w3.org/1999/02/22-rdf-syntax-ns#">
   <cc:Work>
    <dc:type rdf:resource="http://purl.org/dc/dcmitype/StillImage"/>
    <dc:date>2024-11-05T14:26:50.467271</dc:date>
    <dc:format>image/svg+xml</dc:format>
    <dc:creator>
     <cc:Agent>
      <dc:title>Matplotlib v3.9.2, https://matplotlib.org/</dc:title>
     </cc:Agent>
    </dc:creator>
   </cc:Work>
  </rdf:RDF>
 </metadata>
 <defs>
  <style type="text/css">*{stroke-linejoin: round; stroke-linecap: butt}</style>
 </defs>
 <g id="figure_1">
  <g id="patch_1">
   <path d="M 0 423.674687 
L 640.386694 423.674687 
L 640.386694 0 
L 0 0 
z
" style="fill: #ffffff"/>
  </g>
  <g id="axes_1">
   <g id="patch_2">
    <path d="M 43.78125 99.300272 
L 226.181645 99.300272 
L 226.181645 20.798437 
L 43.78125 20.798437 
z
" style="fill: #ffffff"/>
   </g>
   <g id="PolyCollection_1"/>
   <g id="matplotlib.axis_1">
    <g id="xtick_1">
     <g id="line2d_1">
      <defs>
       <path id="meafc10a207" d="M 0 0 
L 0 3.5 
" style="stroke: #000000; stroke-width: 0.8"/>
      </defs>
      <g>
       <use xlink:href="#meafc10a207" x="52.072177" y="99.300272" style="stroke: #000000; stroke-width: 0.8"/>
      </g>
     </g>
    </g>
    <g id="xtick_2">
     <g id="line2d_2">
      <g>
       <use xlink:href="#meafc10a207" x="107.345024" y="99.300272" style="stroke: #000000; stroke-width: 0.8"/>
      </g>
     </g>
    </g>
    <g id="xtick_3">
     <g id="line2d_3">
      <g>
       <use xlink:href="#meafc10a207" x="162.617871" y="99.300272" style="stroke: #000000; stroke-width: 0.8"/>
      </g>
     </g>
    </g>
    <g id="xtick_4">
     <g id="line2d_4">
      <g>
       <use xlink:href="#meafc10a207" x="217.890718" y="99.300272" style="stroke: #000000; stroke-width: 0.8"/>
      </g>
     </g>
    </g>
   </g>
   <g id="matplotlib.axis_2">
    <g id="ytick_1">
     <g id="line2d_5">
      <defs>
       <path id="m133ab426a9" d="M 0 0 
L -3.5 0 
" style="stroke: #000000; stroke-width: 0.8"/>
      </defs>
      <g>
       <use xlink:href="#m133ab426a9" x="43.78125" y="88.838376" style="stroke: #000000; stroke-width: 0.8"/>
      </g>
     </g>
     <g id="text_1">
      <!-- 4 -->
      <g transform="translate(30.41875 92.637595) scale(0.1 -0.1)">
       <defs>
        <path id="DejaVuSans-34" d="M 2419 4116 
L 825 1625 
L 2419 1625 
L 2419 4116 
z
M 2253 4666 
L 3047 4666 
L 3047 1625 
L 3713 1625 
L 3713 1100 
L 3047 1100 
L 3047 0 
L 2419 0 
L 2419 1100 
L 313 1100 
L 313 1709 
L 2253 4666 
z
" transform="scale(0.015625)"/>
       </defs>
       <use xlink:href="#DejaVuSans-34"/>
      </g>
     </g>
    </g>
    <g id="ytick_2">
     <g id="line2d_6">
      <g>
       <use xlink:href="#m133ab426a9" x="43.78125" y="50.875227" style="stroke: #000000; stroke-width: 0.8"/>
      </g>
     </g>
     <g id="text_2">
      <!-- 6 -->
      <g transform="translate(30.41875 54.674446) scale(0.1 -0.1)">
       <defs>
        <path id="DejaVuSans-36" d="M 2113 2584 
Q 1688 2584 1439 2293 
Q 1191 2003 1191 1497 
Q 1191 994 1439 701 
Q 1688 409 2113 409 
Q 2538 409 2786 701 
Q 3034 994 3034 1497 
Q 3034 2003 2786 2293 
Q 2538 2584 2113 2584 
z
M 3366 4563 
L 3366 3988 
Q 3128 4100 2886 4159 
Q 2644 4219 2406 4219 
Q 1781 4219 1451 3797 
Q 1122 3375 1075 2522 
Q 1259 2794 1537 2939 
Q 1816 3084 2150 3084 
Q 2853 3084 3261 2657 
Q 3669 2231 3669 1497 
Q 3669 778 3244 343 
Q 2819 -91 2113 -91 
Q 1303 -91 875 529 
Q 447 1150 447 2328 
Q 447 3434 972 4092 
Q 1497 4750 2381 4750 
Q 2619 4750 2861 4703 
Q 3103 4656 3366 4563 
z
" transform="scale(0.015625)"/>
       </defs>
       <use xlink:href="#DejaVuSans-36"/>
      </g>
     </g>
    </g>
    <g id="text_3">
     <!-- value -->
     <g transform="translate(24.339063 73.707167) rotate(-90) scale(0.1 -0.1)">
      <defs>
       <path id="DejaVuSans-76" d="M 191 3500 
L 800 3500 
L 1894 563 
L 2988 3500 
L 3597 3500 
L 2284 0 
L 1503 0 
L 191 3500 
z
" transform="scale(0.015625)"/>
       <path id="DejaVuSans-61" d="M 2194 1759 
Q 1497 1759 1228 1600 
Q 959 1441 959 1056 
Q 959 750 1161 570 
Q 1363 391 1709 391 
Q 2188 391 2477 730 
Q 2766 1069 2766 1631 
L 2766 1759 
L 2194 1759 
z
M 3341 1997 
L 3341 0 
L 2766 0 
L 2766 531 
Q 2569 213 2275 61 
Q 1981 -91 1556 -91 
Q 1019 -91 701 211 
Q 384 513 384 1019 
Q 384 1609 779 1909 
Q 1175 2209 1959 2209 
L 2766 2209 
L 2766 2266 
Q 2766 2663 2505 2880 
Q 2244 3097 1772 3097 
Q 1472 3097 1187 3025 
Q 903 2953 641 2809 
L 641 3341 
Q 956 3463 1253 3523 
Q 1550 3584 1831 3584 
Q 2591 3584 2966 3190 
Q 3341 2797 3341 1997 
z
" transform="scale(0.015625)"/>
       <path id="DejaVuSans-6c" d="M 603 4863 
L 1178 4863 
L 1178 0 
L 603 0 
L 603 4863 
z
" transform="scale(0.015625)"/>
       <path id="DejaVuSans-75" d="M 544 1381 
L 544 3500 
L 1119 3500 
L 1119 1403 
Q 1119 906 1312 657 
Q 1506 409 1894 409 
Q 2359 409 2629 706 
Q 2900 1003 2900 1516 
L 2900 3500 
L 3475 3500 
L 3475 0 
L 2900 0 
L 2900 538 
Q 2691 219 2414 64 
Q 2138 -91 1772 -91 
Q 1169 -91 856 284 
Q 544 659 544 1381 
z
M 1991 3584 
L 1991 3584 
z
" transform="scale(0.015625)"/>
       <path id="DejaVuSans-65" d="M 3597 1894 
L 3597 1613 
L 953 1613 
Q 991 1019 1311 708 
Q 1631 397 2203 397 
Q 2534 397 2845 478 
Q 3156 559 3463 722 
L 3463 178 
Q 3153 47 2828 -22 
Q 2503 -91 2169 -91 
Q 1331 -91 842 396 
Q 353 884 353 1716 
Q 353 2575 817 3079 
Q 1281 3584 2069 3584 
Q 2775 3584 3186 3129 
Q 3597 2675 3597 1894 
z
M 3022 2063 
Q 3016 2534 2758 2815 
Q 2500 3097 2075 3097 
Q 1594 3097 1305 2825 
Q 1016 2553 972 2059 
L 3022 2063 
z
" transform="scale(0.015625)"/>
      </defs>
      <use xlink:href="#DejaVuSans-76"/>
      <use xlink:href="#DejaVuSans-61" x="59.179688"/>
      <use xlink:href="#DejaVuSans-6c" x="120.458984"/>
      <use xlink:href="#DejaVuSans-75" x="148.242188"/>
      <use xlink:href="#DejaVuSans-65" x="211.621094"/>
     </g>
    </g>
   </g>
   <g id="line2d_7">
    <path d="M 52.072177 50.875227 
L 53.747112 51.059632 
L 55.422047 51.244537 
L 57.096981 51.429925 
L 58.771916 51.615797 
L 60.446851 51.802159 
L 62.121786 51.98907 
L 63.79672 52.17645 
L 65.471655 52.364366 
L 67.14659 52.55284 
L 68.821525 52.741818 
L 70.496459 52.931335 
L 72.171394 53.121038 
L 73.846329 53.311605 
L 75.521264 53.502727 
L 77.196198 53.694413 
L 78.871133 53.886666 
L 80.546068 54.079493 
L 82.221003 54.272905 
L 83.895937 54.466902 
L 85.570872 54.661494 
L 87.245807 54.856693 
L 88.920742 55.052495 
L 90.595677 55.248912 
L 92.270611 55.445959 
L 93.945546 55.643628 
L 95.620481 55.841931 
L 97.295416 56.040889 
L 98.97035 56.240486 
L 100.645285 56.440754 
L 102.32022 56.641673 
L 103.995155 56.843262 
L 105.670089 57.045549 
L 107.345024 57.248503 
L 109.019959 57.45215 
L 110.694894 57.656524 
L 112.369828 57.86158 
L 114.044763 58.067383 
L 115.719698 58.27388 
L 117.394633 58.481106 
L 119.069567 58.689126 
L 120.744502 58.897824 
L 122.419437 59.107291 
L 124.094372 59.318462 
L 125.769306 59.527909 
L 127.444241 59.741414 
L 129.119176 59.953101 
L 130.794111 60.165308 
L 132.469045 60.38102 
L 134.14398 60.594339 
L 135.818915 60.810365 
L 137.49385 61.026644 
L 139.168785 61.244043 
L 140.843719 61.462624 
L 142.518654 61.68174 
L 144.193589 61.904133 
L 145.868524 62.124933 
L 147.543458 62.344299 
L 149.218393 62.566918 
L 150.893328 62.792915 
L 152.568263 63.014862 
L 154.243197 63.240211 
L 155.918132 63.46917 
L 157.593067 63.693709 
L 159.268002 63.924733 
L 160.942936 64.150999 
L 162.617871 64.381087 
L 164.292806 64.612175 
L 165.967741 64.844242 
L 167.642675 65.08093 
L 169.31761 65.311423 
L 170.992545 65.546544 
L 172.66748 65.786898 
L 174.342414 66.024246 
L 176.017349 66.258195 
L 177.692284 66.497556 
L 179.367219 66.741487 
L 181.042154 66.98335 
L 182.717088 67.222269 
L 184.392023 67.465629 
L 186.066958 67.711042 
L 187.741893 67.957165 
L 189.416827 68.209804 
L 191.091762 68.452997 
L 192.766697 68.702506 
L 194.441632 68.95372 
L 196.116566 69.205789 
L 197.791501 69.459417 
L 199.466436 69.71414 
L 201.141371 69.970227 
L 202.816305 70.233125 
L 204.49124 70.486288 
L 206.166175 70.746316 
L 207.84111 71.00776 
L 209.516044 71.270548 
L 211.190979 71.535443 
L 212.865914 71.800437 
L 214.540849 72.068283 
L 216.215783 72.33615 
L 217.890718 72.606221 
" clip-path="url(#p2d8d2b8deb)" style="fill: none; stroke: #1f77b4; stroke-width: 1.5; stroke-linecap: square"/>
   </g>
   <g id="patch_3">
    <path d="M 43.78125 99.300272 
L 43.78125 20.798437 
" style="fill: none; stroke: #000000; stroke-width: 0.8; stroke-linejoin: miter; stroke-linecap: square"/>
   </g>
   <g id="patch_4">
    <path d="M 43.78125 99.300272 
L 226.181645 99.300272 
" style="fill: none; stroke: #000000; stroke-width: 0.8; stroke-linejoin: miter; stroke-linecap: square"/>
   </g>
   <g id="text_4">
    <!-- fit_amp = True -->
    <g transform="translate(98.278323 14.798437) scale(0.1 -0.1)">
     <defs>
      <path id="DejaVuSans-66" d="M 2375 4863 
L 2375 4384 
L 1825 4384 
Q 1516 4384 1395 4259 
Q 1275 4134 1275 3809 
L 1275 3500 
L 2222 3500 
L 2222 3053 
L 1275 3053 
L 1275 0 
L 697 0 
L 697 3053 
L 147 3053 
L 147 3500 
L 697 3500 
L 697 3744 
Q 697 4328 969 4595 
Q 1241 4863 1831 4863 
L 2375 4863 
z
" transform="scale(0.015625)"/>
      <path id="DejaVuSans-69" d="M 603 3500 
L 1178 3500 
L 1178 0 
L 603 0 
L 603 3500 
z
M 603 4863 
L 1178 4863 
L 1178 4134 
L 603 4134 
L 603 4863 
z
" transform="scale(0.015625)"/>
      <path id="DejaVuSans-74" d="M 1172 4494 
L 1172 3500 
L 2356 3500 
L 2356 3053 
L 1172 3053 
L 1172 1153 
Q 1172 725 1289 603 
Q 1406 481 1766 481 
L 2356 481 
L 2356 0 
L 1766 0 
Q 1100 0 847 248 
Q 594 497 594 1153 
L 594 3053 
L 172 3053 
L 172 3500 
L 594 3500 
L 594 4494 
L 1172 4494 
z
" transform="scale(0.015625)"/>
      <path id="DejaVuSans-5f" d="M 3263 -1063 
L 3263 -1509 
L -63 -1509 
L -63 -1063 
L 3263 -1063 
z
" transform="scale(0.015625)"/>
      <path id="DejaVuSans-6d" d="M 3328 2828 
Q 3544 3216 3844 3400 
Q 4144 3584 4550 3584 
Q 5097 3584 5394 3201 
Q 5691 2819 5691 2113 
L 5691 0 
L 5113 0 
L 5113 2094 
Q 5113 2597 4934 2840 
Q 4756 3084 4391 3084 
Q 3944 3084 3684 2787 
Q 3425 2491 3425 1978 
L 3425 0 
L 2847 0 
L 2847 2094 
Q 2847 2600 2669 2842 
Q 2491 3084 2119 3084 
Q 1678 3084 1418 2786 
Q 1159 2488 1159 1978 
L 1159 0 
L 581 0 
L 581 3500 
L 1159 3500 
L 1159 2956 
Q 1356 3278 1631 3431 
Q 1906 3584 2284 3584 
Q 2666 3584 2933 3390 
Q 3200 3197 3328 2828 
z
" transform="scale(0.015625)"/>
      <path id="DejaVuSans-70" d="M 1159 525 
L 1159 -1331 
L 581 -1331 
L 581 3500 
L 1159 3500 
L 1159 2969 
Q 1341 3281 1617 3432 
Q 1894 3584 2278 3584 
Q 2916 3584 3314 3078 
Q 3713 2572 3713 1747 
Q 3713 922 3314 415 
Q 2916 -91 2278 -91 
Q 1894 -91 1617 61 
Q 1341 213 1159 525 
z
M 3116 1747 
Q 3116 2381 2855 2742 
Q 2594 3103 2138 3103 
Q 1681 3103 1420 2742 
Q 1159 2381 1159 1747 
Q 1159 1113 1420 752 
Q 1681 391 2138 391 
Q 2594 391 2855 752 
Q 3116 1113 3116 1747 
z
" transform="scale(0.015625)"/>
      <path id="DejaVuSans-20" transform="scale(0.015625)"/>
      <path id="DejaVuSans-3d" d="M 678 2906 
L 4684 2906 
L 4684 2381 
L 678 2381 
L 678 2906 
z
M 678 1631 
L 4684 1631 
L 4684 1100 
L 678 1100 
L 678 1631 
z
" transform="scale(0.015625)"/>
      <path id="DejaVuSans-54" d="M -19 4666 
L 3928 4666 
L 3928 4134 
L 2272 4134 
L 2272 0 
L 1638 0 
L 1638 4134 
L -19 4134 
L -19 4666 
z
" transform="scale(0.015625)"/>
      <path id="DejaVuSans-72" d="M 2631 2963 
Q 2534 3019 2420 3045 
Q 2306 3072 2169 3072 
Q 1681 3072 1420 2755 
Q 1159 2438 1159 1844 
L 1159 0 
L 581 0 
L 581 3500 
L 1159 3500 
L 1159 2956 
Q 1341 3275 1631 3429 
Q 1922 3584 2338 3584 
Q 2397 3584 2469 3576 
Q 2541 3569 2628 3553 
L 2631 2963 
z
" transform="scale(0.015625)"/>
     </defs>
     <use xlink:href="#DejaVuSans-66"/>
     <use xlink:href="#DejaVuSans-69" x="35.205078"/>
     <use xlink:href="#DejaVuSans-74" x="62.988281"/>
     <use xlink:href="#DejaVuSans-5f" x="102.197266"/>
     <use xlink:href="#DejaVuSans-61" x="152.197266"/>
     <use xlink:href="#DejaVuSans-6d" x="213.476562"/>
     <use xlink:href="#DejaVuSans-70" x="310.888672"/>
     <use xlink:href="#DejaVuSans-20" x="374.365234"/>
     <use xlink:href="#DejaVuSans-3d" x="406.152344"/>
     <use xlink:href="#DejaVuSans-20" x="489.941406"/>
     <use xlink:href="#DejaVuSans-54" x="521.728516"/>
     <use xlink:href="#DejaVuSans-72" x="568.0625"/>
     <use xlink:href="#DejaVuSans-75" x="609.175781"/>
     <use xlink:href="#DejaVuSans-65" x="672.554688"/>
    </g>
   </g>
  </g>
  <g id="axes_2">
   <g id="patch_5">
    <path d="M 240.481645 99.300272 
L 422.882041 99.300272 
L 422.882041 20.798437 
L 240.481645 20.798437 
z
" style="fill: #ffffff"/>
   </g>
   <g id="PolyCollection_2"/>
   <g id="matplotlib.axis_3">
    <g id="xtick_5">
     <g id="line2d_8">
      <g>
       <use xlink:href="#meafc10a207" x="248.772572" y="99.300272" style="stroke: #000000; stroke-width: 0.8"/>
      </g>
     </g>
    </g>
    <g id="xtick_6">
     <g id="line2d_9">
      <g>
       <use xlink:href="#meafc10a207" x="304.045419" y="99.300272" style="stroke: #000000; stroke-width: 0.8"/>
      </g>
     </g>
    </g>
    <g id="xtick_7">
     <g id="line2d_10">
      <g>
       <use xlink:href="#meafc10a207" x="359.318266" y="99.300272" style="stroke: #000000; stroke-width: 0.8"/>
      </g>
     </g>
    </g>
    <g id="xtick_8">
     <g id="line2d_11">
      <g>
       <use xlink:href="#meafc10a207" x="414.591113" y="99.300272" style="stroke: #000000; stroke-width: 0.8"/>
      </g>
     </g>
    </g>
   </g>
   <g id="matplotlib.axis_4">
    <g id="ytick_3">
     <g id="line2d_12">
      <g>
       <use xlink:href="#m133ab426a9" x="240.481645" y="88.838376" style="stroke: #000000; stroke-width: 0.8"/>
      </g>
     </g>
    </g>
    <g id="ytick_4">
     <g id="line2d_13">
      <g>
       <use xlink:href="#m133ab426a9" x="240.481645" y="50.875227" style="stroke: #000000; stroke-width: 0.8"/>
      </g>
     </g>
    </g>
   </g>
   <g id="line2d_14">
    <path d="M 248.772572 42.045735 
L 250.447507 41.15033 
L 252.122442 41.263961 
L 253.797377 40.205989 
L 255.472311 38.950252 
L 257.147246 39.063019 
L 258.822181 37.561973 
L 260.497116 37.67536 
L 262.17205 37.788583 
L 263.846985 35.980427 
L 265.52192 36.095585 
L 267.196855 36.210563 
L 268.871789 36.325222 
L 270.546724 34.127781 
L 272.221659 34.24625 
L 273.896594 34.364517 
L 275.571528 34.48241 
L 277.246463 34.600019 
L 278.921398 34.717439 
L 280.596333 32.026103 
L 282.271267 32.149859 
L 283.946202 32.273735 
L 285.621137 32.396819 
L 287.296072 32.519585 
L 288.971007 32.642143 
L 290.645941 32.764292 
L 292.320876 32.886499 
L 293.995811 33.00815 
L 295.670746 33.129371 
L 297.34568 29.825916 
L 299.020615 29.957454 
L 300.69555 30.088256 
L 302.370485 30.218499 
L 304.045419 30.34855 
L 305.720354 30.478241 
L 307.395289 30.608112 
L 309.070224 30.73676 
L 310.745158 30.865795 
L 312.420093 30.994113 
L 314.095028 31.122084 
L 315.769963 31.249706 
L 317.444897 31.377822 
L 319.119832 31.504755 
L 320.794767 31.629863 
L 322.469702 27.594742 
L 324.144636 27.735995 
L 325.819571 27.877607 
L 327.494506 28.017128 
L 329.169441 28.158038 
L 330.844376 28.296534 
L 332.51931 28.435601 
L 334.194245 28.574211 
L 335.86918 28.712395 
L 337.544115 28.850182 
L 339.219049 28.986262 
L 340.893984 29.124534 
L 342.568919 29.261047 
L 344.243854 29.395892 
L 345.918788 29.531594 
L 347.593723 29.66676 
L 349.268658 29.801808 
L 350.943593 29.936324 
L 352.618527 30.07027 
L 354.293462 30.204135 
L 355.968397 30.337281 
L 357.643332 30.470366 
L 359.318266 25.625318 
L 360.993201 25.778529 
L 362.668136 25.931173 
L 364.343071 26.083199 
L 366.018005 26.234802 
L 367.69294 26.385787 
L 369.367875 26.536146 
L 371.04281 26.686041 
L 372.717744 26.835482 
L 374.392679 26.984301 
L 376.067614 27.132486 
L 377.742549 27.280234 
L 379.417484 27.427571 
L 381.092418 27.570776 
L 382.767353 27.720452 
L 384.442288 27.866113 
L 386.117223 28.011122 
L 387.792157 28.155886 
L 389.467092 28.296708 
L 391.142027 28.443616 
L 392.816962 28.586565 
L 394.491896 28.729321 
L 396.166831 28.871257 
L 397.841766 29.013023 
L 399.516701 29.150995 
L 401.191635 29.292939 
L 402.86657 29.433094 
L 404.541505 29.572733 
L 406.21644 29.714048 
L 407.891374 29.852108 
L 409.566309 29.990851 
L 411.241244 24.366703 
L 412.916179 24.535406 
L 414.591113 24.698614 
" clip-path="url(#p6517d9efb7)" style="fill: none; stroke: #1f77b4; stroke-width: 1.5; stroke-linecap: square"/>
   </g>
   <g id="patch_6">
    <path d="M 240.481645 99.300272 
L 240.481645 20.798437 
" style="fill: none; stroke: #000000; stroke-width: 0.8; stroke-linejoin: miter; stroke-linecap: square"/>
   </g>
   <g id="patch_7">
    <path d="M 240.481645 99.300272 
L 422.882041 99.300272 
" style="fill: none; stroke: #000000; stroke-width: 0.8; stroke-linejoin: miter; stroke-linecap: square"/>
   </g>
   <g id="text_5">
    <!-- fit_amp = False -->
    <g transform="translate(293.041999 14.798437) scale(0.1 -0.1)">
     <defs>
      <path id="DejaVuSans-46" d="M 628 4666 
L 3309 4666 
L 3309 4134 
L 1259 4134 
L 1259 2759 
L 3109 2759 
L 3109 2228 
L 1259 2228 
L 1259 0 
L 628 0 
L 628 4666 
z
" transform="scale(0.015625)"/>
      <path id="DejaVuSans-73" d="M 2834 3397 
L 2834 2853 
Q 2591 2978 2328 3040 
Q 2066 3103 1784 3103 
Q 1356 3103 1142 2972 
Q 928 2841 928 2578 
Q 928 2378 1081 2264 
Q 1234 2150 1697 2047 
L 1894 2003 
Q 2506 1872 2764 1633 
Q 3022 1394 3022 966 
Q 3022 478 2636 193 
Q 2250 -91 1575 -91 
Q 1294 -91 989 -36 
Q 684 19 347 128 
L 347 722 
Q 666 556 975 473 
Q 1284 391 1588 391 
Q 1994 391 2212 530 
Q 2431 669 2431 922 
Q 2431 1156 2273 1281 
Q 2116 1406 1581 1522 
L 1381 1569 
Q 847 1681 609 1914 
Q 372 2147 372 2553 
Q 372 3047 722 3315 
Q 1072 3584 1716 3584 
Q 2034 3584 2315 3537 
Q 2597 3491 2834 3397 
z
" transform="scale(0.015625)"/>
     </defs>
     <use xlink:href="#DejaVuSans-66"/>
     <use xlink:href="#DejaVuSans-69" x="35.205078"/>
     <use xlink:href="#DejaVuSans-74" x="62.988281"/>
     <use xlink:href="#DejaVuSans-5f" x="102.197266"/>
     <use xlink:href="#DejaVuSans-61" x="152.197266"/>
     <use xlink:href="#DejaVuSans-6d" x="213.476562"/>
     <use xlink:href="#DejaVuSans-70" x="310.888672"/>
     <use xlink:href="#DejaVuSans-20" x="374.365234"/>
     <use xlink:href="#DejaVuSans-3d" x="406.152344"/>
     <use xlink:href="#DejaVuSans-20" x="489.941406"/>
     <use xlink:href="#DejaVuSans-46" x="521.728516"/>
     <use xlink:href="#DejaVuSans-61" x="570.123047"/>
     <use xlink:href="#DejaVuSans-6c" x="631.402344"/>
     <use xlink:href="#DejaVuSans-73" x="659.185547"/>
     <use xlink:href="#DejaVuSans-65" x="711.285156"/>
    </g>
   </g>
  </g>
  <g id="axes_3">
   <g id="patch_8">
    <path d="M 437.182041 99.300272 
L 619.582436 99.300272 
L 619.582436 20.798437 
L 437.182041 20.798437 
z
" style="fill: #ffffff"/>
   </g>
   <g id="PolyCollection_3"/>
   <g id="matplotlib.axis_5">
    <g id="xtick_9">
     <g id="line2d_15">
      <g>
       <use xlink:href="#meafc10a207" x="445.472968" y="99.300272" style="stroke: #000000; stroke-width: 0.8"/>
      </g>
     </g>
    </g>
    <g id="xtick_10">
     <g id="line2d_16">
      <g>
       <use xlink:href="#meafc10a207" x="500.745815" y="99.300272" style="stroke: #000000; stroke-width: 0.8"/>
      </g>
     </g>
    </g>
    <g id="xtick_11">
     <g id="line2d_17">
      <g>
       <use xlink:href="#meafc10a207" x="556.018662" y="99.300272" style="stroke: #000000; stroke-width: 0.8"/>
      </g>
     </g>
    </g>
    <g id="xtick_12">
     <g id="line2d_18">
      <g>
       <use xlink:href="#meafc10a207" x="611.291509" y="99.300272" style="stroke: #000000; stroke-width: 0.8"/>
      </g>
     </g>
    </g>
   </g>
   <g id="matplotlib.axis_6">
    <g id="ytick_5">
     <g id="line2d_19">
      <g>
       <use xlink:href="#m133ab426a9" x="437.182041" y="88.838376" style="stroke: #000000; stroke-width: 0.8"/>
      </g>
     </g>
    </g>
    <g id="ytick_6">
     <g id="line2d_20">
      <g>
       <use xlink:href="#m133ab426a9" x="437.182041" y="50.875227" style="stroke: #000000; stroke-width: 0.8"/>
      </g>
     </g>
    </g>
   </g>
   <g id="line2d_21">
    <path d="M 445.472968 53.079446 
L 447.147902 53.441591 
L 448.822837 53.804075 
L 450.497772 54.166918 
L 452.172707 54.530138 
L 453.847641 54.893756 
L 455.522576 55.25779 
L 457.197511 55.622262 
L 458.872446 55.98719 
L 460.54738 56.352596 
L 462.222315 56.718499 
L 463.89725 57.084921 
L 465.572185 57.451881 
L 467.247119 57.819401 
L 468.922054 58.1875 
L 470.596989 58.556203 
L 472.271924 58.925529 
L 473.946858 59.2955 
L 475.621793 59.666139 
L 477.296728 60.037467 
L 478.971663 60.409507 
L 480.646598 60.782284 
L 482.321532 61.155816 
L 483.996467 61.53013 
L 485.671402 61.905247 
L 487.346337 62.281194 
L 489.021271 62.657995 
L 490.696206 63.035673 
L 492.371141 63.414253 
L 494.046076 63.793763 
L 495.72101 64.174227 
L 497.395945 64.555672 
L 499.07088 64.938127 
L 500.745815 65.321615 
L 502.420749 65.706167 
L 504.095684 66.091813 
L 505.770619 66.47913 
L 507.445554 66.867107 
L 509.120488 67.25627 
L 510.795423 67.646652 
L 512.470358 68.038284 
L 514.145293 68.431198 
L 515.820227 68.82543 
L 517.495162 69.220826 
L 519.170097 69.617773 
L 520.845032 70.016155 
L 522.519966 70.416235 
L 524.194901 70.817326 
L 525.869836 71.220489 
L 527.544771 71.624654 
L 529.219706 72.030732 
L 530.89464 72.438474 
L 532.569575 72.847926 
L 534.24451 73.259139 
L 535.919445 73.672156 
L 537.594379 74.086931 
L 539.269314 74.503697 
L 540.944249 74.922564 
L 542.619184 75.343338 
L 544.294118 75.766005 
L 545.969053 76.191174 
L 547.643988 76.618362 
L 549.318923 77.047572 
L 550.993857 77.479623 
L 552.668792 77.913524 
L 554.343727 78.350533 
L 556.018662 78.789808 
L 557.693596 79.231722 
L 559.368531 79.676388 
L 561.043466 80.12586 
L 562.718401 80.574301 
L 564.393335 81.030096 
L 566.06827 81.486804 
L 567.743205 81.946833 
L 569.41814 82.410331 
L 571.093075 82.877281 
L 572.768009 83.347801 
L 574.442944 83.822211 
L 576.117879 84.30069 
L 577.792814 84.781818 
L 579.467748 85.270026 
L 581.142683 85.761357 
L 582.817618 86.257245 
L 584.492553 86.758375 
L 586.167487 87.26248 
L 587.842422 87.776118 
L 589.517357 88.2932 
L 591.192292 88.816752 
L 592.867226 89.34618 
L 594.542161 89.882857 
L 596.217096 90.423097 
L 597.892031 90.977526 
L 599.566965 91.536703 
L 601.2419 92.104501 
L 602.916835 92.6815 
L 604.59177 93.267886 
L 606.266704 93.865957 
L 607.941639 94.47442 
L 609.616574 95.096699 
L 611.291509 95.732007 
" clip-path="url(#p57032e9594)" style="fill: none; stroke: #1f77b4; stroke-width: 1.5; stroke-linecap: square"/>
   </g>
   <g id="patch_9">
    <path d="M 437.182041 99.300272 
L 437.182041 20.798437 
" style="fill: none; stroke: #000000; stroke-width: 0.8; stroke-linejoin: miter; stroke-linecap: square"/>
   </g>
   <g id="patch_10">
    <path d="M 437.182041 99.300272 
L 619.582436 99.300272 
" style="fill: none; stroke: #000000; stroke-width: 0.8; stroke-linejoin: miter; stroke-linecap: square"/>
   </g>
   <g id="text_6">
    <!-- variable = tau_d -->
    <g transform="translate(625.588256 18.642324) rotate(-270) scale(0.1 -0.1)">
     <defs>
      <path id="DejaVuSans-62" d="M 3116 1747 
Q 3116 2381 2855 2742 
Q 2594 3103 2138 3103 
Q 1681 3103 1420 2742 
Q 1159 2381 1159 1747 
Q 1159 1113 1420 752 
Q 1681 391 2138 391 
Q 2594 391 2855 752 
Q 3116 1113 3116 1747 
z
M 1159 2969 
Q 1341 3281 1617 3432 
Q 1894 3584 2278 3584 
Q 2916 3584 3314 3078 
Q 3713 2572 3713 1747 
Q 3713 922 3314 415 
Q 2916 -91 2278 -91 
Q 1894 -91 1617 61 
Q 1341 213 1159 525 
L 1159 0 
L 581 0 
L 581 4863 
L 1159 4863 
L 1159 2969 
z
" transform="scale(0.015625)"/>
      <path id="DejaVuSans-64" d="M 2906 2969 
L 2906 4863 
L 3481 4863 
L 3481 0 
L 2906 0 
L 2906 525 
Q 2725 213 2448 61 
Q 2172 -91 1784 -91 
Q 1150 -91 751 415 
Q 353 922 353 1747 
Q 353 2572 751 3078 
Q 1150 3584 1784 3584 
Q 2172 3584 2448 3432 
Q 2725 3281 2906 2969 
z
M 947 1747 
Q 947 1113 1208 752 
Q 1469 391 1925 391 
Q 2381 391 2643 752 
Q 2906 1113 2906 1747 
Q 2906 2381 2643 2742 
Q 2381 3103 1925 3103 
Q 1469 3103 1208 2742 
Q 947 2381 947 1747 
z
" transform="scale(0.015625)"/>
     </defs>
     <use xlink:href="#DejaVuSans-76"/>
     <use xlink:href="#DejaVuSans-61" x="59.179688"/>
     <use xlink:href="#DejaVuSans-72" x="120.458984"/>
     <use xlink:href="#DejaVuSans-69" x="161.572266"/>
     <use xlink:href="#DejaVuSans-61" x="189.355469"/>
     <use xlink:href="#DejaVuSans-62" x="250.634766"/>
     <use xlink:href="#DejaVuSans-6c" x="314.111328"/>
     <use xlink:href="#DejaVuSans-65" x="341.894531"/>
     <use xlink:href="#DejaVuSans-20" x="403.417969"/>
     <use xlink:href="#DejaVuSans-3d" x="435.205078"/>
     <use xlink:href="#DejaVuSans-20" x="518.994141"/>
     <use xlink:href="#DejaVuSans-74" x="550.78125"/>
     <use xlink:href="#DejaVuSans-61" x="589.990234"/>
     <use xlink:href="#DejaVuSans-75" x="651.269531"/>
     <use xlink:href="#DejaVuSans-5f" x="714.648438"/>
     <use xlink:href="#DejaVuSans-64" x="764.648438"/>
    </g>
   </g>
   <g id="text_7">
    <!-- fit_amp = norm -->
    <g transform="translate(489.229894 14.798437) scale(0.1 -0.1)">
     <defs>
      <path id="DejaVuSans-6e" d="M 3513 2113 
L 3513 0 
L 2938 0 
L 2938 2094 
Q 2938 2591 2744 2837 
Q 2550 3084 2163 3084 
Q 1697 3084 1428 2787 
Q 1159 2491 1159 1978 
L 1159 0 
L 581 0 
L 581 3500 
L 1159 3500 
L 1159 2956 
Q 1366 3272 1645 3428 
Q 1925 3584 2291 3584 
Q 2894 3584 3203 3211 
Q 3513 2838 3513 2113 
z
" transform="scale(0.015625)"/>
      <path id="DejaVuSans-6f" d="M 1959 3097 
Q 1497 3097 1228 2736 
Q 959 2375 959 1747 
Q 959 1119 1226 758 
Q 1494 397 1959 397 
Q 2419 397 2687 759 
Q 2956 1122 2956 1747 
Q 2956 2369 2687 2733 
Q 2419 3097 1959 3097 
z
M 1959 3584 
Q 2709 3584 3137 3096 
Q 3566 2609 3566 1747 
Q 3566 888 3137 398 
Q 2709 -91 1959 -91 
Q 1206 -91 779 398 
Q 353 888 353 1747 
Q 353 2609 779 3096 
Q 1206 3584 1959 3584 
z
" transform="scale(0.015625)"/>
     </defs>
     <use xlink:href="#DejaVuSans-66"/>
     <use xlink:href="#DejaVuSans-69" x="35.205078"/>
     <use xlink:href="#DejaVuSans-74" x="62.988281"/>
     <use xlink:href="#DejaVuSans-5f" x="102.197266"/>
     <use xlink:href="#DejaVuSans-61" x="152.197266"/>
     <use xlink:href="#DejaVuSans-6d" x="213.476562"/>
     <use xlink:href="#DejaVuSans-70" x="310.888672"/>
     <use xlink:href="#DejaVuSans-20" x="374.365234"/>
     <use xlink:href="#DejaVuSans-3d" x="406.152344"/>
     <use xlink:href="#DejaVuSans-20" x="489.941406"/>
     <use xlink:href="#DejaVuSans-6e" x="521.728516"/>
     <use xlink:href="#DejaVuSans-6f" x="585.107422"/>
     <use xlink:href="#DejaVuSans-72" x="646.289062"/>
     <use xlink:href="#DejaVuSans-6d" x="685.652344"/>
    </g>
   </g>
  </g>
  <g id="axes_4">
   <g id="patch_11">
    <path d="M 43.78125 194.906327 
L 226.181645 194.906327 
L 226.181645 116.404493 
L 43.78125 116.404493 
z
" style="fill: #ffffff"/>
   </g>
   <g id="PolyCollection_4"/>
   <g id="matplotlib.axis_7">
    <g id="xtick_13">
     <g id="line2d_22">
      <g>
       <use xlink:href="#meafc10a207" x="52.072177" y="194.906327" style="stroke: #000000; stroke-width: 0.8"/>
      </g>
     </g>
    </g>
    <g id="xtick_14">
     <g id="line2d_23">
      <g>
       <use xlink:href="#meafc10a207" x="107.345024" y="194.906327" style="stroke: #000000; stroke-width: 0.8"/>
      </g>
     </g>
    </g>
    <g id="xtick_15">
     <g id="line2d_24">
      <g>
       <use xlink:href="#meafc10a207" x="162.617871" y="194.906327" style="stroke: #000000; stroke-width: 0.8"/>
      </g>
     </g>
    </g>
    <g id="xtick_16">
     <g id="line2d_25">
      <g>
       <use xlink:href="#meafc10a207" x="217.890718" y="194.906327" style="stroke: #000000; stroke-width: 0.8"/>
      </g>
     </g>
    </g>
   </g>
   <g id="matplotlib.axis_8">
    <g id="ytick_7">
     <g id="line2d_26">
      <g>
       <use xlink:href="#m133ab426a9" x="43.78125" y="173.149161" style="stroke: #000000; stroke-width: 0.8"/>
      </g>
     </g>
     <g id="text_8">
      <!-- 1.0 -->
      <g transform="translate(20.878125 176.94838) scale(0.1 -0.1)">
       <defs>
        <path id="DejaVuSans-31" d="M 794 531 
L 1825 531 
L 1825 4091 
L 703 3866 
L 703 4441 
L 1819 4666 
L 2450 4666 
L 2450 531 
L 3481 531 
L 3481 0 
L 794 0 
L 794 531 
z
" transform="scale(0.015625)"/>
        <path id="DejaVuSans-2e" d="M 684 794 
L 1344 794 
L 1344 0 
L 684 0 
L 684 794 
z
" transform="scale(0.015625)"/>
        <path id="DejaVuSans-30" d="M 2034 4250 
Q 1547 4250 1301 3770 
Q 1056 3291 1056 2328 
Q 1056 1369 1301 889 
Q 1547 409 2034 409 
Q 2525 409 2770 889 
Q 3016 1369 3016 2328 
Q 3016 3291 2770 3770 
Q 2525 4250 2034 4250 
z
M 2034 4750 
Q 2819 4750 3233 4129 
Q 3647 3509 3647 2328 
Q 3647 1150 3233 529 
Q 2819 -91 2034 -91 
Q 1250 -91 836 529 
Q 422 1150 422 2328 
Q 422 3509 836 4129 
Q 1250 4750 2034 4750 
z
" transform="scale(0.015625)"/>
       </defs>
       <use xlink:href="#DejaVuSans-31"/>
       <use xlink:href="#DejaVuSans-2e" x="63.623047"/>
       <use xlink:href="#DejaVuSans-30" x="95.410156"/>
      </g>
     </g>
    </g>
    <g id="ytick_8">
     <g id="line2d_27">
      <g>
       <use xlink:href="#m133ab426a9" x="43.78125" y="144.559078" style="stroke: #000000; stroke-width: 0.8"/>
      </g>
     </g>
     <g id="text_9">
      <!-- 1.5 -->
      <g transform="translate(20.878125 148.358297) scale(0.1 -0.1)">
       <defs>
        <path id="DejaVuSans-35" d="M 691 4666 
L 3169 4666 
L 3169 4134 
L 1269 4134 
L 1269 2991 
Q 1406 3038 1543 3061 
Q 1681 3084 1819 3084 
Q 2600 3084 3056 2656 
Q 3513 2228 3513 1497 
Q 3513 744 3044 326 
Q 2575 -91 1722 -91 
Q 1428 -91 1123 -41 
Q 819 9 494 109 
L 494 744 
Q 775 591 1075 516 
Q 1375 441 1709 441 
Q 2250 441 2565 725 
Q 2881 1009 2881 1497 
Q 2881 1984 2565 2268 
Q 2250 2553 1709 2553 
Q 1456 2553 1204 2497 
Q 953 2441 691 2322 
L 691 4666 
z
" transform="scale(0.015625)"/>
       </defs>
       <use xlink:href="#DejaVuSans-31"/>
       <use xlink:href="#DejaVuSans-2e" x="63.623047"/>
       <use xlink:href="#DejaVuSans-35" x="95.410156"/>
      </g>
     </g>
    </g>
    <g id="text_10">
     <!-- value -->
     <g transform="translate(14.798438 169.313222) rotate(-90) scale(0.1 -0.1)">
      <use xlink:href="#DejaVuSans-76"/>
      <use xlink:href="#DejaVuSans-61" x="59.179688"/>
      <use xlink:href="#DejaVuSans-6c" x="120.458984"/>
      <use xlink:href="#DejaVuSans-75" x="148.242188"/>
      <use xlink:href="#DejaVuSans-65" x="211.621094"/>
     </g>
    </g>
   </g>
   <g id="line2d_28">
    <path d="M 52.072177 173.149161 
L 53.747112 172.966436 
L 55.422047 172.782902 
L 57.096981 172.598569 
L 58.771916 172.413433 
L 60.446851 172.227485 
L 62.121786 172.040665 
L 63.79672 171.853045 
L 65.471655 171.664555 
L 67.14659 171.475173 
L 68.821525 171.284945 
L 70.496459 171.093832 
L 72.171394 170.902155 
L 73.846329 170.709288 
L 75.521264 170.515508 
L 77.196198 170.320803 
L 78.871133 170.125167 
L 80.546068 169.928585 
L 82.221003 169.731044 
L 83.895937 169.532539 
L 85.570872 169.333056 
L 87.245807 169.132577 
L 88.920742 168.931101 
L 90.595677 168.728613 
L 92.270611 168.525091 
L 93.945546 168.320539 
L 95.620481 168.114939 
L 97.295416 167.908265 
L 98.97035 167.700527 
L 100.645285 167.49169 
L 102.32022 167.281764 
L 103.995155 167.070727 
L 105.670089 166.858546 
L 107.345024 166.645243 
L 109.019959 166.430787 
L 110.694894 166.21514 
L 112.369828 165.998337 
L 114.044763 165.780309 
L 115.719698 165.5611 
L 117.394633 165.340668 
L 119.069567 165.118946 
L 120.744502 164.896035 
L 122.419437 164.67184 
L 124.094372 164.445465 
L 125.769306 164.220167 
L 127.444241 163.990421 
L 129.119176 163.761832 
L 130.794111 163.532161 
L 132.469045 163.298531 
L 134.14398 163.066597 
L 135.818915 162.831449 
L 137.49385 162.595438 
L 139.168785 162.357719 
L 140.843719 162.118218 
L 142.518654 161.877555 
L 144.193589 161.633046 
L 145.868524 161.389426 
L 147.543458 161.14654 
L 149.218393 160.899796 
L 150.893328 160.649046 
L 152.568263 160.401577 
L 154.243197 160.150055 
L 155.918132 159.894244 
L 157.593067 159.642076 
L 159.268002 159.382739 
L 160.942936 159.12738 
L 162.617871 158.867458 
L 164.292806 158.605765 
L 165.967741 158.342306 
L 167.642675 158.073402 
L 169.31761 157.809925 
L 170.992545 157.540965 
L 172.66748 157.265867 
L 174.342414 156.992957 
L 176.017349 156.722655 
L 177.692284 156.445971 
L 179.367219 156.163712 
L 181.042154 155.882659 
L 182.717088 155.603728 
L 184.392023 155.319292 
L 186.066958 155.031779 
L 187.741893 154.742566 
L 189.416827 154.445566 
L 191.091762 154.157431 
L 192.766697 153.861678 
L 194.441632 153.563097 
L 196.116566 153.26256 
L 197.791501 152.959297 
L 199.466436 152.653778 
L 201.141371 152.345691 
L 202.816305 152.029172 
L 204.49124 151.721934 
L 206.166175 151.406147 
L 207.84111 151.087632 
L 209.516044 150.766433 
L 211.190979 150.441688 
L 212.865914 150.115558 
L 214.540849 149.785003 
L 216.215783 149.453097 
L 217.890718 149.117401 
" clip-path="url(#p661279fa49)" style="fill: none; stroke: #ff7f0e; stroke-width: 1.5; stroke-linecap: square"/>
   </g>
   <g id="patch_12">
    <path d="M 43.78125 194.906327 
L 43.78125 116.404493 
" style="fill: none; stroke: #000000; stroke-width: 0.8; stroke-linejoin: miter; stroke-linecap: square"/>
   </g>
   <g id="patch_13">
    <path d="M 43.78125 194.906327 
L 226.181645 194.906327 
" style="fill: none; stroke: #000000; stroke-width: 0.8; stroke-linejoin: miter; stroke-linecap: square"/>
   </g>
  </g>
  <g id="axes_5">
   <g id="patch_14">
    <path d="M 240.481645 194.906327 
L 422.882041 194.906327 
L 422.882041 116.404493 
L 240.481645 116.404493 
z
" style="fill: #ffffff"/>
   </g>
   <g id="PolyCollection_5"/>
   <g id="matplotlib.axis_9">
    <g id="xtick_17">
     <g id="line2d_29">
      <g>
       <use xlink:href="#meafc10a207" x="248.772572" y="194.906327" style="stroke: #000000; stroke-width: 0.8"/>
      </g>
     </g>
    </g>
    <g id="xtick_18">
     <g id="line2d_30">
      <g>
       <use xlink:href="#meafc10a207" x="304.045419" y="194.906327" style="stroke: #000000; stroke-width: 0.8"/>
      </g>
     </g>
    </g>
    <g id="xtick_19">
     <g id="line2d_31">
      <g>
       <use xlink:href="#meafc10a207" x="359.318266" y="194.906327" style="stroke: #000000; stroke-width: 0.8"/>
      </g>
     </g>
    </g>
    <g id="xtick_20">
     <g id="line2d_32">
      <g>
       <use xlink:href="#meafc10a207" x="414.591113" y="194.906327" style="stroke: #000000; stroke-width: 0.8"/>
      </g>
     </g>
    </g>
   </g>
   <g id="matplotlib.axis_10">
    <g id="ytick_9">
     <g id="line2d_33">
      <g>
       <use xlink:href="#m133ab426a9" x="240.481645" y="173.149161" style="stroke: #000000; stroke-width: 0.8"/>
      </g>
     </g>
    </g>
    <g id="ytick_10">
     <g id="line2d_34">
      <g>
       <use xlink:href="#m133ab426a9" x="240.481645" y="144.559078" style="stroke: #000000; stroke-width: 0.8"/>
      </g>
     </g>
    </g>
   </g>
   <g id="line2d_35">
    <path d="M 248.772572 180.783655 
L 250.447507 181.476234 
L 252.122442 181.373395 
L 253.797377 182.180251 
L 255.472311 183.119749 
L 257.147246 183.020545 
L 258.822181 184.119973 
L 260.497116 184.0219 
L 262.17205 183.924131 
L 263.846985 185.216485 
L 265.52192 185.119424 
L 267.196855 185.022089 
L 268.871789 184.925329 
L 270.546724 186.450995 
L 272.221659 186.354064 
L 273.896594 186.257257 
L 275.571528 186.16065 
L 277.246463 186.064202 
L 278.921398 185.96787 
L 280.596333 187.776775 
L 282.271267 187.679138 
L 283.946202 187.582197 
L 285.621137 187.484864 
L 287.296072 187.387705 
L 288.971007 187.290639 
L 290.645941 187.193856 
L 292.320876 187.096943 
L 293.995811 187.000371 
L 295.670746 186.90408 
L 297.34568 189.046946 
L 299.020615 188.949188 
L 300.69555 188.850283 
L 302.370485 188.750188 
L 304.045419 188.651608 
L 305.720354 188.553211 
L 307.395289 188.454887 
L 309.070224 188.357052 
L 310.745158 188.259217 
L 312.420093 188.161483 
L 314.095028 188.063922 
L 315.769963 187.966844 
L 317.444897 187.869074 
L 319.119832 187.772016 
L 320.794767 187.675307 
L 322.469702 190.205262 
L 324.144636 190.10383 
L 325.819571 190.000765 
L 327.494506 189.901575 
L 329.169441 189.799307 
L 330.844376 189.700114 
L 332.51931 189.599675 
L 334.194245 189.499439 
L 335.86918 189.399393 
L 337.544115 189.299532 
L 339.219049 189.200647 
L 340.893984 189.100259 
L 342.568919 189.00095 
L 344.243854 188.902706 
L 345.918788 188.803775 
L 347.593723 188.704979 
L 349.268658 188.606422 
L 350.943593 188.507997 
L 352.618527 188.409709 
L 354.293462 188.311696 
L 355.968397 188.213737 
L 357.643332 188.116084 
L 359.318266 191.05196 
L 360.993201 190.947725 
L 362.668136 190.843775 
L 364.343071 190.740266 
L 366.018005 190.636503 
L 367.69294 190.53323 
L 369.367875 190.430352 
L 371.04281 190.327467 
L 372.717744 190.224694 
L 374.392679 190.122299 
L 376.067614 190.020189 
L 377.742549 189.918205 
L 379.417484 189.816322 
L 381.092418 189.710227 
L 382.767353 189.613415 
L 384.442288 189.512294 
L 386.117223 189.411358 
L 387.792157 189.310641 
L 389.467092 189.205591 
L 391.142027 189.109809 
L 392.816962 189.009628 
L 394.491896 188.909794 
L 396.166831 188.809983 
L 397.841766 188.710586 
L 399.516701 188.606697 
L 401.191635 188.513289 
L 402.86657 188.41435 
L 404.541505 188.315654 
L 406.21644 188.215787 
L 407.891374 188.117524 
L 409.566309 188.019377 
L 411.241244 191.338062 
L 412.916179 191.237047 
L 414.591113 191.131116 
" clip-path="url(#p3f85474560)" style="fill: none; stroke: #ff7f0e; stroke-width: 1.5; stroke-linecap: square"/>
   </g>
   <g id="patch_15">
    <path d="M 240.481645 194.906327 
L 240.481645 116.404493 
" style="fill: none; stroke: #000000; stroke-width: 0.8; stroke-linejoin: miter; stroke-linecap: square"/>
   </g>
   <g id="patch_16">
    <path d="M 240.481645 194.906327 
L 422.882041 194.906327 
" style="fill: none; stroke: #000000; stroke-width: 0.8; stroke-linejoin: miter; stroke-linecap: square"/>
   </g>
  </g>
  <g id="axes_6">
   <g id="patch_17">
    <path d="M 437.182041 194.906327 
L 619.582436 194.906327 
L 619.582436 116.404493 
L 437.182041 116.404493 
z
" style="fill: #ffffff"/>
   </g>
   <g id="PolyCollection_6"/>
   <g id="matplotlib.axis_11">
    <g id="xtick_21">
     <g id="line2d_36">
      <g>
       <use xlink:href="#meafc10a207" x="445.472968" y="194.906327" style="stroke: #000000; stroke-width: 0.8"/>
      </g>
     </g>
    </g>
    <g id="xtick_22">
     <g id="line2d_37">
      <g>
       <use xlink:href="#meafc10a207" x="500.745815" y="194.906327" style="stroke: #000000; stroke-width: 0.8"/>
      </g>
     </g>
    </g>
    <g id="xtick_23">
     <g id="line2d_38">
      <g>
       <use xlink:href="#meafc10a207" x="556.018662" y="194.906327" style="stroke: #000000; stroke-width: 0.8"/>
      </g>
     </g>
    </g>
    <g id="xtick_24">
     <g id="line2d_39">
      <g>
       <use xlink:href="#meafc10a207" x="611.291509" y="194.906327" style="stroke: #000000; stroke-width: 0.8"/>
      </g>
     </g>
    </g>
   </g>
   <g id="matplotlib.axis_12">
    <g id="ytick_11">
     <g id="line2d_40">
      <g>
       <use xlink:href="#m133ab426a9" x="437.182041" y="173.149161" style="stroke: #000000; stroke-width: 0.8"/>
      </g>
     </g>
    </g>
    <g id="ytick_12">
     <g id="line2d_41">
      <g>
       <use xlink:href="#m133ab426a9" x="437.182041" y="144.559078" style="stroke: #000000; stroke-width: 0.8"/>
      </g>
     </g>
    </g>
   </g>
   <g id="line2d_42">
    <path d="M 445.472968 171.949359 
L 447.147902 171.660944 
L 448.822837 171.370379 
L 450.497772 171.077627 
L 452.172707 170.782652 
L 453.847641 170.485415 
L 455.522576 170.185877 
L 457.197511 169.883999 
L 458.872446 169.57974 
L 460.54738 169.27306 
L 462.222315 168.963917 
L 463.89725 168.652269 
L 465.572185 168.338072 
L 467.247119 168.021284 
L 468.922054 167.701861 
L 470.596989 167.379754 
L 472.271924 167.054921 
L 473.946858 166.727312 
L 475.621793 166.39688 
L 477.296728 166.063576 
L 478.971663 165.72735 
L 480.646598 165.388148 
L 482.321532 165.045924 
L 483.996467 164.70062 
L 485.671402 164.352185 
L 487.346337 164.000562 
L 489.021271 163.645689 
L 490.696206 163.287515 
L 492.371141 162.925976 
L 494.046076 162.561011 
L 495.72101 162.192558 
L 497.395945 161.820551 
L 499.07088 161.444922 
L 500.745815 161.065609 
L 502.420749 160.68254 
L 504.095684 160.295636 
L 505.770619 159.903856 
L 507.445554 159.508969 
L 509.120488 159.110017 
L 510.795423 158.706916 
L 512.470358 158.299585 
L 514.145293 157.887938 
L 515.820227 157.471884 
L 517.495162 157.051659 
L 519.170097 156.626553 
L 520.845032 156.196737 
L 522.519966 155.761719 
L 524.194901 155.322651 
L 525.869836 154.877655 
L 527.544771 154.428539 
L 529.219706 153.973687 
L 530.89464 153.513482 
L 532.569575 153.047797 
L 534.24451 152.576494 
L 535.919445 152.099445 
L 537.594379 151.616674 
L 539.269314 151.127721 
L 540.944249 150.632339 
L 542.619184 150.130794 
L 544.294118 149.623043 
L 545.969053 149.107971 
L 547.643988 148.586329 
L 549.318923 148.058036 
L 550.993857 147.521605 
L 552.668792 146.978645 
L 554.343727 146.426911 
L 556.018662 145.867746 
L 557.693596 145.300409 
L 559.368531 144.724601 
L 561.043466 144.136686 
L 562.718401 143.546542 
L 564.393335 142.939664 
L 566.06827 142.326967 
L 567.743205 141.704176 
L 569.41814 141.07088 
L 571.093075 140.426948 
L 572.768009 139.771999 
L 574.442944 139.105301 
L 576.117879 138.426343 
L 577.792814 137.737397 
L 579.467748 137.030497 
L 581.142683 136.312319 
L 582.817618 135.580098 
L 584.492553 134.832356 
L 586.167487 134.072824 
L 587.842422 133.289512 
L 589.517357 132.492918 
L 591.192292 131.67727 
L 592.867226 130.843234 
L 594.542161 129.987884 
L 596.217096 129.117513 
L 597.892031 128.21206 
L 599.566965 127.288318 
L 601.2419 126.338525 
L 602.916835 125.3609 
L 604.59177 124.354337 
L 606.266704 123.31361 
L 607.941639 122.240234 
L 609.616574 121.126517 
L 611.291509 119.972758 
" clip-path="url(#p555be015c6)" style="fill: none; stroke: #ff7f0e; stroke-width: 1.5; stroke-linecap: square"/>
   </g>
   <g id="patch_18">
    <path d="M 437.182041 194.906327 
L 437.182041 116.404493 
" style="fill: none; stroke: #000000; stroke-width: 0.8; stroke-linejoin: miter; stroke-linecap: square"/>
   </g>
   <g id="patch_19">
    <path d="M 437.182041 194.906327 
L 619.582436 194.906327 
" style="fill: none; stroke: #000000; stroke-width: 0.8; stroke-linejoin: miter; stroke-linecap: square"/>
   </g>
   <g id="text_11">
    <!-- variable = tau_r -->
    <g transform="translate(625.588256 115.367129) rotate(-270) scale(0.1 -0.1)">
     <use xlink:href="#DejaVuSans-76"/>
     <use xlink:href="#DejaVuSans-61" x="59.179688"/>
     <use xlink:href="#DejaVuSans-72" x="120.458984"/>
     <use xlink:href="#DejaVuSans-69" x="161.572266"/>
     <use xlink:href="#DejaVuSans-61" x="189.355469"/>
     <use xlink:href="#DejaVuSans-62" x="250.634766"/>
     <use xlink:href="#DejaVuSans-6c" x="314.111328"/>
     <use xlink:href="#DejaVuSans-65" x="341.894531"/>
     <use xlink:href="#DejaVuSans-20" x="403.417969"/>
     <use xlink:href="#DejaVuSans-3d" x="435.205078"/>
     <use xlink:href="#DejaVuSans-20" x="518.994141"/>
     <use xlink:href="#DejaVuSans-74" x="550.78125"/>
     <use xlink:href="#DejaVuSans-61" x="589.990234"/>
     <use xlink:href="#DejaVuSans-75" x="651.269531"/>
     <use xlink:href="#DejaVuSans-5f" x="714.648438"/>
     <use xlink:href="#DejaVuSans-72" x="764.648438"/>
    </g>
   </g>
  </g>
  <g id="axes_7">
   <g id="patch_20">
    <path d="M 43.78125 290.512382 
L 226.181645 290.512382 
L 226.181645 212.010548 
L 43.78125 212.010548 
z
" style="fill: #ffffff"/>
   </g>
   <g id="PolyCollection_7"/>
   <g id="matplotlib.axis_13">
    <g id="xtick_25">
     <g id="line2d_43">
      <g>
       <use xlink:href="#meafc10a207" x="52.072177" y="290.512382" style="stroke: #000000; stroke-width: 0.8"/>
      </g>
     </g>
    </g>
    <g id="xtick_26">
     <g id="line2d_44">
      <g>
       <use xlink:href="#meafc10a207" x="107.345024" y="290.512382" style="stroke: #000000; stroke-width: 0.8"/>
      </g>
     </g>
    </g>
    <g id="xtick_27">
     <g id="line2d_45">
      <g>
       <use xlink:href="#meafc10a207" x="162.617871" y="290.512382" style="stroke: #000000; stroke-width: 0.8"/>
      </g>
     </g>
    </g>
    <g id="xtick_28">
     <g id="line2d_46">
      <g>
       <use xlink:href="#meafc10a207" x="217.890718" y="290.512382" style="stroke: #000000; stroke-width: 0.8"/>
      </g>
     </g>
    </g>
   </g>
   <g id="matplotlib.axis_14">
    <g id="ytick_13">
     <g id="line2d_47">
      <g>
       <use xlink:href="#m133ab426a9" x="43.78125" y="281.7647" style="stroke: #000000; stroke-width: 0.8"/>
      </g>
     </g>
     <g id="text_12">
      <!-- 0.2 -->
      <g transform="translate(20.878125 285.563919) scale(0.1 -0.1)">
       <defs>
        <path id="DejaVuSans-32" d="M 1228 531 
L 3431 531 
L 3431 0 
L 469 0 
L 469 531 
Q 828 903 1448 1529 
Q 2069 2156 2228 2338 
Q 2531 2678 2651 2914 
Q 2772 3150 2772 3378 
Q 2772 3750 2511 3984 
Q 2250 4219 1831 4219 
Q 1534 4219 1204 4116 
Q 875 4013 500 3803 
L 500 4441 
Q 881 4594 1212 4672 
Q 1544 4750 1819 4750 
Q 2544 4750 2975 4387 
Q 3406 4025 3406 3419 
Q 3406 3131 3298 2873 
Q 3191 2616 2906 2266 
Q 2828 2175 2409 1742 
Q 1991 1309 1228 531 
z
" transform="scale(0.015625)"/>
       </defs>
       <use xlink:href="#DejaVuSans-30"/>
       <use xlink:href="#DejaVuSans-2e" x="63.623047"/>
       <use xlink:href="#DejaVuSans-32" x="95.410156"/>
      </g>
     </g>
    </g>
    <g id="ytick_14">
     <g id="line2d_48">
      <g>
       <use xlink:href="#m133ab426a9" x="43.78125" y="247.460492" style="stroke: #000000; stroke-width: 0.8"/>
      </g>
     </g>
     <g id="text_13">
      <!-- 0.4 -->
      <g transform="translate(20.878125 251.25971) scale(0.1 -0.1)">
       <use xlink:href="#DejaVuSans-30"/>
       <use xlink:href="#DejaVuSans-2e" x="63.623047"/>
       <use xlink:href="#DejaVuSans-34" x="95.410156"/>
      </g>
     </g>
    </g>
    <g id="ytick_15">
     <g id="line2d_49">
      <g>
       <use xlink:href="#m133ab426a9" x="43.78125" y="213.156284" style="stroke: #000000; stroke-width: 0.8"/>
      </g>
     </g>
     <g id="text_14">
      <!-- 0.6 -->
      <g transform="translate(20.878125 216.955502) scale(0.1 -0.1)">
       <use xlink:href="#DejaVuSans-30"/>
       <use xlink:href="#DejaVuSans-2e" x="63.623047"/>
       <use xlink:href="#DejaVuSans-36" x="95.410156"/>
      </g>
     </g>
    </g>
    <g id="text_15">
     <!-- value -->
     <g transform="translate(14.798438 264.919278) rotate(-90) scale(0.1 -0.1)">
      <use xlink:href="#DejaVuSans-76"/>
      <use xlink:href="#DejaVuSans-61" x="59.179688"/>
      <use xlink:href="#DejaVuSans-6c" x="120.458984"/>
      <use xlink:href="#DejaVuSans-75" x="148.242188"/>
      <use xlink:href="#DejaVuSans-65" x="211.621094"/>
     </g>
    </g>
   </g>
   <g id="line2d_50">
    <path d="M 52.072177 281.291063 
L 53.747112 281.162809 
L 55.422047 281.033663 
L 57.096981 280.90362 
L 58.771916 280.772671 
L 60.446851 280.640802 
L 62.121786 280.507978 
L 63.79672 280.374219 
L 65.471655 280.239488 
L 67.14659 280.103763 
L 68.821525 279.967054 
L 70.496459 279.829335 
L 72.171394 279.690739 
L 73.846329 279.550973 
L 75.521264 279.410151 
L 77.196198 279.268257 
L 78.871133 279.125274 
L 80.546068 278.981186 
L 82.221003 278.835973 
L 83.895937 278.689622 
L 85.570872 278.542112 
L 87.245807 278.393423 
L 88.920742 278.24354 
L 90.595677 278.092443 
L 92.270611 277.940108 
L 93.945546 277.786521 
L 95.620481 277.631661 
L 97.295416 277.475499 
L 98.97035 277.318025 
L 100.645285 277.159206 
L 102.32022 276.999031 
L 103.995155 276.837473 
L 105.670089 276.674497 
L 107.345024 276.5101 
L 109.019959 276.344248 
L 110.694894 276.176901 
L 112.369828 276.008061 
L 114.044763 275.837672 
L 115.719698 275.665739 
L 117.394633 275.492221 
L 119.069567 275.317058 
L 120.744502 275.140287 
L 122.419437 274.961835 
L 124.094372 274.781175 
L 125.769306 274.600123 
L 127.444241 274.415527 
L 129.119176 274.230551 
L 130.794111 274.043906 
L 132.469045 273.853888 
L 134.14398 273.663771 
L 135.818915 273.470654 
L 137.49385 273.275893 
L 139.168785 273.078959 
L 140.843719 272.879777 
L 142.518654 272.678692 
L 144.193589 272.474026 
L 145.868524 272.268655 
L 147.543458 272.062486 
L 149.218393 271.852625 
L 150.893328 271.638909 
L 152.568263 271.42594 
L 154.243197 271.209019 
L 155.918132 270.987919 
L 157.593067 270.767771 
L 159.268002 270.541464 
L 160.942936 270.316309 
L 162.617871 270.086615 
L 164.292806 269.854186 
L 165.967741 269.618985 
L 167.642675 269.378431 
L 169.31761 269.139976 
L 170.992545 268.896051 
L 172.66748 268.64608 
L 174.342414 268.395877 
L 176.017349 268.145768 
L 177.692284 267.889261 
L 179.367219 267.626809 
L 181.042154 267.363299 
L 182.717088 267.099417 
L 184.392023 266.829454 
L 186.066958 266.55512 
L 187.741893 266.277386 
L 189.416827 265.991495 
L 191.091762 265.710247 
L 192.766697 265.420835 
L 194.441632 265.126875 
L 196.116566 264.828981 
L 197.791501 264.52646 
L 199.466436 264.219607 
L 201.141371 263.908086 
L 202.816305 263.586913 
L 204.49124 263.270777 
L 206.166175 262.944709 
L 207.84111 262.613461 
L 209.516044 262.276971 
L 211.190979 261.934378 
L 212.865914 261.587469 
L 214.540849 261.233439 
L 216.215783 260.874916 
L 217.890718 260.509586 
" clip-path="url(#p92eb027424)" style="fill: none; stroke: #2ca02c; stroke-width: 1.5; stroke-linecap: square"/>
   </g>
   <g id="patch_21">
    <path d="M 43.78125 290.512382 
L 43.78125 212.010548 
" style="fill: none; stroke: #000000; stroke-width: 0.8; stroke-linejoin: miter; stroke-linecap: square"/>
   </g>
   <g id="patch_22">
    <path d="M 43.78125 290.512382 
L 226.181645 290.512382 
" style="fill: none; stroke: #000000; stroke-width: 0.8; stroke-linejoin: miter; stroke-linecap: square"/>
   </g>
  </g>
  <g id="axes_8">
   <g id="patch_23">
    <path d="M 240.481645 290.512382 
L 422.882041 290.512382 
L 422.882041 212.010548 
L 240.481645 212.010548 
z
" style="fill: #ffffff"/>
   </g>
   <g id="PolyCollection_8"/>
   <g id="matplotlib.axis_15">
    <g id="xtick_29">
     <g id="line2d_51">
      <g>
       <use xlink:href="#meafc10a207" x="248.772572" y="290.512382" style="stroke: #000000; stroke-width: 0.8"/>
      </g>
     </g>
    </g>
    <g id="xtick_30">
     <g id="line2d_52">
      <g>
       <use xlink:href="#meafc10a207" x="304.045419" y="290.512382" style="stroke: #000000; stroke-width: 0.8"/>
      </g>
     </g>
    </g>
    <g id="xtick_31">
     <g id="line2d_53">
      <g>
       <use xlink:href="#meafc10a207" x="359.318266" y="290.512382" style="stroke: #000000; stroke-width: 0.8"/>
      </g>
     </g>
    </g>
    <g id="xtick_32">
     <g id="line2d_54">
      <g>
       <use xlink:href="#meafc10a207" x="414.591113" y="290.512382" style="stroke: #000000; stroke-width: 0.8"/>
      </g>
     </g>
    </g>
   </g>
   <g id="matplotlib.axis_16">
    <g id="ytick_16">
     <g id="line2d_55">
      <g>
       <use xlink:href="#m133ab426a9" x="240.481645" y="281.7647" style="stroke: #000000; stroke-width: 0.8"/>
      </g>
     </g>
    </g>
    <g id="ytick_17">
     <g id="line2d_56">
      <g>
       <use xlink:href="#m133ab426a9" x="240.481645" y="247.460492" style="stroke: #000000; stroke-width: 0.8"/>
      </g>
     </g>
    </g>
    <g id="ytick_18">
     <g id="line2d_57">
      <g>
       <use xlink:href="#m133ab426a9" x="240.481645" y="213.156284" style="stroke: #000000; stroke-width: 0.8"/>
      </g>
     </g>
    </g>
   </g>
   <g id="line2d_58">
    <path d="M 248.772572 284.571924 
L 250.447507 284.819637 
L 252.122442 284.737667 
L 253.797377 285.033011 
L 255.472311 285.38239 
L 257.147246 285.303436 
L 258.822181 285.718438 
L 260.497116 285.640889 
L 262.17205 285.563203 
L 263.846985 286.058091 
L 265.52192 285.981747 
L 267.196855 285.905223 
L 268.871789 285.828623 
L 270.546724 286.421205 
L 272.221659 286.345796 
L 273.896594 286.270246 
L 275.571528 286.194602 
L 277.246463 286.118838 
L 278.921398 286.042931 
L 280.596333 286.75682 
L 282.271267 286.681897 
L 283.946202 286.606831 
L 285.621137 286.531685 
L 287.296072 286.456427 
L 288.971007 286.381025 
L 290.645941 286.30554 
L 292.320876 286.229833 
L 293.995811 286.154081 
L 295.670746 286.078252 
L 297.34568 286.944117 
L 299.020615 286.868927 
L 300.69555 286.793629 
L 302.370485 286.718181 
L 304.045419 286.642668 
L 305.720354 286.567045 
L 307.395289 286.491182 
L 309.070224 286.415429 
L 310.745158 286.339384 
L 312.420093 286.263307 
L 314.095028 286.187118 
L 315.769963 286.11084 
L 317.444897 286.034194 
L 319.119832 285.95767 
L 320.794767 285.881401 
L 322.469702 286.934775 
L 324.144636 286.858319 
L 325.819571 286.781421 
L 327.494506 286.70511 
L 329.169441 286.62799 
L 330.844376 286.551482 
L 332.51931 286.474511 
L 334.194245 286.397442 
L 335.86918 286.320268 
L 337.544115 286.242984 
L 339.219049 286.165943 
L 340.893984 286.088082 
L 342.568919 286.010486 
L 344.243854 285.933137 
L 345.918788 285.855329 
L 347.593723 285.777439 
L 349.268658 285.699382 
L 350.943593 285.621245 
L 352.618527 285.543035 
L 354.293462 285.464653 
L 355.968397 285.386228 
L 357.643332 285.30763 
L 359.318266 286.585645 
L 360.993201 286.506673 
L 362.668136 286.427616 
L 364.343071 286.348492 
L 366.018005 286.269222 
L 367.69294 286.18989 
L 369.367875 286.110494 
L 371.04281 286.030975 
L 372.717744 285.95134 
L 374.392679 285.871641 
L 376.067614 285.791874 
L 377.742549 285.71199 
L 379.417484 285.631981 
L 381.092418 285.552433 
L 382.767353 285.471747 
L 384.442288 285.391492 
L 386.117223 285.311171 
L 387.792157 285.2307 
L 389.467092 285.150646 
L 391.142027 285.069537 
L 392.816962 284.988844 
L 394.491896 284.908001 
L 396.166831 284.827121 
L 397.841766 284.746091 
L 399.516701 284.665439 
L 401.191635 284.584329 
L 402.86657 284.503038 
L 404.541505 284.421665 
L 406.21644 284.339564 
L 407.891374 284.258151 
L 409.566309 284.176357 
L 411.241244 285.711037 
L 412.916179 285.627619 
L 414.591113 285.54491 
" clip-path="url(#pe6198696ad)" style="fill: none; stroke: #2ca02c; stroke-width: 1.5; stroke-linecap: square"/>
   </g>
   <g id="patch_24">
    <path d="M 240.481645 290.512382 
L 240.481645 212.010548 
" style="fill: none; stroke: #000000; stroke-width: 0.8; stroke-linejoin: miter; stroke-linecap: square"/>
   </g>
   <g id="patch_25">
    <path d="M 240.481645 290.512382 
L 422.882041 290.512382 
" style="fill: none; stroke: #000000; stroke-width: 0.8; stroke-linejoin: miter; stroke-linecap: square"/>
   </g>
  </g>
  <g id="axes_9">
   <g id="patch_26">
    <path d="M 437.182041 290.512382 
L 619.582436 290.512382 
L 619.582436 212.010548 
L 437.182041 212.010548 
z
" style="fill: #ffffff"/>
   </g>
   <g id="PolyCollection_9"/>
   <g id="matplotlib.axis_17">
    <g id="xtick_33">
     <g id="line2d_59">
      <g>
       <use xlink:href="#meafc10a207" x="445.472968" y="290.512382" style="stroke: #000000; stroke-width: 0.8"/>
      </g>
     </g>
    </g>
    <g id="xtick_34">
     <g id="line2d_60">
      <g>
       <use xlink:href="#meafc10a207" x="500.745815" y="290.512382" style="stroke: #000000; stroke-width: 0.8"/>
      </g>
     </g>
    </g>
    <g id="xtick_35">
     <g id="line2d_61">
      <g>
       <use xlink:href="#meafc10a207" x="556.018662" y="290.512382" style="stroke: #000000; stroke-width: 0.8"/>
      </g>
     </g>
    </g>
    <g id="xtick_36">
     <g id="line2d_62">
      <g>
       <use xlink:href="#meafc10a207" x="611.291509" y="290.512382" style="stroke: #000000; stroke-width: 0.8"/>
      </g>
     </g>
    </g>
   </g>
   <g id="matplotlib.axis_18">
    <g id="ytick_19">
     <g id="line2d_63">
      <g>
       <use xlink:href="#m133ab426a9" x="437.182041" y="281.7647" style="stroke: #000000; stroke-width: 0.8"/>
      </g>
     </g>
    </g>
    <g id="ytick_20">
     <g id="line2d_64">
      <g>
       <use xlink:href="#m133ab426a9" x="437.182041" y="247.460492" style="stroke: #000000; stroke-width: 0.8"/>
      </g>
     </g>
    </g>
    <g id="ytick_21">
     <g id="line2d_65">
      <g>
       <use xlink:href="#m133ab426a9" x="437.182041" y="213.156284" style="stroke: #000000; stroke-width: 0.8"/>
      </g>
     </g>
    </g>
   </g>
   <g id="line2d_66">
    <path d="M 445.472968 280.797509 
L 447.147902 280.62167 
L 448.822837 280.443659 
L 450.497772 280.263424 
L 452.172707 280.080913 
L 453.847641 279.896069 
L 455.522576 279.708838 
L 457.197511 279.51916 
L 458.872446 279.326976 
L 460.54738 279.132223 
L 462.222315 278.934837 
L 463.89725 278.734753 
L 465.572185 278.531902 
L 467.247119 278.326213 
L 468.922054 278.117614 
L 470.596989 277.906028 
L 472.271924 277.691378 
L 473.946858 277.473583 
L 475.621793 277.252559 
L 477.296728 277.02822 
L 478.971663 276.800477 
L 480.646598 276.569234 
L 482.321532 276.334399 
L 483.996467 276.09587 
L 485.671402 275.853544 
L 487.346337 275.607313 
L 489.021271 275.357064 
L 490.696206 275.102683 
L 492.371141 274.844049 
L 494.046076 274.581036 
L 495.72101 274.313514 
L 497.395945 274.041348 
L 499.07088 273.764395 
L 500.745815 273.48251 
L 502.420749 273.195539 
L 504.095684 272.90332 
L 505.770619 272.605182 
L 507.445554 272.301901 
L 509.120488 271.992845 
L 510.795423 271.677821 
L 512.470358 271.356633 
L 514.145293 271.029071 
L 515.820227 270.694917 
L 517.495162 270.354131 
L 519.170097 270.00612 
L 520.845032 269.650786 
L 522.519966 269.287625 
L 524.194901 268.917129 
L 525.869836 268.537913 
L 527.544771 268.150878 
L 529.219706 267.754751 
L 530.89464 267.349512 
L 532.569575 266.9348 
L 534.24451 266.510232 
L 535.919445 266.075415 
L 537.594379 265.630041 
L 539.269314 265.173444 
L 540.944249 264.705073 
L 542.619184 264.224739 
L 544.294118 263.732011 
L 545.969053 263.225597 
L 547.643988 262.705613 
L 549.318923 262.171522 
L 550.993857 261.621583 
L 552.668792 261.056573 
L 554.343727 260.473999 
L 556.018662 259.874363 
L 557.693596 259.256347 
L 559.368531 258.618946 
L 561.043466 257.957928 
L 562.718401 257.281831 
L 564.393335 256.575784 
L 566.06827 255.849405 
L 567.743205 255.097451 
L 569.41814 254.318335 
L 571.093075 253.510658 
L 572.768009 252.672651 
L 574.442944 251.802007 
L 576.117879 250.8965 
L 577.792814 249.957105 
L 579.467748 248.972207 
L 581.142683 247.947733 
L 582.817618 246.877937 
L 584.492553 245.758226 
L 586.167487 244.590868 
L 587.842422 243.355804 
L 589.517357 242.064099 
L 591.192292 240.703356 
L 592.867226 239.269939 
L 594.542161 237.753964 
L 596.217096 236.160167 
L 597.892031 234.447324 
L 599.566965 232.636316 
L 601.2419 230.704487 
L 602.916835 228.637799 
L 604.59177 226.421701 
L 606.266704 224.030469 
L 607.941639 221.449828 
L 609.616574 218.641038 
L 611.291509 215.578813 
" clip-path="url(#p21cdd8c1ae)" style="fill: none; stroke: #2ca02c; stroke-width: 1.5; stroke-linecap: square"/>
   </g>
   <g id="patch_27">
    <path d="M 437.182041 290.512382 
L 437.182041 212.010548 
" style="fill: none; stroke: #000000; stroke-width: 0.8; stroke-linejoin: miter; stroke-linecap: square"/>
   </g>
   <g id="patch_28">
    <path d="M 437.182041 290.512382 
L 619.582436 290.512382 
" style="fill: none; stroke: #000000; stroke-width: 0.8; stroke-linejoin: miter; stroke-linecap: square"/>
   </g>
   <g id="text_16">
    <!-- variable = p -->
    <g transform="translate(625.310131 220.547403) rotate(-270) scale(0.1 -0.1)">
     <use xlink:href="#DejaVuSans-76"/>
     <use xlink:href="#DejaVuSans-61" x="59.179688"/>
     <use xlink:href="#DejaVuSans-72" x="120.458984"/>
     <use xlink:href="#DejaVuSans-69" x="161.572266"/>
     <use xlink:href="#DejaVuSans-61" x="189.355469"/>
     <use xlink:href="#DejaVuSans-62" x="250.634766"/>
     <use xlink:href="#DejaVuSans-6c" x="314.111328"/>
     <use xlink:href="#DejaVuSans-65" x="341.894531"/>
     <use xlink:href="#DejaVuSans-20" x="403.417969"/>
     <use xlink:href="#DejaVuSans-3d" x="435.205078"/>
     <use xlink:href="#DejaVuSans-20" x="518.994141"/>
     <use xlink:href="#DejaVuSans-70" x="550.78125"/>
    </g>
   </g>
  </g>
  <g id="axes_10">
   <g id="patch_29">
    <path d="M 43.78125 386.118437 
L 226.181645 386.118437 
L 226.181645 307.616603 
L 43.78125 307.616603 
z
" style="fill: #ffffff"/>
   </g>
   <g id="PolyCollection_10"/>
   <g id="matplotlib.axis_19">
    <g id="xtick_37">
     <g id="line2d_67">
      <g>
       <use xlink:href="#meafc10a207" x="52.072177" y="386.118437" style="stroke: #000000; stroke-width: 0.8"/>
      </g>
     </g>
     <g id="text_17">
      <!-- 0.0 -->
      <g transform="translate(44.120615 400.716875) scale(0.1 -0.1)">
       <use xlink:href="#DejaVuSans-30"/>
       <use xlink:href="#DejaVuSans-2e" x="63.623047"/>
       <use xlink:href="#DejaVuSans-30" x="95.410156"/>
      </g>
     </g>
    </g>
    <g id="xtick_38">
     <g id="line2d_68">
      <g>
       <use xlink:href="#meafc10a207" x="107.345024" y="386.118437" style="stroke: #000000; stroke-width: 0.8"/>
      </g>
     </g>
     <g id="text_18">
      <!-- 0.1 -->
      <g transform="translate(99.393462 400.716875) scale(0.1 -0.1)">
       <use xlink:href="#DejaVuSans-30"/>
       <use xlink:href="#DejaVuSans-2e" x="63.623047"/>
       <use xlink:href="#DejaVuSans-31" x="95.410156"/>
      </g>
     </g>
    </g>
    <g id="xtick_39">
     <g id="line2d_69">
      <g>
       <use xlink:href="#meafc10a207" x="162.617871" y="386.118437" style="stroke: #000000; stroke-width: 0.8"/>
      </g>
     </g>
     <g id="text_19">
      <!-- 0.2 -->
      <g transform="translate(154.666309 400.716875) scale(0.1 -0.1)">
       <use xlink:href="#DejaVuSans-30"/>
       <use xlink:href="#DejaVuSans-2e" x="63.623047"/>
       <use xlink:href="#DejaVuSans-32" x="95.410156"/>
      </g>
     </g>
    </g>
    <g id="xtick_40">
     <g id="line2d_70">
      <g>
       <use xlink:href="#meafc10a207" x="217.890718" y="386.118437" style="stroke: #000000; stroke-width: 0.8"/>
      </g>
     </g>
     <g id="text_20">
      <!-- 0.3 -->
      <g transform="translate(209.939156 400.716875) scale(0.1 -0.1)">
       <defs>
        <path id="DejaVuSans-33" d="M 2597 2516 
Q 3050 2419 3304 2112 
Q 3559 1806 3559 1356 
Q 3559 666 3084 287 
Q 2609 -91 1734 -91 
Q 1441 -91 1130 -33 
Q 819 25 488 141 
L 488 750 
Q 750 597 1062 519 
Q 1375 441 1716 441 
Q 2309 441 2620 675 
Q 2931 909 2931 1356 
Q 2931 1769 2642 2001 
Q 2353 2234 1838 2234 
L 1294 2234 
L 1294 2753 
L 1863 2753 
Q 2328 2753 2575 2939 
Q 2822 3125 2822 3475 
Q 2822 3834 2567 4026 
Q 2313 4219 1838 4219 
Q 1578 4219 1281 4162 
Q 984 4106 628 3988 
L 628 4550 
Q 988 4650 1302 4700 
Q 1616 4750 1894 4750 
Q 2613 4750 3031 4423 
Q 3450 4097 3450 3541 
Q 3450 3153 3228 2886 
Q 3006 2619 2597 2516 
z
" transform="scale(0.015625)"/>
       </defs>
       <use xlink:href="#DejaVuSans-30"/>
       <use xlink:href="#DejaVuSans-2e" x="63.623047"/>
       <use xlink:href="#DejaVuSans-33" x="95.410156"/>
      </g>
     </g>
    </g>
    <g id="text_21">
     <!-- ns -->
     <g transform="translate(129.20801 414.395) scale(0.1 -0.1)">
      <use xlink:href="#DejaVuSans-6e"/>
      <use xlink:href="#DejaVuSans-73" x="63.378906"/>
     </g>
    </g>
   </g>
   <g id="matplotlib.axis_20">
    <g id="ytick_22">
     <g id="line2d_71">
      <g>
       <use xlink:href="#m133ab426a9" x="43.78125" y="382.550172" style="stroke: #000000; stroke-width: 0.8"/>
      </g>
     </g>
     <g id="text_22">
      <!-- 0 -->
      <g transform="translate(30.41875 386.349391) scale(0.1 -0.1)">
       <use xlink:href="#DejaVuSans-30"/>
      </g>
     </g>
    </g>
    <g id="ytick_23">
     <g id="line2d_72">
      <g>
       <use xlink:href="#m133ab426a9" x="43.78125" y="335.385469" style="stroke: #000000; stroke-width: 0.8"/>
      </g>
     </g>
     <g id="text_23">
      <!-- 5 -->
      <g transform="translate(30.41875 339.184687) scale(0.1 -0.1)">
       <use xlink:href="#DejaVuSans-35"/>
      </g>
     </g>
    </g>
    <g id="text_24">
     <!-- value -->
     <g transform="translate(24.339063 360.525333) rotate(-90) scale(0.1 -0.1)">
      <use xlink:href="#DejaVuSans-76"/>
      <use xlink:href="#DejaVuSans-61" x="59.179688"/>
      <use xlink:href="#DejaVuSans-6c" x="120.458984"/>
      <use xlink:href="#DejaVuSans-75" x="148.242188"/>
      <use xlink:href="#DejaVuSans-65" x="211.621094"/>
     </g>
    </g>
   </g>
   <g id="line2d_73">
    <path d="M 52.072177 382.550172 
L 53.747112 382.254362 
L 55.422047 381.958465 
L 57.096981 381.662481 
L 58.771916 381.36641 
L 60.446851 381.070252 
L 62.121786 380.774007 
L 63.79672 380.477676 
L 65.471655 380.181257 
L 67.14659 379.884751 
L 68.821525 379.588159 
L 70.496459 379.291479 
L 72.171394 378.99471 
L 73.846329 378.697856 
L 75.521264 378.400914 
L 77.196198 378.103886 
L 78.871133 377.806769 
L 80.546068 377.509566 
L 82.221003 377.212275 
L 83.895937 376.914897 
L 85.570872 376.617431 
L 87.245807 376.319878 
L 88.920742 376.022238 
L 90.595677 375.724509 
L 92.270611 375.426694 
L 93.945546 375.12879 
L 95.620481 374.830799 
L 97.295416 374.53272 
L 98.97035 374.234554 
L 100.645285 373.936299 
L 102.32022 373.637957 
L 103.995155 373.339527 
L 105.670089 373.041009 
L 107.345024 372.742403 
L 109.019959 372.443708 
L 110.694894 372.144926 
L 112.369828 371.846056 
L 114.044763 371.547097 
L 115.719698 371.24805 
L 117.394633 370.948915 
L 119.069567 370.649692 
L 120.744502 370.35038 
L 122.419437 370.05098 
L 124.094372 369.751495 
L 125.769306 369.451912 
L 127.444241 369.152252 
L 129.119176 368.852494 
L 130.794111 368.552647 
L 132.469045 368.252721 
L 134.14398 367.952694 
L 135.818915 367.652585 
L 137.49385 367.352385 
L 139.168785 367.052098 
L 140.843719 366.751722 
L 142.518654 366.451257 
L 144.193589 366.15071 
L 145.868524 365.850066 
L 147.543458 365.549324 
L 149.218393 365.248502 
L 150.893328 364.947599 
L 152.568263 364.646589 
L 154.243197 364.345498 
L 155.918132 364.044327 
L 157.593067 363.743048 
L 159.268002 363.441698 
L 160.942936 363.140239 
L 162.617871 362.8387 
L 164.292806 362.537071 
L 165.967741 362.235352 
L 167.642675 361.933555 
L 169.31761 361.631645 
L 170.992545 361.329656 
L 172.66748 361.027591 
L 174.342414 360.725422 
L 176.017349 360.423149 
L 177.692284 360.120799 
L 179.367219 359.81837 
L 181.042154 359.515841 
L 182.717088 359.213208 
L 184.392023 358.910496 
L 186.066958 358.607695 
L 187.741893 358.304803 
L 189.416827 358.001836 
L 191.091762 357.698746 
L 192.766697 357.39558 
L 194.441632 357.092326 
L 196.116566 356.788979 
L 197.791501 356.485542 
L 199.466436 356.182013 
L 201.141371 355.878394 
L 202.816305 355.5747 
L 204.49124 355.270882 
L 206.166175 354.966988 
L 207.84111 354.663004 
L 209.516044 354.358928 
L 211.190979 354.054763 
L 212.865914 353.750502 
L 214.540849 353.446154 
L 216.215783 353.14171 
L 217.890718 352.837177 
" clip-path="url(#p30916f40d3)" style="fill: none; stroke: #d62728; stroke-width: 1.5; stroke-linecap: square"/>
   </g>
   <g id="patch_30">
    <path d="M 43.78125 386.118437 
L 43.78125 307.616603 
" style="fill: none; stroke: #000000; stroke-width: 0.8; stroke-linejoin: miter; stroke-linecap: square"/>
   </g>
   <g id="patch_31">
    <path d="M 43.78125 386.118437 
L 226.181645 386.118437 
" style="fill: none; stroke: #000000; stroke-width: 0.8; stroke-linejoin: miter; stroke-linecap: square"/>
   </g>
  </g>
  <g id="axes_11">
   <g id="patch_32">
    <path d="M 240.481645 386.118437 
L 422.882041 386.118437 
L 422.882041 307.616603 
L 240.481645 307.616603 
z
" style="fill: #ffffff"/>
   </g>
   <g id="PolyCollection_11"/>
   <g id="matplotlib.axis_21">
    <g id="xtick_41">
     <g id="line2d_74">
      <g>
       <use xlink:href="#meafc10a207" x="248.772572" y="386.118437" style="stroke: #000000; stroke-width: 0.8"/>
      </g>
     </g>
     <g id="text_25">
      <!-- 0.0 -->
      <g transform="translate(240.82101 400.716875) scale(0.1 -0.1)">
       <use xlink:href="#DejaVuSans-30"/>
       <use xlink:href="#DejaVuSans-2e" x="63.623047"/>
       <use xlink:href="#DejaVuSans-30" x="95.410156"/>
      </g>
     </g>
    </g>
    <g id="xtick_42">
     <g id="line2d_75">
      <g>
       <use xlink:href="#meafc10a207" x="304.045419" y="386.118437" style="stroke: #000000; stroke-width: 0.8"/>
      </g>
     </g>
     <g id="text_26">
      <!-- 0.1 -->
      <g transform="translate(296.093857 400.716875) scale(0.1 -0.1)">
       <use xlink:href="#DejaVuSans-30"/>
       <use xlink:href="#DejaVuSans-2e" x="63.623047"/>
       <use xlink:href="#DejaVuSans-31" x="95.410156"/>
      </g>
     </g>
    </g>
    <g id="xtick_43">
     <g id="line2d_76">
      <g>
       <use xlink:href="#meafc10a207" x="359.318266" y="386.118437" style="stroke: #000000; stroke-width: 0.8"/>
      </g>
     </g>
     <g id="text_27">
      <!-- 0.2 -->
      <g transform="translate(351.366704 400.716875) scale(0.1 -0.1)">
       <use xlink:href="#DejaVuSans-30"/>
       <use xlink:href="#DejaVuSans-2e" x="63.623047"/>
       <use xlink:href="#DejaVuSans-32" x="95.410156"/>
      </g>
     </g>
    </g>
    <g id="xtick_44">
     <g id="line2d_77">
      <g>
       <use xlink:href="#meafc10a207" x="414.591113" y="386.118437" style="stroke: #000000; stroke-width: 0.8"/>
      </g>
     </g>
     <g id="text_28">
      <!-- 0.3 -->
      <g transform="translate(406.639551 400.716875) scale(0.1 -0.1)">
       <use xlink:href="#DejaVuSans-30"/>
       <use xlink:href="#DejaVuSans-2e" x="63.623047"/>
       <use xlink:href="#DejaVuSans-33" x="95.410156"/>
      </g>
     </g>
    </g>
    <g id="text_29">
     <!-- ns -->
     <g transform="translate(325.908405 414.395) scale(0.1 -0.1)">
      <use xlink:href="#DejaVuSans-6e"/>
      <use xlink:href="#DejaVuSans-73" x="63.378906"/>
     </g>
    </g>
   </g>
   <g id="matplotlib.axis_22">
    <g id="ytick_24">
     <g id="line2d_78">
      <g>
       <use xlink:href="#m133ab426a9" x="240.481645" y="382.550172" style="stroke: #000000; stroke-width: 0.8"/>
      </g>
     </g>
    </g>
    <g id="ytick_25">
     <g id="line2d_79">
      <g>
       <use xlink:href="#m133ab426a9" x="240.481645" y="335.385469" style="stroke: #000000; stroke-width: 0.8"/>
      </g>
     </g>
    </g>
   </g>
   <g id="line2d_80">
    <path d="M 248.772572 339.937277 
L 250.447507 339.269358 
L 252.122442 339.181341 
L 253.797377 338.379231 
L 255.472311 337.460893 
L 257.147246 337.368792 
L 258.822181 336.307126 
L 260.497116 336.214965 
L 262.17205 336.122639 
L 263.846985 334.882774 
L 265.52192 334.786042 
L 267.196855 334.689077 
L 268.871789 334.591832 
L 270.546724 333.128878 
L 272.221659 333.033237 
L 273.896594 332.93744 
L 275.571528 332.841393 
L 277.246463 332.745143 
L 278.921398 332.647942 
L 280.596333 330.906137 
L 282.271267 330.812065 
L 283.946202 330.704616 
L 285.621137 330.596805 
L 287.296072 330.488777 
L 288.971007 330.380598 
L 290.645941 330.272142 
L 292.320876 330.162786 
L 293.995811 330.050262 
L 295.670746 329.937454 
L 297.34568 327.88112 
L 299.020615 327.773924 
L 300.69555 327.665442 
L 302.370485 327.556828 
L 304.045419 327.447872 
L 305.720354 327.338682 
L 307.395289 327.229531 
L 309.070224 327.119694 
L 310.745158 327.010003 
L 312.420093 326.89992 
L 314.095028 326.786039 
L 315.769963 326.66703 
L 317.444897 326.546495 
L 319.119832 326.424997 
L 320.794767 326.302567 
L 322.469702 323.889379 
L 324.144636 323.776413 
L 325.819571 323.663809 
L 327.494506 323.548333 
L 329.169441 323.433052 
L 330.844376 323.3162 
L 332.51931 323.195668 
L 334.194245 323.066302 
L 335.86918 322.936686 
L 337.544115 322.806835 
L 339.219049 322.676052 
L 340.893984 322.546423 
L 342.568919 322.415824 
L 344.243854 322.284298 
L 345.918788 322.153215 
L 347.593723 322.021839 
L 349.268658 321.889482 
L 350.943593 321.756572 
L 352.618527 321.623355 
L 354.293462 321.490028 
L 355.968397 321.356338 
L 357.643332 321.222543 
L 359.318266 318.459668 
L 360.993201 318.335719 
L 362.668136 318.211452 
L 364.343071 318.086824 
L 366.018005 317.961383 
L 367.69294 317.83501 
L 369.367875 317.708279 
L 371.04281 317.581317 
L 372.717744 317.454112 
L 374.392679 317.326552 
L 376.067614 317.198644 
L 377.742549 317.070496 
L 379.417484 316.942125 
L 381.092418 316.812491 
L 382.767353 316.68438 
L 384.442288 316.555072 
L 386.117223 316.425419 
L 387.792157 316.295596 
L 389.467092 316.164609 
L 391.142027 316.034976 
L 392.816962 315.904181 
L 394.491896 315.773219 
L 396.166831 315.641858 
L 397.841766 315.51033 
L 399.516701 315.377725 
L 401.191635 315.241258 
L 402.86657 315.098843 
L 404.541505 314.956141 
L 406.21644 314.814284 
L 407.891374 314.670782 
L 409.566309 314.527519 
L 411.241244 311.42877 
L 412.916179 311.307692 
L 414.591113 311.184868 
" clip-path="url(#pba0974fde3)" style="fill: none; stroke: #d62728; stroke-width: 1.5; stroke-linecap: square"/>
   </g>
   <g id="patch_33">
    <path d="M 240.481645 386.118437 
L 240.481645 307.616603 
" style="fill: none; stroke: #000000; stroke-width: 0.8; stroke-linejoin: miter; stroke-linecap: square"/>
   </g>
   <g id="patch_34">
    <path d="M 240.481645 386.118437 
L 422.882041 386.118437 
" style="fill: none; stroke: #000000; stroke-width: 0.8; stroke-linejoin: miter; stroke-linecap: square"/>
   </g>
  </g>
  <g id="axes_12">
   <g id="patch_35">
    <path d="M 437.182041 386.118437 
L 619.582436 386.118437 
L 619.582436 307.616603 
L 437.182041 307.616603 
z
" style="fill: #ffffff"/>
   </g>
   <g id="PolyCollection_12"/>
   <g id="matplotlib.axis_23">
    <g id="xtick_45">
     <g id="line2d_81">
      <g>
       <use xlink:href="#meafc10a207" x="445.472968" y="386.118437" style="stroke: #000000; stroke-width: 0.8"/>
      </g>
     </g>
     <g id="text_30">
      <!-- 0.0 -->
      <g transform="translate(437.521405 400.716875) scale(0.1 -0.1)">
       <use xlink:href="#DejaVuSans-30"/>
       <use xlink:href="#DejaVuSans-2e" x="63.623047"/>
       <use xlink:href="#DejaVuSans-30" x="95.410156"/>
      </g>
     </g>
    </g>
    <g id="xtick_46">
     <g id="line2d_82">
      <g>
       <use xlink:href="#meafc10a207" x="500.745815" y="386.118437" style="stroke: #000000; stroke-width: 0.8"/>
      </g>
     </g>
     <g id="text_31">
      <!-- 0.1 -->
      <g transform="translate(492.794252 400.716875) scale(0.1 -0.1)">
       <use xlink:href="#DejaVuSans-30"/>
       <use xlink:href="#DejaVuSans-2e" x="63.623047"/>
       <use xlink:href="#DejaVuSans-31" x="95.410156"/>
      </g>
     </g>
    </g>
    <g id="xtick_47">
     <g id="line2d_83">
      <g>
       <use xlink:href="#meafc10a207" x="556.018662" y="386.118437" style="stroke: #000000; stroke-width: 0.8"/>
      </g>
     </g>
     <g id="text_32">
      <!-- 0.2 -->
      <g transform="translate(548.067099 400.716875) scale(0.1 -0.1)">
       <use xlink:href="#DejaVuSans-30"/>
       <use xlink:href="#DejaVuSans-2e" x="63.623047"/>
       <use xlink:href="#DejaVuSans-32" x="95.410156"/>
      </g>
     </g>
    </g>
    <g id="xtick_48">
     <g id="line2d_84">
      <g>
       <use xlink:href="#meafc10a207" x="611.291509" y="386.118437" style="stroke: #000000; stroke-width: 0.8"/>
      </g>
     </g>
     <g id="text_33">
      <!-- 0.3 -->
      <g transform="translate(603.339946 400.716875) scale(0.1 -0.1)">
       <use xlink:href="#DejaVuSans-30"/>
       <use xlink:href="#DejaVuSans-2e" x="63.623047"/>
       <use xlink:href="#DejaVuSans-33" x="95.410156"/>
      </g>
     </g>
    </g>
    <g id="text_34">
     <!-- ns -->
     <g transform="translate(522.608801 414.395) scale(0.1 -0.1)">
      <use xlink:href="#DejaVuSans-6e"/>
      <use xlink:href="#DejaVuSans-73" x="63.378906"/>
     </g>
    </g>
   </g>
   <g id="matplotlib.axis_24">
    <g id="ytick_26">
     <g id="line2d_85">
      <g>
       <use xlink:href="#m133ab426a9" x="437.182041" y="382.550172" style="stroke: #000000; stroke-width: 0.8"/>
      </g>
     </g>
    </g>
    <g id="ytick_27">
     <g id="line2d_86">
      <g>
       <use xlink:href="#m133ab426a9" x="437.182041" y="335.385469" style="stroke: #000000; stroke-width: 0.8"/>
      </g>
     </g>
    </g>
   </g>
   <g id="line2d_87">
    <path d="M 445.472968 382.42178 
L 447.147902 382.19316 
L 448.822837 381.919118 
L 450.497772 381.626897 
L 452.172707 381.329591 
L 453.847641 381.032198 
L 455.522576 380.734719 
L 457.197511 380.437154 
L 458.872446 380.139503 
L 460.54738 379.841766 
L 462.222315 379.543944 
L 463.89725 379.246036 
L 465.572185 378.948043 
L 467.247119 378.649964 
L 468.922054 378.3518 
L 470.596989 378.053551 
L 472.271924 377.755217 
L 473.946858 377.456797 
L 475.621793 377.158293 
L 477.296728 376.859704 
L 478.971663 376.561031 
L 480.646598 376.262273 
L 482.321532 375.96343 
L 483.996467 375.664503 
L 485.671402 375.365492 
L 487.346337 375.066397 
L 489.021271 374.767218 
L 490.696206 374.467955 
L 492.371141 374.168608 
L 494.046076 373.869177 
L 495.72101 373.569663 
L 497.395945 373.270034 
L 499.07088 372.970223 
L 500.745815 372.670328 
L 502.420749 372.370349 
L 504.095684 372.070286 
L 505.770619 371.77014 
L 507.445554 371.469909 
L 509.120488 371.169594 
L 510.795423 370.869195 
L 512.470358 370.568713 
L 514.145293 370.268147 
L 515.820227 369.967498 
L 517.495162 369.666765 
L 519.170097 369.365949 
L 520.845032 369.06505 
L 522.519966 368.764069 
L 524.194901 368.463003 
L 525.869836 368.161856 
L 527.544771 367.860624 
L 529.219706 367.559311 
L 530.89464 367.257916 
L 532.569575 366.956438 
L 534.24451 366.654877 
L 535.919445 366.353234 
L 537.594379 366.051509 
L 539.269314 365.749702 
L 540.944249 365.447814 
L 542.619184 365.145843 
L 544.294118 364.84379 
L 545.969053 364.541657 
L 547.643988 364.239441 
L 549.318923 363.937142 
L 550.993857 363.634765 
L 552.668792 363.332303 
L 554.343727 363.029764 
L 556.018662 362.727142 
L 557.693596 362.424438 
L 559.368531 362.121654 
L 561.043466 361.8188 
L 562.718401 361.515842 
L 564.393335 361.212829 
L 566.06827 360.909722 
L 567.743205 360.606535 
L 569.41814 360.303268 
L 571.093075 359.99992 
L 572.768009 359.696491 
L 574.442944 359.392982 
L 576.117879 359.089394 
L 577.792814 358.785717 
L 579.467748 358.481977 
L 581.142683 358.178149 
L 582.817618 357.874239 
L 584.492553 357.570252 
L 586.167487 357.266172 
L 587.842422 356.962037 
L 589.517357 356.657808 
L 591.192292 356.353503 
L 592.867226 356.049116 
L 594.542161 355.744652 
L 596.217096 355.440087 
L 597.892031 355.135483 
L 599.566965 354.83078 
L 601.2419 354.525998 
L 602.916835 354.221136 
L 604.59177 353.916193 
L 606.266704 353.611176 
L 607.941639 353.306074 
L 609.616574 353.0009 
L 611.291509 352.695644 
" clip-path="url(#p68e551b244)" style="fill: none; stroke: #d62728; stroke-width: 1.5; stroke-linecap: square"/>
   </g>
   <g id="patch_36">
    <path d="M 437.182041 386.118437 
L 437.182041 307.616603 
" style="fill: none; stroke: #000000; stroke-width: 0.8; stroke-linejoin: miter; stroke-linecap: square"/>
   </g>
   <g id="patch_37">
    <path d="M 437.182041 386.118437 
L 619.582436 386.118437 
" style="fill: none; stroke: #000000; stroke-width: 0.8; stroke-linejoin: miter; stroke-linecap: square"/>
   </g>
   <g id="text_35">
    <!-- variable = err -->
    <g transform="translate(625.310131 312.227676) rotate(-270) scale(0.1 -0.1)">
     <use xlink:href="#DejaVuSans-76"/>
     <use xlink:href="#DejaVuSans-61" x="59.179688"/>
     <use xlink:href="#DejaVuSans-72" x="120.458984"/>
     <use xlink:href="#DejaVuSans-69" x="161.572266"/>
     <use xlink:href="#DejaVuSans-61" x="189.355469"/>
     <use xlink:href="#DejaVuSans-62" x="250.634766"/>
     <use xlink:href="#DejaVuSans-6c" x="314.111328"/>
     <use xlink:href="#DejaVuSans-65" x="341.894531"/>
     <use xlink:href="#DejaVuSans-20" x="403.417969"/>
     <use xlink:href="#DejaVuSans-3d" x="435.205078"/>
     <use xlink:href="#DejaVuSans-20" x="518.994141"/>
     <use xlink:href="#DejaVuSans-65" x="550.78125"/>
     <use xlink:href="#DejaVuSans-72" x="612.304688"/>
     <use xlink:href="#DejaVuSans-72" x="651.667969"/>
    </g>
   </g>
  </g>
 </g>
 <defs>
  <clipPath id="p2d8d2b8deb">
   <rect x="43.78125" y="20.798437" width="182.400395" height="78.501835"/>
  </clipPath>
  <clipPath id="p6517d9efb7">
   <rect x="240.481645" y="20.798437" width="182.400395" height="78.501835"/>
  </clipPath>
  <clipPath id="p57032e9594">
   <rect x="437.182041" y="20.798437" width="182.400395" height="78.501835"/>
  </clipPath>
  <clipPath id="p661279fa49">
   <rect x="43.78125" y="116.404493" width="182.400395" height="78.501835"/>
  </clipPath>
  <clipPath id="p3f85474560">
   <rect x="240.481645" y="116.404493" width="182.400395" height="78.501835"/>
  </clipPath>
  <clipPath id="p555be015c6">
   <rect x="437.182041" y="116.404493" width="182.400395" height="78.501835"/>
  </clipPath>
  <clipPath id="p92eb027424">
   <rect x="43.78125" y="212.010548" width="182.400395" height="78.501835"/>
  </clipPath>
  <clipPath id="pe6198696ad">
   <rect x="240.481645" y="212.010548" width="182.400395" height="78.501835"/>
  </clipPath>
  <clipPath id="p21cdd8c1ae">
   <rect x="437.182041" y="212.010548" width="182.400395" height="78.501835"/>
  </clipPath>
  <clipPath id="p30916f40d3">
   <rect x="43.78125" y="307.616603" width="182.400395" height="78.501835"/>
  </clipPath>
  <clipPath id="pba0974fde3">
   <rect x="240.481645" y="307.616603" width="182.400395" height="78.501835"/>
  </clipPath>
  <clipPath id="p68e551b244">
   <rect x="437.182041" y="307.616603" width="182.400395" height="78.501835"/>
  </clipPath>
 </defs>
</svg>
