<?xml version="1.0" encoding="utf-8" standalone="no"?>
<!DOCTYPE svg PUBLIC "-//W3C//DTD SVG 1.1//EN"
  "http://www.w3.org/Graphics/SVG/1.1/DTD/svg11.dtd">
<svg xmlns:xlink="http://www.w3.org/1999/xlink" width="276.48pt" height="348.177812pt" viewBox="0 0 276.48 348.177812" xmlns="http://www.w3.org/2000/svg" version="1.1">
 <metadata>
  <rdf:RDF xmlns:dc="http://purl.org/dc/elements/1.1/" xmlns:cc="http://creativecommons.org/ns#" xmlns:rdf="http://www.w3.org/1999/02/22-rdf-syntax-ns#">
   <cc:Work>
    <dc:type rdf:resource="http://purl.org/dc/dcmitype/StillImage"/>
    <dc:date>2024-08-31T14:00:14.649359</dc:date>
    <dc:format>image/svg+xml</dc:format>
    <dc:creator>
     <cc:Agent>
      <dc:title>Matplotlib v3.8.4, https://matplotlib.org/</dc:title>
     </cc:Agent>
    </dc:creator>
   </cc:Work>
  </rdf:RDF>
 </metadata>
 <defs>
  <style type="text/css">*{stroke-linejoin: round; stroke-linecap: butt}</style>
 </defs>
 <g id="figure_1">
  <g id="patch_1">
   <path d="M 0 348.177812 
L 276.48 348.177812 
L 276.48 0 
L 0 0 
z
" style="fill: #ffffff"/>
  </g>
  <g id="axes_1">
   <g id="patch_2">
    <path d="M 7.2 127.095903 
L 269.28 127.095903 
L 269.28 22.318125 
L 7.2 22.318125 
z
" style="fill: #eaeaf2"/>
   </g>
   <g id="matplotlib.axis_1">
    <g id="xtick_1">
     <g id="line2d_1">
      <path d="M 19.112727 127.095903 
L 19.112727 22.318125 
" clip-path="url(#pa86e5e9279)" style="fill: none; stroke: #ffffff; stroke-linecap: round"/>
     </g>
     <g id="text_1">
      <!-- 0 -->
      <g style="fill: #262626" transform="translate(15.613352 144.954184) scale(0.11 -0.11)">
       <defs>
        <path id="DejaVuSans-30" d="M 2034 4250 
Q 1547 4250 1301 3770 
Q 1056 3291 1056 2328 
Q 1056 1369 1301 889 
Q 1547 409 2034 409 
Q 2525 409 2770 889 
Q 3016 1369 3016 2328 
Q 3016 3291 2770 3770 
Q 2525 4250 2034 4250 
z
M 2034 4750 
Q 2819 4750 3233 4129 
Q 3647 3509 3647 2328 
Q 3647 1150 3233 529 
Q 2819 -91 2034 -91 
Q 1250 -91 836 529 
Q 422 1150 422 2328 
Q 422 3509 836 4129 
Q 1250 4750 2034 4750 
z
" transform="scale(0.015625)"/>
       </defs>
       <use xlink:href="#DejaVuSans-30"/>
      </g>
     </g>
    </g>
    <g id="xtick_2">
     <g id="line2d_2">
      <path d="M 66.763636 127.095903 
L 66.763636 22.318125 
" clip-path="url(#pa86e5e9279)" style="fill: none; stroke: #ffffff; stroke-linecap: round"/>
     </g>
     <g id="text_2">
      <!-- 10 -->
      <g style="fill: #262626" transform="translate(59.764886 144.954184) scale(0.11 -0.11)">
       <defs>
        <path id="DejaVuSans-31" d="M 794 531 
L 1825 531 
L 1825 4091 
L 703 3866 
L 703 4441 
L 1819 4666 
L 2450 4666 
L 2450 531 
L 3481 531 
L 3481 0 
L 794 0 
L 794 531 
z
" transform="scale(0.015625)"/>
       </defs>
       <use xlink:href="#DejaVuSans-31"/>
       <use xlink:href="#DejaVuSans-30" x="63.623047"/>
      </g>
     </g>
    </g>
    <g id="xtick_3">
     <g id="line2d_3">
      <path d="M 114.414545 127.095903 
L 114.414545 22.318125 
" clip-path="url(#pa86e5e9279)" style="fill: none; stroke: #ffffff; stroke-linecap: round"/>
     </g>
     <g id="text_3">
      <!-- 20 -->
      <g style="fill: #262626" transform="translate(107.415795 144.954184) scale(0.11 -0.11)">
       <defs>
        <path id="DejaVuSans-32" d="M 1228 531 
L 3431 531 
L 3431 0 
L 469 0 
L 469 531 
Q 828 903 1448 1529 
Q 2069 2156 2228 2338 
Q 2531 2678 2651 2914 
Q 2772 3150 2772 3378 
Q 2772 3750 2511 3984 
Q 2250 4219 1831 4219 
Q 1534 4219 1204 4116 
Q 875 4013 500 3803 
L 500 4441 
Q 881 4594 1212 4672 
Q 1544 4750 1819 4750 
Q 2544 4750 2975 4387 
Q 3406 4025 3406 3419 
Q 3406 3131 3298 2873 
Q 3191 2616 2906 2266 
Q 2828 2175 2409 1742 
Q 1991 1309 1228 531 
z
" transform="scale(0.015625)"/>
       </defs>
       <use xlink:href="#DejaVuSans-32"/>
       <use xlink:href="#DejaVuSans-30" x="63.623047"/>
      </g>
     </g>
    </g>
    <g id="xtick_4">
     <g id="line2d_4">
      <path d="M 162.065455 127.095903 
L 162.065455 22.318125 
" clip-path="url(#pa86e5e9279)" style="fill: none; stroke: #ffffff; stroke-linecap: round"/>
     </g>
     <g id="text_4">
      <!-- 30 -->
      <g style="fill: #262626" transform="translate(155.066705 144.954184) scale(0.11 -0.11)">
       <defs>
        <path id="DejaVuSans-33" d="M 2597 2516 
Q 3050 2419 3304 2112 
Q 3559 1806 3559 1356 
Q 3559 666 3084 287 
Q 2609 -91 1734 -91 
Q 1441 -91 1130 -33 
Q 819 25 488 141 
L 488 750 
Q 750 597 1062 519 
Q 1375 441 1716 441 
Q 2309 441 2620 675 
Q 2931 909 2931 1356 
Q 2931 1769 2642 2001 
Q 2353 2234 1838 2234 
L 1294 2234 
L 1294 2753 
L 1863 2753 
Q 2328 2753 2575 2939 
Q 2822 3125 2822 3475 
Q 2822 3834 2567 4026 
Q 2313 4219 1838 4219 
Q 1578 4219 1281 4162 
Q 984 4106 628 3988 
L 628 4550 
Q 988 4650 1302 4700 
Q 1616 4750 1894 4750 
Q 2613 4750 3031 4423 
Q 3450 4097 3450 3541 
Q 3450 3153 3228 2886 
Q 3006 2619 2597 2516 
z
" transform="scale(0.015625)"/>
       </defs>
       <use xlink:href="#DejaVuSans-33"/>
       <use xlink:href="#DejaVuSans-30" x="63.623047"/>
      </g>
     </g>
    </g>
    <g id="xtick_5">
     <g id="line2d_5">
      <path d="M 209.716364 127.095903 
L 209.716364 22.318125 
" clip-path="url(#pa86e5e9279)" style="fill: none; stroke: #ffffff; stroke-linecap: round"/>
     </g>
     <g id="text_5">
      <!-- 40 -->
      <g style="fill: #262626" transform="translate(202.717614 144.954184) scale(0.11 -0.11)">
       <defs>
        <path id="DejaVuSans-34" d="M 2419 4116 
L 825 1625 
L 2419 1625 
L 2419 4116 
z
M 2253 4666 
L 3047 4666 
L 3047 1625 
L 3713 1625 
L 3713 1100 
L 3047 1100 
L 3047 0 
L 2419 0 
L 2419 1100 
L 313 1100 
L 313 1709 
L 2253 4666 
z
" transform="scale(0.015625)"/>
       </defs>
       <use xlink:href="#DejaVuSans-34"/>
       <use xlink:href="#DejaVuSans-30" x="63.623047"/>
      </g>
     </g>
    </g>
    <g id="xtick_6">
     <g id="line2d_6">
      <path d="M 257.367273 127.095903 
L 257.367273 22.318125 
" clip-path="url(#pa86e5e9279)" style="fill: none; stroke: #ffffff; stroke-linecap: round"/>
     </g>
     <g id="text_6">
      <!-- 50 -->
      <g style="fill: #262626" transform="translate(250.368523 144.954184) scale(0.11 -0.11)">
       <defs>
        <path id="DejaVuSans-35" d="M 691 4666 
L 3169 4666 
L 3169 4134 
L 1269 4134 
L 1269 2991 
Q 1406 3038 1543 3061 
Q 1681 3084 1819 3084 
Q 2600 3084 3056 2656 
Q 3513 2228 3513 1497 
Q 3513 744 3044 326 
Q 2575 -91 1722 -91 
Q 1428 -91 1123 -41 
Q 819 9 494 109 
L 494 744 
Q 775 591 1075 516 
Q 1375 441 1709 441 
Q 2250 441 2565 725 
Q 2881 1009 2881 1497 
Q 2881 1984 2565 2268 
Q 2250 2553 1709 2553 
Q 1456 2553 1204 2497 
Q 953 2441 691 2322 
L 691 4666 
z
" transform="scale(0.015625)"/>
       </defs>
       <use xlink:href="#DejaVuSans-35"/>
       <use xlink:href="#DejaVuSans-30" x="63.623047"/>
      </g>
     </g>
    </g>
    <g id="text_7">
     <!-- time -->
     <g style="fill: #262626" transform="translate(124.684687 160.359965) scale(0.12 -0.12)">
      <defs>
       <path id="DejaVuSans-74" d="M 1172 4494 
L 1172 3500 
L 2356 3500 
L 2356 3053 
L 1172 3053 
L 1172 1153 
Q 1172 725 1289 603 
Q 1406 481 1766 481 
L 2356 481 
L 2356 0 
L 1766 0 
Q 1100 0 847 248 
Q 594 497 594 1153 
L 594 3053 
L 172 3053 
L 172 3500 
L 594 3500 
L 594 4494 
L 1172 4494 
z
" transform="scale(0.015625)"/>
       <path id="DejaVuSans-69" d="M 603 3500 
L 1178 3500 
L 1178 0 
L 603 0 
L 603 3500 
z
M 603 4863 
L 1178 4863 
L 1178 4134 
L 603 4134 
L 603 4863 
z
" transform="scale(0.015625)"/>
       <path id="DejaVuSans-6d" d="M 3328 2828 
Q 3544 3216 3844 3400 
Q 4144 3584 4550 3584 
Q 5097 3584 5394 3201 
Q 5691 2819 5691 2113 
L 5691 0 
L 5113 0 
L 5113 2094 
Q 5113 2597 4934 2840 
Q 4756 3084 4391 3084 
Q 3944 3084 3684 2787 
Q 3425 2491 3425 1978 
L 3425 0 
L 2847 0 
L 2847 2094 
Q 2847 2600 2669 2842 
Q 2491 3084 2119 3084 
Q 1678 3084 1418 2786 
Q 1159 2488 1159 1978 
L 1159 0 
L 581 0 
L 581 3500 
L 1159 3500 
L 1159 2956 
Q 1356 3278 1631 3431 
Q 1906 3584 2284 3584 
Q 2666 3584 2933 3390 
Q 3200 3197 3328 2828 
z
" transform="scale(0.015625)"/>
       <path id="DejaVuSans-65" d="M 3597 1894 
L 3597 1613 
L 953 1613 
Q 991 1019 1311 708 
Q 1631 397 2203 397 
Q 2534 397 2845 478 
Q 3156 559 3463 722 
L 3463 178 
Q 3153 47 2828 -22 
Q 2503 -91 2169 -91 
Q 1331 -91 842 396 
Q 353 884 353 1716 
Q 353 2575 817 3079 
Q 1281 3584 2069 3584 
Q 2775 3584 3186 3129 
Q 3597 2675 3597 1894 
z
M 3022 2063 
Q 3016 2534 2758 2815 
Q 2500 3097 2075 3097 
Q 1594 3097 1305 2825 
Q 1016 2553 972 2059 
L 3022 2063 
z
" transform="scale(0.015625)"/>
      </defs>
      <use xlink:href="#DejaVuSans-74"/>
      <use xlink:href="#DejaVuSans-69" x="39.208984"/>
      <use xlink:href="#DejaVuSans-6d" x="66.992188"/>
      <use xlink:href="#DejaVuSans-65" x="164.404297"/>
     </g>
    </g>
   </g>
   <g id="matplotlib.axis_2">
    <g id="ytick_1">
     <g id="line2d_7">
      <path d="M 7.2 82.826244 
L 269.28 82.826244 
" clip-path="url(#pa86e5e9279)" style="fill: none; stroke: #ffffff; stroke-linecap: round"/>
     </g>
    </g>
    <g id="ytick_2">
     <g id="line2d_8">
      <path d="M 7.2 35.641263 
L 269.28 35.641263 
" clip-path="url(#pa86e5e9279)" style="fill: none; stroke: #ffffff; stroke-linecap: round"/>
     </g>
    </g>
   </g>
   <g id="line2d_9">
    <path d="M 19.112727 82.826244 
L 20.543686 72.696482 
L 21.974644 64.042706 
L 23.405602 56.685863 
L 24.83656 50.468096 
L 26.267518 45.25025 
L 27.698477 40.909657 
L 29.129435 37.338197 
L 30.560393 34.440581 
L 31.752858 32.47975 
L 32.945324 30.885125 
L 34.137789 29.617789 
L 35.330254 28.642726 
L 36.522719 27.928434 
L 37.715184 27.446573 
L 38.907649 27.171653 
L 40.338608 27.082801 
L 41.769566 27.223793 
L 43.439017 27.637589 
L 45.108468 28.279208 
L 47.016413 29.244284 
L 49.16285 30.569951 
L 51.786274 32.457929 
L 55.125176 35.167505 
L 59.418051 38.968443 
L 67.049828 46.088295 
L 76.351057 54.682444 
L 82.790369 60.326458 
L 88.752695 65.257617 
L 94.476527 69.707057 
L 100.20036 73.87671 
L 105.924193 77.773749 
L 111.648026 81.409736 
L 117.610352 84.934424 
L 123.572678 88.207183 
L 129.773497 91.361339 
L 136.212809 94.386605 
L 142.890614 97.274928 
L 149.806912 100.020302 
L 156.961704 102.618608 
L 164.354988 105.067442 
L 172.225258 107.434278 
L 180.334021 109.638228 
L 188.919771 111.737807 
L 197.982506 113.719763 
L 207.522228 115.57426 
L 217.538935 117.294731 
L 228.271122 118.911237 
L 239.718788 120.409676 
L 252.120426 121.805601 
L 257.367273 122.333277 
L 257.367273 122.333277 
" clip-path="url(#pa86e5e9279)" style="fill: none; stroke: #4c72b0; stroke-width: 2; stroke-linecap: round"/>
   </g>
   <g id="line2d_10">
    <path d="M 40.143636 127.095903 
L 40.143636 22.318125 
" clip-path="url(#pa86e5e9279)" style="fill: none; stroke-dasharray: 1.5,2.475; stroke-dashoffset: 0; stroke: #808080; stroke-width: 1.5"/>
   </g>
   <g id="line2d_11">
    <path d="M 23.780339 127.095903 
L 23.780339 22.318125 
" clip-path="url(#pa86e5e9279)" style="fill: none; stroke-dasharray: 1.5,2.475; stroke-dashoffset: 0; stroke: #ff0000; stroke-width: 1.5"/>
   </g>
   <g id="line2d_12">
    <path d="M 107.106776 127.095903 
L 107.106776 22.318125 
" clip-path="url(#pa86e5e9279)" style="fill: none; stroke-dasharray: 1.5,2.475; stroke-dashoffset: 0; stroke: #0000ff; stroke-width: 1.5"/>
   </g>
   <g id="patch_3">
    <path d="M 7.2 127.095903 
L 7.2 22.318125 
" style="fill: none; stroke: #ffffff; stroke-width: 1.25; stroke-linejoin: miter; stroke-linecap: square"/>
   </g>
   <g id="patch_4">
    <path d="M 269.28 127.095903 
L 269.28 22.318125 
" style="fill: none; stroke: #ffffff; stroke-width: 1.25; stroke-linejoin: miter; stroke-linecap: square"/>
   </g>
   <g id="patch_5">
    <path d="M 7.2 127.095903 
L 269.28 127.095903 
" style="fill: none; stroke: #ffffff; stroke-width: 1.25; stroke-linejoin: miter; stroke-linecap: square"/>
   </g>
   <g id="patch_6">
    <path d="M 7.2 22.318125 
L 269.28 22.318125 
" style="fill: none; stroke: #ffffff; stroke-width: 1.25; stroke-linejoin: miter; stroke-linecap: square"/>
   </g>
   <g id="text_8">
    <!-- $\theta_1$ = 1.60, $\theta_2$ = -0.62 -->
    <g style="fill: #262626" transform="translate(74.82 16.318125) scale(0.12 -0.12)">
     <defs>
      <path id="DejaVuSans-Oblique-3b8" d="M 2913 2219 
L 925 2219 
Q 791 1284 928 888 
Q 1100 400 1566 400 
Q 2034 400 2391 891 
Q 2703 1322 2913 2219 
z
M 3009 2750 
Q 3094 3638 2984 3950 
Q 2813 4444 2353 4444 
Q 1875 4444 1525 3956 
Q 1250 3563 1034 2750 
L 3009 2750 
z
M 2444 4913 
Q 3194 4913 3494 4250 
Q 3794 3591 3566 2422 
Q 3341 1256 2781 594 
Q 2225 -72 1475 -72 
Q 722 -72 425 594 
Q 128 1256 353 2422 
Q 581 3591 1134 4250 
Q 1691 4913 2444 4913 
z
" transform="scale(0.015625)"/>
      <path id="DejaVuSans-20" transform="scale(0.015625)"/>
      <path id="DejaVuSans-3d" d="M 678 2906 
L 4684 2906 
L 4684 2381 
L 678 2381 
L 678 2906 
z
M 678 1631 
L 4684 1631 
L 4684 1100 
L 678 1100 
L 678 1631 
z
" transform="scale(0.015625)"/>
      <path id="DejaVuSans-2e" d="M 684 794 
L 1344 794 
L 1344 0 
L 684 0 
L 684 794 
z
" transform="scale(0.015625)"/>
      <path id="DejaVuSans-36" d="M 2113 2584 
Q 1688 2584 1439 2293 
Q 1191 2003 1191 1497 
Q 1191 994 1439 701 
Q 1688 409 2113 409 
Q 2538 409 2786 701 
Q 3034 994 3034 1497 
Q 3034 2003 2786 2293 
Q 2538 2584 2113 2584 
z
M 3366 4563 
L 3366 3988 
Q 3128 4100 2886 4159 
Q 2644 4219 2406 4219 
Q 1781 4219 1451 3797 
Q 1122 3375 1075 2522 
Q 1259 2794 1537 2939 
Q 1816 3084 2150 3084 
Q 2853 3084 3261 2657 
Q 3669 2231 3669 1497 
Q 3669 778 3244 343 
Q 2819 -91 2113 -91 
Q 1303 -91 875 529 
Q 447 1150 447 2328 
Q 447 3434 972 4092 
Q 1497 4750 2381 4750 
Q 2619 4750 2861 4703 
Q 3103 4656 3366 4563 
z
" transform="scale(0.015625)"/>
      <path id="DejaVuSans-2c" d="M 750 794 
L 1409 794 
L 1409 256 
L 897 -744 
L 494 -744 
L 750 256 
L 750 794 
z
" transform="scale(0.015625)"/>
      <path id="DejaVuSans-2d" d="M 313 2009 
L 1997 2009 
L 1997 1497 
L 313 1497 
L 313 2009 
z
" transform="scale(0.015625)"/>
     </defs>
     <use xlink:href="#DejaVuSans-Oblique-3b8" transform="translate(0 0.234375)"/>
     <use xlink:href="#DejaVuSans-31" transform="translate(61.181641 -16.171875) scale(0.7)"/>
     <use xlink:href="#DejaVuSans-20" transform="translate(108.452148 0.234375)"/>
     <use xlink:href="#DejaVuSans-3d" transform="translate(140.239258 0.234375)"/>
     <use xlink:href="#DejaVuSans-20" transform="translate(224.02832 0.234375)"/>
     <use xlink:href="#DejaVuSans-31" transform="translate(255.81543 0.234375)"/>
     <use xlink:href="#DejaVuSans-2e" transform="translate(319.438477 0.234375)"/>
     <use xlink:href="#DejaVuSans-36" transform="translate(351.225586 0.234375)"/>
     <use xlink:href="#DejaVuSans-30" transform="translate(414.848633 0.234375)"/>
     <use xlink:href="#DejaVuSans-2c" transform="translate(478.47168 0.234375)"/>
     <use xlink:href="#DejaVuSans-20" transform="translate(510.258789 0.234375)"/>
     <use xlink:href="#DejaVuSans-Oblique-3b8" transform="translate(542.045898 0.234375)"/>
     <use xlink:href="#DejaVuSans-32" transform="translate(603.227539 -16.171875) scale(0.7)"/>
     <use xlink:href="#DejaVuSans-20" transform="translate(650.498047 0.234375)"/>
     <use xlink:href="#DejaVuSans-3d" transform="translate(682.285156 0.234375)"/>
     <use xlink:href="#DejaVuSans-20" transform="translate(766.074219 0.234375)"/>
     <use xlink:href="#DejaVuSans-2d" transform="translate(797.861328 0.234375)"/>
     <use xlink:href="#DejaVuSans-30" transform="translate(833.945312 0.234375)"/>
     <use xlink:href="#DejaVuSans-2e" transform="translate(897.568359 0.234375)"/>
     <use xlink:href="#DejaVuSans-36" transform="translate(929.355469 0.234375)"/>
     <use xlink:href="#DejaVuSans-32" transform="translate(992.978516 0.234375)"/>
    </g>
   </g>
   <g id="legend_1">
    <g id="patch_7">
     <path d="M 202.41375 79.555937 
L 261.58 79.555937 
Q 263.78 79.555937 263.78 77.355937 
L 263.78 30.018125 
Q 263.78 27.818125 261.58 27.818125 
L 202.41375 27.818125 
Q 200.21375 27.818125 200.21375 30.018125 
L 200.21375 77.355937 
Q 200.21375 79.555937 202.41375 79.555937 
z
" style="fill: #eaeaf2; opacity: 0.8; stroke: #cccccc; stroke-linejoin: miter"/>
    </g>
    <g id="line2d_13">
     <path d="M 204.61375 36.726406 
L 215.61375 36.726406 
L 226.61375 36.726406 
" style="fill: none; stroke-dasharray: 1.5,2.475; stroke-dashoffset: 0; stroke: #808080; stroke-width: 1.5"/>
    </g>
    <g id="text_9">
     <!-- max -->
     <g style="fill: #262626" transform="translate(235.41375 40.576406) scale(0.11 -0.11)">
      <defs>
       <path id="DejaVuSans-61" d="M 2194 1759 
Q 1497 1759 1228 1600 
Q 959 1441 959 1056 
Q 959 750 1161 570 
Q 1363 391 1709 391 
Q 2188 391 2477 730 
Q 2766 1069 2766 1631 
L 2766 1759 
L 2194 1759 
z
M 3341 1997 
L 3341 0 
L 2766 0 
L 2766 531 
Q 2569 213 2275 61 
Q 1981 -91 1556 -91 
Q 1019 -91 701 211 
Q 384 513 384 1019 
Q 384 1609 779 1909 
Q 1175 2209 1959 2209 
L 2766 2209 
L 2766 2266 
Q 2766 2663 2505 2880 
Q 2244 3097 1772 3097 
Q 1472 3097 1187 3025 
Q 903 2953 641 2809 
L 641 3341 
Q 956 3463 1253 3523 
Q 1550 3584 1831 3584 
Q 2591 3584 2966 3190 
Q 3341 2797 3341 1997 
z
" transform="scale(0.015625)"/>
       <path id="DejaVuSans-78" d="M 3513 3500 
L 2247 1797 
L 3578 0 
L 2900 0 
L 1881 1375 
L 863 0 
L 184 0 
L 1544 1831 
L 300 3500 
L 978 3500 
L 1906 2253 
L 2834 3500 
L 3513 3500 
z
" transform="scale(0.015625)"/>
      </defs>
      <use xlink:href="#DejaVuSans-6d"/>
      <use xlink:href="#DejaVuSans-61" x="97.412109"/>
      <use xlink:href="#DejaVuSans-78" x="158.691406"/>
     </g>
    </g>
    <g id="line2d_14">
     <path d="M 204.61375 52.872344 
L 215.61375 52.872344 
L 226.61375 52.872344 
" style="fill: none; stroke-dasharray: 1.5,2.475; stroke-dashoffset: 0; stroke: #ff0000; stroke-width: 1.5"/>
    </g>
    <g id="text_10">
     <!-- r0 -->
     <g style="fill: #262626" transform="translate(235.41375 56.722344) scale(0.11 -0.11)">
      <defs>
       <path id="DejaVuSans-72" d="M 2631 2963 
Q 2534 3019 2420 3045 
Q 2306 3072 2169 3072 
Q 1681 3072 1420 2755 
Q 1159 2438 1159 1844 
L 1159 0 
L 581 0 
L 581 3500 
L 1159 3500 
L 1159 2956 
Q 1341 3275 1631 3429 
Q 1922 3584 2338 3584 
Q 2397 3584 2469 3576 
Q 2541 3569 2628 3553 
L 2631 2963 
z
" transform="scale(0.015625)"/>
      </defs>
      <use xlink:href="#DejaVuSans-72"/>
      <use xlink:href="#DejaVuSans-30" x="41.113281"/>
     </g>
    </g>
    <g id="line2d_15">
     <path d="M 204.61375 69.018281 
L 215.61375 69.018281 
L 226.61375 69.018281 
" style="fill: none; stroke-dasharray: 1.5,2.475; stroke-dashoffset: 0; stroke: #0000ff; stroke-width: 1.5"/>
    </g>
    <g id="text_11">
     <!-- r1 -->
     <g style="fill: #262626" transform="translate(235.41375 72.868281) scale(0.11 -0.11)">
      <use xlink:href="#DejaVuSans-72"/>
      <use xlink:href="#DejaVuSans-31" x="41.113281"/>
     </g>
    </g>
   </g>
  </g>
  <g id="axes_2">
   <g id="patch_8">
    <path d="M 7.2 305.218125 
L 269.28 305.218125 
L 269.28 200.440347 
L 7.2 200.440347 
z
" style="fill: #eaeaf2"/>
   </g>
   <g id="matplotlib.axis_3">
    <g id="xtick_7">
     <g id="line2d_16">
      <path d="M 19.112727 305.218125 
L 19.112727 200.440347 
" clip-path="url(#p0654072f30)" style="fill: none; stroke: #ffffff; stroke-linecap: round"/>
     </g>
     <g id="text_12">
      <!-- 0 -->
      <g style="fill: #262626" transform="translate(15.613352 323.076406) scale(0.11 -0.11)">
       <use xlink:href="#DejaVuSans-30"/>
      </g>
     </g>
    </g>
    <g id="xtick_8">
     <g id="line2d_17">
      <path d="M 66.763636 305.218125 
L 66.763636 200.440347 
" clip-path="url(#p0654072f30)" style="fill: none; stroke: #ffffff; stroke-linecap: round"/>
     </g>
     <g id="text_13">
      <!-- 10 -->
      <g style="fill: #262626" transform="translate(59.764886 323.076406) scale(0.11 -0.11)">
       <use xlink:href="#DejaVuSans-31"/>
       <use xlink:href="#DejaVuSans-30" x="63.623047"/>
      </g>
     </g>
    </g>
    <g id="xtick_9">
     <g id="line2d_18">
      <path d="M 114.414545 305.218125 
L 114.414545 200.440347 
" clip-path="url(#p0654072f30)" style="fill: none; stroke: #ffffff; stroke-linecap: round"/>
     </g>
     <g id="text_14">
      <!-- 20 -->
      <g style="fill: #262626" transform="translate(107.415795 323.076406) scale(0.11 -0.11)">
       <use xlink:href="#DejaVuSans-32"/>
       <use xlink:href="#DejaVuSans-30" x="63.623047"/>
      </g>
     </g>
    </g>
    <g id="xtick_10">
     <g id="line2d_19">
      <path d="M 162.065455 305.218125 
L 162.065455 200.440347 
" clip-path="url(#p0654072f30)" style="fill: none; stroke: #ffffff; stroke-linecap: round"/>
     </g>
     <g id="text_15">
      <!-- 30 -->
      <g style="fill: #262626" transform="translate(155.066705 323.076406) scale(0.11 -0.11)">
       <use xlink:href="#DejaVuSans-33"/>
       <use xlink:href="#DejaVuSans-30" x="63.623047"/>
      </g>
     </g>
    </g>
    <g id="xtick_11">
     <g id="line2d_20">
      <path d="M 209.716364 305.218125 
L 209.716364 200.440347 
" clip-path="url(#p0654072f30)" style="fill: none; stroke: #ffffff; stroke-linecap: round"/>
     </g>
     <g id="text_16">
      <!-- 40 -->
      <g style="fill: #262626" transform="translate(202.717614 323.076406) scale(0.11 -0.11)">
       <use xlink:href="#DejaVuSans-34"/>
       <use xlink:href="#DejaVuSans-30" x="63.623047"/>
      </g>
     </g>
    </g>
    <g id="xtick_12">
     <g id="line2d_21">
      <path d="M 257.367273 305.218125 
L 257.367273 200.440347 
" clip-path="url(#p0654072f30)" style="fill: none; stroke: #ffffff; stroke-linecap: round"/>
     </g>
     <g id="text_17">
      <!-- 50 -->
      <g style="fill: #262626" transform="translate(250.368523 323.076406) scale(0.11 -0.11)">
       <use xlink:href="#DejaVuSans-35"/>
       <use xlink:href="#DejaVuSans-30" x="63.623047"/>
      </g>
     </g>
    </g>
    <g id="text_18">
     <!-- time -->
     <g style="fill: #262626" transform="translate(124.684687 338.482187) scale(0.12 -0.12)">
      <use xlink:href="#DejaVuSans-74"/>
      <use xlink:href="#DejaVuSans-69" x="39.208984"/>
      <use xlink:href="#DejaVuSans-6d" x="66.992188"/>
      <use xlink:href="#DejaVuSans-65" x="164.404297"/>
     </g>
    </g>
   </g>
   <g id="matplotlib.axis_4">
    <g id="ytick_3">
     <g id="line2d_22">
      <path d="M 7.2 287.906796 
L 269.28 287.906796 
" clip-path="url(#p0654072f30)" style="fill: none; stroke: #ffffff; stroke-linecap: round"/>
     </g>
    </g>
    <g id="ytick_4">
     <g id="line2d_23">
      <path d="M 7.2 244.057266 
L 269.28 244.057266 
" clip-path="url(#p0654072f30)" style="fill: none; stroke: #ffffff; stroke-linecap: round"/>
     </g>
    </g>
   </g>
   <g id="line2d_24">
    <path d="M 19.112727 244.057266 
L 20.543686 234.413351 
L 21.974644 226.297856 
L 23.167109 220.650798 
L 24.359574 215.969518 
L 25.552039 212.205207 
L 26.506011 209.819612 
L 27.459984 207.961012 
L 28.413956 206.601719 
L 29.129435 205.893027 
L 29.844914 205.437441 
L 30.560393 205.222963 
L 31.275872 205.237584 
L 31.991351 205.469321 
L 32.70683 205.906241 
L 33.660803 206.787505 
L 34.614775 207.984703 
L 35.80724 209.883894 
L 37.238198 212.684879 
L 38.907649 216.562678 
L 40.815594 221.638357 
L 43.200524 228.682205 
L 46.77792 240.049848 
L 52.501753 258.254258 
L 55.363669 266.639472 
L 57.987093 273.635292 
L 60.372023 279.322859 
L 62.51846 283.849205 
L 64.426405 287.385356 
L 66.334349 290.460242 
L 68.242293 293.080175 
L 69.911744 295.009961 
L 71.581196 296.614755 
L 73.250647 297.910525 
L 74.920098 298.915638 
L 76.58955 299.650328 
L 78.259001 300.136193 
L 79.928452 300.395738 
L 81.836396 300.44474 
L 83.744341 300.262642 
L 85.890778 299.823865 
L 88.275708 299.100701 
L 91.137625 297.987941 
L 94.953514 296.243697 
L 106.162686 290.958237 
L 109.978575 289.479011 
L 113.555971 288.33056 
L 117.133366 287.426882 
L 120.710762 286.763832 
L 124.288157 286.324032 
L 128.104046 286.071037 
L 132.396921 286.005544 
L 137.643767 286.157572 
L 145.037052 286.620016 
L 162.20855 287.76278 
L 171.032793 288.078796 
L 180.811007 288.194564 
L 194.882097 288.107934 
L 227.078657 287.866679 
L 257.367273 287.896217 
L 257.367273 287.896217 
" clip-path="url(#p0654072f30)" style="fill: none; stroke: #4c72b0; stroke-width: 2; stroke-linecap: round"/>
   </g>
   <g id="line2d_25">
    <path d="M 30.869727 305.218125 
L 30.869727 200.440347 
" clip-path="url(#p0654072f30)" style="fill: none; stroke-dasharray: 1.5,2.475; stroke-dashoffset: 0; stroke: #808080; stroke-width: 1.5"/>
   </g>
   <g id="line2d_26">
    <path d="M 22.305901 305.218125 
L 22.305901 200.440347 
" clip-path="url(#p0654072f30)" style="fill: none; stroke-dasharray: 1.5,2.475; stroke-dashoffset: 0; stroke: #ff0000; stroke-width: 1.5"/>
   </g>
   <g id="line2d_27">
    <path d="M 48.78749 305.218125 
L 48.78749 200.440347 
" clip-path="url(#p0654072f30)" style="fill: none; stroke-dasharray: 1.5,2.475; stroke-dashoffset: 0; stroke: #0000ff; stroke-width: 1.5"/>
   </g>
   <g id="patch_9">
    <path d="M 7.2 305.218125 
L 7.2 200.440347 
" style="fill: none; stroke: #ffffff; stroke-width: 1.25; stroke-linejoin: miter; stroke-linecap: square"/>
   </g>
   <g id="patch_10">
    <path d="M 269.28 305.218125 
L 269.28 200.440347 
" style="fill: none; stroke: #ffffff; stroke-width: 1.25; stroke-linejoin: miter; stroke-linecap: square"/>
   </g>
   <g id="patch_11">
    <path d="M 7.2 305.218125 
L 269.28 305.218125 
" style="fill: none; stroke: #ffffff; stroke-width: 1.25; stroke-linejoin: miter; stroke-linecap: square"/>
   </g>
   <g id="patch_12">
    <path d="M 7.2 200.440347 
L 269.28 200.440347 
" style="fill: none; stroke: #ffffff; stroke-width: 1.25; stroke-linejoin: miter; stroke-linecap: square"/>
   </g>
   <g id="text_19">
    <!-- $\theta_1$ = 1.60, $\theta_2$ = -0.70 -->
    <g style="fill: #262626" transform="translate(75.3 194.440347) scale(0.12 -0.12)">
     <defs>
      <path id="DejaVuSans-37" d="M 525 4666 
L 3525 4666 
L 3525 4397 
L 1831 0 
L 1172 0 
L 2766 4134 
L 525 4134 
L 525 4666 
z
" transform="scale(0.015625)"/>
     </defs>
     <use xlink:href="#DejaVuSans-Oblique-3b8" transform="translate(0 0.234375)"/>
     <use xlink:href="#DejaVuSans-31" transform="translate(61.181641 -16.171875) scale(0.7)"/>
     <use xlink:href="#DejaVuSans-20" transform="translate(108.452148 0.234375)"/>
     <use xlink:href="#DejaVuSans-3d" transform="translate(140.239258 0.234375)"/>
     <use xlink:href="#DejaVuSans-20" transform="translate(224.02832 0.234375)"/>
     <use xlink:href="#DejaVuSans-31" transform="translate(255.81543 0.234375)"/>
     <use xlink:href="#DejaVuSans-2e" transform="translate(319.438477 0.234375)"/>
     <use xlink:href="#DejaVuSans-36" transform="translate(351.225586 0.234375)"/>
     <use xlink:href="#DejaVuSans-30" transform="translate(414.848633 0.234375)"/>
     <use xlink:href="#DejaVuSans-2c" transform="translate(478.47168 0.234375)"/>
     <use xlink:href="#DejaVuSans-20" transform="translate(510.258789 0.234375)"/>
     <use xlink:href="#DejaVuSans-Oblique-3b8" transform="translate(542.045898 0.234375)"/>
     <use xlink:href="#DejaVuSans-32" transform="translate(603.227539 -16.171875) scale(0.7)"/>
     <use xlink:href="#DejaVuSans-20" transform="translate(650.498047 0.234375)"/>
     <use xlink:href="#DejaVuSans-3d" transform="translate(682.285156 0.234375)"/>
     <use xlink:href="#DejaVuSans-20" transform="translate(766.074219 0.234375)"/>
     <use xlink:href="#DejaVuSans-2d" transform="translate(797.861328 0.234375)"/>
     <use xlink:href="#DejaVuSans-30" transform="translate(833.945312 0.234375)"/>
     <use xlink:href="#DejaVuSans-2e" transform="translate(897.568359 0.234375)"/>
     <use xlink:href="#DejaVuSans-37" transform="translate(921.605469 0.234375)"/>
     <use xlink:href="#DejaVuSans-30" transform="translate(985.228516 0.234375)"/>
    </g>
   </g>
   <g id="legend_2">
    <g id="patch_13">
     <path d="M 202.41375 257.67816 
L 261.58 257.67816 
Q 263.78 257.67816 263.78 255.47816 
L 263.78 208.140347 
Q 263.78 205.940347 261.58 205.940347 
L 202.41375 205.940347 
Q 200.21375 205.940347 200.21375 208.140347 
L 200.21375 255.47816 
Q 200.21375 257.67816 202.41375 257.67816 
z
" style="fill: #eaeaf2; opacity: 0.8; stroke: #cccccc; stroke-linejoin: miter"/>
    </g>
    <g id="line2d_28">
     <path d="M 204.61375 214.848628 
L 215.61375 214.848628 
L 226.61375 214.848628 
" style="fill: none; stroke-dasharray: 1.5,2.475; stroke-dashoffset: 0; stroke: #808080; stroke-width: 1.5"/>
    </g>
    <g id="text_20">
     <!-- max -->
     <g style="fill: #262626" transform="translate(235.41375 218.698628) scale(0.11 -0.11)">
      <use xlink:href="#DejaVuSans-6d"/>
      <use xlink:href="#DejaVuSans-61" x="97.412109"/>
      <use xlink:href="#DejaVuSans-78" x="158.691406"/>
     </g>
    </g>
    <g id="line2d_29">
     <path d="M 204.61375 230.994566 
L 215.61375 230.994566 
L 226.61375 230.994566 
" style="fill: none; stroke-dasharray: 1.5,2.475; stroke-dashoffset: 0; stroke: #ff0000; stroke-width: 1.5"/>
    </g>
    <g id="text_21">
     <!-- r0 -->
     <g style="fill: #262626" transform="translate(235.41375 234.844566) scale(0.11 -0.11)">
      <use xlink:href="#DejaVuSans-72"/>
      <use xlink:href="#DejaVuSans-30" x="41.113281"/>
     </g>
    </g>
    <g id="line2d_30">
     <path d="M 204.61375 247.140503 
L 215.61375 247.140503 
L 226.61375 247.140503 
" style="fill: none; stroke-dasharray: 1.5,2.475; stroke-dashoffset: 0; stroke: #0000ff; stroke-width: 1.5"/>
    </g>
    <g id="text_22">
     <!-- r1 -->
     <g style="fill: #262626" transform="translate(235.41375 250.990503) scale(0.11 -0.11)">
      <use xlink:href="#DejaVuSans-72"/>
      <use xlink:href="#DejaVuSans-31" x="41.113281"/>
     </g>
    </g>
   </g>
  </g>
 </g>
 <defs>
  <clipPath id="pa86e5e9279">
   <rect x="7.2" y="22.318125" width="262.08" height="104.777778"/>
  </clipPath>
  <clipPath id="p0654072f30">
   <rect x="7.2" y="200.440347" width="262.08" height="104.777778"/>
  </clipPath>
 </defs>
</svg>
